<svg id="Bakground" xmlns="http://www.w3.org/2000/svg" width="3840" height="2160" viewBox="0 0 3840 2160"><path d="M3840,195.1V0H1806.29C2129.28,4.51,2847,56.66,2926,236.66c23.53,53.64,24.93,94.12,9.75,125.33C2834.06,571.08,2447,582.06,2072.38,766.39c-581.91,286.33-410.26,634-897.85,811.61-454.76,165.65-804-144.89-1161.13,93-4.54,3-9,6.11-13.4,9.22V2160H3840V1243.58c-57.92-78.57-92.15-139.84-87.52-224.81,22.45-412.74-331.42-367.88-348-595.18C3391.5,246.2,3654.12,189.38,3840,195.1Z" fill="#ebeff2"/><path d="M3840,103.44V0H1508.13c308.2,4.51,1405.39-23,1476.51,289.05,5.07,22.25,3.81,46-5.11,75C2886.31,668.15,2436.47,638.37,1965.76,987,1579.5,1273.09,1602.4,1517.06,1239,1626c-233.21,69.91-459,51-459,51-261.24-21.88-436.92-127.1-656.39-42A533.91,533.91,0,0,0,0,1703.2V2160H3840V1329.9c-44-30.85-100-80.24-131.58-153.9-44.23-103.15,4.24-149.51-9.63-246-33.65-234-363.64-273.9-375.49-510-3.05-60.73,16.46-104.44,22.47-117C3443.2,99.43,3815.25,102.93,3840,103.44Z" fill="#f4f7fa"/></svg>