<svg width="26" height="26" viewBox="0 0 26 26" fill="none" xmlns="http://www.w3.org/2000/svg">
<path d="M9.33333 4.1875H8.11111C6.05243 4.1875 4.44444 5.78246 4.44444 7.75V9.1416C4.44444 9.45644 4.31573 9.75836 4.0866 9.98102L2.35807 11.6613C1.88064 12.1252 1.88064 12.8767 2.35807 13.3405L4.08675 15.0201C4.31573 15.2424 4.44444 15.543 4.44444 15.8584V17.25C4.44444 19.2175 6.08604 20.8125 8.11111 20.8125H9.33333C10.0094 20.8125 10.5556 20.2818 10.5556 19.625C10.5556 18.9682 10.0094 18.4375 9.33333 18.4375H8.11111C7.43889 18.4375 6.88889 17.9031 6.88889 17.25V15.8584C6.88889 14.914 6.50274 14.0081 5.81524 13.3402L4.95052 12.5L5.81486 11.6606C6.50313 10.9934 6.88889 10.0842 6.88889 9.1416V7.75C6.88889 7.09687 7.43889 6.5625 8.11111 6.5625H9.33333C10.0094 6.5625 10.5556 6.03072 10.5556 5.375C10.5556 4.71928 10.0094 4.1875 9.33333 4.1875Z" fill="#528FC8"/>
<path opacity="0.4" d="M23.641 11.6613L21.9127 9.98213C21.6854 9.75762 21.5556 9.42363 21.5556 9.1416V7.75C21.5556 5.78246 19.914 4.1875 17.8889 4.1875H16.6667C15.9906 4.1875 15.4445 4.71928 15.4445 5.3416C15.4445 5.96393 15.9906 6.5625 16.6323 6.5625H17.8889C18.5611 6.5625 19.1111 7.09687 19.1111 7.75V9.1416C19.1111 10.086 19.4973 10.9919 20.1848 11.6598L21.0514 12.5L20.1867 13.3402C19.4969 14.0066 19.1111 14.9121 19.1111 15.8584V17.25C19.1111 17.9031 18.5611 18.4375 17.8889 18.4375H16.6667C15.9906 18.4375 15.4445 18.9682 15.4445 19.5916C15.4445 20.215 15.9906 20.8125 16.6323 20.8125H17.8889C19.914 20.8125 21.5556 19.2175 21.5556 17.25V15.8584C21.5556 15.5436 21.6843 15.2416 21.9134 15.019L23.6421 13.3394C24.1184 12.8748 24.1184 12.1252 23.641 11.6613Z" fill="#528FC8"/>
</svg>
