<svg width="26" height="26" viewBox="0 0 26 26" fill="none" xmlns="http://www.w3.org/2000/svg">
<path d="M22 2.5H4C2.34297 2.5 1 3.84297 1 5.5V11.5H25V5.5C25 3.84297 23.6547 2.5 22 2.5ZM7 7.9375C7 8.24687 6.74687 8.5 6.4375 8.5H4.5625C4.25219 8.5 4 8.24687 4 7.9375V6.0625C4 5.75312 4.25219 5.5 4.5625 5.5H6.4375C6.74687 5.5 7 5.75312 7 6.0625V7.9375ZM22 7.9375C22 8.24687 21.7469 8.5 21.4375 8.5H9.0625C8.75313 8.5 8.5 8.24687 8.5 7.9375V6.0625C8.5 5.75312 8.75313 5.5 9.0625 5.5H21.4375C21.7469 5.5 22 5.75312 22 6.0625V7.9375Z" fill="#528FC8"/>
<path opacity="0.4" d="M1 11.5V20.5C1 22.157 2.34297 23.5 4 23.5H22C23.657 23.5 25 22.157 25 20.5V11.5H1ZM4.5625 8.5H6.4375C6.74687 8.5 7 8.24688 7 7.9375V6.0625C7 5.75313 6.74687 5.5 6.4375 5.5H4.5625C4.25219 5.5 4 5.75313 4 6.0625V7.9375C4 8.24688 4.25219 8.5 4.5625 8.5Z" fill="#528FC8"/>
</svg>
