<svg width="26" height="26" viewBox="0 0 26 26" fill="none" xmlns="http://www.w3.org/2000/svg">
<path d="M5 14.375V15.75C5 17.2702 6.26703 18.5 7.83333 18.5H10.6667V21.25C10.6667 22.7702 11.9337 24 13.5 24C15.0663 24 16.3333 22.7702 16.3333 21.25V18.5H19.1667C20.733 18.5 22 17.2702 22 15.75V14.375H5ZM13.5 22.2812C12.9134 22.2812 12.4375 21.8193 12.4375 21.25C12.4375 20.6807 12.9134 20.2188 13.5 20.2188C14.0866 20.2188 14.5625 20.6807 14.5625 21.25C14.5625 21.8193 14.0888 22.2812 13.5 22.2812Z" fill="#528FC8"/>
<path opacity="0.4" d="M22 3.375V14.375H5V3.375C5 2.61789 5.63661 2 6.41667 2H7.83333L9.25 4.75L10.6667 2H12.0833L13.5 4.75L14.9167 2H20.5833C21.3625 2 22 2.61789 22 3.375Z" fill="#528FC8"/>
</svg>
