<svg width="20" height="20" viewBox="0 0 20 20" fill="none" xmlns="http://www.w3.org/2000/svg">
<path fill-rule="evenodd" clip-rule="evenodd" d="M19.6339 0.366117C20.122 0.854272 20.122 1.64573 19.6339 2.13388L2.13388 19.6339C1.64573 20.122 0.854272 20.122 0.366117 19.6339C-0.122039 19.1457 -0.122039 18.3543 0.366117 17.8661L17.8661 0.366117C18.3543 -0.122039 19.1457 -0.122039 19.6339 0.366117Z" fill="#E2DDDD"/>
<path fill-rule="evenodd" clip-rule="evenodd" d="M0.366117 0.366117C-0.122039 0.854272 -0.122039 1.64573 0.366117 2.13388L17.8661 19.6339C18.3543 20.122 19.1457 20.122 19.6339 19.6339C20.122 19.1457 20.122 18.3543 19.6339 17.8661L2.13388 0.366117C1.64573 -0.122039 0.854272 -0.122039 0.366117 0.366117Z" fill="#E2DDDD"/>
</svg>
