<svg xmlns="http://www.w3.org/2000/svg" xmlns:xlink="http://www.w3.org/1999/xlink" width="471.51" height="295.21" viewBox="0 0 471.51 295.21"><defs><linearGradient id="linear-gradient" x1="251.81" y1="113.48" x2="89.96" y2="310.51" gradientUnits="userSpaceOnUse"><stop offset="0" stop-color="#ff9085"/><stop offset="1" stop-color="#fb6fbb"/></linearGradient><linearGradient id="linear-gradient-2" x1="171.52" y1="76.31" x2="49.04" y2="225.41" gradientUnits="userSpaceOnUse"><stop offset="0" stop-color="#aa80f9"/><stop offset="1" stop-color="#6165d7"/></linearGradient><linearGradient id="linear-gradient-3" x1="387.82" y1="33.1" x2="266.16" y2="181.21" xlink:href="#linear-gradient-2"/><linearGradient id="linear-gradient-4" x1="376.58" y1="7.37" x2="290.72" y2="111.89" xlink:href="#linear-gradient"/><linearGradient id="linear-gradient-5" x1="374.08" y1="91.57" x2="273.91" y2="213.52" xlink:href="#linear-gradient"/><linearGradient id="linear-gradient-6" x1="436.65" y1="145.13" x2="392.43" y2="198.96" xlink:href="#linear-gradient-2"/><linearGradient id="linear-gradient-7" x1="-3304.67" y1="171.59" x2="-3192.22" y2="171.59" gradientTransform="matrix(-1, 0, 0, 1, -2800.38, 0)" gradientUnits="userSpaceOnUse"><stop offset="0" stop-color="#e38ddd"/><stop offset="1" stop-color="#9571f6"/></linearGradient><linearGradient id="linear-gradient-8" x1="-3214.2" y1="189.05" x2="-3235.18" y2="301.37" xlink:href="#linear-gradient-7"/><linearGradient id="linear-gradient-9" x1="140.57" y1="118.57" x2="78.19" y2="80.78" xlink:href="#linear-gradient"/><linearGradient id="linear-gradient-10" x1="162.64" y1="20.62" x2="146.52" y2="114.34" xlink:href="#linear-gradient"/><linearGradient id="linear-gradient-11" x1="113.45" y1="0.21" x2="134.34" y2="106.39" gradientUnits="userSpaceOnUse"><stop offset="0" stop-color="#ffc444"/><stop offset="1" stop-color="#f36f56"/></linearGradient><linearGradient id="linear-gradient-12" x1="179.53" y1="-9.32" x2="199.95" y2="94.5" xlink:href="#linear-gradient-11"/><linearGradient id="linear-gradient-13" x1="125.57" y1="-1.2" x2="145.97" y2="102.47" xlink:href="#linear-gradient-11"/><linearGradient id="linear-gradient-14" x1="107.24" y1="0.42" x2="128.35" y2="107.72" xlink:href="#linear-gradient-11"/><linearGradient id="linear-gradient-15" x1="183.65" y1="-9.45" x2="203.82" y2="93.03" xlink:href="#linear-gradient-11"/><linearGradient id="linear-gradient-16" x1="171.91" y1="-6.88" x2="191.96" y2="95.02" xlink:href="#linear-gradient-11"/><linearGradient id="linear-gradient-17" x1="186.1" y1="-9.71" x2="206.29" y2="92.93" xlink:href="#linear-gradient-11"/><linearGradient id="linear-gradient-18" x1="128.93" y1="-2.35" x2="149.75" y2="103.45" xlink:href="#linear-gradient-11"/><linearGradient id="linear-gradient-19" x1="151.9" y1="-3.51" x2="172.05" y2="98.87" xlink:href="#linear-gradient-11"/><linearGradient id="linear-gradient-20" x1="145.04" y1="-4.18" x2="165.16" y2="98.05" xlink:href="#linear-gradient-11"/><linearGradient id="linear-gradient-21" x1="112.12" y1="-0.04" x2="133.21" y2="107.14" xlink:href="#linear-gradient-11"/><linearGradient id="linear-gradient-22" x1="165.28" y1="-8.09" x2="186.56" y2="100.08" xlink:href="#linear-gradient-11"/><linearGradient id="linear-gradient-23" x1="99.87" y1="63.54" x2="92.1" y2="108.66" xlink:href="#linear-gradient-11"/><linearGradient id="linear-gradient-24" x1="297.31" y1="214.91" x2="297.31" y2="242.74" gradientUnits="userSpaceOnUse"><stop offset="0.49" stop-color="#ebeff2"/><stop offset="1" stop-color="#fff"/></linearGradient><linearGradient id="linear-gradient-25" x1="221.04" y1="13.42" x2="339.33" y2="230.39" gradientUnits="userSpaceOnUse"><stop offset="0" stop-color="#444b8c"/><stop offset="1" stop-color="#26264f"/></linearGradient><linearGradient id="linear-gradient-26" x1="229.55" y1="29.25" x2="250.78" y2="158.68" gradientTransform="matrix(1, 0, 0, 1, 0, 0)" xlink:href="#linear-gradient-7"/><linearGradient id="linear-gradient-27" x1="218.5" y1="66.96" x2="268.29" y2="66.96" xlink:href="#linear-gradient"/><linearGradient id="linear-gradient-28" x1="218.5" y1="71.87" x2="268.29" y2="71.87" xlink:href="#linear-gradient"/><linearGradient id="linear-gradient-29" x1="209.76" y1="86.36" x2="245.13" y2="86.36" xlink:href="#linear-gradient"/><linearGradient id="linear-gradient-30" x1="230" y1="29.33" x2="249.43" y2="147.75" gradientTransform="matrix(1, 0, 0, 1, 0, 0)" xlink:href="#linear-gradient-7"/><linearGradient id="linear-gradient-31" x1="198.19" y1="56.3" x2="233.54" y2="56.3" xlink:href="#linear-gradient"/><linearGradient id="linear-gradient-32" x1="218.5" y1="165.06" x2="268.29" y2="165.06" xlink:href="#linear-gradient"/><linearGradient id="linear-gradient-33" x1="218.5" y1="169.97" x2="268.29" y2="169.97" xlink:href="#linear-gradient"/><linearGradient id="linear-gradient-34" x1="241.25" y1="174.03" x2="289.75" y2="174.03" xlink:href="#linear-gradient"/><linearGradient id="linear-gradient-35" x1="245.1" y1="54.53" x2="260.28" y2="147.03" gradientTransform="matrix(1, 0, 0, 1, 0, 0)" xlink:href="#linear-gradient-7"/><linearGradient id="linear-gradient-36" x1="198.19" y1="155.98" x2="233.54" y2="155.98" xlink:href="#linear-gradient"/><linearGradient id="linear-gradient-37" x1="209.76" y1="106.16" x2="260.05" y2="106.16" xlink:href="#linear-gradient"/><linearGradient id="linear-gradient-38" x1="218.5" y1="116.04" x2="268.29" y2="116.04" xlink:href="#linear-gradient"/><linearGradient id="linear-gradient-39" x1="218.5" y1="120.94" x2="268.29" y2="120.94" xlink:href="#linear-gradient"/><linearGradient id="linear-gradient-40" x1="198.28" y1="126.1" x2="230.18" y2="126.1" xlink:href="#linear-gradient"/><linearGradient id="linear-gradient-41" x1="224.84" y1="37.16" x2="242.48" y2="144.66" gradientTransform="matrix(1, 0, 0, 1, 0, 0)" xlink:href="#linear-gradient-7"/><linearGradient id="linear-gradient-42" x1="218.5" y1="140.59" x2="263.51" y2="140.59" xlink:href="#linear-gradient"/><linearGradient id="linear-gradient-43" x1="229.02" y1="145.29" x2="273.49" y2="145.29" xlink:href="#linear-gradient"/><linearGradient id="linear-gradient-44" x1="229.02" y1="150.17" x2="273.49" y2="150.17" xlink:href="#linear-gradient"/><linearGradient id="linear-gradient-45" x1="204.6" y1="32.54" x2="224.15" y2="151.67" gradientTransform="matrix(1, 0, 0, 1, 0, 0)" xlink:href="#linear-gradient-7"/><linearGradient id="linear-gradient-46" x1="298.7" y1="50.65" x2="410.95" y2="256.53" xlink:href="#linear-gradient-11"/><linearGradient id="linear-gradient-47" x1="281.21" y1="127.6" x2="411.38" y2="127.6" xlink:href="#linear-gradient-11"/><linearGradient id="linear-gradient-48" x1="307.72" y1="112.93" x2="334.14" y2="179.7" xlink:href="#linear-gradient"/><linearGradient id="linear-gradient-49" x1="324.09" y1="123.19" x2="264.35" y2="216.67" xlink:href="#linear-gradient-2"/><linearGradient id="linear-gradient-50" x1="320.92" y1="169.6" x2="289.67" y2="218.5" xlink:href="#linear-gradient-25"/><linearGradient id="linear-gradient-51" x1="379.29" y1="127.42" x2="340.94" y2="201.24" xlink:href="#linear-gradient-25"/><linearGradient id="linear-gradient-52" x1="289.37" y1="152.39" x2="288.41" y2="246.78" xlink:href="#linear-gradient-2"/><linearGradient id="linear-gradient-53" x1="367.24" y1="145.05" x2="322.31" y2="215.38" xlink:href="#linear-gradient-2"/><linearGradient id="linear-gradient-54" x1="170.59" y1="97.97" x2="231.72" y2="97.97" xlink:href="#linear-gradient-11"/><linearGradient id="linear-gradient-55" x1="204.96" y1="83.12" x2="190.47" y2="128.2" xlink:href="#linear-gradient"/><linearGradient id="linear-gradient-56" x1="208.54" y1="83.99" x2="193.82" y2="129.8" xlink:href="#linear-gradient"/><linearGradient id="linear-gradient-57" x1="214.71" y1="85.71" x2="199.82" y2="132.04" xlink:href="#linear-gradient"/><linearGradient id="linear-gradient-58" x1="218.68" y1="86.76" x2="203.55" y2="133.83" xlink:href="#linear-gradient"/><linearGradient id="linear-gradient-59" x1="225.28" y1="88.6" x2="209.98" y2="136.18" xlink:href="#linear-gradient"/><linearGradient id="linear-gradient-60" x1="-1527.81" y1="106.17" x2="-1521" y2="114.74" gradientTransform="matrix(-1, 0, 0, 1, -1332.28, 0)" xlink:href="#linear-gradient-11"/><linearGradient id="linear-gradient-61" x1="-1497.97" y1="119.54" x2="-1493.33" y2="100.99" gradientTransform="matrix(-1, 0, 0, 1, -1332.28, 0)" xlink:href="#linear-gradient-11"/><linearGradient id="linear-gradient-62" x1="-1624.78" y1="-37.86" x2="-1622.58" y2="-35.91" gradientTransform="matrix(-0.99, -0.14, -0.14, 0.99, -1452.9, -27.47)" xlink:href="#linear-gradient-25"/><linearGradient id="linear-gradient-63" x1="-2547.93" y1="-35.92" x2="-2547.93" y2="-39.75" gradientTransform="matrix(-0.99, -0.14, -0.14, 0.99, -2369.1, -156.99)" xlink:href="#linear-gradient-11"/><linearGradient id="linear-gradient-64" x1="-1624.56" y1="-38.11" x2="-1622.36" y2="-36.15" gradientTransform="matrix(-0.99, -0.14, -0.14, 0.99, -1452.9, -27.47)" xlink:href="#linear-gradient-25"/><linearGradient id="linear-gradient-65" x1="-1509.11" y1="163.72" x2="-1506.91" y2="165.68" gradientTransform="matrix(-1, 0, 0, 1, -1332.28, 0)" xlink:href="#linear-gradient-25"/><linearGradient id="linear-gradient-66" x1="-2432.31" y1="165.69" x2="-2432.31" y2="161.85" gradientTransform="matrix(-1, 0, 0, 1, -2257.59, 0)" xlink:href="#linear-gradient-11"/><linearGradient id="linear-gradient-67" x1="184.17" y1="145.41" x2="155.52" y2="138.35" xlink:href="#linear-gradient"/><linearGradient id="linear-gradient-68" x1="-1487.81" y1="122.64" x2="-1518.6" y2="101.23" gradientTransform="matrix(-1, 0, 0, 1, -1332.28, 0)" xlink:href="#linear-gradient-11"/><linearGradient id="linear-gradient-69" x1="-1508.89" y1="163.48" x2="-1506.69" y2="165.43" gradientTransform="matrix(-1, 0, 0, 1, -1332.28, 0)" xlink:href="#linear-gradient-25"/><linearGradient id="linear-gradient-70" x1="168.98" y1="101.15" x2="173.55" y2="92.21" xlink:href="#linear-gradient-11"/><linearGradient id="linear-gradient-71" x1="-1506.45" y1="93.53" x2="-1494.53" y2="108.52" gradientTransform="matrix(-1, 0, 0, 1, -1332.28, 0)" xlink:href="#linear-gradient-11"/><linearGradient id="linear-gradient-72" x1="-1488.13" y1="126.27" x2="-1522.8" y2="102.17" gradientTransform="matrix(-1, 0, 0, 1, -1332.28, 0)" xlink:href="#linear-gradient-11"/><linearGradient id="linear-gradient-73" x1="-2069.09" y1="477.39" x2="-2068.09" y2="490.14" gradientTransform="matrix(-1, 0.09, 0.09, 1, -1940.76, -20.19)" gradientUnits="userSpaceOnUse"><stop offset="0" stop-color="#311944"/><stop offset="1" stop-color="#a03976"/></linearGradient><linearGradient id="linear-gradient-74" x1="-2066.5" y1="484.49" x2="-2066.68" y2="471.28" gradientTransform="matrix(-1, 0.09, 0.09, 1, -1940.76, -20.19)" xlink:href="#linear-gradient-11"/><linearGradient id="linear-gradient-75" x1="-2050.15" y1="475.9" x2="-2049.15" y2="488.65" xlink:href="#linear-gradient-73"/><linearGradient id="linear-gradient-76" x1="-2049.15" y1="484.25" x2="-2049.33" y2="471.04" gradientTransform="matrix(-1, 0.09, 0.09, 1, -1940.76, -20.19)" xlink:href="#linear-gradient-11"/><linearGradient id="linear-gradient-77" x1="-2069.65" y1="463.09" x2="-2059.89" y2="463.09" gradientTransform="matrix(-1, 0.09, 0.09, 1, -1940.76, -20.19)" xlink:href="#linear-gradient-2"/><linearGradient id="linear-gradient-78" x1="-2069.65" y1="463.09" x2="-2059.89" y2="463.09" gradientTransform="matrix(-1, 0.09, 0.09, 1, -1940.76, -20.19)" xlink:href="#linear-gradient-2"/><linearGradient id="linear-gradient-79" x1="-2066.94" y1="462.13" x2="-2047.29" y2="462.13" gradientTransform="matrix(-1, 0.09, 0.09, 1, -1940.76, -20.19)" xlink:href="#linear-gradient-2"/><linearGradient id="linear-gradient-80" x1="154.26" y1="223.8" x2="142.3" y2="256.84" xlink:href="#linear-gradient-11"/><linearGradient id="linear-gradient-81" x1="139.88" y1="218.6" x2="127.92" y2="251.64" xlink:href="#linear-gradient-11"/><linearGradient id="linear-gradient-82" x1="1691.96" y1="880.9" x2="1691.96" y2="873.01" gradientTransform="matrix(-0.81, 0.59, 0.59, 0.81, 988.06, -1486.09)" xlink:href="#linear-gradient-11"/><linearGradient id="linear-gradient-83" x1="-974.33" y1="1309.16" x2="-977.68" y2="1300.65" gradientTransform="matrix(-0.99, 0.14, 0.14, 0.99, -1000.49, -941.79)" gradientUnits="userSpaceOnUse"><stop offset="0" stop-color="#444b8c"/><stop offset="1" stop-color="#3e4177"/></linearGradient><linearGradient id="linear-gradient-84" x1="1686.38" y1="878.63" x2="1690.07" y2="871.46" gradientTransform="matrix(-0.81, 0.59, 0.59, 0.81, 988.06, -1486.09)" xlink:href="#linear-gradient-11"/><linearGradient id="linear-gradient-85" x1="-1564.38" y1="923.38" x2="-1535.57" y2="923.38" gradientTransform="translate(1242.19 -1187.71) rotate(-21.67)" xlink:href="#linear-gradient-11"/><linearGradient id="linear-gradient-86" x1="-1536.48" y1="924.37" x2="-1523.19" y2="924.37" gradientTransform="translate(1242.19 -1187.71) rotate(-21.67)" xlink:href="#linear-gradient-11"/><linearGradient id="linear-gradient-87" x1="-3362.81" y1="900.98" x2="-3362.03" y2="896.52" gradientTransform="matrix(0.81, -0.59, 0.59, 0.81, 2317.6, -2462.55)" xlink:href="#linear-gradient-11"/><linearGradient id="linear-gradient-88" x1="170.86" y1="229.89" x2="170.36" y2="251.83" xlink:href="#linear-gradient-11"/><linearGradient id="linear-gradient-89" x1="223.52" y1="210.87" x2="207.46" y2="291.17" xlink:href="#linear-gradient-2"/><linearGradient id="linear-gradient-90" x1="191.74" y1="213.49" x2="249.22" y2="213.49" gradientUnits="userSpaceOnUse"><stop offset="0" stop-color="#d8dee8"/><stop offset="0.49" stop-color="#ebeff2"/><stop offset="1" stop-color="#fff"/></linearGradient><linearGradient id="linear-gradient-91" x1="194.12" y1="198.17" x2="206.86" y2="198.17" gradientUnits="userSpaceOnUse"><stop offset="0" stop-color="#311944"/><stop offset="1" stop-color="#893976"/></linearGradient><linearGradient id="linear-gradient-92" x1="247.07" y1="190.53" x2="235.15" y2="195.04" xlink:href="#linear-gradient-91"/><linearGradient id="linear-gradient-93" x1="191.87" y1="214.03" x2="203.35" y2="208.5" xlink:href="#linear-gradient-91"/><linearGradient id="linear-gradient-94" x1="199.98" y1="230.81" x2="206.05" y2="219.6" xlink:href="#linear-gradient-91"/><linearGradient id="linear-gradient-95" x1="818.51" y1="806.62" x2="807.51" y2="800.19" gradientTransform="matrix(0.85, -0.53, 0.53, 0.85, -869.36, -52.8)" xlink:href="#linear-gradient-91"/><linearGradient id="linear-gradient-96" x1="246.12" y1="225.5" x2="236.65" y2="216.97" xlink:href="#linear-gradient-91"/><linearGradient id="linear-gradient-97" x1="221.68" y1="194.09" x2="221.31" y2="231.6" xlink:href="#linear-gradient-91"/><linearGradient id="linear-gradient-98" x1="227.61" y1="168.24" x2="224.6" y2="182.56" xlink:href="#linear-gradient-11"/><linearGradient id="linear-gradient-99" x1="218.65" y1="209.94" x2="239.76" y2="219.74" xlink:href="#linear-gradient-11"/><linearGradient id="linear-gradient-100" x1="211.08" y1="193.98" x2="210.7" y2="231.49" xlink:href="#linear-gradient-11"/><linearGradient id="linear-gradient-101" x1="235.56" y1="190.9" x2="236.3" y2="123.97" xlink:href="#linear-gradient-11"/><linearGradient id="linear-gradient-102" x1="206.29" y1="190.58" x2="207.03" y2="123.64" xlink:href="#linear-gradient-11"/><linearGradient id="linear-gradient-103" x1="191.74" y1="213.57" x2="249.22" y2="213.57" xlink:href="#linear-gradient-90"/><linearGradient id="linear-gradient-104" x1="307.82" y1="214.62" x2="308.37" y2="222.16" gradientTransform="matrix(1, -0.01, 0.01, 1, -28.79, -14.6)" xlink:href="#linear-gradient-91"/><linearGradient id="linear-gradient-105" x1="286.41" y1="186.55" x2="287.1" y2="196.03" xlink:href="#linear-gradient-91"/><linearGradient id="linear-gradient-106" x1="327.29" y1="258.98" x2="329.21" y2="271.08" xlink:href="#linear-gradient-91"/><linearGradient id="linear-gradient-107" x1="314.97" y1="242.31" x2="331.52" y2="242.31" xlink:href="#linear-gradient-25"/><linearGradient id="linear-gradient-108" x1="314.97" y1="242.31" x2="329.95" y2="242.31" xlink:href="#linear-gradient-25"/><linearGradient id="linear-gradient-109" x1="320.47" y1="258.99" x2="322.76" y2="273.4" xlink:href="#linear-gradient-91"/><linearGradient id="linear-gradient-110" x1="309.71" y1="242.5" x2="323.9" y2="242.5" xlink:href="#linear-gradient-25"/><linearGradient id="linear-gradient-111" x1="1147.24" y1="921.04" x2="1150.47" y2="965.51" gradientTransform="matrix(0.95, -0.31, 0.31, 0.95, -1075.55, -330.95)" xlink:href="#linear-gradient-2"/><linearGradient id="linear-gradient-112" x1="304.4" y1="193.24" x2="307.63" y2="237.71" xlink:href="#linear-gradient-2"/><linearGradient id="linear-gradient-113" x1="302.99" y1="203.01" x2="303.68" y2="208.45" xlink:href="#linear-gradient-91"/><linearGradient id="linear-gradient-114" x1="-605.88" y1="202.1" x2="-606.46" y2="195.15" gradientTransform="matrix(-1, 0, 0, 1, -303.85, 0)" gradientUnits="userSpaceOnUse"><stop offset="0" stop-color="#26264f"/><stop offset="1" stop-color="#444b8c"/></linearGradient><linearGradient id="linear-gradient-115" x1="-609.48" y1="197.59" x2="-604.13" y2="203.23" gradientTransform="matrix(-1, 0, 0, 1, -303.85, 0)" xlink:href="#linear-gradient-91"/><linearGradient id="linear-gradient-116" x1="283.62" y1="219.79" x2="329.08" y2="219.79" xlink:href="#linear-gradient-2"/><linearGradient id="linear-gradient-117" x1="405.84" y1="198.6" x2="409.87" y2="198.6" xlink:href="#linear-gradient-11"/><linearGradient id="linear-gradient-118" x1="418.59" y1="191.01" x2="419.84" y2="213.95" xlink:href="#linear-gradient-11"/><linearGradient id="linear-gradient-119" x1="277.52" y1="152.16" x2="408.28" y2="152.16" xlink:href="#linear-gradient-25"/><linearGradient id="linear-gradient-120" x1="400.17" y1="272.55" x2="401.42" y2="263.88" xlink:href="#linear-gradient-25"/><linearGradient id="linear-gradient-121" x1="403.16" y1="267.77" x2="407.96" y2="246.11" xlink:href="#linear-gradient-11"/><linearGradient id="linear-gradient-122" x1="426.67" y1="247.76" x2="402.56" y2="254.08" xlink:href="#linear-gradient-25"/><linearGradient id="linear-gradient-123" x1="426.47" y1="246.98" x2="402.35" y2="253.3" xlink:href="#linear-gradient-25"/><linearGradient id="linear-gradient-124" x1="404.72" y1="199.55" x2="406.83" y2="199.55" xlink:href="#linear-gradient-11"/><linearGradient id="linear-gradient-125" x1="386.01" y1="270.51" x2="387.26" y2="261.84" xlink:href="#linear-gradient-25"/><linearGradient id="linear-gradient-126" x1="389.39" y1="264.72" x2="394.19" y2="243.06" xlink:href="#linear-gradient-11"/><linearGradient id="linear-gradient-127" x1="413.98" y1="251.23" x2="389.16" y2="247.8" xlink:href="#linear-gradient-25"/><linearGradient id="linear-gradient-128" x1="72.38" y1="210.26" x2="67.82" y2="217.65" gradientTransform="matrix(-0.93, -0.37, -0.37, 0.93, 570.78, 40.84)" xlink:href="#linear-gradient-11"/><linearGradient id="linear-gradient-129" x1="426.95" y1="223.5" x2="469.12" y2="223.5" xlink:href="#linear-gradient-91"/><linearGradient id="linear-gradient-130" x1="424.98" y1="214.37" x2="419.82" y2="244.65" xlink:href="#linear-gradient-11"/><linearGradient id="linear-gradient-131" x1="407.09" y1="227.73" x2="440.45" y2="227.73" xlink:href="#linear-gradient"/><linearGradient id="linear-gradient-132" x1="318.14" y1="77.38" x2="343.76" y2="77.38" xlink:href="#linear-gradient-25"/></defs><g style="isolation:isolate"><g id="Warstwa_1" data-name="Warstwa 1"><path d="M264.59,233.17c-32.26,1-55.41,3.79-84.93,7.38-24.89,3-112.53,13.71-112.17,23.08.31,7.83,61.88,10.12,61.86,18.47,0,4.41-17.23,6.18-17.08,9.23.25,5.09,48.65,10,108.47,6.92,59-3,70.16-10.83,138.48-18.92,88.11-10.44,133.18-5,133.86-12,.86-8.83-70.33-24.7-129.25-30.93A742.81,742.81,0,0,0,264.59,233.17Z" transform="translate(-54.57 -4)" fill="#ebeff2"/><path d="M266.9,237.78c-7.17,1-18,3.1-36,4.85-7.9.77-26.4,2.38-45.7,4.16C171.55,248,164,248.79,164,250c-.05,2.11,22.18,3.38,22.15,5.07-.06,3.39-89.36.54-90.24,9-.43,4.18,20.77,10.36,37.62,13.15,26.28,4.36,46.5,1.23,79.39-4.15,61.48-10.06,59.69-10.25,75-12.47,63.5-9.16,93.91-5.73,94.17-9.69C382.44,245.11,316.8,230.59,266.9,237.78Z" transform="translate(-54.57 -4)" fill="#d8dee8"/><path d="M174.35,282.56c-1.43-5.45-38.23-3.41-39,2.08-.44,3.11,10.51,9.05,21.46,7.84C166,291.47,175.12,285.48,174.35,282.56Z" transform="translate(-54.57 -4)" fill="#d8dee8"/><path d="M338.91,265.48c-13.4-3.88-29.68-.26-29.77,3.23-.09,3.07,12.28,6.76,23.08,5.77,5.92-.54,13.6-2.7,13.61-5.08C345.84,267.49,340.84,266,338.91,265.48Z" transform="translate(-54.57 -4)" fill="#d8dee8"/><path d="M399.15,262.48c-14.23-1.15-29.59,2.16-29.55,4.85s16.23,5.21,30.24,4.15c6.29-.47,16.8-2,16.85-4.15S406.86,263.1,399.15,262.48Z" transform="translate(-54.57 -4)" fill="#d8dee8"/><polygon points="332.81 198.89 23.84 217.53 53.52 170.87 351.09 162.49 332.81 198.89" opacity="0.3" fill="url(#linear-gradient)" style="mix-blend-mode:multiply"/><polygon points="222.37 152.02 0 155.86 31.59 109.03 245.2 112.21 222.37 152.02" opacity="0.24" fill="url(#linear-gradient-2)"/><polygon points="456.4 109.19 207.51 103.97 230.88 64.59 471.51 77.39 456.4 109.19" opacity="0.24" fill="url(#linear-gradient-3)"/><polygon points="427.86 65.55 245.44 54.18 261.68 26.62 439.65 41.92 427.86 65.55" opacity="0.3" fill="url(#linear-gradient-4)" style="mix-blend-mode:multiply"/><polygon points="425.98 150.37 230.48 153.91 248.06 123 438.47 124.33 425.98 150.37" opacity="0.53" fill="url(#linear-gradient-5)" style="mix-blend-mode:multiply"/><polygon points="456.85 169.92 375.97 174.88 382.63 161.49 462.58 157.54 456.85 169.92" opacity="0.24" fill="url(#linear-gradient-6)"/><path d="M414.14,244.8c-4.36-1.51-11.71-4.05-16.85-11.1-9.35-12.83-5.33-32.22,2-44.38,6.3-10.44,17.48-17,39.85-30,21.06-12.28,28.14-13.51,30.2-21.42,2.93-11.26-8.49-20.15-3.1-32.78.65-1.52,2.87-6.73,7.77-8.53,8.39-3.1,18.74,5.94,23.5,12.51,4.59,6.32,9.36,17.77,5.12,26.72-3.08,6.48-8.27,6.15-9.59,12.17s3.51,8.22,5.42,18.34c.76,4,2.29,12.16-1.52,18.95-4.92,8.78-14.3,7.4-16.3,14.78-1.44,5.34,3,7.8,2.66,14-.44,8.19-8.65,13.91-15.54,18.57C459.66,238.16,437.76,253,414.14,244.8Z" transform="translate(-54.57 -4)" fill="url(#linear-gradient-7)"/><path d="M477.06,100.2c-4.51,3.09,8.36,17.1,4.55,35.44-4.1,19.72-25,32.42-34.68,38.28-16.49,10-23.46,7.8-34.11,19.14-4.22,4.49-13,13.84-12.13,26.91.08,1.22,1.18,14.75,11.56,21.23,11.77,7.35,26.52,0,39.23-6.25,7.68-3.81,23-11.41,22-19.9-.63-5.2-7.24-9.53-12.7-10.81-7.78-1.82-14.27,2.31-15,.95s4-5.76,10.43-9.1c12.76-6.67,19.32-1.73,28.8-8,1.15-.75,10.18-6.86,10.43-16.29.14-5.44-2.63-12.13-7-13.27-5-1.29-9.84,5.06-11,4s2.71-7.46,7.39-13.27c6.89-8.53,9.94-8.6,12.51-14,3.92-8.26,1-16.95.57-18.19C493.82,105.42,480.92,97.56,477.06,100.2Z" transform="translate(-54.57 -4)" fill="#fff" opacity="0.16" style="mix-blend-mode:screen"/><path d="M416.94,248.36c-2.29,2.67-19.61-.19-29.28-9.28-1.94-1.82-5.44-5.11-6.22-9.88-.94-5.82,3.24-7.25,2.73-13.48-.47-5.71-4.1-5.78-4.88-12.84-.3-2.64-.9-8,3.2-10.8,2.37-1.62,4.3-1,5.41-2.46,2-2.66-3.6-5.45-3.69-11,0-3,1.62-5.25,5-9.74,3-4.09,4.75-6.39,7.85-6.92,4.56-.79,7,3.11,10.1,2.27,5-1.37.53-12.12,7.81-17,4.64-3.14,11.62-2.28,12.87-2.1,13.42,1.89,25,17.27,20.93,27.86-3.22,8.35-15,10.64-14.53,19.14.16,2.95,1.68,4.38,1,8.15-.9,4.86-4.49,8.27-6.41,10-7.26,6.74-13.88,6.31-15,10.81-.72,2.83,1.82,3.37,1.54,7.94-.25,4.17-2.44,4.89-2.78,8.35C411.92,243.6,418.5,246.55,416.94,248.36Z" transform="translate(-54.57 -4)" fill="url(#linear-gradient-8)"/><path d="M436.76,152c4.76,1.31,7.86,7.28,8.53,11.75.95,6.39-2.51,13.58-8,17.06-8.49,5.4-17.92-.65-21.61,4.54a8.22,8.22,0,0,0,.76,9.67c3.94,3.88,12.19-1.17,14.4,1.89,1.58,2.2-.55,7.68-4.36,10.81-7.61,6.24-19.55,1.14-21,4.92-.35.9,1.09,3.63,4,9.1,2.18,4.13,2.64,4.55,2.65,5.88,0,4-4.17,5-4.55,8.9-.44,4.56,4.71,7.77,4,8.72S404.18,244,400,239.77c-9.92-9.93-5.25-29.35-3.6-36.2C403,176,424.61,148.67,436.76,152Z" transform="translate(-54.57 -4)" fill="#fff" opacity="0.16" style="mix-blend-mode:screen"/><path d="M137.85,104.4H136a14.35,14.35,0,0,0-.66-2.48l1.63-.93a.92.92,0,0,0,.34-1.27l-1.61-2.81a.94.94,0,0,0-1.28-.35l-1.65.93a15.73,15.73,0,0,0-1.82-1.83l1-1.64a1,1,0,0,0-.34-1.29l-2.82-1.66a.93.93,0,0,0-1.28.33l-1,1.65a14.91,14.91,0,0,0-2.5-.7V90.41a1,1,0,0,0-.94-1l-3.28-.06a.94.94,0,0,0-1,.93v1.93a15.11,15.11,0,0,0-2.51.63l-1-1.69a1,1,0,0,0-1.31-.37l-2.87,1.59a.92.92,0,0,0-.35,1.28l1,1.69a15.14,15.14,0,0,0-1.86,1.81l-1.7-1a1,1,0,0,0-1.32.33l-1.67,2.82a.94.94,0,0,0,.35,1.3l1.7,1a14.34,14.34,0,0,0-.69,2.51l-2,0a1,1,0,0,0-1,.95v3.28a1,1,0,0,0,1,1h1.94a15.2,15.2,0,0,0,.68,2.53l-1.67.94a.94.94,0,0,0-.35,1.3l1.67,2.84a1,1,0,0,0,1.32.35l1.65-.94a15.73,15.73,0,0,0,1.88,1.86l-.95,1.62a.93.93,0,0,0,.35,1.29l2.87,1.63a1,1,0,0,0,1.31-.35l.94-1.61a14.48,14.48,0,0,0,2.55.67v1.86a.94.94,0,0,0,1,.93H123a.94.94,0,0,0,.94-.94v-1.84a15.06,15.06,0,0,0,2.54-.68l.93,1.59a.93.93,0,0,0,1.28.34l2.82-1.62a.92.92,0,0,0,.34-1.27l-.93-1.6a14.54,14.54,0,0,0,1.84-1.84l1.6.93a.93.93,0,0,0,1.28-.34l1.61-2.78a.93.93,0,0,0-.34-1.28l-1.61-.93a14.71,14.71,0,0,0,.66-2.49h1.87a.92.92,0,0,0,.93-.92v-3.22A1,1,0,0,0,137.85,104.4Zm-16.47-7a9.64,9.64,0,0,1,9.54,9.57,9.47,9.47,0,0,1-9.54,9.43,9.63,9.63,0,0,1-9.65-9.57A9.48,9.48,0,0,1,121.38,97.37Z" transform="translate(-54.57 -4)" fill="url(#linear-gradient-9)"/><path d="M184.37,45.21l-3-.09a22.83,22.83,0,0,0-1.05-3.83l2.58-1.37a1.38,1.38,0,0,0,.54-1.93l-2.54-4.37a1.54,1.54,0,0,0-2-.59l-2.62,1.38a23.66,23.66,0,0,0-2.87-2.88L174.94,29a1.44,1.44,0,0,0-.54-2L170,24.4a1.51,1.51,0,0,0-2,.45l-1.53,2.5a24.73,24.73,0,0,0-4-1.15v-3a1.55,1.55,0,0,0-1.51-1.51l-5.22-.21a1.42,1.42,0,0,0-1.51,1.4v3a24.12,24.12,0,0,0-4,.86l-1.56-2.64a1.61,1.61,0,0,0-2.09-.62l-4.59,2.35a1.4,1.4,0,0,0-.57,2l1.58,2.65a22.12,22.12,0,0,0-3,2.73l-2.73-1.59a1.56,1.56,0,0,0-2.11.46l-2.68,4.31a1.46,1.46,0,0,0,.56,2L135.69,40a21.65,21.65,0,0,0-1.1,3.86l-3.14-.08a1.46,1.46,0,0,0-1.56,1.43v5.09a1.56,1.56,0,0,0,1.56,1.5l3.11.08a23,23,0,0,0,1.09,3.94L133,57.21a1.41,1.41,0,0,0-.56,2l2.68,4.44a1.6,1.6,0,0,0,2.11.57l2.65-1.41a24.41,24.41,0,0,0,3,2.92l-1.52,2.49a1.43,1.43,0,0,0,.57,2l4.59,2.59a1.57,1.57,0,0,0,2.09-.51l1.49-2.46a25.37,25.37,0,0,0,4.09,1.09v2.86a1.51,1.51,0,0,0,1.51,1.47l5.22,0a1.45,1.45,0,0,0,1.51-1.43V71a25.22,25.22,0,0,0,4-1l1.46,2.47a1.55,1.55,0,0,0,2,.55l4.45-2.43a1.4,1.4,0,0,0,.54-2l-1.47-2.48a23,23,0,0,0,2.9-2.77l2.54,1.46a1.49,1.49,0,0,0,2-.49l2.54-4.23a1.44,1.44,0,0,0-.54-2l-2.54-1.48a21.73,21.73,0,0,0,1-3.8l2.94.07a1.41,1.41,0,0,0,1.47-1.39V46.67A1.5,1.5,0,0,0,184.37,45.21ZM158.3,33.86c8.39.28,15.13,7,15.13,15S166.69,63.3,158.3,63.16s-15.4-6.88-15.4-15S149.83,33.58,158.3,33.86Z" transform="translate(-54.57 -4)" fill="url(#linear-gradient-10)"/><path d="M158.3,4.06c-25.91-1.29-47.47,18-47.47,43.19s21.56,45.56,47.47,45.58c25.19,0,45.1-19.34,45.1-43.25S183.49,5.31,158.3,4.06Zm0,78.16c-19.65-.13-35.89-15.66-35.89-34.68s16.24-33.73,35.89-32.87c19.23.85,34.52,16.35,34.52,34.65S177.53,82.34,158.3,82.22Z" transform="translate(-54.57 -4)" fill="#fff" opacity="0.74"/><path d="M126.82,64l-10,5.27A47.23,47.23,0,0,0,133,85.68l5.68-9.29A35.78,35.78,0,0,1,126.82,64Z" transform="translate(-54.57 -4)" fill="url(#linear-gradient-11)"/><path d="M186.69,30.13,196,25.24A47.48,47.48,0,0,0,181.05,11l-5.41,8.86A36.29,36.29,0,0,1,186.69,30.13Z" transform="translate(-54.57 -4)" fill="url(#linear-gradient-12)"/><path d="M129,28.06a33.5,33.5,0,0,1,11.63-9.63L135,8.87A44.19,44.19,0,0,0,119,22.26Z" transform="translate(-54.57 -4)" fill="url(#linear-gradient-13)"/><path d="M122.41,47.54c0-.4,0-.81,0-1.21L110.85,46c0,.41,0,.81,0,1.22a43.63,43.63,0,0,0,5,20.22l10-5.28A33,33,0,0,1,122.41,47.54Z" transform="translate(-54.57 -4)" fill="url(#linear-gradient-14)"/><path d="M192.82,49.32a32.09,32.09,0,0,1-3.19,14l9.23,5.36a42,42,0,0,0,4.54-19.08c0-.38,0-.77,0-1.16l-10.59-.27C192.8,48.54,192.82,48.93,192.82,49.32Z" transform="translate(-54.57 -4)" opacity="0.25" fill="url(#linear-gradient-15)"/><path d="M188.72,65.05a33.24,33.24,0,0,1-11.17,11.72L183,85.91a43.78,43.78,0,0,0,15-15.52Z" transform="translate(-54.57 -4)" opacity="0.25" fill="url(#linear-gradient-16)"/><path d="M187.81,31.82a33.29,33.29,0,0,1,4.85,14.35l10.62.29A43.87,43.87,0,0,0,197,27Z" transform="translate(-54.57 -4)" fill="url(#linear-gradient-17)"/><path d="M157.25,82.19a36.79,36.79,0,0,1-16.8-4.71l-5.67,9.27a48.49,48.49,0,0,0,22.47,6.07Z" transform="translate(-54.57 -4)" opacity="0.25" fill="url(#linear-gradient-18)"/><path d="M175.8,77.8a35.27,35.27,0,0,1-16.46,4.4V92.82a46.48,46.48,0,0,0,21.88-5.88Z" transform="translate(-54.57 -4)" opacity="0.25" fill="url(#linear-gradient-19)"/><path d="M142.5,17.54a35.74,35.74,0,0,1,14.75-2.89V4a46.93,46.93,0,0,0-20.41,4Z" transform="translate(-54.57 -4)" fill="url(#linear-gradient-20)"/><path d="M122.58,44.28a31.83,31.83,0,0,1,5.21-14.56l-10-5.77A41.84,41.84,0,0,0,111,44Z" transform="translate(-54.57 -4)" fill="url(#linear-gradient-21)"/><path d="M159.34,14.75a36.71,36.71,0,0,1,14.49,4.11L179.26,10a48.45,48.45,0,0,0-19.92-5.85Z" transform="translate(-54.57 -4)" fill="url(#linear-gradient-22)"/><path d="M110.3,74.93h-1.45a11.26,11.26,0,0,0-.51-1.83l1.25-.71a.68.68,0,0,0,.27-.94l-1.24-2.07a.72.72,0,0,0-1-.24l-1.28.71A10.93,10.93,0,0,0,105,68.53l.74-1.23a.69.69,0,0,0-.27-1l-2.16-1.19a.74.74,0,0,0-1,.26l-.75,1.23a10.88,10.88,0,0,0-1.91-.47V64.75a.71.71,0,0,0-.72-.7H96.41a.71.71,0,0,0-.73.7v1.43a12.4,12.4,0,0,0-1.93.49L93,65.45a.75.75,0,0,0-1-.26l-2.19,1.22a.68.68,0,0,0-.27,1l.75,1.24A11.34,11.34,0,0,0,88.88,70l-1.3-.7a.75.75,0,0,0-1,.26l-1.28,2.1a.69.69,0,0,0,.27,1l1.29.69a10.68,10.68,0,0,0-.52,1.86l-1.49,0a.72.72,0,0,0-.74.7v2.42a.72.72,0,0,0,.74.7l1.48,0a9.64,9.64,0,0,0,.51,1.86l-1.27.72a.69.69,0,0,0-.27,1l1.28,2.07a.75.75,0,0,0,1,.25l1.26-.71a12.16,12.16,0,0,0,1.43,1.35l-.72,1.2a.68.68,0,0,0,.27,1L92,88.77a.78.78,0,0,0,1-.27l.71-1.2a11.67,11.67,0,0,0,2,.47v1.37a.69.69,0,0,0,.73.68l2.51,0a.72.72,0,0,0,.72-.71V87.71a12.74,12.74,0,0,0,2-.53l.71,1.17a.72.72,0,0,0,1,.24l2.16-1.23a.69.69,0,0,0,.27-1L105,85.23a12.18,12.18,0,0,0,1.41-1.37l1.24.67a.75.75,0,0,0,1-.27l1.24-2.08a.69.69,0,0,0-.27-1l-1.23-.67a10.29,10.29,0,0,0,.5-1.85h1.44A.72.72,0,0,0,111,78V75.61A.69.69,0,0,0,110.3,74.93Zm-12.64-5a7.11,7.11,0,0,1,7.31,7A7.27,7.27,0,0,1,97.66,84a7.12,7.12,0,0,1-7.37-7A7.28,7.28,0,0,1,97.66,69.93Z" transform="translate(-54.57 -4)" fill="url(#linear-gradient-23)"/><path d="M322.9,241.44a11.84,11.84,0,0,1-7.85-8.92l-5.83-28.87-49.91,1.77-6.14,30.08c-.86,4.21,2.58,8.44,6.55,10l20.88,8.17a27,27,0,0,0,12.2,1.77l44.13-3.77a2.74,2.74,0,0,0,2.47-2.43c.15-1.3,1.06-2.76-.17-3.17Z" transform="translate(-54.57 -4)" fill="#97a6b7"/><path d="M323.39,239.68a11.74,11.74,0,0,1-7.84-8.8l-5.83-28.51L261,204.12l-6.13,29.7a8.68,8.68,0,0,0,5.37,9.86l20.86,8.07a27.43,27.43,0,0,0,12.2,1.75l44.08-3.73a2.72,2.72,0,0,0,.62-5.29Z" transform="translate(-54.57 -4)" fill="url(#linear-gradient-24)"/><path d="M157.33,222.84c-5.41.32-9.84-3.19-9.84-7.83V47.78c0-4.64,4.43-8.22,9.84-8L408.7,57.19c4,.18,6.11-3,6.11.92V200.33a7.72,7.72,0,0,1-7.19,7.59Z" transform="translate(-54.57 -4)" fill="#97a6b7"/><path d="M159.58,222.84c-5.41.32-9.84-3.19-9.84-7.83V47.78c0-4.64,4.43-8.22,9.84-8L409.86,50.64a7.57,7.57,0,0,1,7.2,7.47V200.33a7.73,7.73,0,0,1-7.2,7.59Z" transform="translate(-54.57 -4)" fill="#fff"/><path d="M409.86,54,159.58,43.69c-2.89-.12-5.24,1.79-5.24,4.27v166.8c0,2.48,2.35,4.35,5.24,4.18l250.28-14.37a4.13,4.13,0,0,0,3.86-4V58A4.05,4.05,0,0,0,409.86,54Z" transform="translate(-54.57 -4)" fill="#d8dee8" opacity="0.3" style="mix-blend-mode:multiply"/><path d="M408,192.54,162.29,204.67c-2.57.12-4.67-1.58-4.67-3.81V50.15c0-2.23,2.1-4,4.67-3.87L408,55.4A3.65,3.65,0,0,1,411.49,59V188.88A3.7,3.7,0,0,1,408,192.54Z" transform="translate(-54.57 -4)" fill="url(#linear-gradient-25)"/><polygon points="169.02 58.2 112.91 56.55 112.91 51.2 169.02 53.01 169.02 58.2" fill="#fff" opacity="0.6" style="mix-blend-mode:soft-light"/><polygon points="195.45 57.5 182.48 57.1 182.48 53.45 195.45 53.87 195.45 57.5" fill="#fff" opacity="0.36" style="mix-blend-mode:soft-light"/><polygon points="195.45 62.54 182.48 62.18 182.48 58.53 195.45 58.91 195.45 62.54" fill="#fff" opacity="0.36" style="mix-blend-mode:soft-light"/><polygon points="260.05 64.31 209.76 62.93 209.76 59.33 260.05 60.81 260.05 64.31" fill="url(#linear-gradient-26)"/><polygon points="268.29 69.36 218.5 68.14 218.5 64.56 268.29 65.89 268.29 69.36" opacity="0.5" fill="url(#linear-gradient-27)"/><polygon points="268.29 74.19 218.5 73.12 218.5 69.54 268.29 70.72 268.29 74.19" opacity="0.5" fill="url(#linear-gradient-28)"/><polygon points="268.29 79.02 218.5 78.09 218.5 74.51 268.29 75.55 268.29 79.02" fill="#fff" opacity="0.6" style="mix-blend-mode:soft-light"/><polygon points="195.45 67.58 182.48 67.26 182.48 63.61 195.45 63.95 195.45 67.58" fill="#fff" opacity="0.36" style="mix-blend-mode:soft-light"/><polygon points="195.45 72.62 182.48 72.34 182.48 68.69 195.45 68.99 195.45 72.62" fill="#fff" opacity="0.36" style="mix-blend-mode:soft-light"/><polygon points="195.45 77.66 182.48 77.42 182.48 73.76 195.45 74.03 195.45 77.66" fill="#fff" opacity="0.36" style="mix-blend-mode:soft-light"/><polygon points="195.45 82.7 182.48 82.5 182.48 78.84 195.45 79.07 195.45 82.7" fill="#fff" opacity="0.36" style="mix-blend-mode:soft-light"/><polygon points="230.18 83.25 198.28 82.75 198.28 79.13 230.18 79.7 230.18 83.25" fill="#fff" opacity="0.6" style="mix-blend-mode:soft-light"/><polygon points="195.45 87.74 182.48 87.58 182.48 83.92 195.45 84.12 195.45 87.74" fill="#fff" opacity="0.36" style="mix-blend-mode:soft-light"/><polygon points="195.45 92.78 182.48 92.66 182.48 89 195.45 89.16 195.45 92.78" fill="#fff" opacity="0.36" style="mix-blend-mode:soft-light"/><polygon points="195.45 97.83 182.48 97.73 182.48 94.08 195.45 94.2 195.45 97.83" fill="#fff" opacity="0.36" style="mix-blend-mode:soft-light"/><polygon points="245.13 88.39 209.76 87.93 209.76 84.33 245.13 84.86 245.13 88.39" opacity="0.5" fill="url(#linear-gradient-29)"/><polygon points="263.51 93.47 218.5 93.02 218.5 89.44 263.51 89.98 263.51 93.47" fill="#fff" opacity="0.6" style="mix-blend-mode:soft-light"/><polygon points="263.51 98.31 218.5 97.99 218.5 94.41 263.51 94.83 263.51 98.31" fill="url(#linear-gradient-30)"/><polygon points="195.45 102.87 182.48 102.81 182.48 99.16 195.45 99.24 195.45 102.87" fill="#fff" opacity="0.36" style="mix-blend-mode:soft-light"/><polygon points="195.45 107.91 182.48 107.89 182.48 104.24 195.45 104.28 195.45 107.91" fill="#fff" opacity="0.36" style="mix-blend-mode:soft-light"/><polygon points="195.45 112.95 182.48 112.97 182.48 109.31 195.45 109.32 195.45 112.95" fill="#fff" opacity="0.36" style="mix-blend-mode:soft-light"/><polygon points="195.45 117.99 182.48 118.05 182.48 114.39 195.45 114.36 195.45 117.99" fill="#fff" opacity="0.36" style="mix-blend-mode:soft-light"/><polygon points="195.45 123.03 182.48 123.13 182.48 119.47 195.45 119.4 195.45 123.03" fill="#fff" opacity="0.36" style="mix-blend-mode:soft-light"/><polygon points="195.45 128.07 182.48 128.21 182.48 124.55 195.45 124.44 195.45 128.07" fill="#fff" opacity="0.36" style="mix-blend-mode:soft-light"/><polygon points="195.45 133.11 182.48 133.28 182.48 129.63 195.45 129.49 195.45 133.11" fill="#fff" opacity="0.36" style="mix-blend-mode:soft-light"/><polygon points="195.45 138.16 182.48 138.36 182.48 134.71 195.45 134.53 195.45 138.16" fill="#fff" opacity="0.36" style="mix-blend-mode:soft-light"/><polygon points="195.45 143.2 182.48 143.44 182.48 139.79 195.45 139.57 195.45 143.2" fill="#fff" opacity="0.36" style="mix-blend-mode:soft-light"/><polygon points="195.45 148.24 182.48 148.52 182.48 144.86 195.45 144.61 195.45 148.24" fill="#fff" opacity="0.36" style="mix-blend-mode:soft-light"/><polygon points="195.45 153.28 182.48 153.6 182.48 149.94 195.45 149.65 195.45 153.28" fill="#fff" opacity="0.36" style="mix-blend-mode:soft-light"/><polygon points="195.45 158.32 182.48 158.68 182.48 155.02 195.45 154.69 195.45 158.32" fill="#fff" opacity="0.36" style="mix-blend-mode:soft-light"/><polygon points="195.45 163.36 182.48 163.76 182.48 160.1 195.45 159.73 195.45 163.36" fill="#fff" opacity="0.36" style="mix-blend-mode:soft-light"/><polygon points="195.45 168.4 182.48 168.83 182.48 165.18 195.45 164.77 195.45 168.4" fill="#fff" opacity="0.36" style="mix-blend-mode:soft-light"/><polygon points="195.45 173.44 182.48 173.91 182.48 170.26 195.45 169.81 195.45 173.44" fill="#fff" opacity="0.36" style="mix-blend-mode:soft-light"/><polygon points="195.45 178.48 182.48 178.99 182.48 175.34 195.45 174.86 195.45 178.48" fill="#fff" opacity="0.36" style="mix-blend-mode:soft-light"/><polygon points="195.45 183.53 182.48 184.07 182.48 180.41 195.45 179.9 195.45 183.53" fill="#fff" opacity="0.36" style="mix-blend-mode:soft-light"/><polygon points="195.45 188.57 182.48 189.15 182.48 185.49 195.45 184.94 195.45 188.57" fill="#fff" opacity="0.36" style="mix-blend-mode:soft-light"/><polygon points="233.54 58.65 198.19 57.58 198.19 53.96 233.54 55.1 233.54 58.65" opacity="0.5" fill="url(#linear-gradient-31)"/><polygon points="260.05 161.39 209.76 162.93 209.76 159.33 260.05 157.9 260.05 161.39" fill="#fff" opacity="0.6" style="mix-blend-mode:soft-light"/><polygon points="268.29 165.97 218.5 167.63 218.5 164.05 268.29 162.5 268.29 165.97" opacity="0.5" fill="url(#linear-gradient-32)"/><polygon points="268.29 170.8 218.5 172.61 218.5 169.03 268.29 167.33 268.29 170.8" opacity="0.5" fill="url(#linear-gradient-33)"/><polygon points="289.75 174.79 241.25 176.69 241.25 173.16 289.75 171.36 289.75 174.79" opacity="0.5" fill="url(#linear-gradient-34)"/><polygon points="289.75 179.56 241.25 181.6 241.25 178.07 289.75 176.13 289.75 179.56" fill="url(#linear-gradient-35)"/><polygon points="289.75 184.33 241.25 186.51 241.25 182.98 289.75 180.9 289.75 184.33" fill="#fff" opacity="0.6" style="mix-blend-mode:soft-light"/><polygon points="233.54 157.27 198.19 158.24 198.19 154.62 233.54 153.72 233.54 157.27" opacity="0.5" fill="url(#linear-gradient-36)"/><polygon points="260.05 108 209.76 107.93 209.76 104.33 260.05 104.5 260.05 108" opacity="0.5" fill="url(#linear-gradient-37)"/><polygon points="268.29 112.84 218.5 112.91 218.5 109.33 268.29 109.36 268.29 112.84" fill="#fff" opacity="0.6" style="mix-blend-mode:soft-light"/><polygon points="268.29 117.67 218.5 117.89 218.5 114.31 268.29 114.19 268.29 117.67" opacity="0.5" fill="url(#linear-gradient-38)"/><polygon points="268.29 122.5 218.5 122.86 218.5 119.28 268.29 119.02 268.29 122.5" opacity="0.5" fill="url(#linear-gradient-39)"/><polygon points="230.18 127.72 198.28 128.04 198.28 124.42 230.18 124.16 230.18 127.72" opacity="0.5" fill="url(#linear-gradient-40)"/><polygon points="245.13 132.46 209.76 132.93 209.76 129.33 245.13 128.94 245.13 132.46" fill="#fff" opacity="0.6" style="mix-blend-mode:soft-light"/><polygon points="263.51 137.07 218.5 137.79 218.5 134.21 263.51 133.58 263.51 137.07" fill="url(#linear-gradient-41)"/><polygon points="263.51 141.91 218.5 142.76 218.5 139.18 263.51 138.42 263.51 141.91" opacity="0.5" fill="url(#linear-gradient-42)"/><polygon points="273.49 146.54 229.02 147.51 229.02 143.95 273.49 143.07 273.49 146.54" opacity="0.5" fill="url(#linear-gradient-43)"/><polygon points="273.49 151.35 229.02 152.45 229.02 148.89 273.49 147.89 273.49 151.35" opacity="0.5" fill="url(#linear-gradient-44)"/><polygon points="233.54 103.03 198.19 102.88 198.19 99.26 233.54 99.48 233.54 103.03" fill="url(#linear-gradient-45)"/><polygon points="169.02 66.3 136.9 65.5 136.9 60.23 169.02 61.12 169.02 66.3" fill="#fff" style="mix-blend-mode:soft-light"/><polygon points="128.59 65.3 134.64 65.45 134.64 60.16 128.59 59.99 128.59 65.3" fill="#fff" opacity="0.6" style="mix-blend-mode:soft-light"/><polygon points="169.02 73.76 136.9 73.09 136.9 67.81 169.02 68.57 169.02 73.76" fill="#fff" opacity="0.6" style="mix-blend-mode:soft-light"/><polygon points="128.59 72.92 134.64 73.05 134.64 67.76 128.59 67.62 128.59 72.92" fill="#fff" opacity="0.6" style="mix-blend-mode:soft-light"/><polygon points="169.02 81.21 136.9 80.69 136.9 75.41 169.02 76.03 169.02 81.21" fill="#fff" opacity="0.6" style="mix-blend-mode:soft-light"/><polygon points="128.59 80.55 134.64 80.65 134.64 75.36 128.59 75.24 128.59 80.55" fill="#fff" opacity="0.6" style="mix-blend-mode:soft-light"/><polygon points="169.02 134.13 112.91 134.88 112.91 129.53 169.02 128.94 169.02 134.13" fill="#fff" style="mix-blend-mode:soft-light"/><polygon points="169.02 142.23 136.9 142.81 136.9 137.53 169.02 137.04 169.02 142.23" fill="#fff" opacity="0.6" style="mix-blend-mode:soft-light"/><polygon points="128.59 142.96 134.64 142.85 134.64 137.56 128.59 137.65 128.59 142.96" fill="#fff" opacity="0.6" style="mix-blend-mode:soft-light"/><polygon points="169.02 149.68 136.9 150.4 136.9 145.12 169.02 144.5 169.02 149.68" fill="#fff" opacity="0.6" style="mix-blend-mode:soft-light"/><polygon points="128.59 150.58 134.64 150.45 134.64 145.16 128.59 145.28 128.59 150.58" fill="#fff" opacity="0.6" style="mix-blend-mode:soft-light"/><polygon points="169.02 157.14 136.9 157.99 136.9 152.71 169.02 151.95 169.02 157.14" fill="#fff" opacity="0.6" style="mix-blend-mode:soft-light"/><polygon points="128.59 158.21 134.64 158.05 134.64 152.76 128.59 152.9 128.59 158.21" fill="#fff" opacity="0.6" style="mix-blend-mode:soft-light"/><polygon points="169.02 88.72 112.91 88.03 112.91 82.68 169.02 83.53 169.02 88.72" fill="#fff" style="mix-blend-mode:soft-light"/><polygon points="169.02 96.82 136.9 96.58 136.9 91.3 169.02 91.63 169.02 96.82" fill="#fff" opacity="0.6" style="mix-blend-mode:soft-light"/><polygon points="128.59 96.51 134.64 96.56 134.64 91.27 128.59 91.21 128.59 96.51" fill="#fff" opacity="0.6" style="mix-blend-mode:soft-light"/><polygon points="169.02 104.27 136.9 104.17 136.9 98.89 169.02 99.09 169.02 104.27" fill="#fff" opacity="0.6" style="mix-blend-mode:soft-light"/><polygon points="128.59 104.14 134.64 104.16 134.64 98.87 128.59 98.83 128.59 104.14" fill="#fff" opacity="0.6" style="mix-blend-mode:soft-light"/><polygon points="169.02 119.28 136.9 119.44 136.9 114.16 169.02 114.09 169.02 119.28" fill="#fff" opacity="0.6" style="mix-blend-mode:soft-light"/><polygon points="128.59 119.49 134.64 119.45 134.64 114.17 128.59 114.18 128.59 119.49" fill="#fff" opacity="0.6" style="mix-blend-mode:soft-light"/><polygon points="169.02 126.73 136.9 127.03 136.9 121.75 169.02 121.55 169.02 126.73" fill="#fff" opacity="0.6" style="mix-blend-mode:soft-light"/><polygon points="128.59 127.11 134.64 127.05 134.64 121.77 128.59 121.81 128.59 127.11" fill="#fff" opacity="0.6" style="mix-blend-mode:soft-light"/><polygon points="169.02 111.73 136.9 111.75 136.9 106.47 169.02 106.54 169.02 111.73" fill="#fff" opacity="0.6" style="mix-blend-mode:soft-light"/><polygon points="128.59 111.76 134.64 111.76 134.64 106.47 128.59 106.46 128.59 111.76" fill="#fff" opacity="0.6" style="mix-blend-mode:soft-light"/><polygon points="169.02 164.59 112.91 166.31 112.91 160.96 169.02 159.4 169.02 164.59" fill="#fff" style="mix-blend-mode:soft-light"/><polygon points="169.02 172.69 136.9 173.82 136.9 168.54 169.02 167.51 169.02 172.69" fill="#fff" opacity="0.6" style="mix-blend-mode:soft-light"/><polygon points="128.59 174.12 134.64 173.91 134.64 168.62 128.59 168.81 128.59 174.12" fill="#fff" opacity="0.6" style="mix-blend-mode:soft-light"/><polygon points="169.02 180.15 136.9 181.41 136.9 176.13 169.02 174.96 169.02 180.15" fill="#fff" opacity="0.6" style="mix-blend-mode:soft-light"/><polygon points="128.59 181.74 134.64 181.5 134.64 176.22 128.59 176.44 128.59 181.74" fill="#fff" opacity="0.6" style="mix-blend-mode:soft-light"/><polygon points="169.02 187.6 136.9 189 136.9 183.72 169.02 182.42 169.02 187.6" fill="#fff" opacity="0.6" style="mix-blend-mode:soft-light"/><polygon points="128.59 189.37 134.64 189.1 134.64 183.82 128.59 184.06 128.59 189.37" fill="#fff" opacity="0.6" style="mix-blend-mode:soft-light"/><polygon points="175.84 187.33 174.6 187.38 174.6 53.2 175.84 53.23 175.84 187.33" fill="#fff" opacity="0.6" style="mix-blend-mode:soft-light"/><path d="M383.74,197.57c-54.49,1.14-66.74,8.92-82.22-.41-21.27-12.8-11.59-35.59-32.31-47.54-26.06-15-56.1,12.49-69.7-.92s12-44.81-2.77-79.86c-5.94-14.06-16.06-23.2-23.06-28.44l-14.1-.61c-5.41-.23-9.84,3.35-9.84,8V215c0,4.64,4.43,8.15,9.84,7.83l250.28-14.92a7.73,7.73,0,0,0,7.2-7.59V197.8C409.55,197.54,397.93,197.27,383.74,197.57Z" transform="translate(-54.57 -4)" fill="#fff" opacity="0.6" style="mix-blend-mode:soft-light"/><path d="M405.64,194.14,283.91,221.62a4.26,4.26,0,0,1-5.47-4.3V38.13a4.53,4.53,0,0,1,5.47-4.61L405.64,54.17c1.64.28,3,2.31,3,4.55V189.43C408.61,191.66,407.28,193.77,405.64,194.14Z" transform="translate(-54.57 -4)" fill="#fff"/><path d="M408.41,194.14,286.68,221.62a4.26,4.26,0,0,1-5.47-4.3V38.13a4.53,4.53,0,0,1,5.47-4.61L408.41,54.17c1.64.28,3,2.31,3,4.55V189.43C411.38,191.66,410.05,193.77,408.41,194.14Z" transform="translate(-54.57 -4)" fill="url(#linear-gradient-46)"/><g opacity="0.3" style="mix-blend-mode:multiply"><path d="M392.8,169.82c-15.07-17-4.7-44.56-18.46-51.7-11.46-6-23.72,10.49-34.62,4.84-14.19-7.34-1-39-15-63.46-5-8.71-14.71-18.74-35.63-25.57l-2.4-.41a4.53,4.53,0,0,0-5.47,4.61V217.32a4.26,4.26,0,0,0,5.47,4.3l121.73-27.48c1.64-.37,3-2.48,3-4.71v-9C403.9,178.5,397.51,175.13,392.8,169.82Z" transform="translate(-54.57 -4)" fill="url(#linear-gradient-47)"/></g><path d="M405.72,63.45,291,47.12c-1-.15-1.87,1.19-1.87,3V86.84c0,1.8.84,3.31,1.87,3.36l114.74,5.85c.59,0,1.07-1,1.07-2.4V66.06C406.79,64.7,406.31,63.54,405.72,63.45Z" transform="translate(-54.57 -4)" fill="#fff" opacity="0.68"/><path d="M291,90.2l41,2.09c-.31-10.62-1.33-22.37-7.31-32.79A43.46,43.46,0,0,0,318.39,51L291,47.12c-1-.15-1.87,1.19-1.87,3V86.84C289.11,88.64,290,90.15,291,90.2Z" transform="translate(-54.57 -4)" fill="#fff" opacity="0.68"/><path d="M326.87,131.09l-35,1.35a2.65,2.65,0,0,1-2.74-2.69V102.31a2.68,2.68,0,0,1,2.74-2.72l35,1.09a2.55,2.55,0,0,1,2.32,2.64v25.11A2.57,2.57,0,0,1,326.87,131.09Z" transform="translate(-54.57 -4)" fill="url(#linear-gradient-48)"/><path d="M326.87,165.25l-35,4.11a2.42,2.42,0,0,1-2.74-2.48V139.44a2.93,2.93,0,0,1,2.74-2.93l35-1.66a2.32,2.32,0,0,1,2.32,2.45v25.12A2.83,2.83,0,0,1,326.87,165.25Z" transform="translate(-54.57 -4)" fill="#fff" style="mix-blend-mode:soft-light"/><path d="M326.87,199.41l-35,6.85a2.22,2.22,0,0,1-2.74-2.27V176.56a3.24,3.24,0,0,1,2.74-3.15l35-4.4a2.11,2.11,0,0,1,2.32,2.27v25.11A3.12,3.12,0,0,1,326.87,199.41Z" transform="translate(-54.57 -4)" fill="#fff" style="mix-blend-mode:soft-light"/><polygon points="352.05 179.81 276.79 194.53 276.79 96.82 352.05 99.16 352.05 179.81" fill="url(#linear-gradient-49)"/><polygon points="352.05 179.81 276.79 194.53 276.79 179.71 352.05 167.58 352.05 179.81" fill="url(#linear-gradient-50)"/><path d="M379.6,140.09c0,8.15-3.11,15.08-7,15.5s-7.27-6.08-7.27-14.53,3.29-15.4,7.27-15.52S379.6,131.94,379.6,140.09Z" transform="translate(-54.57 -4)" fill="url(#linear-gradient-51)"/><polygon points="315.2 145.5 315.2 128.01 323.4 136.2 315.2 145.5" fill="#fff" opacity="0.68"/><polygon points="350.76 175.16 278.68 188.27 278.68 185.89 350.76 173.18 350.76 175.16" fill="#fff" opacity="0.68"/><polygon points="299.4 184.5 278.68 188.27 278.68 185.89 299.4 182.24 299.4 184.5" fill="url(#linear-gradient-52)"/><path d="M354.61,187.26c0,1.87-.76,3.53-1.7,3.7s-1.7-1.21-1.7-3.09.76-3.55,1.7-3.71S354.61,185.39,354.61,187.26Z" transform="translate(-54.57 -4)" fill="#fff"/><path d="M392.8,169.82c-15.07-17-4.7-44.56-18.46-51.7-11.46-6-23.72,10.49-34.62,4.84-6.45-3.33-7.24-11.69-7.51-22.11l-.85,0v97.71l75.26-14.72v-4.89A33.64,33.64,0,0,1,392.8,169.82Z" transform="translate(-54.57 -4)" opacity="0.3" fill="url(#linear-gradient-53)" style="mix-blend-mode:multiply"/><path d="M196.92,268.77a.26.26,0,0,1-.26-.26V166.75a.26.26,0,1,1,.51,0V268.51A.26.26,0,0,1,196.92,268.77Z" transform="translate(-54.57 -4)" fill="#999"/><path d="M169.5,262.37a.26.26,0,0,1-.26-.25V164.18a.26.26,0,0,1,.52,0v97.94A.26.26,0,0,1,169.5,262.37Z" transform="translate(-54.57 -4)" fill="#999"/><path d="M106.12,266.93H106a.26.26,0,0,1-.16-.33l36.65-101a.26.26,0,1,1,.49.17l-36.65,101A.25.25,0,0,1,106.12,266.93Z" transform="translate(-54.57 -4)" fill="#999"/><path d="M133.17,274.84l-.07,0a.26.26,0,0,1-.18-.32L165.82,168a.26.26,0,0,1,.32-.18.27.27,0,0,1,.17.33L133.42,274.65A.26.26,0,0,1,133.17,274.84Z" transform="translate(-54.57 -4)" fill="#999"/><polygon points="115.23 160.08 142.73 162.11 142.73 162.73 111.3 164.14 87.81 161.26 87.81 160.65 115.23 160.08" fill="#999"/><polygon points="115.23 159.46 142.73 162.11 111.3 163.52 87.81 160.65 115.23 159.46" fill="#c2c2c2"/><path d="M140.29,251.8h-.07L114,244.93a.27.27,0,0,1-.19-.32.26.26,0,0,1,.32-.18l26.18,6.87a.25.25,0,0,1-.06.5Z" transform="translate(-54.57 -4)" fill="#999"/><path d="M147.71,227.7h-.05L122,223.15a.27.27,0,0,1-.21-.3.26.26,0,0,1,.3-.21l25.7,4.55a.27.27,0,0,1,.21.3A.25.25,0,0,1,147.71,227.7Z" transform="translate(-54.57 -4)" fill="#999"/><path d="M155.42,202.83h0l-24.87-3.21a.26.26,0,0,1,.07-.51l24.87,3.2a.26.26,0,0,1,.22.29A.25.25,0,0,1,155.42,202.83Z" transform="translate(-54.57 -4)" fill="#999"/><path d="M160.36,185.57h0l-23.38-3.66a.25.25,0,0,1-.22-.29.26.26,0,0,1,.29-.22l23.39,3.66a.25.25,0,0,1,.21.3A.25.25,0,0,1,160.36,185.57Z" transform="translate(-54.57 -4)" fill="#999"/><path d="M229.6,117.17l-58.7-.25c-.29,0-.42-.42-.2-.64l5.94-5.9V84.14a2,2,0,0,1,1.73-2l51.23-3.35a2,2,0,0,1,2.12,2v34.3A2.11,2.11,0,0,1,229.6,117.17Z" transform="translate(-54.57 -4)" opacity="0.57" fill="url(#linear-gradient-54)"/><polygon points="137.09 83.4 126.38 83.97 126.38 82.57 137.09 81.97 137.09 83.4" fill="#d8dee8"/><polygon points="137.09 86.25 126.38 86.76 126.38 85.37 137.09 84.82 137.09 86.25" fill="#d8dee8"/><polygon points="137.09 90.74 126.38 91.16 126.38 89.77 137.09 89.32 137.09 90.74" fill="#d8dee8"/><polygon points="137.09 93.6 126.38 93.95 126.38 92.56 137.09 92.17 137.09 93.6" fill="#d8dee8"/><polygon points="171.94 105.07 126.38 105.55 126.38 104.15 171.94 103.55 171.94 105.07" fill="#d8dee8"/><polygon points="171.94 108.12 126.38 108.34 126.38 106.94 171.94 106.59 171.94 108.12" fill="#d8dee8"/><polygon points="137.09 98.09 126.38 98.35 126.38 96.96 137.09 96.66 137.09 98.09" fill="#d8dee8"/><polygon points="137.09 100.94 126.38 101.15 126.38 99.75 137.09 99.52 137.09 100.94" fill="#d8dee8"/><polygon points="171.94 100.43 141.26 101.01 141.26 81.74 141.53 81.72 141.53 100.71 171.94 100.12 171.94 100.43" fill="#d8dee8"/><polygon points="145.25 95.5 145.05 95.3 151.12 88.56 157.22 90.53 163.36 84.81 169.69 87.81 169.55 88.1 163.41 85.18 157.28 90.87 151.2 88.9 145.25 95.5" fill="#d8dee8"/><path d="M200.7,99.37a1,1,0,0,1-1,1.07,1,1,0,0,1-1-1,1,1,0,0,1,1-1.07A1,1,0,0,1,200.7,99.37Z" transform="translate(-54.57 -4)" opacity="0.7" fill="url(#linear-gradient-55)"/><path d="M206.73,92.69a1.08,1.08,0,0,1-1,1.09,1,1,0,0,1-1-1,1.08,1.08,0,0,1,1-1.09A1,1,0,0,1,206.73,92.69Z" transform="translate(-54.57 -4)" opacity="0.7" fill="url(#linear-gradient-56)"/><path d="M212.84,94.66a1.09,1.09,0,0,1-1,1.1,1,1,0,0,1-1-1,1.08,1.08,0,0,1,1-1.1A1,1,0,0,1,212.84,94.66Z" transform="translate(-54.57 -4)" opacity="0.7" fill="url(#linear-gradient-57)"/><path d="M219,89a1.12,1.12,0,0,1-1,1.12,1,1,0,0,1-1.05-1A1.13,1.13,0,0,1,218,87.92,1,1,0,0,1,219,89Z" transform="translate(-54.57 -4)" opacity="0.7" fill="url(#linear-gradient-58)"/><path d="M225.27,91.91A1.13,1.13,0,0,1,224.19,93a1,1,0,0,1-1.06-1,1.13,1.13,0,0,1,1.06-1.13A1,1,0,0,1,225.27,91.91Z" transform="translate(-54.57 -4)" opacity="0.7" fill="url(#linear-gradient-59)"/><path d="M190.42,110.68l1.29-1.41a5,5,0,0,1,1.15-1c1-.64,2.48-1,2.7-.59s-1.12,1.64-1.59,2l-1.92,1.39Z" transform="translate(-54.57 -4)" fill="url(#linear-gradient-60)"/><path d="M162.74,101.08c-.36.13-5.72,2.26-6.83,7.86-.08.46-.95,5.27,2.32,8.67,3.66,3.81,10.7,3.72,13.5.53a5.71,5.71,0,0,0,1.19-2.26l-.74-2a4.81,4.81,0,0,0-2.77-1.5c-1.62-.4-2.83.32-3.76-.46a2.43,2.43,0,0,1-.7-1.6c-.31-1.88.75-3,.83-4.2.06-.87.36-2.78-.77-4A3.63,3.63,0,0,0,162.74,101.08Z" transform="translate(-54.57 -4)" fill="url(#linear-gradient-61)"/><path d="M160.65,163.5c-.07-.34-1.18-.65-1.73-.19-.28.23-.46.69-.31.9s-.17.21,0,.22C159.41,164.44,160.71,163.85,160.65,163.5Z" transform="translate(-54.57 -4)" fill="url(#linear-gradient-62)"/><path d="M159.48,163.63l-1.15-.16c.53-.64.44-2.68.44-2.68l1.21.28s-.14.55-.37,1.38A5.22,5.22,0,0,0,159.48,163.63Z" transform="translate(-54.57 -4)" fill="url(#linear-gradient-63)"/><path d="M159.58,163.49s-1.38-.32-1.53-.05-.26,1,.61,1S159.66,163.72,159.58,163.49Z" transform="translate(-54.57 -4)" fill="url(#linear-gradient-64)"/><path d="M176.36,164.8c-.11-.34-1.26-.49-1.74,0-.24.26-.36.75-.17.93s-.15.24.08.21C175.27,165.89,176.47,165.13,176.36,164.8Z" transform="translate(-54.57 -4)" fill="url(#linear-gradient-65)"/><path d="M175.22,165.08h-1.15c.43-.7.05-2.7.05-2.7l1.24.1s-.06.57-.17,1.42A5.37,5.37,0,0,0,175.22,165.08Z" transform="translate(-54.57 -4)" fill="url(#linear-gradient-66)"/><path d="M178.22,121.34a52.93,52.93,0,0,1,1.79,8.21c1.41,10.22-1.58,10.55-1,21.87.18,3.62-3.13,12-3.42,12.14l-.46,0a4.82,4.82,0,0,1-1.17-.2c-.52-.09-2.41-5.21-2-8.25.31-2.16.22-4.47,0-9.1,0-.74-1.95-14.57-1.95-14.57-.58,5.11-1.25,9.46-1.83,12.84-1.87,10.83-7.95,17.39-8.26,17.49a1.26,1.26,0,0,1-1.1-.07.77.77,0,0,1-.28-.31,89.51,89.51,0,0,1,1.9-18.87c2.69-11.67,1.52-14.41,2.37-19.62C163.6,118.41,178.22,121.34,178.22,121.34Z" transform="translate(-54.57 -4)" fill="url(#linear-gradient-67)"/><path d="M167.36,100.16c1.78,0,5.89-.68,8.15,1.35,0,0-.43.29-.2.55a15.28,15.28,0,0,1,1.6,2.29,15.71,15.71,0,0,1,1.34,3.32,29.48,29.48,0,0,1,1.06,5.79c.41,5.43,0,7.94-.37,9.65a18.77,18.77,0,0,1-10.73,1.57,16.72,16.72,0,0,1-5.35-1.76c1.29-3.89.28-6-.2-7.9-.68-2.74-.69-2.53-1.25-4.7-.92-3.59-1.07-7.26-.44-8C162.68,100.28,165.76,100.21,167.36,100.16Z" transform="translate(-54.57 -4)" fill="url(#linear-gradient-68)"/><path d="M175.3,164.93s-1.41-.12-1.52.17-.12,1,.75.89S175.41,165.15,175.3,164.93Z" transform="translate(-54.57 -4)" fill="url(#linear-gradient-69)"/><path d="M172.38,98.12a3.06,3.06,0,0,0,.25-2.24c-.23-1-.32-1.11-.49-1.31l-.26-.27,0,0a3.85,3.85,0,0,0-1-.32c-.45,0-1.38,1.6-1.9,4.11-.05.09-.09.18-.13.27-.26.57-.49,1.13-.68,1.68-3.07.26-3.5.62-3.51.83,0,.44,1.72.94,3,1.13,2.87.42,5.82-.33,5.81-.87,0-.23-.58-.53-3-.85l.17-1.21C170.85,99,172,98.81,172.38,98.12Z" transform="translate(-54.57 -4)" fill="url(#linear-gradient-70)"/><path d="M173,93.83a3,3,0,0,1-1,1.57,1.29,1.29,0,0,0-.35.23.27.27,0,0,0-.07.08c-.3.44.32,1.21.11,1.39s-.61-.22-.71-.1.27.49.16.62-.32-.07-.53.06-.1.14-.27.39a2.38,2.38,0,0,1-.28.36c-.38.38-1.18.35-1.28.13,0-.06,0-.1,0-.28a1.49,1.49,0,0,0-.06-.37,3.72,3.72,0,0,0-.72-1,2.64,2.64,0,0,1-.66-1.33c0-.06,0-.1,0-.13a3,3,0,0,1,.58-1.89c.66-.74,1.51-.08,2.52-.71,1.17-.74,1-2.22,1.51-2.24S173.34,92.42,173,93.83Z" transform="translate(-54.57 -4)" fill="#26264f"/><path d="M171.41,96.85c-.11-.31-.51-.16-.6.18a.63.63,0,0,0,.47.78C171.61,97.83,171.57,97.26,171.41,96.85Z" transform="translate(-54.57 -4)" fill="url(#linear-gradient-71)"/><path d="M163.43,120.47h0a.07.07,0,0,1-.06-.07,10.71,10.71,0,0,0-.53-4.49c-.08-.3-.16-.59-.23-.87-.39-1.56-.56-2.16-.74-2.79-.11-.42-.23-.84-.42-1.56a.07.07,0,0,1,.05-.08.06.06,0,0,1,.08,0l.42,1.55c.18.64.35,1.24.74,2.8.07.28.15.56.23.86a10.94,10.94,0,0,1,.54,4.54A.07.07,0,0,1,163.43,120.47Z" transform="translate(-54.57 -4)" fill="#9b305e"/><path d="M171.41,96.25l.29.68s.28.82.66.51.36-.23.37-.21h0a2,2,0,0,0,0-.31,2.46,2.46,0,0,1,.16.9,1.48,1.48,0,0,1-.29,1.09,1.11,1.11,0,0,1-.78.33A2.74,2.74,0,0,1,171,99a4.33,4.33,0,0,0,.94-.47c.12-.34-.31-.66-.48-1.47A2.75,2.75,0,0,1,171.41,96.25Z" transform="translate(-54.57 -4)" fill="#26264f"/><path d="M191.13,109.67a3.52,3.52,0,0,1,1.17,1.46,10.81,10.81,0,0,1-3.77,4.71,11.14,11.14,0,0,1-12.75-.27c-4.46-3.4-5.2-9.94-3.33-12.73a3.15,3.15,0,0,1,2-1.5c.69-.08,1.64.21,3.13,2,3.11,3.65,2,5.93,3.85,7C184.22,111.88,188.32,107.71,191.13,109.67Z" transform="translate(-54.57 -4)" fill="url(#linear-gradient-72)"/><path d="M178.58,117.13h0s-4.43-1-6.4-6.45a.09.09,0,0,1,0-.09.08.08,0,0,1,.09,0c1.94,5.37,6.25,6.36,6.3,6.37a.07.07,0,0,1,.05.08A.08.08,0,0,1,178.58,117.13Z" transform="translate(-54.57 -4)" fill="#9b305e"/><path d="M160.28,284.2s4.17,1.48,4.26,1.76-2.59.13-3.67.26-2-.1-1.94-.57.34-1.65.34-1.65Z" transform="translate(-54.57 -4)" fill="url(#linear-gradient-73)"/><path d="M160.29,282.7l-.08,1.83a1.44,1.44,0,0,1-1.07.05l-.35-2Z" transform="translate(-54.57 -4)" fill="url(#linear-gradient-74)"/><path d="M141.38,284.38l-.41.79a.88.88,0,0,0,0,.71,22.23,22.23,0,0,0,.82,2.1c.23.42,2.85.45,2.85.45s.2-.35-.37-.7-.93-.38-1.17-.94a15.54,15.54,0,0,1-.51-2.2Z" transform="translate(-54.57 -4)" fill="url(#linear-gradient-75)"/><path d="M143.16,282.3a24.19,24.19,0,0,0-.78,2.76s-.24.37-.8-.1l-.25-.21-.12-2.5Z" transform="translate(-54.57 -4)" fill="url(#linear-gradient-76)"/><path d="M159.37,246.17c.68,5.37,1.19,11.24,1.42,17.53.26,7.08.12,13.66-.25,19.65-.33,0-.68.07-1,.09l-.71,0a43.13,43.13,0,0,1-1.9-4.63,45.21,45.21,0,0,1-1.52-5.49c-1.3-6-.44-6.65-1.46-11.13-.9-4-1.71-4-3.13-9.67-1.54-6.09-.87-7.08-.53-7.45C151.68,243.53,155.41,244.19,159.37,246.17Z" transform="translate(-54.57 -4)" fill="url(#linear-gradient-77)"/><path d="M150.25,245.09c1.36-1.48,4.82-1,8.58.81-3.73,4.8-3.93,7.73-3.28,9.55.74,2.07,2.49,2.53,2.68,4.85.24,2.84-2.26,3.81-1.95,6.82.21,2,1.33,1.86,1.81,4.3.57,2.88-.82,4-.16,6.11a5.88,5.88,0,0,0,2.75,3.17c0,.89-.09,1.78-.14,2.65-.33,0-.68.07-1,.09l-.71,0a43.13,43.13,0,0,1-1.9-4.63,45.21,45.21,0,0,1-1.52-5.49c-1.3-6-.44-6.65-1.46-11.13-.9-4-1.71-4-3.13-9.67C149.25,246.45,149.91,245.46,150.25,245.09Z" transform="translate(-54.57 -4)" opacity="0.3" fill="url(#linear-gradient-78)" style="mix-blend-mode:multiply"/><path d="M156.82,246.3a121.12,121.12,0,0,0-13.55,37,2.24,2.24,0,0,1-1.17.29,2.33,2.33,0,0,1-1.41-.61,35.36,35.36,0,0,1-1.05-8.58,30.3,30.3,0,0,1,.66-6.57c.7-3.24,1.36-3.48,2.35-6.92s.63-4.42,1.52-8.86a58.46,58.46,0,0,1,2.18-7.85Z" transform="translate(-54.57 -4)" fill="url(#linear-gradient-79)"/><path d="M170.61,237.72c.08,1.26-1.89,2.55-3.53,3-3.82,1.14-8.59-1.29-11-4.23-.48-.58-1-1.29-1.12-1.22s2.44,3.8,3.84,8.08c.72,2.2.68,3.26,1.78,4.66.25.32.55.65.49,1-.15,1-2.41,1.49-4,1.81a36,36,0,0,1-4.77.57c-2.48.18-2.68.07-3.22.4-1.65,1-1.35,3-2.62,3.39-1.07.33-2.28-.79-2.66-1.14-2-1.84-2.12-4.26-2.65-6.67a36.38,36.38,0,0,0-8.23-15.17c-1-1.1-1.7-1.67-1.84-2.78-.41-3.23,4.42-7.27,8.66-8.06a32.09,32.09,0,0,1,5.26-.36c.79,0,1.64,0,2.55.12a20.87,20.87,0,0,1,5.38.89c6.5,2.31,5.7,8.79,12.86,12.6C168.26,236,170.53,236.39,170.61,237.72Z" transform="translate(-54.57 -4)" fill="url(#linear-gradient-80)"/><path d="M136.36,251.5c-1.69.3-5.54.71-8.49-1.57-4.9-3.79-3.36-12-2.09-15.55a19.58,19.58,0,0,1,5.78-8c2-1.86,3.26-3,4.88-2.9,4.17.22,7.78,8.42,5.73,11-.67.86-1.44.48-3.53,1.35-.68.28-5.75,2.41-6.31,6.33-.4,2.74,1.5,5.75,4.56,7.61C136.72,250.34,136.54,250.92,136.36,251.5Z" transform="translate(-54.57 -4)" fill="url(#linear-gradient-81)"/><path d="M143,217.77a9.09,9.09,0,0,1-.66,2.64c-.47,1-2.75,1.56-3.21,1.77s.81.94,2.12,1.13,5.08.06,5.78-.41-.52-.48-1.45-.87-1.38-2.25-1.18-3.07S143,217.77,143,217.77Z" transform="translate(-54.57 -4)" fill="url(#linear-gradient-82)"/><path d="M145.43,217.12c.88-.75,1-2.57.42-2.93-.16-.1-.29,0-2.32,1-1,.51-1.5.78-1.63,1.26a1.38,1.38,0,0,0,.12.95,3.56,3.56,0,0,0,.49.68l.31.38a5.21,5.21,0,0,0,1.17,1,3.42,3.42,0,0,1,.12-.61,2.82,2.82,0,0,1,.32-.74A3.54,3.54,0,0,1,145.43,217.12Z" transform="translate(-54.57 -4)" fill="url(#linear-gradient-83)"/><path d="M143.2,219a2,2,0,0,0,1.81.63c1-.2.85-2.48.14-2.88a1.29,1.29,0,0,0-1,0c-.2.08-.25.18-.58.31s-.4.1-.48.19-.16.37.12,1a.57.57,0,0,0-.61-.12.51.51,0,0,0-.12.15C142.36,218.62,142.64,218.92,143.2,219Z" transform="translate(-54.57 -4)" fill="url(#linear-gradient-84)"/><path d="M155.42,248.41c-2-1.06-2.44-2.27-4.68-2.92-2.92-.84-4.15.67-5.65-.33-1.78-1.18-.51-3.63-2.11-7.53-.27-.67-2.34-5.71-6.08-6-1.74-.16-4,.7-4.69,2.23-.59,1.2.13,2-.59,3.32s-1.74,1.12-2.71,2.26a6,6,0,0,0,.21,7.19c.79.86,1.75,1.14,3.54,1.68a15.91,15.91,0,0,0,3,.59c-2.3-1.85-3.63-4.37-3.29-6.71s2.45-4.19,4.15-5.23a33.78,33.78,0,0,1,4.68,10.54c.53,2.41.65,4.83,2.65,6.67.38.35,1.59,1.47,2.66,1.14,1.27-.38,1-2.39,2.62-3.39.54-.33.74-.22,3.22-.4a36,36,0,0,0,4.77-.57c1.39-.29,3.34-.68,3.86-1.49A10.4,10.4,0,0,1,155.42,248.41Z" transform="translate(-54.57 -4)" opacity="0.3" fill="url(#linear-gradient-85)" style="mix-blend-mode:multiply"/><path d="M165.13,238c-2.88-.39-4-.27-5.5-1.27-2.49-1.67-3.1-4.49-4.45-4.33-.63.07-1.09.77-1.41,1.44l1.17,1.51a.07.07,0,0,1,0-.05c.11-.07.64.64,1.12,1.22,2.42,2.94,7.19,5.37,11,4.23a6.8,6.8,0,0,0,3-1.82A46.46,46.46,0,0,0,165.13,238Z" transform="translate(-54.57 -4)" opacity="0.3" fill="url(#linear-gradient-86)" style="mix-blend-mode:multiply"/><path d="M132.1,257.37l-.46-.82a2.63,2.63,0,0,1,1.13-3.64l59.77-33.38.24,1.48-56.92,37.45A2.82,2.82,0,0,1,132.1,257.37Z" transform="translate(-54.57 -4)" fill="#d8dee8"/><path d="M136.48,251.12l.29-1a1.94,1.94,0,0,0,1.11-.42,1.42,1.42,0,0,1,.89-.3c.15,0,.69,0,.1.3s-.57.57-.29.79a4.44,4.44,0,0,0,1.66.64c.36,0-.23.6-.58.7a2.23,2.23,0,0,1-1.69-.12C137.7,251.6,136.48,251.12,136.48,251.12Z" transform="translate(-54.57 -4)" fill="url(#linear-gradient-87)"/><path d="M169,236.68a10.87,10.87,0,0,0,1.95-1.74c.63-.82,1.46-.61,1.58-.22s-1,1.66-1.51,2S169,236.68,169,236.68Z" transform="translate(-54.57 -4)" fill="url(#linear-gradient-88)"/><path d="M192.51,220.11c6.28-7.54,40-18.47,55.54-13.32a38.89,38.89,0,0,1,2,16.09c-1.62,17.77-15.8,29.9-21.23,33.3-2.85,1.78-5.58,2.59-9.93,6.16-2.75,2.24-4.42,4.18-5.78,3.64s-1.7-3.61-1.51-5.65c.58-6.08,5.54-7.36,5.53-11.06,0-4.37-6.93-5.91-13.57-11.81C200.05,234.33,195.62,229.11,192.51,220.11Z" transform="translate(-54.57 -4)" fill="url(#linear-gradient-89)" style="mix-blend-mode:multiply"/><path d="M197.81,222.26c-4.91,0-5.82-1.06-6-1.94-.25-1.06.29-2.84,7.89-6a135,135,0,0,1,19.57-6,136.67,136.67,0,0,1,20.2-3.42c8.2-.62,9.48.72,9.73,1.78s-.29,2.84-7.88,6a138,138,0,0,1-19.57,6.05,138.11,138.11,0,0,1-20.21,3.42C200.08,222.21,198.85,222.26,197.81,222.26Zm45.32-16c-1,0-2.22.05-3.71.16a153.73,153.73,0,0,0-39,9.3c-7,2.87-7.12,4.27-7.12,4.28s.75,1.21,8.28.62a136.18,136.18,0,0,0,19.84-3.37,135.28,135.28,0,0,0,19.22-5.92c6.95-2.86,7.12-4.26,7.12-4.29S247.19,206.23,243.13,206.23Z" transform="translate(-54.57 -4)" fill="url(#linear-gradient-90)"/><path d="M204.38,200.47l-.08-.1-.09-.11L204,200a4.16,4.16,0,0,0-.42-.42,6.93,6.93,0,0,0-.92-.72,4.52,4.52,0,0,0-2-.69,2.09,2.09,0,0,0-.25,0h-.25a4.29,4.29,0,0,0-.5.07,5,5,0,0,0-.49.12c-.16.07-.32.11-.48.19a7.49,7.49,0,0,0-1.84,1.21,1.73,1.73,0,1,1-2.28-2.6,1.46,1.46,0,0,1,.21-.16l.05,0a10.5,10.5,0,0,1,2.93-1.3c.26-.07.54-.11.82-.16a7.93,7.93,0,0,1,.84-.07,6.13,6.13,0,0,1,.86,0l.42.06.42.09a6.78,6.78,0,0,1,2.87,1.52,8,8,0,0,1,1.06,1.12c.16.2.31.41.45.62s.13.21.2.32l.1.17.1.19a.87.87,0,0,1-1.4,1Z" transform="translate(-54.57 -4)" fill="url(#linear-gradient-91)"/><path d="M236.55,196l0-.22,0-.19c0-.13,0-.25.08-.38s.12-.49.19-.73a8.75,8.75,0,0,1,.6-1.42,6.74,6.74,0,0,1,2.15-2.44,3.17,3.17,0,0,1,.36-.23l.37-.21a7.75,7.75,0,0,1,.79-.33c.27-.1.54-.16.82-.24a7.76,7.76,0,0,1,.82-.13,10.59,10.59,0,0,1,3.2.18h0a1.73,1.73,0,1,1-.68,3.39l-.26-.07a7.48,7.48,0,0,0-2.15-.49,4.51,4.51,0,0,0-.52,0,4,4,0,0,0-.5.06,3.88,3.88,0,0,0-.49.11l-.24.08-.23.1a4.36,4.36,0,0,0-1.63,1.36,6.56,6.56,0,0,0-.61,1,5.45,5.45,0,0,0-.25.55c0,.09-.07.18-.1.28l-.05.13a1,1,0,0,0,0,.12l-.08.17a.87.87,0,0,1-1.66-.45Z" transform="translate(-54.57 -4)" fill="url(#linear-gradient-92)"/><path d="M202.11,211.65l-.11-.05-.13-.07-.28-.11a5.31,5.31,0,0,0-.56-.2,6.62,6.62,0,0,0-1.14-.24,4.43,4.43,0,0,0-2.11.24l-.23.1-.22.12a4.32,4.32,0,0,0-.42.27c-.14.1-.26.22-.39.33a4.26,4.26,0,0,0-.35.38,7.37,7.37,0,0,0-1.14,1.89,1.73,1.73,0,1,1-3.18-1.36l.12-.24,0,0a10.58,10.58,0,0,1,2.08-2.44c.2-.18.44-.34.66-.51s.48-.3.74-.43a6.81,6.81,0,0,1,.78-.34l.41-.13.41-.1a6.82,6.82,0,0,1,3.25.12,10,10,0,0,1,1.44.55c.23.12.45.23.67.37l.32.2a.91.91,0,0,1,.16.11l.18.13a.87.87,0,0,1-.82,1.51Z" transform="translate(-54.57 -4)" fill="url(#linear-gradient-93)"/><path d="M206.89,222.88l-.12,0-.14,0c-.1,0-.19,0-.29.06l-.57.17a6.11,6.11,0,0,0-1.07.48,4.28,4.28,0,0,0-1.57,1.43l-.13.21-.11.23c-.06.15-.13.3-.18.46s-.08.33-.12.49-.06.34-.07.52a7.63,7.63,0,0,0,.19,2.2,1.73,1.73,0,1,1-3.37.76c0-.09,0-.18,0-.26v-.06a10.25,10.25,0,0,1,.25-3.19c.06-.27.16-.53.24-.8s.21-.53.34-.78a6.73,6.73,0,0,1,.44-.73l.25-.35.28-.32a6.65,6.65,0,0,1,2.71-1.8,7.31,7.31,0,0,1,1.49-.4,6.42,6.42,0,0,1,.75-.1l.38,0h.41a.87.87,0,0,1,.23,1.71Z" transform="translate(-54.57 -4)" fill="url(#linear-gradient-94)"/><path d="M239.16,205.05l.1-.19.1-.17.19-.33c.14-.22.28-.42.43-.63a9.22,9.22,0,0,1,1-1.14,6.92,6.92,0,0,1,2.84-1.6l.41-.1.42-.07c.29,0,.57,0,.86,0a8.08,8.08,0,0,1,.85,0,7.4,7.4,0,0,1,.82.15,10.67,10.67,0,0,1,3,1.22l0,0a1.73,1.73,0,1,1-1.77,3,1.53,1.53,0,0,1-.22-.16,7.79,7.79,0,0,0-1.87-1.16,4.84,4.84,0,0,0-.49-.18,4.31,4.31,0,0,0-.49-.11,4.23,4.23,0,0,0-.5-.05h-.5a4.4,4.4,0,0,0-2,.75,6.93,6.93,0,0,0-.91.73c-.14.14-.28.28-.41.43l-.19.23-.09.12-.07.09-.12.14a.87.87,0,0,1-1.23.07A.89.89,0,0,1,239.16,205.05Z" transform="translate(-54.57 -4)" fill="url(#linear-gradient-95)"/><path d="M236.41,218.67l.21-.07.18-.06.37-.11.74-.16a8.66,8.66,0,0,1,1.54-.12,6.81,6.81,0,0,1,3.15.79c.13.07.25.13.37.21l.36.24a6.75,6.75,0,0,1,.65.55,6.88,6.88,0,0,1,.59.62,7.63,7.63,0,0,1,.49.67,10.19,10.19,0,0,1,1.31,2.93v0a1.73,1.73,0,1,1-3.32,1,1.47,1.47,0,0,1-.06-.27,7.24,7.24,0,0,0-.56-2.14,4.93,4.93,0,0,0-.23-.46c-.09-.14-.18-.29-.28-.42a3.9,3.9,0,0,0-.33-.38l-.18-.17-.19-.16a4.41,4.41,0,0,0-2-.83,7.27,7.27,0,0,0-1.16-.09l-.6,0-.29,0-.14,0-.12,0-.19,0a.87.87,0,0,1-.36-1.69Z" transform="translate(-54.57 -4)" fill="url(#linear-gradient-96)"/><path d="M241.08,209.46c-.7,9.74-7.39,24.12-18.79,24.5-10.84.36-19.35-11.52-20.29-22-1.18-13.11,9.26-27.11,20.29-27,8.51.07,14.47,8.5,15,9.3A23.46,23.46,0,0,1,241.08,209.46Z" transform="translate(-54.57 -4)" fill="url(#linear-gradient-97)"/><path d="M237.31,194.25c-.55-.8-6.51-9.23-15-9.3-6.32,0-12.44,4.52-16.3,10.9A54.74,54.74,0,0,1,220.1,193a48,48,0,0,1,17.69,2C237.64,194.74,237.48,194.5,237.31,194.25Z" transform="translate(-54.57 -4)" fill="url(#linear-gradient-98)"/><path d="M220.1,193a122.55,122.55,0,0,0-2.23,40.47,14.49,14.49,0,0,0,4.42.54c11.4-.38,18.09-14.76,18.79-24.5A23.64,23.64,0,0,0,237.79,195,48,48,0,0,0,220.1,193Z" transform="translate(-54.57 -4)" fill="url(#linear-gradient-99)"/><path d="M220.1,193a54.74,54.74,0,0,0-14.11,2.9A27,27,0,0,0,202,212c.8,9,7.21,19,15.87,21.45A122.55,122.55,0,0,1,220.1,193Z" transform="translate(-54.57 -4)" fill="url(#linear-gradient-100)"/><g opacity="0.49" style="mix-blend-mode:soft-light"><path d="M237.31,194.25c-.47-.69-5-7.06-11.67-8.84,6.94,5.59,8.62,9.8,8.15,13-1,6.75-11.72,9-11.81,16.46-.08,6,6.83,8.39,6.15,12.19-.36,2.08-3,4.33-11.31,6a14.77,14.77,0,0,0,5.47.87c11.4-.38,18.09-14.76,18.79-24.5A23.46,23.46,0,0,0,237.31,194.25Z" transform="translate(-54.57 -4)" fill="#fff"/></g><path d="M227.18,187.24c0-.94.11-1.86.21-2.79s.21-1.86.35-2.78.3-1.84.49-2.76.4-1.83.64-2.74a33.77,33.77,0,0,1,1.88-5.36l.15-.33.16-.32.33-.65c.24-.42.47-.84.74-1.25A13.81,13.81,0,0,1,233,167c.31-.39.61-.78,1-1.15l.26-.27c.08-.09.18-.18.27-.27l.28-.25a3.58,3.58,0,0,1,.29-.26l.6-.48c.1-.08.2-.14.3-.21l.3-.21a12.85,12.85,0,0,1,2.7-1.45,6,6,0,0,1,1.69-.39,3.88,3.88,0,0,1,1,0,3.14,3.14,0,0,1,2,1.26,3.45,3.45,0,0,1,.48,1.06,4.83,4.83,0,0,1,.09,1.95,6.87,6.87,0,0,1-.48,1.67,8.41,8.41,0,0,1-.8,1.48,8.75,8.75,0,0,1-1.07,1.28,8.24,8.24,0,0,1-.62.56l-.16.13-.16.12-.32.24a7.92,7.92,0,0,1-.71.46,4.62,4.62,0,0,1-.94.42l-.31.08-.18,0-.2,0a2.65,2.65,0,0,1-1-.14,2.42,2.42,0,0,1-.57-.31,3,3,0,0,1-.44-.44,2.77,2.77,0,0,1-.42-.85,3.62,3.62,0,0,1-.12-.65,5.15,5.15,0,0,1,0-.54,8.33,8.33,0,0,1,.08-.91q.06-.42.15-.81c0-.13.06-.26.1-.39l.05-.2,0-.1,0-.12h0a1.73,1.73,0,1,1,3.3,1l0,.11,0,.05,0,.06-.05.14a2.76,2.76,0,0,0-.08.27c-.06.19-.1.37-.14.54s-.06.34-.07.47,0,.23,0,.18a.83.83,0,0,0-.13-.22,1,1,0,0,0-.46-.34.89.89,0,0,0-.34-.05h0a1.52,1.52,0,0,0,.33-.13,4.49,4.49,0,0,0,.47-.26l.24-.17.13-.08.11-.08c.14-.11.29-.22.42-.34a5.72,5.72,0,0,0,.75-.81,5.2,5.2,0,0,0,.57-.92,3.62,3.62,0,0,0,.34-.95,2,2,0,0,0,0-.8,1,1,0,0,0-.07-.21.36.36,0,0,0-.07-.1.59.59,0,0,0-.19-.08,1.19,1.19,0,0,0-.36,0,3.64,3.64,0,0,0-1,.19,10.49,10.49,0,0,0-2.24,1l-.27.17-.27.18-.5.35a2.23,2.23,0,0,0-.24.19l-.24.2c-.08.07-.17.13-.24.2l-.23.22c-.31.29-.58.61-.87.93s-.54.66-.78,1-.49.72-.72,1.09c-.12.19-.22.38-.33.57l-.17.29-.15.3a32.36,32.36,0,0,0-2.06,5c-.27.87-.53,1.74-.76,2.62s-.43,1.76-.62,2.66-.35,1.79-.49,2.69-.27,1.81-.36,2.71h0a.51.51,0,0,1-.57.46A.5.5,0,0,1,227.18,187.24Z" transform="translate(-54.57 -4)" fill="url(#linear-gradient-101)"/><path d="M213.94,188.19c-.08-.9-.21-1.81-.35-2.71s-.31-1.8-.49-2.69-.4-1.78-.62-2.66-.49-1.75-.76-2.62a32.89,32.89,0,0,0-2.06-5l-.15-.29-.17-.29c-.11-.19-.21-.38-.33-.57-.23-.37-.46-.75-.72-1.09s-.52-.69-.78-1-.57-.64-.88-.93l-.22-.22-.24-.2-.24-.2a2.23,2.23,0,0,0-.24-.19l-.5-.35-.27-.18-.28-.17a10.2,10.2,0,0,0-2.23-1.05,3.64,3.64,0,0,0-1-.19,1.19,1.19,0,0,0-.36,0,.59.59,0,0,0-.19.08.36.36,0,0,0-.07.1,1,1,0,0,0-.07.21,2.05,2.05,0,0,0,0,.8,4,4,0,0,0,.33,1,5.92,5.92,0,0,0,.58.92,5.72,5.72,0,0,0,.75.81c.13.12.28.23.42.34l.11.08.13.08.24.17a4.49,4.49,0,0,0,.47.26,1.52,1.52,0,0,0,.33.13h0a.89.89,0,0,0-.34,0,1,1,0,0,0-.46.34.83.83,0,0,0-.13.22c0,.05,0-.06,0-.18s0-.3-.07-.47-.09-.35-.14-.54a2.76,2.76,0,0,0-.08-.27l-.05-.14,0-.06,0-.05A1.73,1.73,0,0,1,206,168.2l0,.11v0l0,.12,0,.1,0,.2c0,.13.07.26.1.39s.11.53.15.81a8.33,8.33,0,0,1,.08.91,5.15,5.15,0,0,1,0,.54,3,3,0,0,1-.13.65,2.51,2.51,0,0,1-.41.85,3,3,0,0,1-.44.44,2.63,2.63,0,0,1-.57.31,2.44,2.44,0,0,1-1,.13l-.2,0-.18,0-.31-.08a4.62,4.62,0,0,1-.94-.42,7.92,7.92,0,0,1-.71-.46l-.32-.24-.16-.12-.16-.13a8.24,8.24,0,0,1-.62-.56,8.75,8.75,0,0,1-1.07-1.28,8.41,8.41,0,0,1-.8-1.48,6.87,6.87,0,0,1-.48-1.67,4.83,4.83,0,0,1,.09-1.95,3.45,3.45,0,0,1,.48-1.06,3.12,3.12,0,0,1,.92-.85,3,3,0,0,1,1.1-.41,3.88,3.88,0,0,1,1,0,6,6,0,0,1,1.69.39,12.85,12.85,0,0,1,2.7,1.45l.3.2.3.22.6.48c.11.08.19.17.29.25l.28.26c.09.09.19.18.27.27l.26.27c.35.37.65.76,1,1.15s.58.8.83,1.22.5.83.74,1.25c.11.22.22.43.32.65l.17.32.14.33a32.85,32.85,0,0,1,1.89,5.36c.24.91.45,1.82.64,2.74s.35,1.84.49,2.76.25,1.85.35,2.78.17,1.85.21,2.79a.52.52,0,0,1-1,.08Z" transform="translate(-54.57 -4)" fill="url(#linear-gradient-102)"/><path d="M248.05,206.79c-3.25,12.41-8,16.63-12.06,18-6.84,2.26-12.79-3.29-18.73.51A11.76,11.76,0,0,0,212,235.44c.64,7.92,12.09,10.88,11.06,15.59-.68,3.08-5.75,2.6-8.8,8.17-1.49,2.7-2.12,6.16-1.13,6.78s2.73-1.15,5.78-3.64c4.35-3.57,7.08-4.38,9.93-6.16,5.43-3.4,19.61-15.53,21.23-33.3A38.89,38.89,0,0,0,248.05,206.79Z" transform="translate(-54.57 -4)" fill="#fff" style="mix-blend-mode:soft-light"/><path d="M249.17,206.66c-.16-.67-.73-1.45-3.22-1.78-.6.47-1.22.93-1.85,1.37,3.18.11,3.6.74,3.61.76s-.17,1.43-7.12,4.29a135.28,135.28,0,0,1-19.22,5.92,136.18,136.18,0,0,1-19.84,3.37c-7.53.59-8.28-.61-8.28-.62s.08-.9,3.65-2.71c-.61-.23-1.21-.47-1.8-.75-3.25,1.84-3.5,3-3.32,3.81s1.12,1.94,6,1.94c1,0,2.27,0,3.7-.15a138.11,138.11,0,0,0,20.21-3.42,138,138,0,0,0,19.57-6.05C248.88,209.5,249.43,207.73,249.17,206.66Z" transform="translate(-54.57 -4)" fill="url(#linear-gradient-103)"/><path d="M282.84,198.76s-.7-.45-.71-.91-.48-2.08-.71-2.07-.22.92,0,1.15,0,.46-.22.46a6,6,0,0,1-1.86-1.36c-.7-.69,0,.46.24.92s.47,1.38.94,1.6a9.87,9.87,0,0,0,1.15.45l.7.46Z" transform="translate(-54.57 -4)" fill="url(#linear-gradient-104)"/><path d="M287.56,186.8c-.29-.5-.54-.9-.72-1.19a.08.08,0,0,0-.14.07l.44,1.12s-1.47-2.53-1.47-2.11a6.25,6.25,0,0,0,.84,1.69s-1.89-2.11-1.89-1.69,1.26,1.9,1.26,1.9a6.13,6.13,0,0,0-1.68-.85c-.42,0,.84,1.06,1.47,1.69s.74.87.69,1c-.14.26-1.19-.11-1.23,0s.44.32,1,.51a14.11,14.11,0,0,0,1.9.42l.84-.42Z" transform="translate(-54.57 -4)" fill="url(#linear-gradient-105)"/><path d="M330,266.22a.79.79,0,0,1,.18.44.7.7,0,0,1-.05.3c-.16.43-.42.48-.7.94-.17.28-.13.36-.29.49a1,1,0,0,1-.66.17,10.45,10.45,0,0,1-1.54-.08c.35-.44.71-.89,1.1-1.35l.51-.58,1-.34Z" transform="translate(-54.57 -4)" fill="#26264f"/><path d="M329.11,261.33s-.57,3,.16,3.85-.3.24-.3.24l-1.11,1-.66,1.15a19.1,19.1,0,0,0,.45-4.11c-.17-1.17-.25-2-.25-2Z" transform="translate(-54.57 -4)" fill="url(#linear-gradient-106)"/><path d="M329,264.75c.27,0,.47.22.62.75s.88,1,0,.87-1.46,1.09-1.76,1.53-1.11.84-1.09.4.38-.63.48-1.07S328.34,264.74,329,264.75Z" transform="translate(-54.57 -4)" fill="#444b8c"/><path d="M322.18,221.74c.4.16,1.33.66,3,7.85,1.07,4.62,1,5.71,1.84,8.54,1.15,3.79,2.36,5.33,3.23,7.39,1.39,3.26,2.21,8.42-.69,16.61l-2.31.93a42.4,42.4,0,0,0-.69-9.7,54.56,54.56,0,0,0-7.62-18.92c-2.52-3.65-4.29-5-3.92-7.39C315.53,223.76,319.81,220.82,322.18,221.74Z" transform="translate(-54.57 -4)" fill="url(#linear-gradient-107)"/><g opacity="0.3" style="mix-blend-mode:multiply"><path d="M328.64,255.21c-.52-4.66.65-5.66-.23-9.23-1.32-5.33-4.64-6-5.31-10.39a11.47,11.47,0,0,1,1.71-7.53c-1.44-5.73-2.26-6.17-2.63-6.32-2.37-.92-6.65,2-7.16,5.31-.37,2.37,1.4,3.74,3.92,7.39a54.56,54.56,0,0,1,7.62,18.92,42.4,42.4,0,0,1,.69,9.7l2.31-.93c.14-.38.26-.76.39-1.14A26,26,0,0,1,328.64,255.21Z" transform="translate(-54.57 -4)" fill="url(#linear-gradient-108)"/></g><path d="M323.64,267.62a.91.91,0,0,1,.21.53.81.81,0,0,1-.06.35c-.19.51-.5.58-.83,1.12-.2.33-.16.43-.35.58a1.16,1.16,0,0,1-.79.21,15.5,15.5,0,0,1-1.83-.1c.41-.53.85-1.06,1.31-1.6.2-.24.4-.47.61-.7l1.2-.4Z" transform="translate(-54.57 -4)" fill="#26264f"/><path d="M322.64,261.79s-.69,3.58.19,4.58-.36.29-.36.29l-1.32,1.15-.79,1.37a22.32,22.32,0,0,0,.53-4.9c-.19-1.39-.29-2.33-.29-2.33Z" transform="translate(-54.57 -4)" fill="url(#linear-gradient-109)"/><path d="M322.46,265.87c.32,0,.56.26.74.89s1,1.17,0,1-1.73,1.29-2.09,1.82-1.33,1-1.3.48.45-.75.57-1.28S321.71,265.86,322.46,265.87Z" transform="translate(-54.57 -4)" fill="#444b8c"/><path d="M309.71,229.59A144.29,144.29,0,0,1,320.1,264a5,5,0,0,0,3,0,32.68,32.68,0,0,0,.46-11.77c-.61-4.13-1.45-4-2.31-8.31-1.45-7.23.46-9.94-1.38-17.77-1.14-4.84-2.2-5.23-2.54-5.31C314.71,220.19,311,227.05,309.71,229.59Z" transform="translate(-54.57 -4)" fill="url(#linear-gradient-110)"/><path d="M288.44,188.22l-.81,1.23a30.05,30.05,0,0,1,9.7,7.55c4,4.73,5,9.13,7.57,9.2,1.2,0,3-.88,5.24-5.57a30.26,30.26,0,0,0-21.7-12.41Z" transform="translate(-54.57 -4)" fill="url(#linear-gradient-111)"/><path d="M306.71,201.2c-3.73,3.27-5.6,4.91-6.23,5.08-2.26.61-3.75-1.64-8.08-4.15a32.89,32.89,0,0,0-9.69-3.7l-.92,1.39a48.75,48.75,0,0,0,5.54,6.23c4.79,4.55,6.59,4.41,10.61,8.08a34.44,34.44,0,0,1,9.23,13.15c2.1,5.55,1.8,9.93,3.47,10.16,1,.14,1.37-1.44,4.38-4.62,2.19-2.3,4.12-4.34,7.16-5.77a22.75,22.75,0,0,0,4.61-2.31c1.53-1.08,2.82-2,2.77-3-.08-1.8-4.31-1.45-8.08-4.38-2.32-1.81-1.73-2.73-7.38-11.77-2.14-3.42-3.75-5.73-5.54-5.54C308,200.11,307.58,200.44,306.71,201.2Z" transform="translate(-54.57 -4)" fill="url(#linear-gradient-112)"/><path d="M301.29,203.17l.92,2.3a8.17,8.17,0,0,0,2.54-2.07l-2.08-1.62Z" transform="translate(-54.57 -4)" fill="url(#linear-gradient-113)"/><path d="M300.36,200.32c-.81-1.08-.46-3.2.26-3.47.21-.08.35,0,2.42,1.73,1,.84,1.52,1.27,1.55,1.85a1.74,1.74,0,0,1-.37,1.07,4.54,4.54,0,0,1-.73.65l-.46.36a6.11,6.11,0,0,1-1.58.8,4.26,4.26,0,0,0,0-.73,3.71,3.71,0,0,0-.17-.93A4.09,4.09,0,0,0,300.36,200.32Z" transform="translate(-54.57 -4)" fill="url(#linear-gradient-114)"/><path d="M302.44,203.09a2.26,2.26,0,0,1-2.23.27c-1.1-.48-.35-3.07.57-3.34a1.52,1.52,0,0,1,1.16.26c.21.15.25.27.59.51s.43.21.51.34.08.47-.4,1.12a.63.63,0,0,1,.73,0,.45.45,0,0,1,.1.2C303.52,202.82,303.12,203.09,302.44,203.09Z" transform="translate(-54.57 -4)" fill="url(#linear-gradient-115)"/><path d="M322.41,223.36c-5.33,1.85-7.21,6.74-9.47,6-2.73-.89-.29-8.2-4.84-12-2.62-2.19-4.76-.88-7.62-3.69-2.39-2.36-1.62-4-3.92-6-2.52-2.19-4.91-1.48-8.08-2.54a13,13,0,0,1-4.86-3,49,49,0,0,0,3.71,3.93c4.79,4.55,6.59,4.41,10.61,8.08a34.44,34.44,0,0,1,9.23,13.15c2.1,5.55,1.8,9.93,3.47,10.16,1,.14,1.37-1.44,4.38-4.62,2.19-2.3,4.12-4.34,7.16-5.77a22.75,22.75,0,0,0,4.61-2.31,13.31,13.31,0,0,0,2.29-1.85A13.57,13.57,0,0,0,322.41,223.36Z" transform="translate(-54.57 -4)" opacity="0.3" fill="url(#linear-gradient-116)" style="mix-blend-mode:multiply"/><path d="M409.4,200.5a3.32,3.32,0,0,1-1.17-.94c-.23-.47-1.17-.94-1.64-1.4a4.75,4.75,0,0,1-.73-1.19.18.18,0,0,1,.24-.25,8.68,8.68,0,0,0,1.43.5c.94.23,1.4,1.87,1.4,1.87l.94,1.17Z" transform="translate(-54.57 -4)" fill="url(#linear-gradient-117)"/><path d="M409.64,199.56l-.94.7c.6,1.61,1.52,3.9,2.81,6.56,3.84,7.94,8,16.63,13.34,16.62,2.63,0,5.36-2.12,5.62-4.21.3-2.37-2.61-4.42-5.15-6.32A172.77,172.77,0,0,1,409.64,199.56Z" transform="translate(-54.57 -4)" fill="url(#linear-gradient-118)"/><path d="M402.72,238.71a.34.34,0,0,1-.24-.1c-5.1-5-7.31-9.45-6.56-13.24.57-2.88,2.63-4.55,4.81-6.32s4.23-3.44,5.6-6.45c1.84-4,1.65-9-.57-14.8l-62.48-81.63-61-47a6.57,6.57,0,0,0-2.08-1,4.38,4.38,0,0,1-2.62-2,.34.34,0,0,1,.13-.47.33.33,0,0,1,.47.13,3.74,3.74,0,0,0,2.22,1.69,7.22,7.22,0,0,1,2.3,1.16l61.09,47,62.6,81.78,0,0c2.31,6,2.5,11.17.57,15.39-1.44,3.16-3.75,5-5.79,6.69s-4.05,3.29-4.57,5.92c-.7,3.55,1.44,7.8,6.36,12.61a.35.35,0,0,1,0,.49A.36.36,0,0,1,402.72,238.71Z" transform="translate(-54.57 -4)" fill="url(#linear-gradient-119)"/><path d="M402.55,264.71s-3.22.78-3.9,1.09,1.87.47,3.05.63,1.36,0,1.36,0a5.86,5.86,0,0,1,.67-.94C404.1,265,402.55,264.71,402.55,264.71Z" transform="translate(-54.57 -4)" fill="url(#linear-gradient-120)"/><path d="M404.24,263.36l-1.8,1.62a.9.9,0,0,0,.9.54l2-1.44Z" transform="translate(-54.57 -4)" fill="url(#linear-gradient-121)"/><path d="M428.37,237.25a17.34,17.34,0,0,1-1.88,5.62c-3.19,5.88-7.48,5.19-11.7,11.47-1.76,2.62-2.09,4.33-4.68,6.79a19.65,19.65,0,0,1-4.69,3.28l-2.1-1.17c1-1.67,2.71-4.36,4.68-7.73,6.15-10.53,7.38-14.29,11.7-16.62A15.64,15.64,0,0,1,428.37,237.25Z" transform="translate(-54.57 -4)" fill="url(#linear-gradient-122)"/><g opacity="0.3" style="mix-blend-mode:multiply"><path d="M412.45,252c2.51-3,4.48-2.4,7.72-4.91,2.15-1.67,4.65-4.55,6.25-9.88a14.87,14.87,0,0,0-6.72,1.68c-4.32,2.33-5.55,6.09-11.7,16.62-2,3.37-3.64,6.06-4.68,7.73l.07,0a10.26,10.26,0,0,0,3.91-2.15C410.35,258.39,409.57,255.45,412.45,252Z" transform="translate(-54.57 -4)" fill="url(#linear-gradient-123)"/></g><path d="M406.83,201.67a2.37,2.37,0,0,1-.47-1.64,6.05,6.05,0,0,0-1.41-3c-.23-.24-.23,1.63-.23,2.34s1.64,2.81,1.64,2.81Z" transform="translate(-54.57 -4)" fill="url(#linear-gradient-124)"/><path d="M388.08,264.83s-3.22.78-3.9,1.1,1.86.47,3.05.62,1.35,0,1.35,0a7.43,7.43,0,0,1,.68-.94C389.63,265.16,388.08,264.83,388.08,264.83Z" transform="translate(-54.57 -4)" fill="url(#linear-gradient-125)"/><path d="M389.77,263.48,388,265.1a.9.9,0,0,0,.9.54l2-1.44Z" transform="translate(-54.57 -4)" fill="url(#linear-gradient-126)"/><path d="M413.41,234.53c-6.44,7-12.94,14.58-19.34,22.91-1.74,2.28-3.44,4.54-5.08,6.8l1.66.39a24.4,24.4,0,0,0,8.68-5.09c3.37-3.11,3-4.7,6.43-7.79,4-3.64,6.19-3,10-6.32a22.48,22.48,0,0,0,5.94-8.47Z" transform="translate(-54.57 -4)" fill="url(#linear-gradient-127)"/><path d="M428.06,207.24a10.78,10.78,0,0,0-2.51,2.78c-.65,1.31.91,1.87.91,1.87l-.43.82a2,2,0,0,1-1.89,1.08l-.7,0c.48.3,1.21.73,2.12,1.19,1.68.86,3.68,1.67,3.86,1.36s-.82-.72-1.13-1.93a3.08,3.08,0,0,1,0-1.34l.12-.38S430.87,208.76,428.06,207.24Z" transform="translate(-54.57 -4)" fill="url(#linear-gradient-128)"/><path d="M427.43,208.93a1.81,1.81,0,0,1-.23-2.11c.21-.25.64-.42,1.63-.24,2.5.46,4.06,2.33,5.39,3.28,2.3,1.64,4.61,1,8.43.94,1.17,0,10.23,0,18,4,2.72,1.38,7.14,3.62,8.2,8.19.68,2.94,0,7.14-2.58,8.9-3.53,2.37-8.19-1.34-10.77,1.17-1.68,1.64-.23,3.77-1.87,5.62-2.26,2.55-8.54,2.46-12.41-.47-4.43-3.36-1.54-7.29-7-15-1.93-2.72-3.32-5.81-5.39-8.43-.07-.09-2.45-3.11-1.63-4.22.28-.38,1-.55.93-.93S427.76,209.31,427.43,208.93Z" transform="translate(-54.57 -4)" fill="url(#linear-gradient-129)"/><path d="M407.06,201l-1.17.7a19,19,0,0,0,3.51,10.06c2.94,4,6.17,4.52,6.56,7.73.23,1.93-.89,2.17-2.58,7.49-1,3.13-1.51,4.78-1.4,7,.06,1.18.25,5,2.81,7.25,1,.92,2.11,1.28,9.13,1.88,8.09.68,9.26.42,11.47,1.63,2.78,1.54,4.18,3.74,4.92,3.28s-.3-3.73-.47-4.21c-1.63-4.62-4.11-5.62-6.56-10.3a22.38,22.38,0,0,1-2.1-5.62c-1.22-5.44.56-7.73-.94-10.54-1.43-2.66-4.41-3.29-7.26-4.21C418.86,211.8,413.23,208.74,407.06,201Z" transform="translate(-54.57 -4)" fill="url(#linear-gradient-130)"/><path d="M438,243.34c-1.86-1.46-3.35-.7-5.38-2.34-2.57-2.09-1.49-4.39-3.51-6.56-3.37-3.6-9.4-.41-11-3-1.7-2.78,4.57-7.12,3-12.64-.73-2.64-2.91-4.36-4.22-5.39-3.46-2.73-6-2.09-8.66-4.68a9.3,9.3,0,0,1-1.14-1.31,16.57,16.57,0,0,0,2.31,4.35c2.94,4,6.17,4.52,6.56,7.73.23,1.93-.89,2.17-2.58,7.49-1,3.13-1.51,4.78-1.4,7,.06,1.18.25,5,2.81,7.25,1,.92,2.11,1.28,9.13,1.88,8.09.68,9.26.42,11.47,1.63,2.78,1.54,4.18,3.74,4.92,3.28a.47.47,0,0,0,.14-.14A7.27,7.27,0,0,0,438,243.34Z" transform="translate(-54.57 -4)" opacity="0.3" fill="url(#linear-gradient-131)" style="mix-blend-mode:multiply"/><path d="M343.41,116.39a.34.34,0,0,1-.33-.25L319.8,39.86a.65.65,0,0,0-.52-.46l-.06,0-.86-.33a.35.35,0,0,1,.25-.65l.83.33a1.34,1.34,0,0,1,1,.93l23.27,76.28a.34.34,0,0,1-.23.43Z" transform="translate(-54.57 -4)" fill="url(#linear-gradient-132)"/></g></g></svg>