<svg width="80" height="80" viewBox="0 0 80 80" fill="none" xmlns="http://www.w3.org/2000/svg">
<g clip-path="url(#clip0)">
<g opacity="0.7">
<path opacity="0.7" d="M60.5697 27.5H31.8047L44.4193 14.8852C44.8887 14.417 45.5243 14.1541 46.1872 14.1541C46.85 14.1541 47.4858 14.417 47.955 14.8852L60.5697 27.5ZM33.8125 63.346C33.4842 63.3465 33.159 63.2822 32.8557 63.1568C32.5523 63.0313 32.2767 62.8472 32.0447 62.6148L19.4303 50H48.196L35.5813 62.6148C35.3492 62.8472 35.0733 63.0315 34.7698 63.157C34.4663 63.2823 34.141 63.3467 33.8125 63.346Z" fill="url(#paint0_linear)"/>
<path opacity="0.7" d="M60 25H20C18.6193 25 17.5 26.1193 17.5 27.5V50C17.5 51.3807 18.6193 52.5 20 52.5H60C61.3807 52.5 62.5 51.3807 62.5 50V27.5C62.5 26.1193 61.3807 25 60 25Z" fill="url(#paint1_linear)"/>
<path opacity="0.7" d="M62.3237 68.9264L64.176 53.1816L67.1202 57.9176C70.648 52.6096 72.5205 46.3734 72.5002 39.9999C72.5002 14.9495 45.2433 -0.588487 23.7553 11.8456L22.6735 12.4715L18.9172 5.98011C19.597 5.68901 28.0815 -0.257861 40.5772 -0.0297354C73.541 0.56917 91.0022 37.8281 72.4153 63.4404L77.8943 67.0944L62.3237 68.9264Z" fill="url(#paint2_linear)"/>
<path opacity="0.7" d="M39.423 80.0295C7.16455 79.4435 -11.4523 42.7926 7.58487 16.5594L2.1058 12.9061L17.6765 11.0742L15.8241 26.8181L12.88 22.0821C9.35204 27.3903 7.47959 33.6263 7.50002 39.9998C7.50002 65.0466 34.7542 80.5906 56.2447 68.1541L57.3267 67.5283L61.083 74.0196C60.4032 74.3108 51.9187 80.2576 39.423 80.0295Z" fill="url(#paint3_linear)"/>
<path opacity="0.7" d="M62.5 35H61.25C58.9293 35 56.7038 34.0782 55.0628 32.4372C53.4218 30.7962 52.5 28.5707 52.5 26.25V25H60C60.663 25 61.299 25.2633 61.7678 25.7322C62.2367 26.201 62.5 26.837 62.5 27.5V35Z" fill="#499172"/>
<path opacity="0.7" d="M17.5 35H18.75C21.0707 35 23.2963 34.0782 24.9372 32.4372C26.5782 30.7962 27.5 28.5707 27.5 26.25V25H20C19.337 25 18.7012 25.2633 18.2322 25.7322C17.7633 26.201 17.5 26.837 17.5 27.5V35Z" fill="#499172"/>
<path opacity="0.7" d="M62.5 42.5H61.25C58.9293 42.5 56.7038 43.4218 55.0628 45.0628C53.4218 46.7037 52.5 48.9293 52.5 51.25V52.5H60C60.663 52.5 61.299 52.2365 61.7678 51.7677C62.2367 51.2988 62.5 50.663 62.5 50V42.5Z" fill="#499172"/>
<path opacity="0.7" d="M17.5 42.5H18.75C21.0707 42.5 23.2963 43.4218 24.9372 45.0628C26.5782 46.7037 27.5 48.9293 27.5 51.25V52.5H20C19.337 52.5 18.7012 52.2365 18.2322 51.7677C17.7633 51.2988 17.5 50.663 17.5 50V42.5Z" fill="#499172"/>
<path opacity="0.7" d="M40.1125 25L21.875 43.0172L20.1078 41.25L36.5782 25H40.1125Z" fill="#76D994"/>
<path opacity="0.7" d="M50.625 25.0938L28.75 46.875L25.214 43.3407L43.6485 25H50.6062L50.625 25.0938Z" fill="#76D994"/>
<path opacity="0.7" d="M41.25 37.5H38.75C38.4185 37.5 38.1005 37.3683 37.8662 37.1338C37.6317 36.8995 37.5 36.5815 37.5 36.25C37.5 35.9185 37.6317 35.6005 37.8662 35.3662C38.1005 35.1317 38.4185 35 38.75 35H43.75V32.5H41.25V30H38.75V32.5C37.7555 32.5 36.8017 32.8952 36.0983 33.5983C35.395 34.3017 35 35.2555 35 36.25C35 37.2445 35.395 38.1983 36.0983 38.9017C36.8017 39.6048 37.7555 40 38.75 40H41.25C41.5815 40 41.8995 40.1317 42.1338 40.3662C42.3683 40.6005 42.5 40.9185 42.5 41.25C42.5 41.5815 42.3683 41.8995 42.1338 42.1338C41.8995 42.3683 41.5815 42.5 41.25 42.5H36.25V45H38.75V47.5H41.25V45C42.2445 45 43.1983 44.6048 43.9017 43.9017C44.6048 43.1983 45 42.2445 45 41.25C45 40.2555 44.6048 39.3017 43.9017 38.5983C43.1983 37.895 42.2445 37.5 41.25 37.5Z" fill="white"/>
<path opacity="0.7" d="M47.5 37.5H50V40H47.5V37.5Z" fill="white"/>
<path opacity="0.7" d="M30 37.5H32.5V40H30V37.5Z" fill="white"/>
</g>
</g>
<defs>
<linearGradient id="paint0_linear" x1="40" y1="14.1541" x2="40" y2="63.346" gradientUnits="userSpaceOnUse">
<stop stop-color="#549D7F"/>
<stop offset="0.27" stop-color="#56A180"/>
<stop offset="0.52" stop-color="#5CAC84"/>
<stop offset="0.762" stop-color="#67BF8B"/>
<stop offset="0.997" stop-color="#76D994"/>
<stop offset="1" stop-color="#76D994"/>
</linearGradient>
<linearGradient id="paint1_linear" x1="40" y1="25" x2="40" y2="52.5" gradientUnits="userSpaceOnUse">
<stop stop-color="#549D7F"/>
<stop offset="0.064" stop-color="#59A682"/>
<stop offset="0.251" stop-color="#66BD8A"/>
<stop offset="0.454" stop-color="#6FCD90"/>
<stop offset="0.685" stop-color="#74D693"/>
<stop offset="1" stop-color="#76D994"/>
</linearGradient>
<linearGradient id="paint2_linear" x1="49.459" y1="-0.0361417" x2="49.459" y2="68.9264" gradientUnits="userSpaceOnUse">
<stop stop-color="#F5B563"/>
<stop offset="0.031" stop-color="#F6BA66"/>
<stop offset="0.198" stop-color="#F8CE72"/>
<stop offset="0.387" stop-color="#FADC7A"/>
<stop offset="0.617" stop-color="#FBE47F"/>
<stop offset="1" stop-color="#FBE781"/>
</linearGradient>
<linearGradient id="paint3_linear" x1="30.5025" y1="11.0734" x2="30.5025" y2="80.036" gradientUnits="userSpaceOnUse">
<stop stop-color="#F07C68"/>
<stop offset="1" stop-color="#F3B775"/>
</linearGradient>
<clipPath id="clip0">
<rect width="80" height="80" fill="white"/>
</clipPath>
</defs>
</svg>
