<svg width="48" height="56" viewBox="0 0 48 56" fill="none" xmlns="http://www.w3.org/2000/svg">
<g clip-path="url(#clip0)">
<path d="M42.8571 3.5H5.14286C3.77889 3.5 2.47078 4.05312 1.50631 5.03769C0.541835 6.02226 0 7.35761 0 8.75L0 47.25C0 48.6424 0.541835 49.9777 1.50631 50.9623C2.47078 51.9469 3.77889 52.5 5.14286 52.5H19.8482V35.8411H13.0982V28H19.8482V22.0238C19.8482 15.2261 23.8125 11.4712 29.8843 11.4712C32.7921 11.4712 35.8329 12.0006 35.8329 12.0006V18.6725H32.4825C29.1814 18.6725 28.1518 20.7638 28.1518 22.9086V28H35.5211L34.3425 35.8411H28.1518V52.5H42.8571C44.2211 52.5 45.5292 51.9469 46.4937 50.9623C47.4582 49.9777 48 48.6424 48 47.25V8.75C48 7.35761 47.4582 6.02226 46.4937 5.03769C45.5292 4.05312 44.2211 3.5 42.8571 3.5Z" fill="#4267B2"/>
</g>
<defs>
<clipPath id="clip0">
<rect width="48" height="56" fill="white"/>
</clipPath>
</defs>
</svg>
