<svg width="146" height="114" viewBox="0 0 146 114" fill="none" xmlns="http://www.w3.org/2000/svg">
<g clip-path="url(#clip0)">
<path d="M70.6167 76.2313C70.6167 76.2313 70.5281 75.9571 70.4926 75.8688C70.2775 75.3391 69.7499 74.9905 69.169 74.958H59.0749H55.3835H48.5174H46.358C44.9192 77.7485 43.6976 80.2625 42.7243 82.3328C41.2655 85.437 40.1503 87.9487 39.4631 89.5379L39.248 89.6913L38.7248 91.1411L39.0064 91.3898H59.1591H69.0848H73.6363C74.5032 91.3898 75.2082 90.6532 75.2082 89.7424C75.2082 89.7424 75.2104 89.6936 75.2082 89.6773C74.6251 86.1573 70.6167 76.2313 70.6167 76.2313Z" fill="url(#paint0_linear)"/>
<path opacity="0.5" d="M39.1415 91.3878L56.2259 74.9561H49.7611" fill="#961B1E"/>
<path opacity="0.89" d="M43.1123 82.3308C42.7065 83.1952 42.3296 84.0107 41.9816 84.7751C40.2346 88.6205 39.2413 91.1299 39.1393 91.3855L49.7589 74.9561H46.5597C46.5619 74.9584 44.0855 80.2629 43.1123 82.3308Z" fill="#961B1E"/>
<path d="M81.8659 34.3853C81.7839 34.455 81.7041 34.527 81.6242 34.5967C81.7018 34.527 81.7839 34.455 81.8659 34.3853Z" fill="url(#paint1_linear)"/>
<path d="M83.5841 28.0935L90.6298 27.6172C87.8518 22.4567 84.094 19.0249 79.0081 19.0249L75.0552 31.9645C75.0552 31.9645 75.8001 32.3734 76.8554 34.3251L78.935 32.062C78.9328 32.0597 83.522 28.1098 83.5841 28.0935Z" fill="url(#paint2_linear)"/>
<path d="M116.338 76.2269L116.214 75.8645C116.21 75.8575 116.205 75.8482 116.203 75.8412C116.562 76.9031 117.427 78.8037 118.141 80.9227C117.427 78.806 116.562 76.9031 116.203 75.8412C115.955 75.337 115.465 74.9862 114.893 74.9536H103.987C103.868 74.9536 101.806 74.9815 101.806 74.9815H98.447C98.447 74.9815 99.07 43.3588 90.652 27.6566C90.6498 27.6519 90.6475 27.6496 90.6453 27.645C90.6387 27.6357 90.6342 27.624 90.6298 27.6147C90.6143 27.6264 79.4893 35.3915 78.465 38.1216C78.465 38.1216 78.4561 38.0937 78.4384 38.0449C78.4473 38.0705 78.4561 38.096 78.465 38.1216C78.6712 38.7234 78.8818 39.3809 79.0924 40.0989C79.4072 41.177 79.7265 42.3968 80.0391 43.77C81.9745 52.2647 83.7349 66.7471 83.7349 91.3831H102.101H103.987H114.809H119.36C120.196 91.3831 120.877 90.7 120.928 89.8379C120.93 89.8031 120.93 89.7706 120.93 89.7357C120.93 89.7357 120.932 89.6869 120.93 89.6707C120.347 86.1552 116.338 76.2269 116.338 76.2269ZM81.622 34.5922C81.7018 34.5225 81.7817 34.4505 81.8637 34.3808C81.7817 34.4528 81.7018 34.5225 81.622 34.5922ZM82.7749 33.6094C82.9035 33.5025 83.0343 33.3956 83.1651 33.2864C83.0321 33.3956 82.9035 33.5025 82.7749 33.6094ZM85.4863 31.4485C85.6215 31.3463 85.7546 31.244 85.8876 31.1418C85.7546 31.2417 85.6215 31.344 85.4863 31.4485ZM86.6857 30.5377C86.8564 30.4099 87.0227 30.2844 87.1868 30.1636C87.0227 30.2868 86.8542 30.4122 86.6857 30.5377Z" fill="url(#paint3_linear)"/>
<path d="M85.8876 31.144C85.7545 31.2463 85.6215 31.3485 85.4863 31.4507C85.6215 31.3485 85.7545 31.2463 85.8876 31.144Z" fill="url(#paint4_linear)"/>
<path opacity="0.85" d="M78.4384 38.0472C78.2743 37.5708 78.1102 37.1317 77.9506 36.7251C78.1878 37.3339 78.3718 37.8566 78.4384 38.0472Z" fill="#2B3990"/>
<path opacity="0.85" d="M76.8443 34.3345C76.8707 34.374 76.8993 34.4181 76.9256 34.4646C76.9015 34.4181 76.8773 34.3717 76.8531 34.3252L76.8443 34.3345Z" fill="#2B3990"/>
<path d="M90.6298 27.6172L83.5841 28.0935C83.522 28.1098 78.9328 32.062 78.9328 32.062L76.8532 34.3251C76.8776 34.3716 76.902 34.4157 76.9263 34.4645C77.2545 35.0036 77.6447 35.9376 77.9506 36.7276C78.1102 37.1342 78.2743 37.5734 78.4384 38.0497C78.4561 38.0985 78.465 38.1264 78.465 38.1264C79.4892 35.3939 90.6143 27.6265 90.6298 27.6172Z" fill="url(#paint5_linear)"/>
<path opacity="0.85" d="M90.6874 27.7239L90.6298 27.6147L83.5841 28.0911C83.522 28.1073 78.9328 32.0596 78.9328 32.0596L76.8532 34.3227C76.8776 34.3691 76.902 34.4133 76.9263 34.4621C77.2545 35.0011 77.6447 35.9352 77.9506 36.7252C78.1102 37.1318 78.2743 37.5709 78.4384 38.0472C78.4561 38.096 78.465 38.1239 78.465 38.1239C79.4892 35.3938 90.6874 27.7239 90.6874 27.7239Z" fill="#2B3990"/>
<path opacity="0.7" d="M90.6874 27.7241C90.6874 27.7241 79.4892 35.3917 78.465 38.1241C78.6711 38.7259 78.8818 39.3834 79.0924 40.1014C79.4072 41.1795 79.7265 42.3993 80.0391 43.7725C80.5911 41.0935 90.6874 27.7241 90.6874 27.7241Z" fill="#2B3990"/>
<path opacity="0.7" d="M90.6874 27.7239C90.6874 27.7239 90.6364 27.6287 90.6298 27.6147L90.6209 27.6171L90.5655 27.631C87.1313 28.3792 83.6062 29.8964 80.09 32.1432C79.0281 32.8217 77.9573 33.5745 76.8842 34.3924C76.8842 34.3924 84.6571 28.8601 90.6608 27.7286L90.6874 27.7239Z" fill="white"/>
<path d="M67.4042 19.6404C52.2508 28.4023 27.9522 70.8456 28.7104 77.0981C29.4177 82.937 38.2902 90.7626 38.9753 91.3574L39.1061 91.0484L39.6892 89.6798L40.188 88.4251C40.5183 87.6584 40.9085 86.7638 41.3564 85.7647V85.7624C41.8286 84.7099 42.3629 83.5388 42.9571 82.2772C43.9237 80.2209 45.1364 77.7254 46.5642 74.9558C48.6105 70.9803 51.098 66.4402 53.9291 61.8257C59.3254 53.0243 64.8458 45.7495 70.3329 40.2056C73.5919 36.9109 76.8753 34.1994 80.0945 32.1431C83.6107 29.8963 87.1357 28.379 90.5699 27.6309L90.6342 27.6146C90.1088 26.576 82.0499 11.1712 67.4042 19.6404Z" fill="url(#paint6_linear)"/>
<path opacity="0.7" d="M42.9571 82.2795C42.3629 83.5411 41.8286 84.7122 41.3564 85.7647V85.767C40.9085 86.7661 40.5183 87.6607 40.188 88.4274L39.6892 89.6821L38.9753 91.3597L39.0108 91.3899H39.146C39.248 91.132 40.2257 88.6249 41.9727 84.7795C42.3208 84.0151 42.6844 83.2298 43.0901 82.3678C44.0634 80.2998 46.5642 74.9651 46.5664 74.9604C45.1364 77.7254 43.9237 80.2232 42.9571 82.2795Z" fill="white"/>
</g>
<defs>
<linearGradient id="paint0_linear" x1="38.7271" y1="83.1717" x2="75.2093" y2="83.1717" gradientUnits="userSpaceOnUse">
<stop stop-color="#D65033"/>
<stop offset="0.5054" stop-color="#E47B41"/>
<stop offset="0.6292" stop-color="#E79045"/>
<stop offset="0.7843" stop-color="#EAA74B"/>
<stop offset="0.9135" stop-color="#ECB54E"/>
<stop offset="1" stop-color="#EDBA4F"/>
</linearGradient>
<linearGradient id="paint1_linear" x1="97.9661" y1="97.8912" x2="75.7607" y2="18.8728" gradientUnits="userSpaceOnUse">
<stop stop-color="#8DC85A"/>
<stop offset="0.3566" stop-color="#27AAE1"/>
<stop offset="0.5126" stop-color="#2192D0"/>
<stop offset="0.7123" stop-color="#1C77BD"/>
<stop offset="1" stop-color="#1C75BC"/>
</linearGradient>
<linearGradient id="paint2_linear" x1="100.112" y1="97.2873" x2="77.9062" y2="18.2704" gradientUnits="userSpaceOnUse">
<stop stop-color="#8DC85A"/>
<stop offset="0.3566" stop-color="#27AAE1"/>
<stop offset="0.5126" stop-color="#2192D0"/>
<stop offset="0.7123" stop-color="#1C77BD"/>
<stop offset="1" stop-color="#1C75BC"/>
</linearGradient>
<linearGradient id="paint3_linear" x1="103.816" y1="96.2426" x2="81.6103" y2="17.2257" gradientUnits="userSpaceOnUse">
<stop stop-color="#8DC85A"/>
<stop offset="0.3566" stop-color="#27AAE1"/>
<stop offset="0.5126" stop-color="#2192D0"/>
<stop offset="0.7123" stop-color="#1C77BD"/>
<stop offset="1" stop-color="#1C75BC"/>
</linearGradient>
<linearGradient id="paint4_linear" x1="102.408" y1="96.6402" x2="80.2039" y2="17.6248" gradientUnits="userSpaceOnUse">
<stop stop-color="#8DC85A"/>
<stop offset="0.3566" stop-color="#27AAE1"/>
<stop offset="0.5126" stop-color="#2192D0"/>
<stop offset="0.7123" stop-color="#1C77BD"/>
<stop offset="1" stop-color="#1C75BC"/>
</linearGradient>
<linearGradient id="paint5_linear" x1="100.67" y1="97.1308" x2="78.4637" y2="18.1137" gradientUnits="userSpaceOnUse">
<stop stop-color="#8DC85A"/>
<stop offset="0.3566" stop-color="#27AAE1"/>
<stop offset="0.5126" stop-color="#2192D0"/>
<stop offset="0.7123" stop-color="#1C77BD"/>
<stop offset="1" stop-color="#1C75BC"/>
</linearGradient>
<linearGradient id="paint6_linear" x1="28.428" y1="80.5943" x2="88.1062" y2="23.6507" gradientUnits="userSpaceOnUse">
<stop stop-color="#F15A4A"/>
<stop offset="0.0368438" stop-color="#F05050"/>
<stop offset="0.1231" stop-color="#EF385A"/>
<stop offset="0.1713" stop-color="#EE2B5C"/>
<stop offset="0.4052" stop-color="#BE5B8D"/>
<stop offset="0.547" stop-color="#A06AAD"/>
<stop offset="0.8524" stop-color="#5C4A9E"/>
</linearGradient>
<clipPath id="clip0">
<rect width="146" height="114" fill="white"/>
</clipPath>
</defs>
</svg>
