<svg width="1193" height="556" viewBox="0 0 1193 556" fill="none" xmlns="http://www.w3.org/2000/svg">
<ellipse opacity="0.1" cx="787.865" cy="87.0001" rx="39.0152" ry="40" fill="#D251B6"/>
<path opacity="0.2" d="M91.2429 98.0275L313.154 152.934L155.116 322.723L91.2429 98.0275Z" fill="#C4C4C4"/>
<path d="M1142.67 442.308L1167.32 528.276L1080.88 506.957L1142.67 442.308Z" fill="#C4C4C4" fill-opacity="0.1"/>
<ellipse cx="576.035" cy="229.5" rx="58.0352" ry="59.5" fill="#8B3077" fill-opacity="0.1"/>
<g opacity="0.5">
<rect width="3.98808" height="3.9881" transform="matrix(0.947682 0.319216 -0.381564 0.924342 482.651 316.572)" fill="#1A21BC"/>
<rect width="3.98808" height="3.9881" transform="matrix(0.947682 0.319216 -0.381564 0.924342 505.656 306.099)" fill="#1A21BC"/>
<rect width="3.98808" height="3.9881" transform="matrix(0.947682 0.319216 -0.381564 0.924342 528.662 295.626)" fill="#1A21BC"/>
<rect width="3.98808" height="3.9881" transform="matrix(0.947682 0.319216 -0.381564 0.924342 551.668 285.153)" fill="#1A21BC"/>
<rect width="3.98808" height="3.9881" transform="matrix(0.947682 0.319216 -0.381564 0.924342 574.674 274.68)" fill="#1A21BC"/>
<rect width="3.98808" height="3.9881" transform="matrix(0.947682 0.319216 -0.381564 0.924342 597.679 264.207)" fill="#1A21BC"/>
<rect width="3.98808" height="3.9881" transform="matrix(0.947682 0.319216 -0.381564 0.924342 491.596 336.223)" fill="#1A21BC"/>
<rect width="3.98808" height="3.9881" transform="matrix(0.947682 0.319216 -0.381564 0.924342 500.543 355.875)" fill="#1A21BC"/>
<rect width="3.98808" height="3.9881" transform="matrix(0.947682 0.319216 -0.381564 0.924342 509.489 375.526)" fill="#1A21BC"/>
<rect width="3.98808" height="3.9881" transform="matrix(0.947682 0.319216 -0.381564 0.924342 518.435 395.177)" fill="#1A21BC"/>
<rect width="3.98808" height="3.9881" transform="matrix(0.947682 0.319216 -0.381564 0.924342 514.602 325.75)" fill="#1A21BC"/>
<rect width="3.98808" height="3.9881" transform="matrix(0.947682 0.319216 -0.381564 0.924342 523.548 345.402)" fill="#1A21BC"/>
<rect width="3.98808" height="3.9881" transform="matrix(0.947682 0.319216 -0.381564 0.924342 532.494 365.053)" fill="#1A21BC"/>
<rect width="3.98808" height="3.9881" transform="matrix(0.947682 0.319216 -0.381564 0.924342 541.44 384.704)" fill="#1A21BC"/>
<rect width="3.98808" height="3.9881" transform="matrix(0.947682 0.319216 -0.381564 0.924342 537.608 315.277)" fill="#1A21BC"/>
<rect width="3.98808" height="3.9881" transform="matrix(0.947682 0.319216 -0.381564 0.924342 546.554 334.929)" fill="#1A21BC"/>
<rect width="3.98808" height="3.9881" transform="matrix(0.947682 0.319216 -0.381564 0.924342 555.5 354.58)" fill="#1A21BC"/>
<rect width="3.98808" height="3.9881" transform="matrix(0.947682 0.319216 -0.381564 0.924342 564.446 374.231)" fill="#1A21BC"/>
<rect width="3.98808" height="3.9881" transform="matrix(0.947682 0.319216 -0.381564 0.924342 560.614 304.804)" fill="#1A21BC"/>
<rect width="3.98808" height="3.9881" transform="matrix(0.947682 0.319216 -0.381564 0.924342 569.56 324.456)" fill="#1A21BC"/>
<rect width="3.98808" height="3.9881" transform="matrix(0.947682 0.319216 -0.381564 0.924342 578.506 344.107)" fill="#1A21BC"/>
<rect width="3.98808" height="3.9881" transform="matrix(0.947682 0.319216 -0.381564 0.924342 587.452 363.758)" fill="#1A21BC"/>
<rect width="3.98808" height="3.9881" transform="matrix(0.947682 0.319216 -0.381564 0.924342 583.62 294.331)" fill="#1A21BC"/>
<rect width="3.98808" height="3.9881" transform="matrix(0.947682 0.319216 -0.381564 0.924342 592.566 313.982)" fill="#1A21BC"/>
<rect width="3.98808" height="3.9881" transform="matrix(0.947682 0.319216 -0.381564 0.924342 601.512 333.633)" fill="#1A21BC"/>
<rect width="3.98808" height="3.9881" transform="matrix(0.947682 0.319216 -0.381564 0.924342 610.458 353.284)" fill="#1A21BC"/>
<rect width="3.98808" height="3.9881" transform="matrix(0.947682 0.319216 -0.381564 0.924342 606.625 283.858)" fill="#1A21BC"/>
<rect width="3.98808" height="3.9881" transform="matrix(0.947682 0.319216 -0.381564 0.924342 615.571 303.509)" fill="#1A21BC"/>
<rect width="3.98808" height="3.9881" transform="matrix(0.947682 0.319216 -0.381564 0.924342 624.517 323.16)" fill="#1A21BC"/>
<rect width="3.98808" height="3.9881" transform="matrix(0.947682 0.319216 -0.381564 0.924342 633.463 342.811)" fill="#1A21BC"/>
</g>
<rect opacity="0.1" x="789" y="385.291" width="111" height="101" transform="rotate(-16.9124 789 385.291)" fill="#C4C4C4"/>
</svg>
