<svg width="48" height="56" viewBox="0 0 48 56" fill="none" xmlns="http://www.w3.org/2000/svg">
<path d="M10.7443 48.9999H0.792857V16.2858H10.7443V48.9999ZM5.76321 11.8233C2.58107 11.8233 0 9.1327 0 5.88426C2.27764e-08 4.32391 0.607194 2.82748 1.68801 1.72415C2.76882 0.62082 4.23471 0.000976562 5.76321 0.000976562C7.29171 0.000976562 8.75761 0.62082 9.83842 1.72415C10.9192 2.82748 11.5264 4.32391 11.5264 5.88426C11.5264 9.1327 8.94429 11.8233 5.76321 11.8233ZM47.9893 48.9999H38.0593V33.0749C38.0593 29.2796 37.9843 24.4124 32.8854 24.4124C27.7114 24.4124 26.9186 28.5358 26.9186 32.8014V48.9999H16.9779V16.2858H26.5221V20.7483H26.6614C27.99 18.178 31.2354 15.4655 36.0771 15.4655C46.1486 15.4655 48 22.2358 48 31.0296V48.9999H47.9893Z" fill="#2867B2"/>
</svg>
