<svg width="417" height="413" viewBox="0 0 417 413" fill="none" xmlns="http://www.w3.org/2000/svg">
<path d="M373.232 211.642C373.232 302.778 296.635 376.689 202.11 376.689C107.585 376.689 30.9875 302.778 30.9875 211.642C30.9875 120.506 107.585 46.595 202.11 46.595C296.635 46.595 373.232 120.506 373.232 211.642Z" stroke="#5FC5C5"/>
<path d="M327.618 209.213C327.618 274.653 272.605 327.795 204.629 327.795C136.652 327.795 81.6393 274.653 81.6393 209.213C81.6393 143.772 136.652 90.6303 204.629 90.6303C272.605 90.6303 327.618 143.772 327.618 209.213Z" stroke="#2F97D1" stroke-width="3"/>
<path d="M278.334 206.229C278.334 245.208 245.55 276.959 204.917 276.959C164.284 276.959 131.5 245.208 131.5 206.229C131.5 167.251 164.284 135.5 204.917 135.5C245.55 135.5 278.334 167.251 278.334 206.229Z" stroke="#7DE0E7" stroke-width="5"/>
<g clip-path="url(#clip0)">
<path d="M267.477 362.329C267.477 368.931 266.169 375.237 263.787 381.022C262.513 384.116 260.933 387.061 259.08 389.82C256.773 393.261 254.044 396.415 250.965 399.211C249.162 400.852 247.241 402.367 245.212 403.749C236.657 409.577 226.218 413 214.946 413C203.675 413 193.235 409.577 184.68 403.749C182.142 402.02 179.77 400.082 177.594 397.956C168.21 388.804 162.416 376.217 162.416 362.329C162.416 348.442 168.21 335.855 177.594 326.703C179.899 324.453 182.423 322.411 185.131 320.608C193.6 314.964 203.872 311.659 214.946 311.659C226.021 311.659 236.293 314.964 244.762 320.608C246.831 321.983 248.791 323.501 250.628 325.146C253.847 328.016 256.69 331.273 259.08 334.839C260.933 337.598 262.513 340.543 263.787 343.637C266.169 349.422 267.477 355.728 267.477 362.329Z" fill="#E4BA42"/>
<path d="M236.222 352.424C234.637 347.989 228.137 347.989 226.869 351.66C225.6 355.33 229.881 357.471 236.54 359.612C243.198 361.753 247.321 367.411 246.528 372.458C245.735 377.504 243.515 384.08 230.357 384.08C222.132 384.08 217.562 379.122 215.29 375.404L222.747 371.081C222.747 371.081 225.283 376.281 230.039 376.281C234.796 376.281 236.698 374.752 236.698 371.235C236.698 366.953 221.319 365.423 218.941 358.083C216.563 350.742 219.734 340.343 230.832 341.107C237.768 341.585 241.67 344.871 243.621 347.268L236.222 352.424Z" fill="#F2F2F2"/>
<path d="M201.66 341.872C201.66 341.872 201.66 367.717 201.66 371.235C201.66 374.752 198.49 376.587 195.319 375.975C192.148 375.364 190.721 371.694 190.721 371.694L183.428 376.434C183.428 376.434 185.014 383.469 195.002 384.081C204.99 384.693 210.697 378.881 210.697 373.987C210.697 369.094 210.697 341.872 210.697 341.872H201.66Z" fill="#F2F2F2"/>
</g>
<path d="M159 191H251V221H205V226H184.556V221H159V191ZM164.111 216H174.333V201H179.444V216H184.556V196H164.111V216ZM189.667 196V221H199.889V216H210.111V196H189.667ZM199.889 201H205V211H199.889V201ZM215.222 196V216H225.444V201H230.556V216H235.667V201H240.778V216H245.889V196H215.222Z" fill="#CB3837"/>
<path d="M164.111 216H174.333V201H179.444V216H184.556V196H164.111V216Z" fill="white"/>
<path d="M189.667 196V221H199.889V216H210.111V196H189.667ZM205 211H199.889V201H205V211Z" fill="white"/>
<path d="M215.222 196V216H225.444V201H230.556V216H235.667V201H240.778V216H245.889V196H215.222Z" fill="white"/>
<path d="M9.0625 243L14.2422 299.7L37.5 306L60.7497 299.704L65.9375 243H9.0625Z" fill="#2196F3"/>
<path d="M54.8631 261.542L54.2091 268.665L52.2347 290.018L37.5 293.967L37.4878 293.971L22.7612 290.018L21.7334 278.851H28.9484L29.4847 284.643L37.4919 286.738L37.4959 286.734L45.5153 284.639L46.6081 274.988L21.3881 275.055L20.6731 268.456L47.2134 268.153L47.7497 261.089L19.9622 261.164L19.495 254.592H37.5H55.505L54.8631 261.542Z" fill="#FAFAFA"/>
<g clip-path="url(#clip1)">
<rect x="330.081" y="257.518" width="61.1652" height="59" rx="29.5" fill="#C16A6A"/>
<path d="M391.246 287.018C391.246 287.929 391.204 288.83 391.119 289.72C391.054 290.424 390.961 291.12 390.844 291.808C388.472 305.822 375.863 316.518 360.664 316.518C352.922 316.518 345.853 313.743 340.465 309.168C338.474 307.479 336.713 305.542 335.233 303.409C331.978 298.721 330.081 293.083 330.081 287.018C330.081 270.725 343.773 257.518 360.664 257.518C377.554 257.518 391.246 270.725 391.246 287.018Z" fill="#D0E1E8"/>
<path d="M381.201 290.375C380.421 290.657 380.453 290.662 380.04 289.942C379.513 289.023 379.233 288.058 379.209 287.007C379.189 286.106 379.446 285.268 379.769 284.447C380.027 283.793 379.691 283.563 379.101 283.503C378.672 283.461 378.229 283.465 377.799 283.507C376.679 283.617 376.569 283.71 376.272 284.752C376.096 285.37 375.955 285.993 375.662 286.58C374.94 288.025 374.119 289.417 373.277 290.798C373.126 291.047 373.001 291.315 372.788 291.527C372.178 290.651 371.948 289.684 371.897 288.669C371.845 287.667 372.165 286.735 372.517 285.814C372.636 285.504 372.537 285.312 372.258 285.178C372.134 285.118 371.995 285.063 371.86 285.053C371.142 284.998 370.426 285.006 369.725 285.195C369.41 285.278 369.205 285.447 369.134 285.787C368.998 286.45 368.785 287.095 368.497 287.715C367.699 289.433 366.907 291.154 366.11 292.873C365.417 294.366 364.735 295.863 363.914 297.297C363.856 297.399 363.808 297.575 363.663 297.54C363.516 297.505 363.567 297.331 363.561 297.213C363.514 296.367 363.754 295.56 363.959 294.753C364.283 293.475 364.638 292.203 364.982 290.929C365.081 290.564 364.915 290.318 364.599 290.143C364.145 289.892 363.692 289.88 363.2 290.231C363.267 289.712 363.296 289.256 363.273 288.799C363.221 287.783 362.729 287.121 361.874 286.968C361.249 286.856 360.658 287.03 360.1 287.284C358.798 287.875 357.751 288.766 356.871 289.848C356.768 289.974 356.665 290.089 356.515 290.167C354.864 291.03 353.214 291.893 351.567 292.764C351.386 292.86 351.27 292.833 351.139 292.699C350.31 291.846 349.347 291.143 348.394 290.429C347.062 289.43 345.683 288.483 344.534 287.279C343.862 286.574 343.301 285.802 343.021 284.869C342.563 283.345 342.906 281.925 343.668 280.576C344.57 278.98 345.907 277.747 347.382 276.65C349.724 274.908 352.293 273.524 355.001 272.385C358.032 271.112 361.178 270.291 364.528 270.415C365.855 270.464 367.143 270.685 368.325 271.308C369.162 271.749 369.716 272.386 369.872 273.322C370.056 274.417 369.782 275.429 369.275 276.389C368.142 278.533 366.342 280.051 364.214 281.24C362.442 282.23 360.53 282.859 358.507 283.188C357.389 283.37 356.267 283.48 355.142 283.316C353.852 283.127 352.659 282.714 351.777 281.717C351.675 281.602 351.546 281.522 351.372 281.603C351.195 281.685 351.209 281.836 351.225 281.981C351.238 282.081 351.266 282.182 351.303 282.277C351.539 282.888 351.981 283.349 352.499 283.752C353.845 284.802 355.439 285.11 357.114 285.141C358.753 285.173 360.366 284.973 361.963 284.607C365.565 283.781 368.582 282.086 370.785 279.182C372.101 277.446 372.935 275.533 372.861 273.344C372.814 271.956 372.327 270.729 371.272 269.732C370.017 268.549 368.46 267.954 366.79 267.597C364.93 267.2 363.051 267.143 361.152 267.361C359.501 267.55 357.887 267.874 356.317 268.393C353.914 269.187 351.593 270.163 349.371 271.349C347.095 272.564 344.95 273.954 343.069 275.696C341.404 277.238 339.973 278.939 339.167 281.05C338.823 281.954 338.575 282.884 338.806 283.862C339.102 285.12 339.749 286.21 340.599 287.193C341.885 288.681 343.463 289.853 345.09 290.973C346.397 291.873 347.765 292.692 349.021 293.66C349.377 293.934 349.375 293.934 348.956 294.144C348.466 294.389 347.972 294.625 347.491 294.885C345.552 295.937 343.678 297.077 342.149 298.661C341.396 299.441 340.885 300.317 340.646 301.29C341.892 303.074 343.373 304.693 345.047 306.106C347.904 305.892 350.091 304.467 351.706 302.108C352.486 300.97 352.852 299.681 352.989 298.321C353.11 297.123 352.983 295.963 352.616 294.819C352.552 294.618 352.313 294.417 352.407 294.24C352.494 294.077 352.756 293.994 352.949 293.888C353.728 293.454 354.509 293.026 355.311 292.584C355.346 292.749 355.279 292.846 355.25 292.95C354.79 294.568 354.47 296.2 354.819 297.881C355.037 298.928 355.399 299.914 356.087 300.781C356.796 301.673 358.378 301.572 359.021 300.757C359.63 299.984 360.035 299.112 360.456 298.244C360.687 297.768 360.899 297.285 361.119 296.805C361.078 297.383 361.08 297.947 361.102 298.508C361.124 299.062 361.217 299.609 361.517 300.098C361.878 300.686 362.557 300.858 363.188 300.543C363.854 300.212 364.308 299.666 364.66 299.074C366.173 296.528 367.577 293.927 368.739 291.211C368.986 290.634 369.241 290.058 369.521 289.417C369.564 289.627 369.592 289.756 369.619 289.885C369.877 291.179 370.337 292.403 371.002 293.554C371.145 293.801 371.129 293.971 370.949 294.208C370.336 295.008 369.664 295.762 369.001 296.523C368.445 297.163 367.85 297.775 367.379 298.48C366.957 299.115 367.2 299.764 367.902 299.908C368.118 299.952 368.346 299.966 368.568 299.962C369.795 299.948 370.928 299.597 371.983 299.021C373.403 298.245 374.245 297.107 374.206 295.487C374.188 294.749 373.981 294.042 373.671 293.366C373.603 293.216 373.6 293.107 373.701 292.966C374.685 291.615 375.554 290.198 376.353 288.74C376.495 288.483 376.595 288.198 376.824 287.948C376.854 288.049 376.878 288.113 376.892 288.178C377.146 289.387 377.488 290.568 378.131 291.646C378.307 291.941 378.219 292.091 377.975 292.289C377.136 292.972 376.429 293.77 375.873 294.683C375.441 295.394 375.145 296.153 375.148 296.986C375.151 297.912 375.89 298.458 376.832 298.241C377.814 298.015 378.724 297.631 379.54 297.058C381.32 295.809 381.842 294.491 381.284 292.651C381.066 291.927 381.07 291.939 381.827 291.72C383.483 291.24 385.162 291.22 386.85 291.484C387.041 291.514 387.23 291.549 387.417 291.588C387.516 291.013 387.594 290.431 387.648 289.842C385.489 289.335 383.332 289.598 381.201 290.375ZM346.219 303.329C345.739 303.492 345.241 303.561 344.73 303.523C344.095 303.475 343.692 303.045 343.651 302.398C343.605 301.653 343.835 300.981 344.175 300.326C344.793 299.138 345.831 298.331 346.891 297.54C347.921 296.77 349.027 296.112 350.146 295.473C350.485 295.279 350.491 295.281 350.568 295.669C350.669 296.166 350.759 296.665 350.726 297.117C350.814 299.829 348.761 302.466 346.219 303.329ZM361.628 289.656C361.45 290.798 361.06 291.887 360.646 292.962C360.081 294.43 359.531 295.906 358.82 297.317C358.657 297.643 358.486 297.966 358.223 298.231C357.974 298.481 357.753 298.452 357.581 298.146C357.245 297.548 357.287 296.882 357.233 296.399C357.248 293.974 358.097 291.993 359.494 290.211C359.885 289.715 360.383 289.311 361.044 289.149C361.492 289.039 361.699 289.213 361.628 289.656ZM371.413 296.834C370.934 297.627 370.244 298.204 369.398 298.615C369.308 298.659 369.191 298.735 369.109 298.633C369.032 298.538 369.157 298.474 369.213 298.414C370.054 297.533 370.885 296.645 371.633 295.689C371.645 295.674 371.673 295.672 371.737 295.646C371.73 296.088 371.629 296.477 371.413 296.834ZM377.219 296.8C377.094 296.856 376.949 296.962 376.828 296.871C376.693 296.772 376.747 296.595 376.788 296.46C376.979 295.845 377.236 295.256 377.591 294.707C377.889 294.245 378.259 293.841 378.665 293.465C378.829 293.314 378.902 293.332 378.958 293.549C379.015 293.772 379.021 293.994 379.025 294.221C379.014 295.461 378.358 296.285 377.219 296.8Z" fill="#CD6699"/>
</g>
<g clip-path="url(#clip2)">
<path d="M166.886 0L171.623 64.394L200.584 73.5765L229.545 64.394L234.283 0H166.886Z" fill="#FF7816"/>
<path d="M234.283 0L229.545 64.394L200.584 73.5765V0H234.283Z" fill="#FF4B00"/>
<path d="M221.635 19.5438H188.517L189.321 30.3216H220.831L218.909 56.4179L200.584 62.3243L182.26 56.4179L181.634 47.7097H190.573L190.752 50.0809L200.584 53.2278L210.417 50.0809L211.221 38.9438H180.964L178.908 10.9215H222.261L221.635 19.5438Z" fill="#ECECF1"/>
<path d="M220.831 30.3216L218.909 56.4179L200.584 62.3244V53.2278L210.417 50.0809L211.221 38.9438H200.584V30.3216H220.831Z" fill="#E2E2E7"/>
<path d="M222.261 10.9215L221.635 19.5437H200.584V10.9215H222.261Z" fill="#E2E2E7"/>
</g>
<g clip-path="url(#clip3)">
<path d="M387.5 127.5C387.5 147.389 371.6 163.5 352 163.5C332.4 163.5 316.5 147.389 316.5 127.5C316.5 107.611 332.4 91.5 352 91.5C371.6 91.5 387.5 107.611 387.5 127.5Z" fill="#5ADAFD" stroke="#5ADAFD"/>
<path d="M368.409 116.598C367.854 116.418 367.299 116.248 366.743 116.088C366.836 115.719 366.918 115.349 367 114.979C368.265 109.022 367.432 104.234 364.624 102.655C361.919 101.146 357.507 102.715 353.043 106.493C352.601 106.863 352.169 107.253 351.758 107.643C351.48 107.383 351.192 107.123 350.904 106.873C346.224 102.835 341.534 101.136 338.726 102.725C336.032 104.244 335.229 108.752 336.361 114.389C336.474 114.949 336.597 115.499 336.741 116.058C336.083 116.238 335.435 116.438 334.828 116.648C329.336 118.497 325.397 121.416 325.397 124.434C325.397 127.553 329.593 130.681 335.301 132.58C335.764 132.73 336.227 132.88 336.7 133.01C336.546 133.61 336.412 134.2 336.289 134.809C335.209 140.357 336.052 144.755 338.747 146.264C341.524 147.823 346.193 146.224 350.739 142.356C351.099 142.046 351.459 141.726 351.819 141.386C352.272 141.816 352.745 142.226 353.218 142.626C357.62 146.304 361.971 147.793 364.655 146.284C367.432 144.725 368.337 139.997 367.165 134.24C367.072 133.8 366.969 133.35 366.856 132.89C367.185 132.8 367.504 132.7 367.823 132.6C373.758 130.691 378.057 127.603 378.057 124.434C378.057 121.406 374.005 118.467 368.409 116.598ZM354.494 108.112C358.32 104.874 361.889 103.604 363.514 104.514C365.252 105.484 365.92 109.402 364.83 114.549C364.758 114.889 364.686 115.219 364.594 115.549C362.31 115.049 359.996 114.689 357.672 114.489C356.335 112.63 354.874 110.851 353.29 109.182C353.691 108.812 354.082 108.462 354.494 108.112ZM342.594 129.622C343.118 130.492 343.653 131.361 344.219 132.211C342.614 132.041 341.02 131.791 339.446 131.461C339.899 130.022 340.464 128.532 341.123 127.013C341.596 127.893 342.079 128.762 342.594 129.622ZM339.477 117.598C340.958 117.278 342.532 117.018 344.167 116.818C343.622 117.648 343.087 118.497 342.583 119.357C342.079 120.206 341.586 121.076 341.123 121.956C340.475 120.466 339.93 119.007 339.477 117.598ZM342.295 124.484C342.974 123.105 343.715 121.756 344.496 120.426C345.278 119.097 346.121 117.808 347.006 116.538C348.549 116.428 350.122 116.368 351.727 116.368C353.331 116.368 354.915 116.428 356.448 116.538C357.322 117.798 358.155 119.087 358.947 120.406C359.739 121.726 360.48 123.075 361.179 124.444C360.49 125.824 359.749 127.183 358.957 128.522C358.176 129.852 357.343 131.141 356.468 132.421C354.936 132.531 353.342 132.58 351.727 132.58C350.112 132.58 348.549 132.531 347.037 132.441C346.142 131.171 345.299 129.872 344.507 128.542C343.715 127.213 342.984 125.864 342.295 124.484ZM360.87 129.602C361.395 128.722 361.889 127.833 362.372 126.933C363.03 128.383 363.606 129.852 364.11 131.361C362.516 131.711 360.901 131.981 359.276 132.161C359.832 131.321 360.356 130.462 360.87 129.602ZM362.351 121.956C361.868 121.076 361.374 120.196 360.86 119.337C360.356 118.487 359.832 117.648 359.286 116.818C360.942 117.018 362.526 117.288 364.007 117.618C363.534 119.097 362.979 120.536 362.351 121.956ZM351.747 110.711C352.827 111.85 353.846 113.05 354.792 114.289C352.755 114.199 350.709 114.199 348.672 114.289C349.68 113 350.719 111.801 351.747 110.711ZM339.817 104.584C341.544 103.604 345.381 105.004 349.423 108.482C349.68 108.702 349.937 108.942 350.205 109.182C348.61 110.851 347.14 112.63 345.792 114.489C343.468 114.689 341.164 115.039 338.881 115.529C338.747 115.019 338.634 114.499 338.521 113.979C337.554 109.142 338.191 105.494 339.817 104.584ZM337.297 130.931C336.865 130.811 336.443 130.681 336.021 130.541C333.831 129.872 331.342 128.812 329.542 127.423C328.503 126.723 327.803 125.644 327.608 124.434C327.608 122.605 330.858 120.266 335.548 118.677C336.134 118.477 336.731 118.297 337.328 118.127C338.027 120.296 338.87 122.425 339.847 124.484C338.86 126.573 338.006 128.732 337.297 130.931ZM349.289 140.727C347.592 142.236 345.628 143.435 343.488 144.255C342.347 144.785 341.03 144.835 339.858 144.385C338.222 143.465 337.543 139.937 338.469 135.189C338.582 134.63 338.706 134.07 338.85 133.52C341.154 134 343.478 134.33 345.833 134.5C347.191 136.369 348.682 138.158 350.277 139.837C349.947 140.147 349.618 140.447 349.289 140.727ZM351.809 138.298C350.76 137.198 349.711 135.979 348.693 134.669C349.68 134.709 350.698 134.729 351.727 134.729C352.786 134.729 353.825 134.709 354.854 134.659C353.907 135.929 352.889 137.138 351.809 138.298ZM365.252 141.296C365.159 142.516 364.542 143.655 363.555 144.425C361.919 145.344 358.433 144.145 354.668 141.006C354.236 140.647 353.804 140.257 353.362 139.857C354.936 138.168 356.386 136.379 357.703 134.5C360.058 134.31 362.403 133.96 364.717 133.45C364.82 133.86 364.912 134.27 364.995 134.669C365.499 136.828 365.581 139.077 365.252 141.296ZM367.124 130.551C366.836 130.641 366.548 130.731 366.25 130.811C365.53 128.632 364.645 126.503 363.627 124.434C364.614 122.395 365.447 120.296 366.147 118.147C366.681 118.297 367.196 118.457 367.689 118.617C372.482 120.216 375.846 122.595 375.846 124.414C375.846 126.373 372.256 128.902 367.124 130.551ZM351.727 129.052C354.329 129.052 356.437 127.003 356.437 124.474C356.437 121.946 354.329 119.897 351.727 119.897C349.125 119.897 347.016 121.946 347.016 124.474C347.016 127.003 349.125 129.052 351.727 129.052Z" fill="#F0F4F4"/>
</g>
<circle cx="50" cy="113" r="40" fill="#42C9A0"/>
<path d="M77.8728 103.181L50.9553 87.2972C50.0366 86.7967 49.0561 86.7921 48.1289 87.2972L21.2115 103.181C20.5213 103.589 20.0941 104.316 20.0941 105.043V120.927C20.0941 121.655 20.5213 122.382 21.2116 122.789L48.129 138.676C49.0478 139.176 50.0283 139.181 50.9555 138.676L77.8729 122.789C78.5631 122.382 78.9904 121.655 78.9904 120.927V105.043C78.9903 104.316 78.5631 103.589 77.8728 103.181ZM52.0729 93.3482L71.8912 105.043L63.0502 110.28L52.0729 103.792V93.3482ZM47.0115 93.3482V103.792L36.0341 110.28L27.1931 105.043L47.0115 93.3482ZM25.1555 109.233L31.4986 112.985L25.1555 116.738V109.233ZM47.0115 132.623L27.1931 120.928L36.0341 115.691L47.0115 122.179V132.623ZM49.5422 118.28L40.6025 112.985L49.5422 107.691L58.4819 112.985L49.5422 118.28ZM52.0729 132.623V122.179L63.0502 115.691L71.8912 120.928L52.0729 132.623ZM73.9289 116.738L67.5857 112.985L73.9289 109.233V116.738Z" fill="#EDF2F1"/>
<defs>
<clipPath id="clip0">
<rect width="105.06" height="101.341" fill="white" transform="translate(162.416 311.659)"/>
</clipPath>
<clipPath id="clip1">
<rect x="330.081" y="257.518" width="61.1652" height="59" rx="29.5" fill="white"/>
</clipPath>
<clipPath id="clip2">
<rect width="76.2766" height="73.5765" fill="white" transform="translate(162.416)"/>
</clipPath>
<clipPath id="clip3">
<rect width="107.399" height="103.597" fill="white" transform="translate(309.601 60.1853)"/>
</clipPath>
</defs>
</svg>
