<svg width="423" height="300" viewBox="0 0 423 300" fill="none" xmlns="http://www.w3.org/2000/svg">
<g clip-path="url(#clip0)">
<path style="mix-blend-mode:multiply" opacity="0.15" d="M252.117 67.4544L84.1548 64.177C77.7172 64.0525 72.4598 58.8677 72.4598 52.5971C72.4598 46.3264 77.7094 41.3994 84.1548 41.5852L252.117 46.44C257.665 46.5995 262.142 51.4128 262.142 57.1897C262.142 62.9666 257.665 67.5636 252.117 67.4544Z" fill="url(#paint0_linear)"/>
<path style="mix-blend-mode:multiply" opacity="0.15" d="M56.2294 63.6309L50.1039 63.5107C47.6674 63.4648 45.6873 61.5312 45.6873 59.1977V44.7009C45.6873 42.3652 47.6674 40.5299 50.1039 40.5998L56.2294 40.7768C58.6503 40.8467 60.6089 42.7847 60.6089 45.1073V59.5167C60.6069 61.8349 58.6483 63.6789 56.2294 63.6309Z" fill="url(#paint1_linear)"/>
<path style="mix-blend-mode:multiply" opacity="0.15" d="M366.741 102.487L166.876 101.67C164.666 101.67 162.871 99.8521 162.871 97.6279V91.3026C162.871 89.0806 164.666 87.2955 166.876 87.3173L366.741 89.369C367.62 89.3706 368.463 89.76 369.088 90.4528C369.712 91.1455 370.068 92.0859 370.077 93.0702V98.8449C370.072 99.3295 369.982 99.8082 369.811 100.254C369.641 100.699 369.394 101.103 369.084 101.441C368.774 101.779 368.408 102.046 368.006 102.225C367.604 102.405 367.174 102.494 366.741 102.487V102.487Z" fill="url(#paint2_linear)"/>
<path opacity="0.29" d="M130.402 101.521L13.2146 101.043C5.93428 101.012 0 95.4101 0 88.5298C0 81.6496 5.93428 76.1524 13.2146 76.2551L130.402 77.9069C136.974 77.9986 142.275 83.3342 142.275 89.8211C142.275 96.3081 136.974 101.547 130.402 101.521Z" fill="url(#paint3_linear)"/>
<path style="mix-blend-mode:multiply" opacity="0.59" d="M35.7656 148.442C30.2547 148.525 25.7679 144.334 25.7679 139.08V127.661C25.7679 122.418 30.2547 118.135 35.7656 118.12C41.2766 118.105 45.6854 122.317 45.6854 127.528V138.855C45.6951 144.072 41.2532 148.355 35.7656 148.442Z" fill="url(#paint4_linear)"/>
<path style="mix-blend-mode:multiply" opacity="0.59" d="M66.7636 147.968L55.9972 148.13C53.5724 148.167 51.6002 146.31 51.6002 143.978V122.289C51.6002 119.958 53.5724 118.065 55.9972 118.059L66.7636 118.028C69.1631 118.028 71.1041 119.888 71.1041 122.199V143.716C71.1002 146.039 69.1592 147.931 66.7636 147.968Z" fill="url(#paint5_linear)"/>
<path opacity="0.5" d="M191.98 146.067L81.1994 147.747C78.8234 147.784 76.894 145.945 76.894 143.64V122.173C76.894 119.868 78.8234 117.993 81.1994 117.987L191.982 117.674C194.14 117.674 195.884 119.44 195.884 121.631V142.04C195.886 144.232 194.138 146.039 191.98 146.067Z" fill="url(#paint6_linear)"/>
<path style="mix-blend-mode:multiply" opacity="0.59" d="M344.138 160.728L107.012 166.19C104.687 166.245 102.798 164.442 102.798 162.159C102.798 159.876 104.687 157.992 107.012 157.946L344.138 153.295C344.576 153.277 345.013 153.358 345.423 153.532C345.834 153.706 346.208 153.971 346.526 154.31C346.843 154.649 347.097 155.056 347.272 155.507C347.447 155.958 347.539 156.443 347.544 156.935C347.544 158.991 346.02 160.677 344.138 160.728Z" fill="url(#paint7_linear)"/>
<path style="mix-blend-mode:multiply" opacity="0.15" d="M392.983 133.43L227.842 135.178C221.919 135.239 217.095 130.325 217.095 124.198C217.095 118.072 221.919 113.101 227.842 113.095L392.983 112.955C394.182 112.949 395.369 113.207 396.478 113.716C397.587 114.224 398.596 114.973 399.446 115.919C400.296 116.865 400.972 117.989 401.433 119.227C401.895 120.466 402.134 121.794 402.136 123.137C402.127 125.856 401.16 128.461 399.447 130.388C397.734 132.315 395.411 133.408 392.983 133.43V133.43Z" fill="url(#paint8_linear)"/>
<path opacity="0.5" d="M393.613 51.4323L271.842 47.9649C264.483 47.7464 258.483 41.29 258.483 33.5227C258.483 25.7554 264.483 19.7076 271.842 20.0091L393.613 25.0103C400.152 25.2747 405.419 31.3728 405.419 38.6288C405.425 40.3476 405.12 42.0498 404.524 43.6336C403.928 45.2174 403.053 46.65 401.95 47.8456C400.848 49.0412 399.541 49.9752 398.108 50.5915C396.676 51.2078 395.147 51.4938 393.613 51.4323V51.4323Z" fill="url(#paint9_linear)"/>
<path opacity="0.5" d="M364.822 170.208L359.539 170.374C359.24 170.389 358.941 170.337 358.661 170.22C358.38 170.102 358.124 169.923 357.907 169.692C357.69 169.461 357.517 169.183 357.398 168.875C357.279 168.568 357.217 168.236 357.216 167.901V155.528C357.222 154.841 357.469 154.184 357.904 153.699C358.338 153.214 358.926 152.939 359.539 152.934L364.822 152.831C365.119 152.821 365.416 152.878 365.693 152.998C365.971 153.118 366.224 153.299 366.439 153.531C366.653 153.762 366.823 154.04 366.94 154.346C367.057 154.653 367.118 154.982 367.12 155.316V167.606C367.111 168.288 366.867 168.94 366.439 169.425C366.01 169.911 365.431 170.191 364.822 170.208V170.208Z" fill="url(#paint10_linear)"/>
<path style="mix-blend-mode:multiply" opacity="0.15" d="M106.636 199.189L24.2814 202.228C16.0881 202.531 9.39496 196.466 9.39496 188.681C9.39496 180.897 16.0822 174.414 24.2814 174.204L106.636 172.1C114.244 171.906 120.381 177.781 120.381 185.21C120.381 192.638 114.248 198.913 106.636 199.189Z" fill="url(#paint11_linear)"/>
<path style="mix-blend-mode:multiply" opacity="0.15" d="M238.001 28.3971L100.276 23.339C93.6649 23.0965 88.2808 17.6583 88.2808 11.1779C88.2808 4.69746 93.6649 -0.295035 100.276 0.0130357L238.001 6.41479C243.842 6.68572 248.553 11.8028 248.553 17.844C248.553 23.8853 243.842 28.6112 238.001 28.3971Z" fill="url(#paint12_linear)"/>
<path style="mix-blend-mode:multiply" opacity="0.15" d="M403.422 92.3404C403.419 94.0967 403.106 95.8351 402.502 97.4557C401.897 99.0762 401.012 100.547 399.899 101.783C398.785 103.02 397.464 103.997 396.012 104.66C394.559 105.322 393.004 105.657 391.436 105.644C384.757 105.627 379.312 99.5724 379.312 92.1219C379.315 90.3525 379.632 88.6015 380.246 86.9709C380.859 85.3404 381.756 83.8629 382.885 82.6247C384.013 81.3866 385.351 80.4125 386.819 79.7593C388.287 79.1061 389.857 78.7869 391.436 78.8202C398.073 78.9229 403.422 84.9751 403.422 92.3404Z" fill="url(#paint13_linear)"/>
<path d="M227.994 198.476C150.425 195.389 48.4165 207.294 46.6257 230.339C45.504 244.774 83.3297 268.443 118.342 267.515C142.228 266.881 165.803 254.775 168.13 260.213C169.972 264.513 156.035 273.978 158.054 278.8C161.039 285.909 192.353 267.672 210.805 283.447C216.769 288.547 214.928 291.675 219.695 296.06C238.914 313.734 272.513 266.256 328.754 264.86C353.864 264.235 371.148 273.104 401.853 261.983C412.778 258.024 422.678 254.44 422.992 248.928C424.007 231.149 324.819 202.33 227.994 198.476Z" fill="#EBEFF2"/>
<path d="M96.4155 211.09C84.2641 213.98 71.149 217.262 71.3246 220.384C71.6055 225.409 106.31 227.632 132.579 227.245C171.509 226.668 174.613 220.633 215.954 218.171C259.29 215.591 290.331 220.174 291.623 212.862C291.98 210.83 289.955 208.404 286.09 205.56C250.756 179.553 165.237 194.72 96.4155 211.09Z" fill="#D8DEE8"/>
<path d="M184.726 268.622C180.25 270.224 174.901 273.364 175.243 274.819C175.342 275.24 176.087 276.241 197.37 273.934C206.949 272.896 211.74 272.363 211.793 271.721C211.958 269.704 198.02 263.868 184.726 268.622Z" fill="#D8DEE8"/>
<path d="M244.351 274.155C238.606 274.043 229.656 274.662 229.525 276.368C229.395 278.074 237.949 280.688 245.923 281.236C254.421 281.819 263.861 280.144 263.902 278.358C263.955 276.447 253.282 274.327 244.351 274.155Z" fill="#D8DEE8"/>
<path d="M383.875 243.398C372.951 243.201 358.618 244.785 358.585 246.937C358.554 248.982 371.421 251.727 383.875 250.7C391.856 250.044 400.952 247.728 400.864 246.052C400.769 244.213 389.644 243.501 383.875 243.398Z" fill="#D8DEE8"/>
<path d="M281.233 62.108L86.923 53.5017C84.6367 53.4012 82.7815 55.1535 82.7815 57.417V216.286C82.7815 218.549 84.6367 220.284 86.923 220.162L281.233 209.674C282.1 209.62 282.916 209.198 283.516 208.495C284.115 207.792 284.454 206.86 284.463 205.888V65.8529C284.454 64.8845 284.114 63.9568 283.513 63.2603C282.913 62.5639 282.096 62.1515 281.233 62.108Z" fill="url(#paint14_linear)"/>
<path opacity="0.61" d="M87.1571 215.892V57.7686L87.6702 57.7904L281.155 65.809V205.966L280.683 205.99L87.1571 215.892ZM88.1461 58.9156V214.734L280.166 204.902V66.8752L88.1461 58.9156Z" fill="white"/>
<g opacity="0.61">
<path opacity="0.61" d="M101.967 195.824C100.93 195.836 99.929 195.401 99.17 194.609C98.729 194.159 98.4072 193.581 98.2399 192.939C98.0727 192.298 98.0665 191.617 98.2219 190.971C102.769 171.364 114.308 163.162 120.781 160.018L121.171 161.034C114.864 164.093 103.614 172.098 99.1759 191.249C99.0676 191.703 99.0731 192.183 99.1918 192.634C99.3105 193.085 99.5378 193.491 99.8489 193.807C100.272 194.234 100.79 194.527 101.348 194.654C101.906 194.782 102.484 194.74 103.023 194.533L119.296 188.767C121.743 187.893 123.756 186.04 124.821 183.665L127.831 176.953L128.715 177.449L125.705 184.161C124.518 186.802 122.293 188.865 119.595 189.822L103.319 195.588C102.882 195.744 102.426 195.824 101.967 195.824V195.824Z" fill="white"/>
<path opacity="0.61" d="M188.323 192.396C187.999 192.397 187.678 192.35 187.365 192.258L172.402 187.888C171.165 187.545 170.008 186.91 169.006 186.026C168.005 185.142 167.184 184.03 166.597 182.763L163.552 176.005L164.433 175.506L167.479 182.264C168.003 183.391 168.736 184.379 169.628 185.164C170.52 185.95 171.551 186.513 172.652 186.818L187.615 191.188C188.094 191.327 188.598 191.324 189.077 191.18C189.556 191.036 189.993 190.756 190.346 190.366C190.653 190.045 190.879 189.638 191 189.187C191.12 188.735 191.132 188.256 191.032 187.799C187.049 169.922 176.716 162.755 170.91 160.075L171.287 159.05C175.515 161.016 179.34 163.931 182.525 167.615C187.024 172.832 190.209 179.531 191.992 187.53C192.131 188.174 192.116 188.848 191.948 189.484C191.781 190.12 191.468 190.695 191.04 191.153C190.316 191.951 189.339 192.398 188.323 192.396Z" fill="white"/>
<path opacity="0.61" d="M133.1 189.123C132.68 189.133 132.264 189.026 131.89 188.813C131.516 188.599 131.194 188.285 130.954 187.899C130.737 187.546 130.604 187.136 130.57 186.709C130.536 186.282 130.601 185.852 130.759 185.461L133.595 178.231L134.501 178.668L131.662 185.898C131.572 186.117 131.535 186.358 131.552 186.599C131.57 186.839 131.643 187.07 131.764 187.27C131.92 187.515 132.129 187.711 132.372 187.839C132.615 187.968 132.883 188.026 133.151 188.006L159.418 187.049C159.688 187.045 159.953 186.965 160.189 186.819C160.425 186.672 160.625 186.462 160.772 186.208C160.887 186.011 160.957 185.784 160.975 185.548C160.992 185.313 160.958 185.077 160.873 184.86L158.06 177.938L158.96 177.477L161.794 184.406C161.947 184.788 162.012 185.207 161.983 185.625C161.954 186.043 161.833 186.446 161.63 186.798C161.398 187.206 161.079 187.544 160.702 187.781C160.326 188.018 159.903 188.148 159.471 188.159L133.203 189.114L133.1 189.123Z" fill="white"/>
<path opacity="0.61" d="M145.298 180.274C139.758 180.274 134.122 179.292 128.389 177.329C128.013 177.206 127.663 177.001 127.359 176.726C127.055 176.45 126.803 176.109 126.617 175.723C123.779 169.679 109.771 138.21 112.658 112.107C115.143 89.6246 134.153 76.1219 142.21 71.3697C143.484 70.6181 144.5 70.0741 145.136 69.7507C145.735 69.4405 146.055 69.2788 146.248 69.2067C146.279 69.1909 146.312 69.1799 146.346 69.1739C146.398 69.1577 146.452 69.1546 146.505 69.1648C146.558 69.175 146.608 69.1983 146.652 69.2329C147.003 69.3749 147.698 69.7769 149.252 70.7623C152.764 72.9822 159.605 77.7715 165.85 84.8855C173.458 93.5552 177.845 102.931 178.889 112.75C181.548 137.823 168.429 168.72 165.772 174.659C165.431 175.409 164.852 175.991 164.149 176.289C158.143 178.924 151.749 180.276 145.298 180.274V180.274ZM146.393 70.3319C143.884 71.5358 116.616 85.3422 113.639 112.245C110.787 138.027 124.678 169.216 127.49 175.207C127.614 175.464 127.783 175.69 127.987 175.873C128.19 176.055 128.425 176.19 128.676 176.269C140.837 180.444 152.647 180.106 163.778 175.26C164.252 175.06 164.642 174.671 164.874 174.167C167.51 168.268 180.522 137.644 177.894 112.885C175.13 86.8279 148.856 71.6756 146.414 70.3341H146.402L146.393 70.3319Z" fill="white"/>
<path opacity="0.61" d="M146.133 150.647C139.83 150.647 133.775 147.937 129.481 143.185C125.58 138.863 123.434 133.229 123.434 127.318C123.434 121.408 125.58 115.776 129.481 111.46C133.839 106.654 140.016 103.938 146.424 104.032C152.422 104.121 158.047 106.59 162.262 110.984C166.478 115.378 168.803 121.198 168.803 127.358C168.803 133.517 166.48 139.331 162.262 143.723C158.045 148.114 152.421 150.572 146.424 150.651L146.133 150.647ZM146.1 105.131C140.066 105.131 134.276 107.713 130.174 112.249C126.467 116.352 124.417 121.705 124.417 127.325C124.417 132.944 126.461 138.293 130.176 142.401C134.284 146.95 140.088 149.543 146.133 149.543H146.412C158.214 149.388 167.816 139.436 167.816 127.355C167.816 115.275 158.214 105.31 146.41 105.137L146.1 105.131Z" fill="white"/>
<path opacity="0.61" d="M146.24 146.058C141.168 146.058 136.305 143.873 132.86 140.052C129.739 136.582 128.012 132.062 128.012 127.321C128.012 122.579 129.733 118.063 132.86 114.598C136.348 110.733 141.299 108.552 146.422 108.611C151.244 108.67 155.77 110.643 159.164 114.172C162.559 117.7 164.431 122.387 164.431 127.349C164.431 132.311 162.559 136.989 159.164 140.517C155.77 144.046 151.244 146.008 146.422 146.058H146.24ZM146.213 109.717C141.414 109.717 136.81 111.775 133.555 115.384C130.617 118.64 128.999 122.879 128.999 127.321C128.999 131.762 130.617 136.006 133.555 139.265C136.855 142.93 141.539 145.001 146.412 144.946C155.807 144.848 163.452 136.952 163.452 127.342C163.452 117.733 155.807 109.824 146.412 109.712L146.213 109.717Z" fill="white"/>
<path opacity="0.61" d="M120.36 91.9003L120.34 93.0056L171.642 94.1189L171.661 93.0135L120.36 91.9003Z" fill="white"/>
</g>
<path opacity="0.61" d="M280.644 194.004L87.6364 202.498L87.6751 203.602L280.683 195.109L280.644 194.004Z" fill="white"/>
<path opacity="0.61" d="M205.343 197.906H204.356V209.543H205.343V197.906Z" fill="white"/>
<path opacity="0.61" d="M280.638 199.555L204.722 203.178L204.764 204.283L280.68 200.659L280.638 199.555Z" fill="white"/>
<path opacity="0.61" d="M218.695 197.318H217.707V203.086H218.695V197.318Z" fill="white"/>
<path opacity="0.61" d="M237.9 196.475H236.913V202.173H237.9V196.475Z" fill="white"/>
<path opacity="0.61" d="M146.488 69.4916L146.476 69.9348L224.584 72.7452L224.596 72.3019L146.488 69.4916Z" fill="white"/>
<path opacity="0.61" d="M224.682 190.743L191.973 192.048L191.987 192.489L224.696 191.184L224.682 190.743Z" fill="white"/>
<path opacity="0.61" d="M224.681 158.272L171.649 159.288L171.656 159.732L224.688 158.716L224.681 158.272Z" fill="white"/>
<path opacity="0.61" d="M171.65 93.3544L171.642 93.7979L224.674 94.9487L224.681 94.5053L171.65 93.3544Z" fill="white"/>
<path opacity="0.61" d="M222.422 72.5518H222.026V190.947H222.422V72.5518Z" fill="white"/>
<path opacity="0.61" d="M168.388 150.05L168.329 149.987L134.419 113.814L134.692 113.495L168.544 149.604L204.953 149.126L204.957 149.57L168.388 150.05Z" fill="white"/>
<path opacity="0.45" d="M272.417 77.1379L234.474 75.8445V72.991L272.417 74.3543V77.1379Z" fill="white"/>
<path opacity="0.45" d="M272.417 81.6344L234.474 80.4567V77.6011L272.417 78.8508V81.6344Z" fill="white"/>
<path opacity="0.45" d="M272.417 86.1331L234.474 85.0669V82.2112L272.417 83.3495V86.1331Z" fill="white"/>
<path opacity="0.45" d="M272.417 111.834L234.474 111.415V108.559L272.417 109.05V111.834Z" fill="white"/>
<path opacity="0.45" d="M272.417 116.333L234.474 116.025V113.171L272.417 113.549V116.333Z" fill="white"/>
<path opacity="0.45" d="M272.417 120.829L234.474 120.635V117.781L272.417 118.046V120.829Z" fill="white"/>
<path opacity="0.45" d="M272.417 94.0578L251.901 93.588V90.7673L272.417 91.2742V94.0578Z" fill="white"/>
<path opacity="0.45" d="M272.417 98.5564L251.901 98.1478V95.325L272.417 95.7707V98.5564Z" fill="white"/>
<path opacity="0.45" d="M272.417 103.053L251.901 102.705V99.8848L272.417 100.269V103.053Z" fill="white"/>
<path opacity="0.61" d="M234.277 190.685V127.88H272.614V189.142L234.277 190.685ZM234.667 128.321V190.226L272.212 188.725V128.341L234.667 128.321Z" fill="white"/>
<path opacity="0.61" d="M272.43 137.05L234.49 137.28L234.492 137.723L272.432 137.493L272.43 137.05Z" fill="white"/>
<path opacity="0.61" d="M272.426 141.784L234.485 142.118L234.488 142.562L272.43 142.228L272.426 141.784Z" fill="white"/>
<path opacity="0.61" d="M272.416 146.518L234.476 146.978L234.48 147.422L272.421 146.962L272.416 146.518Z" fill="white"/>
<path opacity="0.61" d="M272.429 151.195L234.488 151.781L234.493 152.225L272.434 151.639L272.429 151.195Z" fill="white"/>
<path opacity="0.61" d="M272.405 155.975L234.463 156.657L234.469 157.1L272.411 156.418L272.405 155.975Z" fill="white"/>
<path opacity="0.61" d="M272.17 165.92L234.219 166.77L234.227 167.214L272.178 166.364L272.17 165.92Z" fill="white"/>
<path opacity="0.61" d="M272.422 169.634L234.48 170.673L234.49 171.116L272.431 170.077L272.422 169.634Z" fill="white"/>
<path opacity="0.61" d="M272.392 174.417L234.451 175.575L234.462 176.018L272.402 174.861L272.392 174.417Z" fill="white"/>
<path opacity="0.61" d="M272.42 179.061L234.478 180.33L234.49 180.773L272.432 179.505L272.42 179.061Z" fill="white"/>
<path opacity="0.61" d="M272.395 183.835L234.453 185.222L234.466 185.663L272.408 184.276L272.395 183.835Z" fill="white"/>
<path opacity="0.61" d="M246.733 128.105H246.337V190.084H246.733V128.105Z" fill="white"/>
<path opacity="0.45" d="M219.132 131.09L217.062 131.092V124.987L219.132 124.992V131.09Z" fill="white"/>
<path opacity="0.45" d="M219.132 178.985L217.062 179.05V172.946L219.132 172.887V178.985Z" fill="white"/>
<path opacity="0.45" d="M202.425 146.467L188.157 146.629V142.785L202.425 142.656V146.467Z" fill="white"/>
<path d="M113.317 228.914C113.114 228.914 112.917 228.836 112.759 228.692C112.601 228.549 112.492 228.35 112.449 228.128L86.605 94.2565C86.5803 94.1288 86.5783 93.9969 86.5991 93.8684C86.6198 93.7398 86.663 93.6171 86.7262 93.5072C86.7893 93.3974 86.8711 93.3025 86.967 93.2281C87.0629 93.1536 87.1709 93.1011 87.2849 93.0734C87.3989 93.0457 87.5166 93.0434 87.6314 93.0667C87.7462 93.09 87.8558 93.1384 87.9538 93.2091C88.0519 93.2798 88.1366 93.3714 88.2031 93.4788C88.2696 93.5862 88.3165 93.7071 88.3412 93.8348L114.187 227.719C114.212 227.847 114.214 227.979 114.193 228.108C114.172 228.236 114.128 228.359 114.065 228.469C114.001 228.578 113.919 228.673 113.823 228.747C113.727 228.822 113.619 228.874 113.504 228.901C113.443 228.913 113.38 228.917 113.317 228.914V228.914Z" fill="white"/>
<path d="M146.904 226.93C146.701 226.93 146.504 226.852 146.346 226.709C146.188 226.567 146.079 226.368 146.036 226.146L120.966 96.3736C120.923 96.1185 120.971 95.8548 121.099 95.6385C121.227 95.4222 121.425 95.2704 121.652 95.2155C121.878 95.1605 122.115 95.2067 122.312 95.3443C122.508 95.4818 122.649 95.6998 122.704 95.9519L147.774 225.735C147.802 225.88 147.802 226.031 147.771 226.176C147.741 226.321 147.681 226.457 147.598 226.573C147.514 226.688 147.408 226.782 147.288 226.845C147.168 226.909 147.037 226.942 146.904 226.941V226.93Z" fill="white"/>
<path d="M123.336 105.902H123.295L89.1995 104.154C89.083 104.148 88.9686 104.117 88.8629 104.061C88.7572 104.006 88.6623 103.928 88.5836 103.831C88.5049 103.735 88.4439 103.622 88.4042 103.499C88.3644 103.376 88.3467 103.246 88.3519 103.115C88.3572 102.985 88.3853 102.856 88.4348 102.738C88.4842 102.62 88.554 102.513 88.6401 102.425C88.7263 102.337 88.8271 102.269 88.9368 102.224C89.0465 102.18 89.163 102.16 89.2795 102.166L123.375 103.914C123.604 103.93 123.819 104.045 123.974 104.234C124.13 104.424 124.213 104.673 124.208 104.93C124.203 105.187 124.11 105.432 123.947 105.613C123.785 105.795 123.566 105.899 123.336 105.904V105.902Z" fill="white"/>
<path d="M127.095 125.383H127.068L93.0992 124.255C92.8695 124.238 92.6546 124.122 92.4996 123.931C92.3447 123.741 92.2618 123.49 92.2684 123.233C92.2749 122.975 92.3705 122.73 92.5349 122.549C92.6993 122.369 92.9197 122.267 93.1499 122.265L127.131 123.392C127.359 123.407 127.574 123.52 127.73 123.708C127.886 123.896 127.971 124.144 127.968 124.401C127.964 124.657 127.873 124.903 127.712 125.085C127.552 125.268 127.334 125.375 127.105 125.383H127.095Z" fill="white"/>
<path d="M130.859 144.868H130.847L96.9831 144.354C96.7546 144.341 96.5396 144.229 96.3827 144.043C96.2258 143.856 96.1391 143.609 96.1406 143.353C96.1422 143.096 96.2318 142.851 96.3908 142.667C96.5499 142.482 96.7662 142.374 96.9948 142.364H97.0065L130.87 142.877C131.099 142.891 131.314 143.002 131.471 143.189C131.627 143.375 131.714 143.622 131.713 143.879C131.711 144.135 131.622 144.381 131.462 144.565C131.303 144.749 131.087 144.857 130.859 144.868V144.868Z" fill="white"/>
<path d="M100.875 164.455C100.755 164.462 100.635 164.441 100.522 164.393C100.409 164.346 100.306 164.274 100.219 164.181C100.132 164.088 100.063 163.976 100.016 163.852C99.9682 163.728 99.9438 163.595 99.9438 163.46C99.9438 163.325 99.9682 163.192 100.016 163.068C100.063 162.944 100.132 162.832 100.219 162.739C100.306 162.646 100.409 162.574 100.522 162.527C100.635 162.48 100.755 162.459 100.875 162.465L134.624 162.364C134.744 162.358 134.864 162.379 134.977 162.426C135.089 162.473 135.192 162.546 135.279 162.639C135.366 162.732 135.436 162.844 135.483 162.968C135.53 163.091 135.555 163.225 135.555 163.36C135.555 163.494 135.53 163.628 135.483 163.752C135.436 163.876 135.366 163.987 135.279 164.08C135.192 164.173 135.089 164.246 134.977 164.293C134.864 164.34 134.744 164.361 134.624 164.355L100.875 164.455Z" fill="white"/>
<path d="M104.755 184.561C104.519 184.563 104.292 184.46 104.124 184.275C103.956 184.09 103.86 183.837 103.858 183.573C103.856 183.309 103.947 183.054 104.113 182.866C104.278 182.677 104.504 182.57 104.74 182.568L138.373 181.856H138.389C138.617 181.865 138.834 181.973 138.994 182.156C139.153 182.34 139.244 182.585 139.246 182.842C139.248 183.098 139.162 183.345 139.006 183.532C138.849 183.719 138.635 183.832 138.406 183.846L104.773 184.561H104.755Z" fill="white"/>
<path d="M108.637 204.668C108.408 204.662 108.19 204.556 108.029 204.374C107.867 204.192 107.775 203.946 107.771 203.69C107.767 203.433 107.851 203.185 108.007 202.996C108.163 202.807 108.377 202.693 108.606 202.678L142.124 201.349C142.355 201.348 142.578 201.448 142.744 201.628C142.911 201.807 143.009 202.052 143.017 202.311C143.025 202.569 142.943 202.822 142.788 203.014C142.633 203.206 142.417 203.323 142.187 203.34L108.668 204.668H108.637Z" fill="white"/>
<path d="M348.652 120.006C348.652 120.006 365.019 136.545 355.501 167.538C355.298 168.196 354.942 168.782 354.472 169.236C354.001 169.69 353.431 169.997 352.821 170.126C352.21 170.254 351.58 170.2 350.994 169.967C350.408 169.735 349.887 169.333 349.485 168.803L338.227 153.996C337.335 152.822 336.671 151.451 336.28 149.973C335.888 148.495 335.776 146.941 335.952 145.412L337.782 129.534L348.652 120.006Z" fill="url(#paint15_linear)"/>
<path d="M313.286 95.1523C313.286 95.1523 292.869 85.849 272.097 108.937C271.657 109.428 271.341 110.041 271.181 110.713C271.021 111.386 271.022 112.094 271.185 112.765C271.347 113.437 271.665 114.048 272.107 114.538C272.548 115.027 273.098 115.377 273.699 115.553L290.501 120.458C291.833 120.847 293.224 120.92 294.582 120.672C295.941 120.423 297.239 119.859 298.392 119.016L310.358 110.261L313.286 95.1523Z" fill="url(#paint16_linear)"/>
<path d="M349.898 117.794C349.898 117.794 366.265 134.334 356.748 165.327C356.544 165.985 356.189 166.57 355.718 167.025C355.248 167.479 354.678 167.786 354.067 167.915C353.456 168.043 352.826 167.988 352.24 167.756C351.654 167.524 351.134 167.122 350.731 166.592L339.483 151.783C338.591 150.609 337.927 149.239 337.536 147.761C337.144 146.283 337.033 144.73 337.208 143.2L339.038 127.323L349.898 117.794Z" fill="url(#paint17_linear)"/>
<path d="M314.525 92.9457C314.525 92.9457 294.108 83.6424 273.336 106.728C272.896 107.22 272.58 107.832 272.42 108.505C272.26 109.177 272.261 109.885 272.423 110.556C272.586 111.228 272.904 111.839 273.346 112.329C273.787 112.819 274.336 113.169 274.938 113.344L291.74 118.251C293.072 118.64 294.462 118.713 295.821 118.464C297.18 118.216 298.478 117.652 299.631 116.809L311.597 108.054L314.525 92.9457Z" fill="url(#paint18_linear)"/>
<path d="M325.201 44.9128C343.369 19.2773 378.046 23.4483 378.068 23.5007C378.113 23.5007 396.557 56.6588 383.858 86.1353C372.338 112.87 343.045 134.874 337.402 138.938C336.793 139.375 335.8 139.993 335.351 139.359C326.629 127.043 315.859 119.914 303.483 116.984C302.799 116.822 302.884 115.568 302.968 114.799C303.768 107.423 308.694 68.2082 325.201 44.9128Z" fill="url(#paint19_linear)"/>
<g style="mix-blend-mode:multiply" opacity="0.3">
<path style="mix-blend-mode:multiply" opacity="0.3" d="M341.806 78.2454C351.984 64.0064 363.228 67.9436 373.177 55.4023C376.809 50.814 380.572 43.665 381.93 31.9299C386.548 43.665 392.628 65.7719 383.859 86.1155C372.34 112.85 343.047 134.854 337.404 138.918C336.795 139.355 335.802 139.973 335.353 139.34C330.946 133.119 326.017 128.221 320.623 124.517C324.054 121.668 327.023 118.181 329.401 114.207C337.394 100.752 332.534 91.2216 341.806 78.2454Z" fill="url(#paint20_linear)"/>
</g>
<path d="M366.457 44.2223C357.896 38.2072 347.581 33.0793 338.712 32.1616C354.319 22.3601 372.494 23.0134 377.012 23.3783C377.341 23.4049 377.66 23.5216 377.939 23.7182C378.219 23.9148 378.451 24.1852 378.616 24.5057C380.875 28.9017 389.308 46.9381 388.225 66.9474C384.33 59.2981 375.017 50.2417 366.457 44.2223Z" fill="url(#paint21_linear)"/>
<path style="mix-blend-mode:multiply" opacity="0.3" d="M381.93 31.9299L381.994 32.096L382.104 32.3778L382.215 32.6641L382.32 32.9394C382.359 33.0399 382.398 33.1426 382.435 33.2474C382.472 33.3523 382.504 33.4244 382.537 33.5118L382.66 33.8417L382.753 34.1017L382.882 34.4513C382.911 34.5365 382.943 34.6195 382.972 34.7026L383.106 35.0762C383.134 35.157 383.163 35.2379 383.192 35.3187C383.237 35.4476 383.282 35.5787 383.329 35.7098L383.411 35.9502C383.458 36.0834 383.504 36.2211 383.551 36.3587L383.629 36.5903C383.678 36.7323 383.725 36.8766 383.774 37.0273C383.797 37.1038 383.822 37.1781 383.848 37.2458L383.994 37.6828L384.064 37.9013C384.115 38.0564 384.164 38.2115 384.213 38.3667L384.281 38.5851C384.33 38.7446 384.38 38.9063 384.429 39.068L384.493 39.2865L384.646 39.7847C384.665 39.8524 384.685 39.9201 384.706 39.9878C384.757 40.1583 384.808 40.3309 384.856 40.5035L384.915 40.7045L385.067 41.2332C385.085 41.2988 385.104 41.3643 385.122 41.4277L385.274 41.9761C385.289 42.0373 385.307 42.1007 385.324 42.164C385.375 42.3519 385.426 42.5376 385.475 42.7277C385.492 42.7889 385.508 42.8501 385.523 42.9112C385.574 43.1035 385.625 43.2958 385.674 43.4903C385.689 43.5492 385.705 43.6082 385.719 43.665C385.769 43.8639 385.82 44.0627 385.869 44.2615L385.91 44.4319C385.96 44.6351 386.009 44.8383 386.058 45.0437C386.072 45.0983 386.083 45.1551 386.097 45.2098L386.243 45.8346C386.255 45.8871 386.267 45.9417 386.28 45.9963L386.421 46.6343L386.456 46.7916C386.503 47.0101 386.55 47.2286 386.594 47.4471C386.606 47.4974 386.616 47.5498 386.626 47.6001C386.672 47.8185 386.717 48.037 386.762 48.2664L386.791 48.4106C386.834 48.6291 386.879 48.8651 386.922 49.0923C386.932 49.1382 386.94 49.1841 386.949 49.2322C386.992 49.4616 387.035 49.6954 387.076 49.927L387.1 50.0581C387.143 50.294 387.184 50.5322 387.223 50.7703C387.223 50.8118 387.236 50.8534 387.244 50.8949C387.285 51.1352 387.324 51.3777 387.363 51.6203L387.381 51.7361C387.42 51.983 387.457 52.2299 387.494 52.4768C387.494 52.5139 387.494 52.551 387.509 52.5882C387.546 52.8394 387.582 53.0907 387.617 53.342C387.617 53.3747 387.626 53.4097 387.63 53.4425C387.665 53.6981 387.699 53.9559 387.732 54.2137C387.732 54.2443 387.732 54.2749 387.741 54.3055C387.775 54.5655 387.806 54.8277 387.837 55.0921C387.837 55.1183 387.837 55.1467 387.837 55.1729C387.868 55.4395 387.898 55.7082 387.925 55.977V56.0447C387.954 56.3178 387.979 56.5909 388.005 56.8662C388.006 56.8844 388.006 56.9026 388.005 56.9208C388.03 57.2005 388.056 57.4823 388.077 57.7642C388.077 57.7773 388.077 57.7904 388.077 57.8035C388.099 58.0898 388.12 58.3782 388.139 58.6644V58.6862C388.327 61.4395 388.349 64.2039 388.204 66.9605C385.713 62.0619 381.009 56.5997 375.705 51.7251C378.444 47.2024 380.89 40.9077 381.93 31.9299Z" fill="url(#paint22_linear)"/>
<path d="M369.586 88.2959C375.814 77.1762 371.927 61.8836 360.904 54.1388C349.88 46.394 335.895 49.1298 329.667 60.2495C323.44 71.3691 327.327 86.6617 338.35 94.4065C349.374 102.151 363.359 99.4155 369.586 88.2959Z" fill="url(#paint23_linear)"/>
<path style="mix-blend-mode:multiply" d="M341.806 78.2456C350.111 66.6263 359.127 67.1026 367.568 60.8669C373.21 68.9926 374.32 79.8494 369.588 88.2984C363.361 99.4173 349.376 102.153 338.352 94.4161C337.462 93.792 336.608 93.1083 335.792 92.3688C336.709 87.8898 338.172 83.3321 341.806 78.2456Z" fill="url(#paint24_linear)"/>
<path d="M367.916 87.1223C373.625 76.9299 370.062 62.9123 359.957 55.8132C349.853 48.7141 337.034 51.2218 331.326 61.4143C325.617 71.6068 329.18 85.6243 339.285 92.7234C349.389 99.8225 362.208 97.3148 367.916 87.1223Z" fill="url(#paint25_linear)"/>
<path d="M365.216 83.2116C370.176 74.3035 367.036 62.0821 358.205 55.9143C349.373 49.7466 338.193 51.968 333.234 60.8761C328.274 69.7842 331.414 82.0056 340.246 88.1733C349.077 94.3411 360.257 92.1196 365.216 83.2116Z" fill="url(#paint26_linear)"/>
<path d="M335.935 139.852C337.635 136.818 331.58 129.137 322.412 122.696C313.245 116.255 304.435 113.493 302.736 116.527C301.037 119.561 307.091 127.242 316.259 133.683C325.427 140.124 334.236 142.886 335.935 139.852Z" fill="url(#paint27_linear)"/>
<path d="M317.348 123.047L324.472 128.052C326.325 129.354 327.789 131.246 328.676 133.485C329.564 135.725 329.835 138.21 329.454 140.622L328.715 145.304C328.652 145.702 328.503 146.077 328.281 146.396C328.058 146.714 327.769 146.966 327.439 147.13C327.11 147.294 326.749 147.365 326.389 147.336C326.029 147.307 325.681 147.18 325.375 146.965L301.749 130.36C301.443 130.145 301.189 129.849 301.009 129.499C300.83 129.149 300.729 128.754 300.718 128.35C300.706 127.946 300.783 127.545 300.942 127.182C301.101 126.82 301.337 126.506 301.63 126.27L305.073 123.486C306.848 122.053 308.964 121.246 311.15 121.168C313.337 121.09 315.495 121.744 317.348 123.047V123.047Z" fill="url(#paint28_linear)"/>
<path d="M327.85 147.226C329.454 144.363 324.62 137.732 317.054 132.417C309.488 127.101 302.055 125.113 300.451 127.976C298.847 130.839 303.681 137.469 311.247 142.785C318.813 148.101 326.247 150.089 327.85 147.226Z" fill="url(#paint29_linear)"/>
<path d="M324.563 144.917C325.782 142.74 322.108 137.701 316.358 133.66C310.607 129.62 304.957 128.109 303.738 130.285C302.519 132.461 306.193 137.501 311.944 141.541C317.694 145.582 323.344 147.093 324.563 144.917Z" fill="url(#paint30_linear)"/>
<g style="mix-blend-mode:color-burn" opacity="0.3">
<path style="mix-blend-mode:color-burn" opacity="0.3" d="M341.806 78.2456C348.87 68.3633 356.447 67.2359 363.749 63.2791C368.431 69.7966 369.406 78.6236 365.565 85.4711C360.592 94.3505 349.426 96.5332 340.624 90.35C339.369 89.4717 338.2 88.4463 337.138 87.2911C338.253 84.0161 339.829 80.9622 341.806 78.2456V78.2456Z" fill="url(#paint31_linear)"/>
</g>
<path d="M101.359 213.115C111.848 213.616 113.935 221.903 121.602 223.343C144.803 227.713 161.203 158.512 186.795 158.626C208.34 158.722 211.748 206.565 237.282 208.621C259.809 210.437 285.121 175.273 304.254 148.691C310.576 139.908 311.681 137.212 311.959 137.404C313.481 138.457 285.61 221.785 249.378 223.808C223.747 225.237 214.325 185.411 189.554 188.207C164.498 191.048 163.665 235.539 130.359 246.645C106.294 254.665 77.0189 241.344 76.0727 230.741C75.3919 223.087 89.0806 212.527 101.359 213.115Z" fill="url(#paint32_linear)"/>
<path d="M307.709 135.263C309.174 137.358 299.32 149.301 290.165 157.71C286.373 161.169 282.358 164.309 278.152 167.105C267.999 173.892 262.01 178.399 258.953 175.959C256.953 174.364 256.651 170.219 257.515 167.309C259.271 161.379 265.248 162.72 270.064 155.757C273.966 150.127 271.904 146.581 275.628 143.415C279.19 140.384 282.37 142.541 289.674 141.689C300.986 140.389 306.607 133.687 307.709 135.263Z" fill="url(#paint33_linear)"/>
<path d="M315.797 139.74C308.838 148.108 306.341 155.549 305.356 160.848C304.186 167.138 305.218 170.059 302.641 175.629C300.105 181.117 297.024 182.762 296.248 188.253C296.074 189.479 295.317 194.847 297.686 196.903C301.694 200.384 313.877 193.687 319.829 183.167C320.999 181.1 325.523 173.099 323.258 165.515C322.152 161.8 320.295 161.127 318.251 157.064C316.124 152.84 314.95 147.253 315.797 139.74Z" fill="url(#paint34_linear)"/>
<path d="M239.373 276.005C239.373 276.005 238.959 277.069 238.983 277.251C238.991 277.418 239.056 277.576 239.165 277.692C239.274 277.807 239.418 277.871 239.568 277.871C240.448 277.814 242.131 277.674 243.007 277.369C244.23 276.945 240.034 275.839 240.034 275.839L239.373 276.005Z" fill="url(#paint35_linear)"/>
<path d="M239.408 274.43L239.476 276.232C239.476 276.232 239.72 276.669 240.321 276.114L240.645 274.198L239.408 274.43Z" fill="url(#paint36_linear)"/>
<path d="M242.451 240.907C241.745 241.351 241.132 241.96 240.654 242.692C238.789 245.55 239.935 248.652 239.839 253.573C239.71 260.403 237.375 261.283 237.644 267.755C237.748 270.168 238.17 272.55 238.895 274.825L241.156 274.489C241.644 268.354 243.037 262.351 245.278 256.726C248.257 249.321 251.63 245.517 250.284 242.646C249.172 240.273 245.157 239.231 242.451 240.907Z" fill="url(#paint37_linear)"/>
<path d="M250.283 242.646C249.172 240.273 245.157 239.231 242.451 240.898C242.352 240.962 242.256 241.027 242.166 241.093C244.133 244.836 244.168 247.403 243.727 249.14C243.276 250.918 242.336 251.799 242.116 254.366C241.87 257.224 242.896 257.707 242.506 260.029C242.012 262.951 240.264 262.892 239.775 265.754C239.318 268.474 240.686 269.785 239.829 271.542C239.493 272.189 238.989 272.706 238.384 273.025C238.55 273.707 238.725 274.308 238.885 274.817L241.146 274.48C241.635 268.345 243.028 262.343 245.268 256.717C248.257 249.321 251.63 245.517 250.283 242.646Z" fill="url(#paint38_linear)"/>
<path d="M252.1 276.709C252.1 276.709 251.684 277.773 251.71 277.954C251.718 278.121 251.783 278.279 251.892 278.394C252.001 278.509 252.145 278.573 252.295 278.572C253.175 278.518 254.858 278.376 255.734 278.072C256.957 277.646 252.759 276.543 252.759 276.543L252.1 276.709Z" fill="url(#paint39_linear)"/>
<path d="M251.764 275.144L252.174 276.986C252.174 276.986 252.418 277.423 253.019 276.868L253.001 274.902L251.764 275.144Z" fill="url(#paint40_linear)"/>
<path d="M246.062 241.978C244.25 244.071 246.54 251.467 247.716 255.271C247.98 256.097 248.173 256.949 248.292 257.816C248.538 259.601 248.393 260.901 248.333 261.904C248.267 263.995 248.401 266.089 248.733 268.148C249.16 270.838 250.065 273.405 251.395 275.695L253.452 275.293C253.477 271.968 253.555 266.553 253.842 259.839C254.308 248.869 255.137 238.864 254.121 238.633C253.785 238.558 253.705 239.646 252.675 240.64C250.313 242.919 247.445 240.38 246.062 241.978Z" fill="url(#paint41_linear)"/>
<path d="M247.771 215.966C245.442 216.121 237.654 216.919 233.097 222.683C232.02 224.046 229.377 227.391 230.639 230.33C231.856 233.157 236.386 234.859 241.759 233.915L242.843 232.386C239.876 232.047 237.822 230.489 237.693 228.864C237.58 227.444 238.963 226.301 239.658 225.726C242.024 223.76 245.007 223.812 246.029 223.869C246.608 221.231 247.188 218.597 247.771 215.966Z" fill="url(#paint42_linear)"/>
<path d="M267.819 203.968C268.728 203.314 268.788 201.605 267.954 200.151C267.12 198.698 265.707 198.05 264.798 198.704C263.889 199.358 263.828 201.067 264.662 202.521C265.496 203.975 266.91 204.622 267.819 203.968Z" fill="url(#paint43_linear)"/>
<path d="M255.457 210.262L264.514 199.866C264.572 199.799 264.643 199.748 264.722 199.718C264.801 199.688 264.885 199.68 264.967 199.693C265.691 199.809 267.593 200.371 267.675 203.045C267.678 203.154 267.655 203.262 267.608 203.358C267.56 203.453 267.49 203.533 267.406 203.587L256.021 210.797L255.457 210.262Z" fill="url(#paint44_linear)"/>
<path d="M256.07 210.275C256.233 210.559 256.222 210.891 256.044 211.02C255.867 211.149 255.59 211.02 255.428 210.736C255.266 210.452 255.276 210.12 255.453 209.991C255.631 209.862 255.908 209.986 256.07 210.275Z" fill="url(#paint45_linear)"/>
<path d="M263.877 208.212L262.257 206.845C262.257 206.845 263.063 206.578 262.776 205.241C262.49 203.904 263.272 204.161 263.297 205.241C263.306 205.86 263.399 206.474 263.574 207.061L264.561 207.858L263.877 208.212Z" fill="url(#paint46_linear)"/>
<path d="M254.526 213.41C254.759 212.884 254.807 212.28 254.661 211.717C254.489 210.989 254.429 210.88 254.304 210.729L254.129 210.53L254.107 210.515C253.896 210.407 253.672 210.333 253.442 210.297C253.136 210.297 252.537 211.535 252.221 213.441L252.139 213.659C252.088 213.788 252.053 213.878 252.051 213.891C251.863 214.284 251.615 214.638 251.319 214.937C250.508 215.711 248.637 216.172 248.653 216.513C248.668 216.853 250.307 217.046 251.93 217.006C253.077 216.978 255.026 216.803 255.051 216.351C255.077 215.899 253.132 215.695 253.362 214.166C253.395 213.989 254.263 213.937 254.526 213.41Z" fill="url(#paint47_linear)"/>
<path d="M254.848 210.161C254.722 210.742 254.341 211.299 254.195 211.365C254.108 211.41 254.027 211.471 253.957 211.544C253.94 211.563 253.925 211.583 253.912 211.605C253.717 211.942 254.148 212.516 254.011 212.654C253.912 212.752 253.592 212.497 253.528 212.589C253.463 212.68 253.723 212.956 253.649 213.061C253.574 213.165 253.432 213.008 253.288 213.113C253.216 213.163 253.221 213.222 253.118 213.41C253.061 213.51 252.996 213.604 252.923 213.69C252.669 213.985 252.133 213.972 252.065 213.808C252.045 213.762 252.076 213.736 252.076 213.589C252.072 213.494 252.057 213.399 252.031 213.307C251.967 213.089 251.743 212.87 251.532 212.597C251.291 212.325 251.129 211.978 251.066 211.601C251.066 211.559 251.066 211.527 251.056 211.503C251.026 210.992 251.153 210.485 251.417 210.067C251.846 209.495 252.431 209.98 253.104 209.479C253.885 208.903 253.733 207.788 254.091 207.766C254.493 207.753 255.084 209.084 254.848 210.161Z" fill="#26264F"/>
<path d="M253.853 212.46C253.768 212.228 253.504 212.353 253.448 212.606C253.434 212.669 253.431 212.734 253.44 212.798C253.45 212.863 253.47 212.924 253.501 212.979C253.532 213.033 253.573 213.08 253.621 213.117C253.669 213.154 253.722 213.179 253.779 213.192C254.004 213.205 253.969 212.777 253.853 212.46Z" fill="url(#paint48_linear)"/>
<path d="M245.024 216.687C246.031 215.87 247.629 215.717 250.83 215.466C252.819 215.331 254.813 215.323 256.803 215.444C259.708 215.586 260.777 215.84 262.618 215.322C263.919 214.957 265.406 214.537 265.841 213.288C266.317 211.911 265.396 209.899 263.525 208.341L264.655 207.314C265.342 207.482 267.53 208.125 269.068 210.41C270.404 212.398 271.069 215.296 270.211 217.767C269.43 219.982 267.72 221.077 265.127 222.722C262.222 224.566 261.604 224.007 260.387 225.401C259.464 226.456 259.005 228.678 258.128 233.048C257.632 235.515 257.287 237.586 256.467 240.75C255.687 243.771 255.402 244.176 255.102 244.486C253.651 245.972 252.098 244.877 247.804 245.565C245.073 246.002 245.087 246.546 242.656 246.725C240.413 246.894 238.052 247.068 236.657 245.316C235.475 243.833 235.66 241.718 235.694 241.416C235.936 239.155 237.408 238.169 238.842 236.148C240.128 234.333 240.719 232.2 241.897 227.935C243.916 220.62 242.982 218.359 245.024 216.687Z" fill="url(#paint49_linear)"/>
<path style="mix-blend-mode:multiply" opacity="0.3" d="M270.486 214.068C270.246 215.107 269.825 216.082 269.247 216.937C267.251 219.849 263.648 220.717 261.766 221.169C258.35 221.99 256.274 221.348 255.617 222.744C255 224.055 256.616 225.113 256.432 227.474C256.212 230.315 253.74 230.413 252.211 234.029C250.638 237.743 252.016 240.545 250.432 241.578C249.361 242.277 248.606 241.075 246.21 240.831C241.848 240.394 239.617 243.89 237.543 242.657C237.02 242.347 236.404 241.674 236.037 240.035C235.858 240.471 235.741 240.936 235.692 241.412C235.658 241.713 235.473 243.828 236.655 245.312C238.05 247.06 240.411 246.889 242.654 246.721C245.085 246.542 245.063 246 247.802 245.561C252.094 244.873 253.654 245.967 255.1 244.482C255.402 244.171 255.685 243.767 256.465 240.746C257.285 237.582 257.636 235.502 258.126 233.044C259.003 228.674 259.462 226.456 260.385 225.397C261.602 224.003 262.22 224.562 265.125 222.718C267.718 221.073 269.438 219.978 270.209 217.763C270.602 216.583 270.698 215.305 270.486 214.068V214.068Z" fill="url(#paint50_linear)"/>
<path opacity="0.49" d="M233.23 123.565H150.993C150.889 123.564 150.788 123.527 150.703 123.461C150.618 123.394 150.554 123.299 150.518 123.19C150.483 123.081 150.478 122.963 150.504 122.85C150.53 122.738 150.586 122.637 150.665 122.562L160.224 113.488V73.2639C160.229 72.8742 160.303 72.4896 160.443 72.1328C160.583 71.776 160.786 71.4544 161.039 71.1869C161.292 70.9193 161.59 70.7114 161.916 70.5754C162.242 70.4394 162.59 70.3781 162.937 70.3951L233.232 72.1889C233.906 72.2121 234.545 72.5268 235.016 73.0671C235.487 73.6073 235.753 74.331 235.758 75.0861V120.729C235.757 121.48 235.49 122.2 235.017 122.731C234.543 123.263 233.9 123.562 233.23 123.565V123.565Z" fill="white"/>
<path d="M183.011 79.9629L166.94 79.6221V77.5071L183.011 77.8632V79.9629Z" fill="#D8DEE8"/>
<path d="M183.011 84.1645L166.94 83.8564V81.7393L183.011 82.0626V84.1645Z" fill="#D8DEE8"/>
<path d="M183.011 90.7781L166.94 90.5224V88.4053L183.011 88.6784V90.7781Z" fill="#D8DEE8"/>
<path d="M183.011 94.9797L166.94 94.7546V92.6396L183.011 92.88V94.9797Z" fill="#D8DEE8"/>
<path d="M229.478 112.662L166.94 112.323V110.206L229.478 110.608V112.662Z" fill="#D8DEE8"/>
<path d="M229.478 116.768L166.94 116.556V114.438L229.478 114.714V116.768Z" fill="#D8DEE8"/>
<path d="M183.011 101.593L166.94 101.423V99.3059L183.011 99.4938V101.593Z" fill="#D8DEE8"/>
<path d="M183.011 105.795L166.94 105.655V103.538L183.011 103.695V105.795Z" fill="#D8DEE8"/>
<path d="M229.478 106.409L189.009 106.064V77.9966L189.407 78.0053V105.631L229.478 105.983V106.409Z" fill="#D8DEE8"/>
<path d="M194.649 98.2855L194.366 97.9775L202.716 88.7637L210.845 92.0149L218.792 84.5928L226.726 89.2291L226.554 89.6071L218.847 85.1062L210.926 92.5043L202.821 89.2641L194.649 98.2855Z" fill="#D8DEE8"/>
<path d="M195.87 98.148C195.869 98.3461 195.832 98.5419 195.762 98.724C195.693 98.9061 195.591 99.0709 195.464 99.2088C195.337 99.3466 195.187 99.4548 195.022 99.527C194.858 99.5992 194.682 99.634 194.505 99.6293C194.145 99.6294 193.8 99.4703 193.544 99.1868C193.288 98.9033 193.143 98.5182 193.139 98.1152C193.14 97.9171 193.177 97.7212 193.247 97.5391C193.316 97.357 193.418 97.1922 193.545 97.0545C193.672 96.9168 193.822 96.8088 193.987 96.7369C194.152 96.6651 194.328 96.6308 194.505 96.636C194.864 96.636 195.209 96.7947 195.465 97.0778C195.721 97.3608 195.866 97.7454 195.87 98.148V98.148Z" fill="url(#paint51_linear)"/>
<path d="M204.12 89.0369C204.119 89.2333 204.083 89.4275 204.014 89.6081C203.946 89.7888 203.845 89.9522 203.719 90.0889C203.594 90.2257 203.445 90.3329 203.281 90.4043C203.118 90.4758 202.944 90.5101 202.768 90.5051C202.41 90.5017 202.068 90.3412 201.815 90.058C201.562 89.7748 201.418 89.3917 201.414 88.991C201.415 88.7944 201.451 88.6 201.52 88.4192C201.589 88.2384 201.69 88.0749 201.816 87.9381C201.942 87.8014 202.091 87.6942 202.255 87.6229C202.418 87.5515 202.593 87.5175 202.768 87.5227C203.126 87.5267 203.467 87.6875 203.72 87.9706C203.973 88.2537 204.117 88.6365 204.12 89.0369V89.0369Z" fill="url(#paint52_linear)"/>
<path d="M212.228 92.2902C212.227 92.4855 212.191 92.6787 212.123 92.8585C212.055 93.0384 211.956 93.2012 211.831 93.3374C211.706 93.4737 211.558 93.5808 211.396 93.6523C211.233 93.7238 211.06 93.7584 210.885 93.7541C210.531 93.7473 210.193 93.5865 209.942 93.3055C209.692 93.0246 209.549 92.6456 209.543 92.2487C209.544 92.0533 209.58 91.8601 209.648 91.6803C209.716 91.5005 209.815 91.3377 209.94 91.2014C210.065 91.0651 210.213 90.9581 210.375 90.8866C210.538 90.815 210.711 90.7804 210.885 90.7848C211.24 90.7915 211.578 90.9524 211.829 91.2333C212.079 91.5142 212.222 91.8932 212.228 92.2902Z" fill="url(#paint53_linear)"/>
<path d="M220.15 84.8745C220.15 85.0685 220.115 85.2605 220.048 85.4393C219.981 85.618 219.882 85.7799 219.758 85.9153C219.634 86.0507 219.487 86.1569 219.326 86.2277C219.165 86.2985 218.992 86.3325 218.819 86.3275C218.466 86.3218 218.128 86.1613 217.879 85.8803C217.63 85.5993 217.489 85.2202 217.487 84.8243C217.487 84.6302 217.522 84.4381 217.589 84.2594C217.657 84.0806 217.756 83.9188 217.88 83.7834C218.004 83.648 218.151 83.5418 218.312 83.471C218.474 83.4003 218.646 83.3664 218.819 83.3713C219.172 83.3776 219.509 83.5384 219.758 83.8193C220.007 84.1002 220.147 84.479 220.15 84.8745Z" fill="url(#paint54_linear)"/>
<path d="M227.961 89.4496C227.961 89.6425 227.926 89.8335 227.86 90.0114C227.793 90.1893 227.695 90.3505 227.572 90.4856C227.449 90.6207 227.304 90.7269 227.143 90.7982C226.983 90.8694 226.812 90.9041 226.64 90.9003C226.289 90.8941 225.953 90.7339 225.706 90.4541C225.459 90.1744 225.319 89.7973 225.317 89.4037C225.318 89.2106 225.352 89.0196 225.419 88.8417C225.486 88.6638 225.584 88.5026 225.707 88.3675C225.83 88.2325 225.976 88.1262 226.136 88.0551C226.296 87.9839 226.468 87.9491 226.64 87.9529C226.991 87.9598 227.326 88.1202 227.573 88.3999C227.819 88.6796 227.959 89.0563 227.961 89.4496V89.4496Z" fill="url(#paint55_linear)"/>
<path d="M201.742 198.352C201.407 198.06 201.146 197.675 200.985 197.235C200.79 196.661 200.927 196.405 200.677 196.047C200.511 195.82 200.286 195.656 200.033 195.578C199.78 195.499 199.512 195.511 199.265 195.61C199.15 195.658 199.052 195.745 198.984 195.859C198.789 196.232 199.226 196.881 199.569 197.227C199.832 197.487 199.942 197.467 200.222 197.69C200.618 198.014 200.927 198.453 201.116 198.959L201.742 198.352Z" fill="url(#paint56_linear)"/>
<path d="M187.053 195.21C187.462 195.088 187.836 194.847 188.137 194.513C188.528 194.076 188.481 193.774 188.836 193.552C189.068 193.417 189.332 193.366 189.591 193.405C189.851 193.444 190.093 193.571 190.285 193.77C190.375 193.863 190.435 193.987 190.457 194.122C190.51 194.559 189.872 194.959 189.435 195.122C189.101 195.247 189.007 195.181 188.672 195.262C188.195 195.39 187.759 195.659 187.408 196.042L187.053 195.21Z" fill="url(#paint57_linear)"/>
<path d="M188.455 195.743C188.651 196.783 187.648 197.709 186.922 198.618C185.469 200.44 183.949 203.694 184.507 206.484C184.811 208.013 185.789 209.659 187.17 210.439C188.656 211.28 189.546 210.515 191.093 211.514C191.206 211.588 193.161 212.886 193.217 214.638C193.287 216.799 190.451 219.097 188.022 219.272C183.582 219.595 178.231 212.98 178.479 206.416C178.75 199.269 185.607 193.597 187.58 194.561C187.794 194.674 187.983 194.839 188.135 195.043C188.286 195.247 188.395 195.486 188.455 195.743V195.743Z" fill="url(#paint58_linear)"/>
<path d="M190.433 269.737L190.591 271.546L189.838 271.393L189.333 269.693L190.433 269.737Z" fill="url(#paint59_linear)"/>
<path d="M185.845 236.275C185.909 239.036 186.197 241.785 186.706 244.488C187.162 246.904 187.427 247.328 187.57 248.991C187.88 252.627 186.834 253.142 186.641 257.257C186.518 260.493 186.956 263.726 187.931 266.776C188.23 267.745 188.581 268.694 188.98 269.617C189.351 269.979 189.918 269.835 190.517 269.704C190.738 265.588 191.013 261.714 191.233 257.6C191.945 251.408 192.656 245.217 193.367 239.028L185.845 236.275Z" fill="url(#paint60_linear)"/>
<path style="mix-blend-mode:multiply" opacity="0.3" d="M190.517 269.721C190.738 265.605 191.013 261.731 191.233 257.617C191.945 251.425 192.656 245.234 193.367 239.045L185.845 236.275C185.845 236.493 185.861 236.694 185.867 236.902C189.378 240.326 190.075 243.035 190.039 244.883C189.998 247.127 188.904 248.239 189.117 251.491C189.271 253.815 189.897 254.224 189.897 256.321C189.897 259.024 188.863 260.543 188.358 262.103C187.87 263.612 187.697 265.749 188.639 268.788C188.762 269.103 188.879 269.383 188.984 269.625C189.351 269.997 189.918 269.857 190.517 269.721Z" fill="url(#paint61_linear)"/>
<path d="M190.151 272.164C189.794 271.668 189.466 271.705 189.407 271.369C189.391 271.229 189.412 271.088 189.47 270.962C189.528 270.837 189.618 270.735 189.729 270.67C190.036 270.506 190.4 270.783 190.482 270.847C191.04 271.271 190.872 271.911 191.401 272.203C191.567 272.276 191.72 272.383 191.852 272.518C191.926 272.601 192.111 272.802 192.064 272.938C192.018 273.073 191.674 273.082 191.354 273.069C190.964 273.053 190.769 273.045 190.597 272.911C190.346 272.726 190.426 272.544 190.151 272.164Z" fill="url(#paint62_linear)"/>
<path d="M190.908 256.675L189.499 257.294L189.089 256.571L190.19 255.742L190.908 256.675Z" fill="url(#paint63_linear)"/>
<path d="M188.758 257.687C188.84 257.058 188.594 256.813 188.775 256.536C188.854 256.425 188.961 256.345 189.082 256.306C189.203 256.267 189.331 256.271 189.45 256.317C189.768 256.457 189.84 256.944 189.84 257.053C189.94 257.803 189.407 258.1 189.573 258.731C189.64 258.918 189.674 259.116 189.673 259.317C189.673 259.433 189.673 259.723 189.542 259.776C189.411 259.828 189.185 259.557 188.976 259.28C188.727 258.954 188.6 258.79 188.565 258.55C188.52 258.218 188.688 258.161 188.758 257.687Z" fill="url(#paint64_linear)"/>
<path d="M196.998 233.435C199.622 239.426 200.509 244.42 200.849 247.68C201.065 249.778 201.044 251.075 200.505 252.378C198.574 257.042 191.834 257.351 190.81 257.383C190.474 256.61 190.138 255.837 189.799 255.065C190.627 253.289 191.852 251.784 193.354 250.695C194.78 249.692 195.336 249.907 195.695 249.231C197.121 246.527 189.417 240.667 190.568 236.777C190.964 235.401 192.497 234.029 196.998 233.435Z" fill="url(#paint65_linear)"/>
<path d="M191.315 211.896C194.15 212.44 196.307 213.008 197.271 214.671C198.287 216.419 196.67 217.747 196.229 221.601C195.556 227.5 198.584 229.703 197.714 235.641C197.587 236.515 197.391 237.375 197.129 238.211C196.719 239.503 195.929 240.602 194.889 241.326C193.998 241.954 193.046 242.467 192.053 242.856C189.179 243.981 187.761 243.328 183.896 243.575C177.572 243.979 176.624 246.033 173.768 244.77C170.879 243.494 168.789 240.044 169.402 238.569C169.769 237.695 170.926 238.237 172.586 237.153C174.732 235.757 174.365 233.85 176.097 232.215C178.59 229.864 180.988 232.237 183.12 230.194C185.252 228.152 185.533 223.104 184.616 220.111C184.017 218.158 184.008 216.032 183.563 214.028C183.508 213.786 183.517 213.531 183.59 213.294C183.943 212.143 185.826 211.92 187.248 211.765C188.603 211.616 189.97 211.66 191.315 211.896V211.896Z" fill="url(#paint66_linear)"/>
<path style="mix-blend-mode:multiply" opacity="0.3" d="M174.094 242.539C174.97 241.884 174.496 240.033 175.791 239.043C176.995 238.13 177.937 239.325 179.708 238.716C181.983 237.933 181.864 235.482 184.045 234.698C185.605 234.136 186.085 235.257 188.346 235.305C190.607 235.353 193.565 234.309 195.437 231.628C196.151 230.603 196.657 229.417 196.922 228.152C197.525 230.337 198.18 232.447 197.714 235.635C197.547 236.754 197.267 237.848 196.881 238.897C196.587 239.705 196.09 240.4 195.451 240.898C194.399 241.724 193.251 242.386 192.039 242.865C189.165 243.99 187.747 243.337 183.883 243.584C177.558 243.988 176.61 246.042 173.754 244.779C172.033 243.991 170.602 242.571 169.697 240.752C172.203 242.786 173.458 243.013 174.094 242.539Z" fill="url(#paint67_linear)"/>
<path d="M192.952 206.401C192.952 206.401 193.732 208.044 193.783 209.195C193.834 210.347 192.671 210.264 192.671 210.264L192.714 210.991C192.732 211.295 192.829 211.586 192.992 211.83C193.155 212.073 193.378 212.259 193.633 212.363L194.091 212.554C194.091 212.554 191.101 213.27 189.468 211.979L189.938 211.927C190.261 211.892 190.564 211.732 190.794 211.476C191.024 211.219 191.167 210.881 191.2 210.519L191.229 210.207C191.229 210.207 190.711 206.615 192.952 206.401Z" fill="url(#paint68_linear)"/>
<path d="M200.316 198.68C199.871 199.619 200.609 200.819 201.081 201.915C202.029 204.118 202.69 207.714 201.471 210.218C200.802 211.588 199.456 212.87 197.936 213.196C196.301 213.546 195.634 212.541 193.902 213.017C193.775 213.054 191.575 213.696 191.089 215.363C190.49 217.419 192.65 220.505 194.942 221.424C199.132 223.105 205.903 218.4 207.28 212.014C208.779 205.062 203.586 197.491 201.453 197.812C201.219 197.854 200.995 197.954 200.798 198.104C200.602 198.254 200.437 198.45 200.316 198.68V198.68Z" fill="url(#paint69_linear)"/>
<path d="M192.486 208.035C192.33 208.02 192.203 207.801 192.096 207.867C191.988 207.932 191.996 208.254 192.096 208.479C192.157 208.619 192.254 208.736 192.375 208.815C192.209 209.067 192.095 209.358 192.041 209.665C191.9 210.498 192.295 211.166 192.46 211.557C193.2 213.325 192.049 216.117 190.783 217.526C189.757 218.673 189.277 218.212 188.662 219.148C187.468 220.97 189.117 222.971 188.498 225.425C187.56 229.152 182.303 230.262 182.086 230.306L181.852 230.35C179.494 230.769 175.92 231.405 173.403 229.237C171.519 227.614 170.656 224.791 170.799 222.305C170.894 220.367 171.612 218.533 172.82 217.142C173.107 216.821 174.804 214.92 177.098 214.898C178.313 214.885 178.557 215.366 179.486 215.068C180.76 214.662 181.542 213.366 182.022 212.564C182.917 211.085 182.554 210.771 183.192 210.043C184.452 208.619 185.923 209.737 187.279 208.481C188.635 207.225 187.806 205.56 189.086 204.489C190.408 203.381 192.936 203.768 193.475 205.086C193.955 206.217 192.958 208.09 192.486 208.035Z" fill="url(#paint70_linear)"/>
<path d="M364.028 177.72C364.028 177.72 363.487 174.569 362.949 173.63C362.411 172.69 361.406 172.1 361.406 172.1C361.406 172.1 361.197 172.485 361.864 173.297C362.532 174.11 361.974 174.191 361.864 174.451C361.755 174.711 361.991 175.653 362.471 175.98C362.951 176.308 363.128 178.143 363.128 178.143L364.028 177.72Z" fill="url(#paint71_linear)"/>
<path d="M362.471 177.307L364.207 176.97C365.769 180.254 367.853 183.191 370.356 185.638C372.307 187.534 373.567 188.758 375.639 189.372C378.698 190.278 381.339 189.214 381.686 190.176C381.856 190.648 381.273 191.157 380.34 192.407C377.627 196.044 377.882 198 376.39 198.54C375.157 198.977 373.916 198.026 371.811 196.355C369.898 194.825 367.496 192.907 365.467 189.249C363.497 185.658 362.459 181.522 362.471 177.307V177.307Z" fill="url(#paint72_linear)"/>
<path d="M387.968 190.567C388.249 190.687 392.538 192.597 393.42 197.613C393.492 198.018 394.181 202.326 391.573 205.37C388.647 208.783 383.015 208.697 380.779 205.844C380.329 205.26 380.004 204.569 379.827 203.823L380.412 202.075C381.132 201.105 382.11 200.873 382.632 200.729C383.922 200.373 384.895 201.018 385.633 200.321C386.04 199.936 386.122 199.381 386.194 198.887C386.442 197.2 385.592 196.163 385.529 195.123C385.484 194.345 385.241 192.641 386.146 191.531C386.723 190.829 387.519 190.631 387.968 190.567Z" fill="url(#paint73_linear)"/>
<path d="M389.64 246.454C389.688 246.146 390.58 245.867 391.021 246.28C391.239 246.485 391.389 246.902 391.263 247.09C391.218 247.158 391.405 247.278 391.226 247.28C390.625 247.289 389.589 246.763 389.64 246.454Z" fill="url(#paint74_linear)"/>
<path d="M390.572 246.568L391.487 246.422C391.064 245.851 391.142 244.018 391.142 244.018L390.166 244.261C390.166 244.261 390.278 244.761 390.467 245.5C390.538 245.85 390.573 246.209 390.572 246.568V246.568Z" fill="url(#paint75_linear)"/>
<path d="M390.49 246.441C390.49 246.441 391.592 246.157 391.711 246.402C391.83 246.647 391.924 247.302 391.226 247.276C390.527 247.25 390.43 246.649 390.49 246.441Z" fill="url(#paint76_linear)"/>
<path d="M377.078 247.612C377.166 247.315 378.083 247.176 378.468 247.656C378.663 247.894 378.756 248.329 378.606 248.495C378.553 248.556 378.725 248.714 378.546 248.679C377.951 248.594 376.991 247.907 377.078 247.612Z" fill="url(#paint77_linear)"/>
<path d="M377.988 247.87H378.912C378.563 247.237 378.869 245.447 378.869 245.447L377.874 245.535C377.874 245.535 377.921 246.046 378.017 246.806C378.043 247.161 378.033 247.518 377.988 247.87V247.87Z" fill="url(#paint78_linear)"/>
<path d="M375.592 208.71C374.943 211.114 374.463 213.572 374.158 216.06C373.035 225.208 375.422 225.501 374.976 235.639C374.833 238.875 377.48 246.345 377.707 246.503C377.828 246.517 377.951 246.523 378.074 246.52C378.389 246.507 378.702 246.448 379.004 246.345C379.423 246.264 380.935 241.68 380.584 238.956C380.336 237.027 380.409 234.955 380.553 230.817C380.576 230.146 382.114 217.765 382.114 217.765C382.58 222.353 383.116 226.242 383.581 229.259C385.073 238.96 389.928 244.829 390.182 244.925C390.324 244.987 390.476 245.013 390.628 245.002C390.779 244.99 390.927 244.941 391.06 244.857C391.156 244.789 391.233 244.692 391.282 244.578C391.413 244.462 391.243 234.894 389.763 227.691C387.617 217.238 388.549 214.8 387.868 210.122C387.277 206.082 375.592 208.71 375.592 208.71Z" fill="url(#paint79_linear)"/>
<path d="M384.273 189.752C382.847 189.704 379.566 189.14 377.759 190.96C377.728 190.993 378.099 191.214 377.915 191.454C377.434 192.09 377.007 192.777 376.642 193.503C376.181 194.443 375.821 195.439 375.569 196.473C375.127 198.163 374.844 199.9 374.722 201.655C374.392 206.521 374.722 208.765 375.017 210.29C376.306 211.033 379.632 212.361 383.6 211.701C385.095 211.45 386.54 210.916 387.876 210.124C386.848 206.628 387.656 204.773 388.036 203.054C388.578 200.602 388.586 200.788 389.033 198.839C389.77 195.627 389.891 192.343 389.384 191.67C388.011 189.859 385.551 189.793 384.273 189.752Z" fill="url(#paint80_linear)"/>
<path d="M377.923 247.733C377.923 247.733 379.051 247.623 379.137 247.885C379.222 248.148 379.234 248.81 378.551 248.679C377.869 248.548 377.835 247.927 377.923 247.733Z" fill="url(#paint81_linear)"/>
<path d="M381.275 186.757C381.041 185.821 381.45 184.954 381.542 184.766C381.92 183.984 382.018 183.877 382.197 183.741L382.449 183.569L382.478 183.556C382.748 183.494 383.025 183.475 383.3 183.499C383.655 183.584 384.033 185.205 383.926 187.499C383.941 187.587 383.955 187.674 383.969 187.764C384.025 188.124 384.068 188.48 384.103 188.828C384.12 188.991 384.176 189.145 384.266 189.274C384.356 189.403 384.476 189.502 384.613 189.56C386.501 190.357 386.497 189.721 386.692 190.408C386.799 190.781 384.653 191.386 383.6 191.251C381.226 191.271 379.295 190.987 379.503 190.567C379.595 190.381 381.435 189.844 381.952 189.311C382.426 188.821 382.387 188.317 382.426 187.956C382.281 187.873 381.448 187.447 381.275 186.757Z" fill="url(#paint82_linear)"/>
<path d="M381.712 182.918C381.712 183.628 382.012 184.386 382.166 184.508C382.255 184.587 382.332 184.682 382.394 184.788C382.409 184.815 382.422 184.843 382.431 184.873C382.57 185.31 381.934 185.848 382.057 186.049C382.147 186.193 382.578 185.998 382.628 186.125C382.679 186.252 382.318 186.488 382.373 186.628C382.428 186.767 382.636 186.628 382.775 186.8C382.845 186.883 382.824 186.947 382.898 187.196C382.936 187.327 382.984 187.455 383.042 187.578C383.263 187.995 383.883 188.146 384.002 187.98C384.035 187.934 384.002 187.895 384.041 187.737C384.068 187.628 384.109 187.524 384.162 187.427C384.291 187.187 384.601 187.016 384.913 186.772C385.498 186.304 385.65 185.898 385.693 185.771C385.711 185.723 385.72 185.686 385.728 185.662C385.889 185.082 385.869 184.459 385.67 183.894C385.317 183.103 384.523 183.479 383.873 182.695C383.124 181.788 383.571 180.551 383.163 180.414C382.718 180.256 381.708 181.604 381.712 182.918Z" fill="#26264F"/>
<path d="M382.285 185.88C382.441 185.642 382.714 185.867 382.714 186.175C382.714 186.483 382.449 186.807 382.19 186.746C381.93 186.684 382.077 186.204 382.285 185.88Z" fill="url(#paint83_linear)"/>
<path d="M387.414 207.935C387.4 207.934 387.387 207.929 387.376 207.918C387.366 207.908 387.359 207.894 387.357 207.878C387.187 206.156 387.504 204.911 387.784 203.812C387.853 203.543 387.917 203.29 387.98 203.038C388.29 201.645 388.424 201.107 388.565 200.537C388.658 200.168 388.76 199.785 388.902 199.145C388.907 199.129 388.916 199.116 388.929 199.108C388.942 199.1 388.957 199.098 388.971 199.102C388.985 199.106 388.997 199.117 389.005 199.131C389.013 199.145 389.015 199.162 389.012 199.178C388.863 199.818 388.768 200.2 388.674 200.572C388.532 201.14 388.397 201.677 388.089 203.069C388.032 203.323 387.968 203.576 387.894 203.847C387.617 204.939 387.308 206.167 387.47 207.865C387.471 207.873 387.47 207.882 387.468 207.89C387.466 207.898 387.463 207.905 387.458 207.912C387.453 207.918 387.447 207.924 387.441 207.928C387.434 207.932 387.427 207.934 387.42 207.935H387.414Z" fill="#9B305E"/>
<path d="M382.412 185.367L382.051 185.894C382.051 185.894 381.661 186.536 381.435 186.184C381.24 185.896 381.201 185.902 381.191 185.913C381.191 185.913 381.218 185.769 381.245 185.644C381.105 185.87 381.001 186.12 380.937 186.385C380.859 186.713 380.775 187.065 380.937 187.401C381.054 187.625 381.243 187.791 381.466 187.864C381.701 187.878 381.936 187.852 382.164 187.788C382.164 187.788 381.548 187.287 381.538 187.167C381.513 186.846 381.913 186.671 382.211 186.007C382.301 185.804 382.368 185.589 382.412 185.367V185.367Z" fill="#26264F"/>
<path d="M118.935 122.579C118.935 122.579 117.948 123.235 118.35 123.685C118.752 124.135 120.919 125.898 121.315 125.898C121.711 125.898 121.315 124.128 120.925 123.908C120.535 123.687 119.331 122.359 118.935 122.579Z" fill="url(#paint84_linear)"/>
<path d="M110.243 100.674C111.608 100.988 116.429 102.308 119.528 107.311C120.274 108.515 121.881 111.187 121.899 115.057C121.92 119.328 119.993 122.306 119.331 123.244L118.551 123.462C117.525 122.542 117.139 121.646 116.969 121.028C116.495 119.28 117.326 118.205 117.164 115.717C117.123 115.087 117.047 113.884 116.579 112.841C115.262 109.962 111.897 110.497 106.503 107.309C104.552 106.158 103.099 105.271 103.144 104.211C103.21 102.341 107.911 101.167 110.243 100.674Z" fill="url(#paint85_linear)"/>
<g style="mix-blend-mode:multiply" opacity="0.3">
<path style="mix-blend-mode:multiply" opacity="0.3" d="M118.639 118.044C119.164 114.596 120.675 112.413 119.628 110.742C118.775 109.381 117.299 110.062 115.083 108.308C113.5 107.054 113.132 105.819 112.316 104.766C111.277 103.427 109.334 102.159 105.391 102.118C104.129 102.677 103.165 103.376 103.13 104.213C103.085 105.273 104.544 106.16 106.489 107.311C111.873 110.499 115.248 109.964 116.565 112.844C117.041 113.886 117.117 115.09 117.15 115.719C117.308 118.208 116.477 119.289 116.955 121.03C117.125 121.649 117.511 122.545 118.537 123.464L118.715 123.414C118.401 121.644 118.376 119.824 118.639 118.044V118.044Z" fill="url(#paint86_linear)"/>
</g>
<path d="M106.883 138.953C106.764 138.765 105.789 139.362 106.093 140.061C106.355 140.657 106.883 141.61 107.673 143.159C107.88 143.563 108.614 143.814 108.904 143.793C108.977 143.79 109.048 143.764 109.109 143.719C109.169 143.674 109.217 143.61 109.247 143.536C109.277 143.462 109.288 143.379 109.279 143.298C109.269 143.217 109.239 143.141 109.193 143.078C108.906 142.689 108.177 141.66 108.069 140.946C107.872 139.617 107.476 138.291 106.883 138.953Z" fill="url(#paint87_linear)"/>
<path d="M105.896 137.627L106.883 139.84C106.934 139.898 106.995 139.944 107.062 139.975C107.129 140.007 107.201 140.023 107.274 140.023C107.346 140.023 107.418 140.007 107.485 139.975C107.552 139.944 107.613 139.898 107.664 139.84L107.469 137.404L105.896 137.627Z" fill="url(#paint88_linear)"/>
<path d="M108.86 102.223C108.179 108.069 107.668 114.513 107.476 121.474C107.311 127.561 107.408 133.259 107.672 138.516H106.29C104.888 137.527 103.733 136.157 102.931 134.533C102.646 133.945 101.845 132.147 101.745 128.116C101.663 124.734 102.176 123.833 102.33 121.035C102.648 115.557 100.986 113.805 100.75 105.323C100.68 102.819 100.787 101.639 101.53 100.898C103.538 98.9342 108.212 101.814 108.86 102.223Z" fill="url(#paint89_linear)"/>
<path d="M120.911 95.3622C120.911 95.3622 121.107 95.1437 121.899 94.7067C122.691 94.2698 123.282 94.7067 123.481 95.8145C123.68 96.9222 123.676 98.2485 123.286 97.8049C122.895 97.3614 122.101 95.8145 121.508 96.2558C120.915 96.6972 120.911 95.3622 120.911 95.3622Z" fill="url(#paint90_linear)"/>
<path d="M76.853 79.6503C76.6844 79.2237 76.5537 78.7794 76.4628 78.3241C76.2678 77.4392 75.8776 76.9957 75.2768 76.775C74.6759 76.5543 74.0927 76.9935 73.4996 76.5565C73.1309 76.2812 73.3045 77.8827 74.2799 78.3263C75.2553 78.7698 76.0571 80.3167 76.0571 80.3167L76.853 79.6503Z" fill="url(#paint91_linear)"/>
<path d="M102.143 82.7488C102.477 82.5696 103.509 82.6788 105.699 83.6227C109.89 85.4515 111.144 88.5366 114.589 91.3682C116.61 93.011 118.889 94.2132 121.307 94.9121L121.893 96.9047C118.832 98.0868 116.53 97.936 114.979 97.5602C110.319 96.4524 108.346 92.406 103.717 92.6922C102.81 92.7469 102.182 92.9457 101.544 92.4738C99.5367 90.9793 99.6674 84.0837 102.143 82.7488Z" fill="url(#paint92_linear)"/>
<path d="M113.009 100.894C112.927 99.8172 110.75 99.9504 109.453 97.7961C108.506 96.2252 108.943 94.9558 108.672 92.4846C108.399 90.0944 107.802 87.0901 105.709 84.7414C105.353 84.3226 104.955 83.9509 104.523 83.6336C101.772 81.6672 98.6881 83.2731 94.0511 84.0706C91.1347 84.5753 86.9991 85.2854 82.9882 83.6336C80.2162 82.4887 78.281 80.5136 77.0618 78.9885L75.2827 79.8625C76.2697 84.2148 78.0137 86.5221 79.4319 87.8286C83.8485 91.886 88.4621 89.2881 92.471 94.0228C93.9512 95.8282 94.9742 98.0435 95.4342 100.44C95.5786 101.327 95.8244 102.872 95.4342 104.646C94.412 109.234 90.1008 110.608 90.4949 112.168C90.8148 113.429 94.0414 114.135 97.0163 113.274C101.4 112.002 101.343 108.445 106.893 104.866C110.198 102.741 113.104 102.146 113.009 100.894Z" fill="url(#paint93_linear)"/>
<path d="M95.6235 81.8638C95.6235 81.8638 96.2087 82.7486 95.4284 83.1922C94.7021 83.5524 93.9545 83.8561 93.1909 84.1011L99.5777 84.9619L100.163 82.9715C100.163 82.9715 97.9898 83.19 97.7928 82.9715L96.8037 81.8638H95.6235Z" fill="url(#paint94_linear)"/>
<path d="M96.7355 80.3015C97.2583 79.646 97.3987 79.6941 97.5782 79.3204C97.9878 78.4705 97.7733 77.1683 97.3519 77.0263C97.0847 76.9345 96.95 77.3977 96.2009 77.9614C95.2841 78.6497 94.8861 78.3984 94.2872 79.0539C94.1468 79.209 93.5069 79.8994 93.6357 80.5833C93.7898 81.4573 95.1066 81.9947 95.8127 81.56C96.1483 81.3655 96.0917 81.1055 96.7355 80.3015Z" fill="url(#paint95_linear)"/>
<path d="M95.6352 81.9948C95.8745 82.1905 96.155 82.3135 96.4493 82.3517C96.7436 82.39 97.0418 82.3423 97.3148 82.2133C98.1419 81.8069 97.5762 79.6329 96.8915 79.4013C96.7402 79.369 96.5846 79.3717 96.4343 79.4092C96.284 79.4468 96.1422 79.5185 96.0175 79.6198C95.8615 79.7444 95.8225 79.8492 95.5708 80.0568C95.3192 80.2644 95.247 80.2382 95.1924 80.3452C95.1377 80.4523 95.1241 80.7385 95.4908 81.2913C95.4079 81.2324 95.3112 81.2028 95.2131 81.2063C95.115 81.2098 95.0201 81.2463 94.9407 81.3109C94.9035 81.3587 94.8786 81.4168 94.8685 81.4792C94.8334 81.7676 95.1319 81.9992 95.6352 81.9948Z" fill="url(#paint96_linear)"/>
<g style="mix-blend-mode:multiply" opacity="0.3">
<path style="mix-blend-mode:multiply" opacity="0.3" d="M102.241 103.652C102.024 102.14 99.2227 102.435 98.4872 100.333C97.7069 98.1173 100.321 96.365 100.067 93.4722C99.7572 89.9326 95.4284 87.7412 94.931 87.4987C89.736 84.9533 86.4392 88.8883 80.9048 87.0617C79.564 86.6115 78.3023 85.9064 77.1749 84.9773C77.7839 86.0581 78.5425 87.0235 79.4222 87.8373C83.8388 91.8947 88.4524 89.2968 92.4613 94.0315C93.9415 95.8369 94.9645 98.0522 95.4245 100.449C95.5689 101.336 95.8147 102.88 95.4245 104.655C94.4023 109.243 90.0911 110.617 90.4851 112.177C90.7582 113.256 93.1557 113.925 95.7054 113.562C95.7682 112.419 96.0425 111.303 96.5111 110.285C98.3156 106.477 102.51 105.526 102.241 103.652Z" fill="url(#paint97_linear)"/>
</g>
<path d="M72.1809 73.8494C54.4034 69.7287 54.6922 104.952 37.4843 102.074C36.743 101.954 35.873 101.277 35.592 100.667L28.4717 85.1541C28.1908 84.5423 28.6551 84.3326 29.4471 84.5795C47.9561 90.2952 48.8281 57.5981 67.6239 63.9365C68.1896 64.1266 68.7944 64.592 68.9426 64.9285L72.8754 73.4933C73.0373 73.8385 72.7135 73.9718 72.1809 73.8494Z" fill="url(#paint98_linear)"/>
<g opacity="0.81">
<path opacity="0.81" d="M41.4873 95.2636C42.2689 95.3247 43.0482 95.1141 43.719 94.6606C44.4993 94.1078 44.6944 93.3933 44.4564 92.858C44.2184 92.3227 43.7599 92.3577 42.689 92.609C41.1907 92.9586 39.8662 92.4538 39.2907 91.1997C38.6001 89.6965 39.3824 88.2785 41.181 87.0943C41.8089 86.6495 42.4882 86.3033 43.2001 86.0652C43.3113 86.6638 43.4244 87.2625 43.5356 87.8612C42.9402 88.0203 42.373 88.2906 41.8579 88.6608C41.1205 89.1656 40.9079 89.7293 41.1127 90.1728C41.3566 90.7037 41.9262 90.7256 43.0635 90.4175C44.5773 89.9587 45.4337 90.0723 45.9624 91.2237C46.5632 92.5347 46.3408 94.7698 44.3413 96.2927C43.6036 96.8362 42.7299 97.1011 41.8482 97.0487C41.7233 96.4544 41.5985 95.8601 41.4873 95.2636Z" fill="white"/>
<path opacity="0.81" d="M46.2277 84.6427C45.6873 85.3157 45.1314 85.9537 44.5559 86.5589L43.8594 85.0295C45.4961 83.3842 46.9807 81.3938 48.4165 79.3203L49.0602 80.7208C48.5628 81.4571 48.0614 82.1847 47.5503 82.8926L50.377 89.0497C49.9673 89.7051 49.5518 90.33 49.1246 90.9396L46.2277 84.6427Z" fill="white"/>
<path opacity="0.81" d="M52.201 82.7268C52.3635 83.544 52.5267 84.364 52.6906 85.187C52.3005 85.8665 51.8986 86.546 51.4987 87.2168C50.8939 83.8957 50.3087 80.6184 49.743 77.3847C50.2658 76.6178 50.7886 75.8553 51.3192 75.0928C52.9169 76.6222 54.497 78.1036 56.0655 79.5675C55.6532 80.1996 55.2475 80.8456 54.8482 81.5055L53.6426 80.354C53.1627 81.1471 52.6809 81.9337 52.201 82.7268ZM52.9403 79.4385L51.9376 78.4488C51.6528 78.1713 51.3192 77.7933 51.048 77.4852C51.0435 77.4938 51.0383 77.5018 51.0324 77.5093C51.1475 78.0468 51.3173 78.7022 51.4226 79.2441C51.5527 79.9083 51.6827 80.5747 51.8128 81.2433C52.186 80.6373 52.5619 80.0357 52.9403 79.4385V79.4385Z" fill="white"/>
<path opacity="0.81" d="M53.7401 72.0033C54.2129 71.2665 54.7508 70.585 55.3456 69.9691C56.1825 69.0952 56.8653 68.7281 57.4525 68.7325C57.6982 68.7391 57.937 68.8251 58.1402 68.9801C58.3433 69.1352 58.5022 69.3527 58.5976 69.6064C58.9585 70.3908 58.6658 71.3543 58.2659 72.0251L58.2776 72.0535C58.7575 71.8525 59.1769 72.0775 59.5847 72.5189C60.086 73.0586 60.6381 73.7075 60.8605 73.8495C60.4011 74.2369 59.9602 74.6511 59.5398 75.0905C59.3662 75.0075 58.9975 74.6317 58.4747 74.0265C57.9519 73.4213 57.6202 73.4234 57.1091 73.9893C56.9843 74.1335 56.8614 74.2799 56.7385 74.4263C57.1286 75.2784 57.5188 76.1291 57.9089 76.9783C57.5188 77.4895 57.1286 78.0205 56.7385 78.5689L53.7401 72.0033ZM56.2566 73.3579C56.4185 73.1678 56.5805 72.9821 56.7443 72.7986C57.3666 72.1103 57.591 71.3959 57.3296 70.8431C57.0682 70.2903 56.5648 70.299 55.9777 70.8977C55.7773 71.1023 55.5933 71.326 55.4275 71.5663L56.2566 73.3579Z" fill="white"/>
<path opacity="0.81" d="M60.5777 67.6705C59.9896 67.9505 59.421 68.2791 58.8766 68.6538L58.344 67.4936C59.9266 66.4282 61.7081 65.788 63.5487 65.6233L64.0403 66.6939C63.3812 66.7602 62.7285 66.8903 62.0895 67.0828C62.8074 68.6487 63.5266 70.2145 64.2471 71.7803C63.7424 71.9744 63.2509 72.2088 62.7762 72.4817L60.5777 67.6705Z" fill="white"/>
</g>
<g style="mix-blend-mode:soft-light" opacity="0.3">
<g style="mix-blend-mode:soft-light" opacity="0.3">
<path d="M60.2012 70.0392C55.5446 72.471 55.3983 80.7452 51.606 83.9024C49.1441 85.8317 48.2195 83.5397 44.5832 83.756C42.2852 83.8063 39.8545 84.4421 37.1702 84.6824C34.9541 85.4318 32.4279 85.5105 29.4451 84.5884C28.6453 84.3416 28.181 84.5513 28.4697 85.1631L35.5901 100.676C35.871 101.285 36.741 101.963 37.4823 102.083C54.421 104.923 54.4054 70.8389 71.3558 73.6924C65.8682 69.2133 62.386 68.9118 60.2012 70.0392Z" fill="white"/>
</g>
</g>
<path d="M75.7684 79.8732C75.714 79.8733 75.6607 79.8566 75.6143 79.825C75.5678 79.7934 75.5301 79.7481 75.505 79.6941L68.1486 64.0131C68.1119 63.9351 68.1043 63.844 68.1275 63.7598C68.1508 63.6756 68.2029 63.6052 68.2725 63.5641C68.3421 63.5229 68.4234 63.5144 68.4986 63.5404C68.5738 63.5665 68.6367 63.6249 68.6734 63.7028L76.0298 79.386C76.0632 79.4629 76.0688 79.5512 76.0456 79.6325C76.0223 79.7139 75.9719 79.7821 75.9049 79.823C75.8639 79.8523 75.8169 79.8696 75.7684 79.8732V79.8732Z" fill="url(#paint99_linear)"/>
</g>
<defs>
<linearGradient id="paint0_linear" x1="278.328" y1="-182.664" x2="-347.524" y2="884.766" gradientUnits="userSpaceOnUse">
<stop stop-color="#AA80F9"/>
<stop offset="1" stop-color="#6165D7"/>
</linearGradient>
<linearGradient id="paint1_linear" x1="26233.9" y1="10756" x2="9104.74" y2="31953" gradientUnits="userSpaceOnUse">
<stop stop-color="#AA80F9"/>
<stop offset="1" stop-color="#6165D7"/>
</linearGradient>
<linearGradient id="paint2_linear" x1="691977" y1="-4077.7" x2="687809" y2="104672" gradientUnits="userSpaceOnUse">
<stop stop-color="#AA80F9"/>
<stop offset="1" stop-color="#6165D7"/>
</linearGradient>
<linearGradient id="paint3_linear" x1="160.265" y1="-101.526" x2="-342.106" y2="755.306" gradientUnits="userSpaceOnUse">
<stop stop-color="#FF9085"/>
<stop offset="1" stop-color="#FB6FBB"/>
</linearGradient>
<linearGradient id="paint4_linear" x1="33779.2" y1="23812.4" x2="6373.3" y2="58199.4" gradientUnits="userSpaceOnUse">
<stop stop-color="#AA80F9"/>
<stop offset="1" stop-color="#6165D7"/>
</linearGradient>
<linearGradient id="paint5_linear" x1="36052" y1="22466.9" x2="5394.23" y2="60412" gradientUnits="userSpaceOnUse">
<stop stop-color="#AA80F9"/>
<stop offset="1" stop-color="#6165D7"/>
</linearGradient>
<linearGradient id="paint6_linear" x1="298560" y1="6350.71" x2="277838" y2="162967" gradientUnits="userSpaceOnUse">
<stop stop-color="#FF9085"/>
<stop offset="1" stop-color="#FB6FBB"/>
</linearGradient>
<linearGradient id="paint7_linear" x1="791944" y1="-2250.16" x2="788949" y2="106304" gradientUnits="userSpaceOnUse">
<stop stop-color="#AA80F9"/>
<stop offset="1" stop-color="#6165D7"/>
</linearGradient>
<linearGradient id="paint8_linear" x1="651535" y1="-1378.45" x2="642193" y2="147212" gradientUnits="userSpaceOnUse">
<stop stop-color="#AA80F9"/>
<stop offset="1" stop-color="#6165D7"/>
</linearGradient>
<linearGradient id="paint9_linear" x1="517175" y1="-7706.92" x2="498492" y2="159082" gradientUnits="userSpaceOnUse">
<stop stop-color="#FF9085"/>
<stop offset="1" stop-color="#FB6FBB"/>
</linearGradient>
<linearGradient id="paint10_linear" x1="33131.2" y1="18111.5" x2="22850.3" y2="29196.9" gradientUnits="userSpaceOnUse">
<stop stop-color="#FF9085"/>
<stop offset="1" stop-color="#FB6FBB"/>
</linearGradient>
<linearGradient id="paint11_linear" x1="231073" y1="17440.8" x2="211765" y2="153247" gradientUnits="userSpaceOnUse">
<stop stop-color="#AA80F9"/>
<stop offset="1" stop-color="#6165D7"/>
</linearGradient>
<linearGradient id="paint12_linear" x1="431944" y1="-10588.1" x2="417465" y2="145476" gradientUnits="userSpaceOnUse">
<stop stop-color="#AA80F9"/>
<stop offset="1" stop-color="#6165D7"/>
</linearGradient>
<linearGradient id="paint13_linear" x1="84789.2" y1="16856.8" x2="65401.5" y2="50141.5" gradientUnits="userSpaceOnUse">
<stop stop-color="#AA80F9"/>
<stop offset="1" stop-color="#6165D7"/>
</linearGradient>
<linearGradient id="paint14_linear" x1="245.744" y1="47.9695" x2="51.8982" y2="256.17" gradientUnits="userSpaceOnUse">
<stop stop-color="#444B8C"/>
<stop offset="1" stop-color="#26264F"/>
</linearGradient>
<linearGradient id="paint15_linear" x1="37909.2" y1="14165.9" x2="34448.9" y2="12239.4" gradientUnits="userSpaceOnUse">
<stop stop-color="#444B8C"/>
<stop offset="1" stop-color="#26264F"/>
</linearGradient>
<linearGradient id="paint16_linear" x1="52687.9" y1="30114.4" x2="46224.5" y2="26516.1" gradientUnits="userSpaceOnUse">
<stop stop-color="#444B8C"/>
<stop offset="1" stop-color="#26264F"/>
</linearGradient>
<linearGradient id="paint17_linear" x1="38178.7" y1="13643.5" x2="34719.9" y2="11717.9" gradientUnits="userSpaceOnUse">
<stop stop-color="#AA80F9"/>
<stop offset="1" stop-color="#6165D7"/>
</linearGradient>
<linearGradient id="paint18_linear" x1="118925" y1="27262.2" x2="128749" y2="19570.4" gradientUnits="userSpaceOnUse">
<stop stop-color="#AA80F9"/>
<stop offset="1" stop-color="#6165D7"/>
</linearGradient>
<linearGradient id="paint19_linear" x1="351.309" y1="112.747" x2="325.621" y2="0.919505" gradientUnits="userSpaceOnUse">
<stop stop-color="#FFC444"/>
<stop offset="1" stop-color="#F36F56"/>
</linearGradient>
<linearGradient id="paint20_linear" x1="-109119" y1="-39139.1" x2="-73098.5" y2="-62973.6" gradientUnits="userSpaceOnUse">
<stop stop-color="#FFC444"/>
<stop offset="1" stop-color="#F36F56"/>
</linearGradient>
<linearGradient id="paint21_linear" x1="82797.9" y1="22374" x2="69403.7" y2="14917.2" gradientUnits="userSpaceOnUse">
<stop stop-color="#AA80F9"/>
<stop offset="1" stop-color="#6165D7"/>
</linearGradient>
<linearGradient id="paint22_linear" x1="27037.7" y1="-7186.32" x2="24823.2" y2="-10000.5" gradientUnits="userSpaceOnUse">
<stop stop-color="#AA80F9"/>
<stop offset="1" stop-color="#6165D7"/>
</linearGradient>
<linearGradient id="paint23_linear" x1="369.594" y1="88.2938" x2="327.248" y2="64.5766" gradientUnits="userSpaceOnUse">
<stop stop-color="#EBEFF2"/>
<stop offset="1" stop-color="white"/>
</linearGradient>
<linearGradient id="paint24_linear" x1="58385.2" y1="19361.2" x2="50381.8" y2="14905.6" gradientUnits="userSpaceOnUse">
<stop stop-color="#EBEFF2"/>
<stop offset="1" stop-color="white"/>
</linearGradient>
<linearGradient id="paint25_linear" x1="60190.8" y1="10301.7" x2="59722.5" y2="16708.5" gradientUnits="userSpaceOnUse">
<stop stop-color="#EBEFF2"/>
<stop offset="1" stop-color="white"/>
</linearGradient>
<linearGradient id="paint26_linear" x1="51977.2" y1="19934.5" x2="50633.4" y2="7060.11" gradientUnits="userSpaceOnUse">
<stop stop-color="#444B8C"/>
<stop offset="1" stop-color="#26264F"/>
</linearGradient>
<linearGradient id="paint27_linear" x1="16279.3" y1="6282.42" x2="17654.8" y2="2401.1" gradientUnits="userSpaceOnUse">
<stop stop-color="#FFC444"/>
<stop offset="1" stop-color="#F36F56"/>
</linearGradient>
<linearGradient id="paint28_linear" x1="40203.5" y1="22955.9" x2="35890.4" y2="20554.7" gradientUnits="userSpaceOnUse">
<stop stop-color="#AA80F9"/>
<stop offset="1" stop-color="#6165D7"/>
</linearGradient>
<linearGradient id="paint29_linear" x1="16164.3" y1="4041.84" x2="17001.2" y2="7431.97" gradientUnits="userSpaceOnUse">
<stop stop-color="#AA80F9"/>
<stop offset="1" stop-color="#6165D7"/>
</linearGradient>
<linearGradient id="paint30_linear" x1="12069" y1="3234.9" x2="12552.1" y2="5193.69" gradientUnits="userSpaceOnUse">
<stop stop-color="#444B8C"/>
<stop offset="1" stop-color="#26264F"/>
</linearGradient>
<linearGradient id="paint31_linear" x1="46381.3" y1="20287.3" x2="46511.8" y2="10188.2" gradientUnits="userSpaceOnUse">
<stop stop-color="#444B8C"/>
<stop offset="1" stop-color="#26264F"/>
</linearGradient>
<linearGradient id="paint32_linear" x1="465575" y1="185593" x2="527188" y2="26187.5" gradientUnits="userSpaceOnUse">
<stop stop-color="#FFC444"/>
<stop offset="1" stop-color="#F36F56"/>
</linearGradient>
<linearGradient id="paint33_linear" x1="146562" y1="43078.5" x2="139452" y2="58539.9" gradientUnits="userSpaceOnUse">
<stop stop-color="#FFC444"/>
<stop offset="1" stop-color="#F36F56"/>
</linearGradient>
<linearGradient id="paint34_linear" x1="86920.9" y1="71986.6" x2="74515.9" y2="82232.4" gradientUnits="userSpaceOnUse">
<stop stop-color="#FFC444"/>
<stop offset="1" stop-color="#F36F56"/>
</linearGradient>
<linearGradient id="paint35_linear" x1="240.967" y1="274.537" x2="241.431" y2="281.916" gradientUnits="userSpaceOnUse">
<stop stop-color="#26264F"/>
<stop offset="1" stop-color="#444B8C"/>
</linearGradient>
<linearGradient id="paint36_linear" x1="3435.1" y1="4139.96" x2="3412.1" y2="4034.88" gradientUnits="userSpaceOnUse">
<stop stop-color="#FFC444"/>
<stop offset="1" stop-color="#F36F56"/>
</linearGradient>
<linearGradient id="paint37_linear" x1="33544.3" y1="57801.7" x2="34406.1" y2="57801.7" gradientUnits="userSpaceOnUse">
<stop stop-color="#444B8C"/>
<stop offset="1" stop-color="#26264F"/>
</linearGradient>
<linearGradient id="paint38_linear" x1="31590" y1="57791.4" x2="32401.2" y2="57791.4" gradientUnits="userSpaceOnUse">
<stop stop-color="#444B8C"/>
<stop offset="1" stop-color="#26264F"/>
</linearGradient>
<linearGradient id="paint39_linear" x1="11515" y1="3790.58" x2="11516.8" y2="3859.35" gradientUnits="userSpaceOnUse">
<stop stop-color="#26264F"/>
<stop offset="1" stop-color="#444B8C"/>
</linearGradient>
<linearGradient id="paint40_linear" x1="3571.07" y1="4211.82" x2="3547.36" y2="4104.41" gradientUnits="userSpaceOnUse">
<stop stop-color="#FFC444"/>
<stop offset="1" stop-color="#F36F56"/>
</linearGradient>
<linearGradient id="paint41_linear" x1="24286.5" y1="61605.2" x2="24721.7" y2="61605.2" gradientUnits="userSpaceOnUse">
<stop stop-color="#444B8C"/>
<stop offset="1" stop-color="#26264F"/>
</linearGradient>
<linearGradient id="paint42_linear" x1="230.306" y1="225.069" x2="247.771" y2="225.069" gradientUnits="userSpaceOnUse">
<stop stop-color="#E38DDD"/>
<stop offset="1" stop-color="#9571F6"/>
</linearGradient>
<linearGradient id="paint43_linear" x1="10869.8" y1="9022.67" x2="10711.9" y2="9197.89" gradientUnits="userSpaceOnUse">
<stop stop-color="#EBEFF2"/>
<stop offset="1" stop-color="white"/>
</linearGradient>
<linearGradient id="paint44_linear" x1="32758.9" y1="15953.2" x2="33524.1" y2="15953.2" gradientUnits="userSpaceOnUse">
<stop stop-color="#EBEFF2"/>
<stop offset="1" stop-color="white"/>
</linearGradient>
<linearGradient id="paint45_linear" x1="2575.71" y1="1839.43" x2="2579.61" y2="1839.43" gradientUnits="userSpaceOnUse">
<stop stop-color="#EBEFF2"/>
<stop offset="1" stop-color="white"/>
</linearGradient>
<linearGradient id="paint46_linear" x1="6471.63" y1="5724.64" x2="6498.84" y2="5724.64" gradientUnits="userSpaceOnUse">
<stop stop-color="#FFC444"/>
<stop offset="1" stop-color="#F36F56"/>
</linearGradient>
<linearGradient id="paint47_linear" x1="17388.9" y1="8828.33" x2="17073.2" y2="9223.1" gradientUnits="userSpaceOnUse">
<stop stop-color="#FFC444"/>
<stop offset="1" stop-color="#F36F56"/>
</linearGradient>
<linearGradient id="paint48_linear" x1="643.21" y1="1370.38" x2="608.937" y2="1397.14" gradientUnits="userSpaceOnUse">
<stop stop-color="#FFC444"/>
<stop offset="1" stop-color="#F36F56"/>
</linearGradient>
<linearGradient id="paint49_linear" x1="95361.7" y1="56668.6" x2="91269" y2="60849.7" gradientUnits="userSpaceOnUse">
<stop stop-color="#E38DDD"/>
<stop offset="1" stop-color="#9571F6"/>
</linearGradient>
<linearGradient id="paint50_linear" x1="95838.1" y1="47399.1" x2="92517.8" y2="51491.4" gradientUnits="userSpaceOnUse">
<stop stop-color="#AA80F9"/>
<stop offset="1" stop-color="#6165D7"/>
</linearGradient>
<linearGradient id="paint51_linear" x1="6699.17" y1="2554.2" x2="6392.42" y2="3424.63" gradientUnits="userSpaceOnUse">
<stop stop-color="#444B8C"/>
<stop offset="1" stop-color="#26264F"/>
</linearGradient>
<linearGradient id="paint52_linear" x1="6717.44" y1="2563.16" x2="6412.15" y2="3424.54" gradientUnits="userSpaceOnUse">
<stop stop-color="#444B8C"/>
<stop offset="1" stop-color="#26264F"/>
</linearGradient>
<linearGradient id="paint53_linear" x1="6786.35" y1="2597.23" x2="6482.81" y2="3450.72" gradientUnits="userSpaceOnUse">
<stop stop-color="#444B8C"/>
<stop offset="1" stop-color="#26264F"/>
</linearGradient>
<linearGradient id="paint54_linear" x1="6813.07" y1="2606.04" x2="6511.58" y2="3450.69" gradientUnits="userSpaceOnUse">
<stop stop-color="#444B8C"/>
<stop offset="1" stop-color="#26264F"/>
</linearGradient>
<linearGradient id="paint55_linear" x1="6884.25" y1="2644.77" x2="6583.8" y2="3482.94" gradientUnits="userSpaceOnUse">
<stop stop-color="#444B8C"/>
<stop offset="1" stop-color="#26264F"/>
</linearGradient>
<linearGradient id="paint56_linear" x1="4300.77" y1="4925.38" x2="4285.2" y2="4999.59" gradientUnits="userSpaceOnUse">
<stop stop-color="#FFC444"/>
<stop offset="1" stop-color="#F36F56"/>
</linearGradient>
<linearGradient id="paint57_linear" x1="9584.26" y1="5919.86" x2="9566.09" y2="5975.79" gradientUnits="userSpaceOnUse">
<stop stop-color="#FFC444"/>
<stop offset="1" stop-color="#F36F56"/>
</linearGradient>
<linearGradient id="paint58_linear" x1="36483.7" y1="31119.5" x2="36354.4" y2="35378.7" gradientUnits="userSpaceOnUse">
<stop stop-color="#FF9085"/>
<stop offset="1" stop-color="#FB6FBB"/>
</linearGradient>
<linearGradient id="paint59_linear" x1="2031.98" y1="3376.39" x2="2037.9" y2="3226.55" gradientUnits="userSpaceOnUse">
<stop stop-color="#FFC444"/>
<stop offset="1" stop-color="#F36F56"/>
</linearGradient>
<linearGradient id="paint60_linear" x1="189.436" y1="239.766" x2="186.552" y2="272.032" gradientUnits="userSpaceOnUse">
<stop stop-color="#311944"/>
<stop offset="1" stop-color="#893976"/>
</linearGradient>
<linearGradient id="paint61_linear" x1="12505.6" y1="51701.4" x2="11554.1" y2="56501.8" gradientUnits="userSpaceOnUse">
<stop stop-color="#311944"/>
<stop offset="1" stop-color="#893976"/>
</linearGradient>
<linearGradient id="paint62_linear" x1="4599.24" y1="4600.57" x2="4572.58" y2="4488.17" gradientUnits="userSpaceOnUse">
<stop stop-color="#FF9085"/>
<stop offset="1" stop-color="#FB6FBB"/>
</linearGradient>
<linearGradient id="paint63_linear" x1="4336.51" y1="4276.55" x2="4419.11" y2="4213.47" gradientUnits="userSpaceOnUse">
<stop stop-color="#FFC444"/>
<stop offset="1" stop-color="#F36F56"/>
</linearGradient>
<linearGradient id="paint64_linear" x1="4508.98" y1="2026.5" x2="4543.94" y2="1894.08" gradientUnits="userSpaceOnUse">
<stop stop-color="#FF9085"/>
<stop offset="1" stop-color="#FB6FBB"/>
</linearGradient>
<linearGradient id="paint65_linear" x1="17689.5" y1="38678.8" x2="19236.5" y2="38645.9" gradientUnits="userSpaceOnUse">
<stop stop-color="#311944"/>
<stop offset="1" stop-color="#893976"/>
</linearGradient>
<linearGradient id="paint66_linear" x1="47738.5" y1="46709.6" x2="46403.7" y2="53350" gradientUnits="userSpaceOnUse">
<stop stop-color="#FF9085"/>
<stop offset="1" stop-color="#FB6FBB"/>
</linearGradient>
<linearGradient id="paint67_linear" x1="-35785.9" y1="15560.2" x2="-37134.6" y2="17943.9" gradientUnits="userSpaceOnUse">
<stop stop-color="#FF9085"/>
<stop offset="1" stop-color="#FB6FBB"/>
</linearGradient>
<linearGradient id="paint68_linear" x1="7687.41" y1="9342.32" x2="7575.1" y2="9465.3" gradientUnits="userSpaceOnUse">
<stop stop-color="#FFC444"/>
<stop offset="1" stop-color="#F36F56"/>
</linearGradient>
<linearGradient id="paint69_linear" x1="28358" y1="34026.8" x2="27364.9" y2="38028" gradientUnits="userSpaceOnUse">
<stop stop-color="#FF9085"/>
<stop offset="1" stop-color="#FB6FBB"/>
</linearGradient>
<linearGradient id="paint70_linear" x1="34796.3" y1="41845.4" x2="36768.4" y2="38571.2" gradientUnits="userSpaceOnUse">
<stop stop-color="#444B8C"/>
<stop offset="1" stop-color="#26264F"/>
</linearGradient>
<linearGradient id="paint71_linear" x1="8026.24" y1="7843.39" x2="8142.83" y2="7961.2" gradientUnits="userSpaceOnUse">
<stop stop-color="#FFC444"/>
<stop offset="1" stop-color="#F36F56"/>
</linearGradient>
<linearGradient id="paint72_linear" x1="56245.8" y1="28196.5" x2="57585.3" y2="30933.8" gradientUnits="userSpaceOnUse">
<stop stop-color="#E38DDD"/>
<stop offset="1" stop-color="#9571F6"/>
</linearGradient>
<linearGradient id="paint73_linear" x1="76750.5" y1="24999.4" x2="77154.8" y2="23723.1" gradientUnits="userSpaceOnUse">
<stop stop-color="#E38DDD"/>
<stop offset="1" stop-color="#9571F6"/>
</linearGradient>
<linearGradient id="paint74_linear" x1="9177.21" y1="1372.4" x2="9189.53" y2="1383.77" gradientUnits="userSpaceOnUse">
<stop stop-color="#444B8C"/>
<stop offset="1" stop-color="#26264F"/>
</linearGradient>
<linearGradient id="paint75_linear" x1="6663.58" y1="4722.19" x2="6657.33" y2="4682.75" gradientUnits="userSpaceOnUse">
<stop stop-color="#FFC444"/>
<stop offset="1" stop-color="#F36F56"/>
</linearGradient>
<linearGradient id="paint76_linear" x1="7248.21" y1="1164.79" x2="7258.13" y2="1173.77" gradientUnits="userSpaceOnUse">
<stop stop-color="#444B8C"/>
<stop offset="1" stop-color="#26264F"/>
</linearGradient>
<linearGradient id="paint77_linear" x1="8855.21" y1="2404.89" x2="8867.36" y2="2417.83" gradientUnits="userSpaceOnUse">
<stop stop-color="#444B8C"/>
<stop offset="1" stop-color="#26264F"/>
</linearGradient>
<linearGradient id="paint78_linear" x1="4924.14" y1="4160.06" x2="4924.14" y2="4122.01" gradientUnits="userSpaceOnUse">
<stop stop-color="#FFC444"/>
<stop offset="1" stop-color="#F36F56"/>
</linearGradient>
<linearGradient id="paint79_linear" x1="54167" y1="62928.1" x2="58270.5" y2="55443.1" gradientUnits="userSpaceOnUse">
<stop stop-color="#444B8C"/>
<stop offset="1" stop-color="#26264F"/>
</linearGradient>
<linearGradient id="paint80_linear" x1="44507.7" y1="28642.7" x2="46249" y2="31364.5" gradientUnits="userSpaceOnUse">
<stop stop-color="#E38DDD"/>
<stop offset="1" stop-color="#9571F6"/>
</linearGradient>
<linearGradient id="paint81_linear" x1="7092.49" y1="1831.12" x2="7101.34" y2="1841.42" gradientUnits="userSpaceOnUse">
<stop stop-color="#444B8C"/>
<stop offset="1" stop-color="#26264F"/>
</linearGradient>
<linearGradient id="paint82_linear" x1="42352.9" y1="18380" x2="42597.9" y2="18907.2" gradientUnits="userSpaceOnUse">
<stop stop-color="#FFC444"/>
<stop offset="1" stop-color="#F36F56"/>
</linearGradient>
<linearGradient id="paint83_linear" x1="3667.71" y1="1996.9" x2="3704.38" y2="2050.99" gradientUnits="userSpaceOnUse">
<stop stop-color="#FFC444"/>
<stop offset="1" stop-color="#F36F56"/>
</linearGradient>
<linearGradient id="paint84_linear" x1="118.251" y1="124.227" x2="121.469" y2="124.227" gradientUnits="userSpaceOnUse">
<stop stop-color="#AB316D"/>
<stop offset="1" stop-color="#792D3D"/>
</linearGradient>
<linearGradient id="paint85_linear" x1="37413.8" y1="23821" x2="34578.8" y2="21156.1" gradientUnits="userSpaceOnUse">
<stop stop-color="#FF9085"/>
<stop offset="1" stop-color="#FB6FBB"/>
</linearGradient>
<linearGradient id="paint86_linear" x1="33576.5" y1="22394" x2="30929.9" y2="20006.5" gradientUnits="userSpaceOnUse">
<stop stop-color="#FF9085"/>
<stop offset="1" stop-color="#FB6FBB"/>
</linearGradient>
<linearGradient id="paint87_linear" x1="6257.37" y1="5783.88" x2="6311.44" y2="5783.88" gradientUnits="userSpaceOnUse">
<stop stop-color="#AB316D"/>
<stop offset="1" stop-color="#792D3D"/>
</linearGradient>
<linearGradient id="paint88_linear" x1="105.145" y1="134.015" x2="109.337" y2="141.604" gradientUnits="userSpaceOnUse">
<stop stop-color="#F36F56"/>
<stop offset="1" stop-color="#FFC444"/>
</linearGradient>
<linearGradient id="paint89_linear" x1="15907.6" y1="41452.6" x2="13722" y2="40922.8" gradientUnits="userSpaceOnUse">
<stop stop-color="#FF9085"/>
<stop offset="1" stop-color="#FB6FBB"/>
</linearGradient>
<linearGradient id="paint90_linear" x1="5386.8" y1="2927.66" x2="5536.22" y2="3258.73" gradientUnits="userSpaceOnUse">
<stop stop-color="#F36F56"/>
<stop offset="1" stop-color="#FFC444"/>
</linearGradient>
<linearGradient id="paint91_linear" x1="6243.64" y1="3524.27" x2="6206.69" y2="3301.04" gradientUnits="userSpaceOnUse">
<stop stop-color="#F36F56"/>
<stop offset="1" stop-color="#FFC444"/>
</linearGradient>
<linearGradient id="paint92_linear" x1="43284.4" y1="12531.2" x2="42226.4" y2="14208.7" gradientUnits="userSpaceOnUse">
<stop stop-color="#E38DDD"/>
<stop offset="1" stop-color="#9571F6"/>
</linearGradient>
<linearGradient id="paint93_linear" x1="70748.3" y1="27844.6" x2="67903.8" y2="34972.2" gradientUnits="userSpaceOnUse">
<stop stop-color="#E38DDD"/>
<stop offset="1" stop-color="#9571F6"/>
</linearGradient>
<linearGradient id="paint94_linear" x1="12938.1" y1="2629.62" x2="12947" y2="2822.68" gradientUnits="userSpaceOnUse">
<stop stop-color="#F36F56"/>
<stop offset="1" stop-color="#FFC444"/>
</linearGradient>
<linearGradient id="paint95_linear" x1="7738.54" y1="3442.88" x2="7778.05" y2="3326.67" gradientUnits="userSpaceOnUse">
<stop stop-color="#FF9085"/>
<stop offset="1" stop-color="#FB6FBB"/>
</linearGradient>
<linearGradient id="paint96_linear" x1="13519.8" y1="3010.74" x2="13581.5" y2="3073.01" gradientUnits="userSpaceOnUse">
<stop stop-color="#F36F56"/>
<stop offset="1" stop-color="#FFC444"/>
</linearGradient>
<linearGradient id="paint97_linear" x1="46743.3" y1="22906.8" x2="44018.9" y2="28390.3" gradientUnits="userSpaceOnUse">
<stop stop-color="#E38DDD"/>
<stop offset="1" stop-color="#9571F6"/>
</linearGradient>
<linearGradient id="paint98_linear" x1="75438.1" y1="47205.9" x2="86468" y2="50797.5" gradientUnits="userSpaceOnUse">
<stop stop-color="#FF9085"/>
<stop offset="1" stop-color="#FB6FBB"/>
</linearGradient>
<linearGradient id="paint99_linear" x1="13574.7" y1="13252.1" x2="13898.3" y2="13252.1" gradientUnits="userSpaceOnUse">
<stop stop-color="#444B8C"/>
<stop offset="1" stop-color="#26264F"/>
</linearGradient>
<clipPath id="clip0">
<rect width="423" height="300" fill="white"/>
</clipPath>
</defs>
</svg>
