<svg width="26" height="26" viewBox="0 0 26 26" fill="none" xmlns="http://www.w3.org/2000/svg">
<path d="M10 19.7499C10 20.1624 10.3375 20.4999 10.75 20.4999C11.1625 20.4999 11.5 20.1624 11.5 19.7499V16H10V19.7499ZM6.25 6.95776L10 6.99995V5.45776H6.25C5.83755 5.45776 5.5 5.79522 5.5 6.20776C5.5 6.62031 5.8375 6.95776 6.25 6.95776ZM6.25 11.5H10V9.99995H6.25C5.8375 9.99995 5.5 10.3375 5.5 10.75C5.5 11.1625 5.8375 11.5 6.25 11.5ZM6.25 14.5C5.8375 14.5 5.5 14.8375 5.5 15.25C5.5 15.6624 5.8375 16 6.25 16H10V14.5H6.25ZM19 16V19.7499C19 20.1624 19.3375 20.4999 19.75 20.4999C20.1625 20.4999 20.5 20.1624 20.5 19.7499V16H19ZM14.5 19.7499C14.5 20.1624 14.8375 20.4999 15.25 20.4999C15.6625 20.4999 16 20.1624 16 19.7499V16H14.5V19.7499Z" fill="#528FC8"/>
<path opacity="0.4" d="M25 17.5V23.5C25 24.325 24.325 25 23.5 25H2.5C1.675 25 1 24.325 1 23.5V2.5C1 1.675 1.675 1 2.5 1H8.5C9.325 1 10 1.675 10 2.45781V5.45781H6.25C5.83755 5.45781 5.5 5.79527 5.5 6.20781C5.5 6.62036 5.83755 6.95781 6.25 6.95781L10 7V10H6.25C5.8375 10 5.5 10.3375 5.5 10.75C5.5 11.1625 5.8375 11.5 6.25 11.5H10V14.5H6.25C5.8375 14.5 5.5 14.8375 5.5 15.25C5.5 15.6625 5.8375 16 6.25 16H10V19.75C10 20.1625 10.3375 20.5 10.75 20.5C11.1625 20.5 11.5 20.1625 11.5 19.75V16H14.5V19.75C14.5 20.1625 14.8375 20.5 15.25 20.5C15.6625 20.5 16 20.1625 16 19.75V16H19V19.75C19 20.1625 19.3375 20.5 19.75 20.5C20.1625 20.5 20.5 20.1625 20.5 19.75V16H23.5C24.325 16 25 16.675 25 17.5Z" fill="#528FC8"/>
</svg>
