<svg width="64" height="64" viewBox="0 0 64 64" fill="none" xmlns="http://www.w3.org/2000/svg">
<circle cx="32" cy="32" r="32" fill="white"/>
<path d="M22.6105 46.1257H15.5616V23.3427H22.6105V46.1257ZM19.0823 20.2349C16.8283 20.2349 15 18.3611 15 16.0987C15 15.0121 15.4301 13.9699 16.1957 13.2015C16.9612 12.4331 17.9996 12.0015 19.0823 12.0015C20.165 12.0015 21.2033 12.4331 21.9689 13.2015C22.7345 13.9699 23.1646 15.0121 23.1646 16.0987C23.1646 18.3611 21.3355 20.2349 19.0823 20.2349ZM48.9924 46.1257H41.9587V35.0351C41.9587 32.3919 41.9055 29.0023 38.2938 29.0023C34.6289 29.0023 34.0673 31.8739 34.0673 34.8446V46.1257H27.026V23.3427H33.7865V26.4505H33.8852C34.8262 24.6605 37.125 22.7714 40.5546 22.7714C47.6886 22.7714 49 27.4864 49 33.6107V46.1257H48.9924Z" fill="#4B4B4D"/>
</svg>
