<svg width="64" height="64" viewBox="0 0 64 64" fill="none" xmlns="http://www.w3.org/2000/svg">
<circle cx="32" cy="32" r="32" fill="white"/>
<path d="M24.7176 44.9073C24.7176 45.0834 24.5136 45.2243 24.2563 45.2243C23.9635 45.2508 23.7595 45.1099 23.7595 44.9073C23.7595 44.7312 23.9635 44.5903 24.2208 44.5903C24.487 44.5639 24.7176 44.7048 24.7176 44.9073ZM21.9586 44.5111C21.8965 44.6872 22.0739 44.8897 22.3401 44.9425C22.5707 45.0306 22.8369 44.9425 22.8901 44.7664C22.9433 44.5903 22.7748 44.3878 22.5086 44.3085C22.278 44.2469 22.0207 44.3349 21.9586 44.5111ZM25.8798 44.3614C25.6225 44.423 25.4451 44.5903 25.4717 44.7928C25.4983 44.969 25.7289 45.0834 25.9951 45.0218C26.2524 44.9602 26.4298 44.7928 26.4032 44.6167C26.3766 44.4494 26.137 44.3349 25.8798 44.3614ZM31.7171 10.6172C19.4125 10.6172 10 19.8898 10 32.1036C10 41.8693 16.1922 50.2261 25.037 53.1672C26.1725 53.3698 26.5717 52.6741 26.5717 52.1017C26.5717 51.5558 26.5451 48.5442 26.5451 46.6949C26.5451 46.6949 20.3352 48.0158 19.0311 44.0708C19.0311 44.0708 18.0197 41.5082 16.5648 40.8478C16.5648 40.8478 14.5333 39.4653 16.7068 39.4917C16.7068 39.4917 18.9157 39.6678 20.1311 41.7636C22.0739 45.1627 25.3297 44.1852 26.5983 43.6041C26.8024 42.1951 27.379 41.2177 28.0178 40.6365C23.0587 40.0905 18.0552 39.3772 18.0552 30.906C18.0552 28.4843 18.7294 27.2691 20.1489 25.7193C19.9182 25.1469 19.1641 22.7869 20.3795 19.7401C22.2336 19.1677 26.5008 22.1177 26.5008 22.1177C28.275 21.6246 30.1824 21.3692 32.072 21.3692C33.9616 21.3692 35.8689 21.6246 37.6432 22.1177C37.6432 22.1177 41.9103 19.1589 43.7645 19.7401C44.9798 22.7957 44.2258 25.1469 43.9951 25.7193C45.4145 27.2779 46.2839 28.4931 46.2839 30.906C46.2839 39.4036 41.0587 40.0817 36.0996 40.6365C36.9158 41.3321 37.6077 42.653 37.6077 44.7224C37.6077 47.69 37.5811 51.362 37.5811 52.0841C37.5811 52.6565 37.9892 53.3522 39.1159 53.1496C47.9872 50.2261 54.002 41.8693 54.002 32.1036C54.002 19.8898 44.0217 10.6172 31.7171 10.6172ZM18.623 40.9887C18.5076 41.0768 18.5343 41.2793 18.6851 41.4466C18.827 41.5875 19.0311 41.6491 19.1464 41.5347C19.2617 41.4466 19.2351 41.2441 19.0843 41.0768C18.9423 40.9359 18.7383 40.8742 18.623 40.9887ZM17.6649 40.2754C17.6028 40.3899 17.6915 40.5308 17.8689 40.6189C18.0109 40.7069 18.1883 40.6805 18.2504 40.5572C18.3125 40.4427 18.2238 40.3018 18.0463 40.2138C17.8689 40.1609 17.727 40.1874 17.6649 40.2754ZM20.5392 43.4103C20.3973 43.5248 20.4505 43.789 20.6545 43.9563C20.8586 44.1588 21.1158 44.1852 21.2312 44.0443C21.3465 43.9299 21.2933 43.6657 21.1158 43.4984C20.9207 43.2958 20.6545 43.2694 20.5392 43.4103ZM19.5279 42.1159C19.3859 42.2039 19.3859 42.4329 19.5279 42.6354C19.6698 42.8379 19.9093 42.926 20.0247 42.8379C20.1666 42.7235 20.1666 42.4945 20.0247 42.292C19.9005 42.0894 19.6698 42.0014 19.5279 42.1159Z" fill="#4B4B4D"/>
</svg>
