<svg width="1493" height="808" viewBox="0 0 1493 808" fill="none" xmlns="http://www.w3.org/2000/svg">
<g opacity="0.1">
<path d="M1377.6 469.211C1358.39 618.298 1219.34 723.269 1067 703.645C914.66 684.021 806.752 547.239 825.957 398.152C845.161 249.066 984.211 144.095 1136.55 163.719C1288.89 183.343 1396.8 320.125 1377.6 469.211Z" stroke="#5FC5C5"/>
<path d="M1305.29 455.862C1291.44 563.359 1191.17 639.087 1081.26 624.93C971.36 610.772 893.553 512.105 907.4 404.609C921.247 297.112 1021.52 221.384 1131.42 235.541C1241.33 249.698 1319.13 348.365 1305.29 455.862Z" stroke="#2F97D1" stroke-width="3"/>
<path d="M1227.18 440.846C1218.85 505.501 1158.53 551.104 1092.34 542.579C1026.16 534.053 979.358 474.65 987.687 409.996C996.015 345.341 1056.34 299.738 1122.53 308.264C1188.71 316.789 1235.51 376.192 1227.18 440.846Z" stroke="#7DE0E7" stroke-width="5"/>
<g clip-path="url(#clip0)">
<path d="M1175.31 693.421C1173.92 704.206 1170.48 714.237 1165.43 723.194C1162.73 727.984 1159.57 732.468 1156 736.591C1151.56 741.735 1146.51 746.322 1140.96 750.252C1137.71 752.557 1134.3 754.635 1130.74 756.472C1115.74 764.219 1098.22 767.646 1080.07 765.308C1061.92 762.971 1045.83 755.214 1033.29 743.918C1029.56 740.567 1026.15 736.909 1023.1 732.984C1009.91 716.086 1003.23 694.321 1006.16 671.632C1009.08 648.943 1021.06 629.581 1038.09 616.576C1042.28 613.378 1046.77 610.566 1051.51 608.181C1066.33 600.717 1083.57 597.448 1101.4 599.744C1119.23 602.041 1135.07 609.571 1147.52 620.548C1150.56 623.225 1153.39 626.111 1156.01 629.178C1160.58 634.535 1164.48 640.447 1167.57 646.768C1169.98 651.659 1171.9 656.798 1173.3 662.117C1175.92 672.062 1176.7 682.636 1175.31 693.421Z" fill="#E4BA42"/>
<path d="M1127.07 670.757C1125.45 663.182 1114.99 661.834 1112.17 667.567C1109.36 673.301 1115.8 677.686 1126.07 682.565C1136.34 687.444 1141.79 697.543 1139.45 705.623C1137.11 713.703 1132.15 723.987 1110.97 721.258C1097.72 719.552 1091.41 710.504 1088.53 703.957L1101.45 698.443C1101.45 698.443 1104.44 707.464 1112.1 708.45C1119.75 709.436 1123.14 707.333 1123.88 701.586C1124.78 694.591 1100.34 688.903 1098.06 676.417C1095.77 663.931 1103.07 647.6 1120.77 651.15C1131.84 653.37 1137.43 659.546 1140.07 663.867L1127.07 670.757Z" fill="#F2F2F2"/>
<path d="M1073.65 646.35C1073.65 646.35 1068.21 688.573 1067.47 694.32C1066.73 700.066 1061.24 702.407 1056.26 700.75C1051.28 699.093 1049.76 692.801 1049.76 692.801L1037.02 699.033C1037.02 699.033 1038.09 710.855 1054.04 713.926C1070 716.997 1080.41 708.686 1081.44 700.691C1082.47 692.696 1088.2 648.224 1088.2 648.224L1073.65 646.35Z" fill="#F2F2F2"/>
</g>
<g clip-path="url(#clip1)">
<path d="M1036.71 391.018L1184.83 410.098L1178.52 459.11L1104.46 449.57L1103.41 457.738L1070.49 453.498L1071.54 445.329L1030.4 440.029L1036.71 391.018ZM1039.68 432.921L1056.14 435.041L1059.3 410.535L1067.52 411.595L1064.37 436.101L1072.6 437.161L1076.81 404.486L1043.89 400.246L1039.68 432.921ZM1085.03 405.546L1079.77 446.39L1096.23 448.51L1097.28 440.341L1113.74 442.461L1117.95 409.786L1085.03 405.546ZM1100.44 415.835L1108.67 416.895L1106.56 433.232L1098.34 432.172L1100.44 415.835ZM1126.18 410.846L1121.97 443.521L1138.43 445.641L1141.59 421.135L1149.81 422.195L1146.66 446.701L1154.89 447.761L1158.04 423.255L1166.27 424.315L1163.12 448.821L1171.34 449.881L1175.55 417.206L1126.18 410.846Z" fill="#CB3837"/>
<path d="M1039.68 432.921L1056.14 435.041L1059.3 410.535L1067.52 411.595L1064.37 436.101L1072.6 437.161L1076.81 404.486L1043.89 400.246L1039.68 432.921Z" fill="white"/>
<path d="M1085.03 405.546L1079.77 446.389L1096.23 448.51L1097.28 440.341L1113.74 442.461L1117.95 409.786L1085.03 405.546ZM1106.56 433.232L1098.34 432.172L1100.44 415.835L1108.67 416.895L1106.56 433.232Z" fill="white"/>
<path d="M1126.18 410.846L1121.97 443.521L1138.43 445.641L1141.59 421.135L1149.81 422.195L1146.66 446.701L1154.89 447.761L1158.04 423.255L1166.27 424.315L1163.12 448.821L1171.34 449.881L1175.55 417.206L1126.18 410.846Z" fill="white"/>
</g>
<g clip-path="url(#clip2)">
<path d="M784.367 444.875L780.774 538.582L816.894 553.698L855.651 548.234L875.937 456.671L784.367 444.875Z" fill="#2196F3"/>
<path d="M854.205 484.666L851.653 496.167L843.98 530.643L819.426 534.039L819.406 534.043L796.527 524.531L797.223 506.074L808.839 507.57L808.483 517.144L820.934 522.227L820.942 522.221L834.294 520.462L838.084 504.922L797.465 499.801L797.703 488.871L840.497 493.88L842.847 482.451L798.093 476.81L798.724 465.977L827.712 469.711L856.701 473.445L854.205 484.666Z" fill="#FAFAFA"/>
</g>
<g clip-path="url(#clip3)">
<rect x="1298.16" y="535.171" width="99.291" height="97.1864" rx="48.5932" transform="rotate(7.34009 1298.16 535.171)" fill="#C16A6A"/>
<path d="M1390.43 596.051C1390.24 597.54 1389.98 599.003 1389.65 600.439C1389.4 601.576 1389.11 602.694 1388.77 603.793C1382 626.196 1359.45 641.055 1334.98 637.903C1322.52 636.298 1311.72 630.299 1304.01 621.707C1301.16 618.534 1298.73 615.005 1296.79 611.213C1292.54 602.88 1290.67 593.274 1291.95 583.366C1295.38 556.748 1320.2 538.01 1347.4 541.513C1374.59 545.016 1393.86 569.433 1390.43 596.051Z" fill="#D0E1E8"/>
<path d="M1373.55 599.452C1372.23 599.752 1372.28 599.767 1371.77 598.504C1371.11 596.894 1370.87 595.258 1371.05 593.537C1371.21 592.061 1371.8 590.746 1372.49 589.47C1373.04 588.456 1372.55 588.01 1371.61 587.79C1370.93 587.632 1370.22 587.547 1369.52 587.527C1367.69 587.474 1367.49 587.602 1366.8 589.243C1366.38 590.217 1366.02 591.206 1365.43 592.104C1363.96 594.315 1362.35 596.418 1360.7 598.501C1360.41 598.876 1360.15 599.287 1359.76 599.59C1358.96 598.033 1358.8 596.404 1358.93 594.735C1359.05 593.088 1359.77 591.632 1360.53 590.2C1360.78 589.718 1360.66 589.383 1360.24 589.107C1360.06 588.984 1359.84 588.865 1359.63 588.82C1358.48 588.582 1357.33 588.447 1356.16 588.609C1355.64 588.68 1355.27 588.914 1355.09 589.454C1354.73 590.51 1354.25 591.518 1353.65 592.472C1352.01 595.113 1350.37 597.76 1348.73 600.403C1347.3 602.699 1345.88 605.004 1344.26 607.176C1344.14 607.33 1344.03 607.608 1343.8 607.521C1343.57 607.432 1343.69 607.16 1343.71 606.965C1343.81 605.573 1344.37 604.305 1344.87 603.028C1345.66 601.008 1346.5 599.004 1347.32 596.994C1347.55 596.418 1347.34 595.982 1346.87 595.63C1346.19 595.126 1345.46 595.012 1344.6 595.484C1344.81 594.649 1344.96 593.91 1345.02 593.16C1345.14 591.488 1344.49 590.305 1343.15 589.878C1342.17 589.566 1341.18 589.728 1340.22 590.026C1338 590.722 1336.13 591.961 1334.49 593.545C1334.3 593.729 1334.1 593.897 1333.85 593.993C1331.01 595.06 1328.17 596.128 1325.33 597.209C1325.02 597.33 1324.84 597.261 1324.66 597.015C1323.5 595.45 1322.1 594.1 1320.72 592.736C1318.78 590.828 1316.76 588.996 1315.16 586.79C1314.23 585.499 1313.49 584.121 1313.24 582.54C1312.82 579.954 1313.67 577.705 1315.18 575.659C1316.97 573.239 1319.38 571.503 1321.99 570.015C1326.12 567.655 1330.55 565.928 1335.15 564.629C1340.3 563.176 1345.54 562.488 1350.9 563.385C1353.03 563.741 1355.06 564.368 1356.83 565.632C1358.08 566.526 1358.84 567.682 1358.9 569.243C1358.96 571.071 1358.31 572.667 1357.29 574.13C1355.02 577.397 1351.8 579.505 1348.12 581.006C1345.06 582.256 1341.85 582.886 1338.52 583.004C1336.68 583.07 1334.85 583.016 1333.08 582.515C1331.04 581.94 1329.21 581.017 1328 579.205C1327.86 578.996 1327.67 578.839 1327.37 578.935C1327.07 579.033 1327.06 579.283 1327.05 579.523C1327.05 579.688 1327.08 579.859 1327.12 580.021C1327.37 581.069 1327.98 581.914 1328.73 582.679C1330.68 584.674 1333.18 585.508 1335.87 585.907C1338.5 586.298 1341.14 586.306 1343.79 586.039C1349.76 585.437 1354.98 583.294 1359.13 579.006C1361.62 576.443 1363.36 573.491 1363.7 569.899C1363.92 567.621 1363.39 565.516 1361.91 563.669C1360.13 561.475 1357.75 560.18 1355.14 559.25C1352.23 558.216 1349.21 557.734 1346.11 557.696C1343.41 557.663 1340.75 557.858 1338.11 558.379C1334.07 559.179 1330.13 560.291 1326.31 561.769C1322.39 563.28 1318.64 565.108 1315.24 567.563C1312.24 569.736 1309.58 572.218 1307.83 575.501C1307.09 576.907 1306.5 578.374 1306.66 580.019C1306.87 582.137 1307.69 584.051 1308.85 585.833C1310.61 588.531 1312.9 590.773 1315.28 592.94C1317.2 594.681 1319.23 596.304 1321.05 598.145C1321.56 598.667 1321.56 598.666 1320.84 598.923C1320 599.221 1319.15 599.504 1318.33 599.83C1314.98 601.146 1311.73 602.619 1308.93 604.89C1307.55 606.009 1306.55 607.334 1305.96 608.873C1307.59 612.047 1309.63 614.999 1312.03 617.654C1316.67 617.898 1320.49 616.022 1323.59 612.505C1325.09 610.806 1325.95 608.776 1326.45 606.584C1326.9 604.651 1326.94 602.729 1326.59 600.784C1326.53 600.442 1326.19 600.065 1326.38 599.795C1326.55 599.547 1326.99 599.466 1327.32 599.332C1328.67 598.785 1330.02 598.247 1331.4 597.692C1331.42 597.969 1331.29 598.113 1331.22 598.278C1330.14 600.826 1329.28 603.424 1329.49 606.244C1329.62 608 1330 609.686 1330.92 611.245C1331.88 612.85 1334.45 613.011 1335.65 611.814C1336.8 610.677 1337.63 609.336 1338.49 608.005C1338.96 607.277 1339.41 606.531 1339.86 605.792C1339.68 606.728 1339.56 607.649 1339.48 608.572C1339.4 609.481 1339.43 610.394 1339.81 611.256C1340.27 612.291 1341.33 612.712 1342.41 612.329C1343.55 611.926 1344.39 611.129 1345.09 610.234C1348.06 606.388 1350.86 602.43 1353.31 598.234C1353.83 597.343 1354.36 596.454 1354.94 595.465C1354.97 595.817 1354.99 596.034 1355 596.25C1355.15 598.417 1355.63 600.513 1356.46 602.532C1356.64 602.964 1356.58 603.239 1356.23 603.588C1355.08 604.769 1353.84 605.86 1352.61 606.966C1351.58 607.897 1350.49 608.774 1349.59 609.828C1348.78 610.777 1349.03 611.888 1350.13 612.269C1350.47 612.386 1350.83 612.455 1351.19 612.496C1353.17 612.727 1355.07 612.388 1356.89 611.666C1359.34 610.692 1360.93 609.008 1361.21 606.353C1361.34 605.145 1361.15 603.945 1360.8 602.777C1360.72 602.518 1360.73 602.34 1360.93 602.13C1362.8 600.127 1364.49 597.993 1366.09 595.776C1366.37 595.386 1366.59 594.941 1367.01 594.579C1367.04 594.751 1367.06 594.86 1367.07 594.97C1367.23 596.997 1367.53 598.997 1368.34 600.892C1368.56 601.411 1368.39 601.638 1367.95 601.91C1366.46 602.853 1365.15 604.009 1364.06 605.386C1363.22 606.458 1362.58 607.636 1362.41 608.998C1362.22 610.512 1363.3 611.557 1364.86 611.397C1366.49 611.232 1368.03 610.794 1369.47 610.027C1372.6 608.355 1373.71 606.309 1373.2 603.188C1373 601.96 1373.01 601.981 1374.27 601.779C1377.04 601.339 1379.75 601.655 1382.41 602.436C1382.71 602.525 1383.01 602.62 1383.3 602.723C1383.58 601.804 1383.83 600.869 1384.04 599.918C1380.67 598.643 1377.14 598.625 1373.55 599.452ZM1314.5 613.36C1313.69 613.527 1312.88 613.538 1312.06 613.369C1311.05 613.158 1310.49 612.373 1310.56 611.308C1310.64 610.081 1311.16 609.03 1311.84 608.031C1313.09 606.218 1314.93 605.116 1316.8 604.042C1318.62 602.997 1320.54 602.153 1322.48 601.34C1323.06 601.095 1323.07 601.099 1323.11 601.748C1323.17 602.582 1323.21 603.415 1323.06 604.147C1322.63 608.595 1318.77 612.478 1314.5 613.36ZM1342.19 594.218C1341.66 596.048 1340.8 597.745 1339.91 599.416C1338.69 601.698 1337.49 603.994 1336.05 606.153C1335.72 606.65 1335.38 607.143 1334.9 607.521C1334.45 607.879 1334.1 607.785 1333.88 607.25C1333.47 606.203 1333.68 605.124 1333.69 604.323C1334.23 600.365 1336.01 597.303 1338.63 594.683C1339.37 593.953 1340.25 593.397 1341.35 593.269C1342.1 593.183 1342.39 593.509 1342.19 594.218ZM1356.43 607.975C1355.49 609.172 1354.26 609.971 1352.81 610.467C1352.66 610.519 1352.45 610.62 1352.34 610.437C1352.24 610.264 1352.45 610.187 1352.56 610.1C1354.1 608.835 1355.62 607.556 1357.03 606.15C1357.05 606.128 1357.09 606.13 1357.2 606.101C1357.1 606.822 1356.85 607.436 1356.43 607.975ZM1365.79 609.123C1365.57 609.189 1365.32 609.332 1365.14 609.159C1364.94 608.968 1365.07 608.691 1365.16 608.479C1365.6 607.514 1366.14 606.605 1366.82 605.782C1367.4 605.088 1368.08 604.505 1368.81 603.974C1369.11 603.762 1369.22 603.807 1369.27 604.173C1369.31 604.549 1369.28 604.914 1369.24 605.285C1368.96 607.307 1367.73 608.519 1365.79 609.123Z" fill="#CD6699"/>
</g>
<g clip-path="url(#clip4)">
<path d="M1089.6 80.611L1083.68 186.796L1128.38 207.804L1176.94 198.809L1198.12 94.5888L1089.6 80.611Z" fill="#FF7816"/>
<path d="M1198.12 94.5888L1176.94 198.809L1128.38 207.804L1143.86 87.5999L1198.12 94.5888Z" fill="#FF4B00"/>
<path d="M1173.64 123.895L1120.32 117.026L1119.35 134.801L1170.08 141.336L1161.49 183.572L1130.74 189.421L1102.48 175.971L1103.31 161.615L1117.7 163.468L1117.49 167.379L1132.66 174.56L1149.15 171.458L1152.79 153.43L1104.08 147.154L1106.66 100.947L1176.46 109.938L1173.64 123.895Z" fill="#ECECF1"/>
<path d="M1170.08 141.336L1161.49 183.572L1130.74 189.421L1132.66 174.56L1149.15 171.458L1152.79 153.43L1135.66 151.224L1137.48 137.137L1170.08 141.336Z" fill="#E2E2E7"/>
<path d="M1176.46 109.938L1173.64 123.895L1139.75 119.529L1141.56 105.443L1176.46 109.938Z" fill="#E2E2E7"/>
</g>
<path d="M1375.37 285.251C1372.83 304.977 1355 318.925 1335.57 316.421C1316.13 313.917 1302.41 295.906 1304.96 276.18C1307.5 256.454 1325.33 242.507 1344.76 245.011C1364.2 247.515 1377.91 265.525 1375.37 285.251Z" fill="#5ADAFD" stroke="#5ADAFD"/>
<path d="M1389.52 312.896C1388.67 312.486 1387.81 312.094 1386.95 311.717C1387.18 311.132 1387.39 310.545 1387.6 309.958C1390.89 300.488 1390.55 292.493 1386.36 289.331C1382.33 286.304 1374.89 287.953 1366.91 293.2C1366.12 293.712 1365.34 294.259 1364.6 294.811C1364.21 294.329 1363.8 293.845 1363.39 293.377C1356.7 285.809 1349.51 282.06 1344.65 284.074C1340 285.998 1337.75 293.196 1338.39 302.64C1338.45 303.578 1338.54 304.502 1338.65 305.446C1337.55 305.603 1336.47 305.796 1335.45 306.013C1326.22 307.895 1319.26 311.846 1318.62 316.777C1317.97 321.872 1324.07 327.853 1332.86 332.14C1333.57 332.481 1334.28 332.822 1335.02 333.132C1334.64 334.08 1334.3 335.016 1333.98 335.986C1331.07 344.825 1331.5 352.185 1335.52 355.209C1339.67 358.333 1347.52 356.688 1355.65 351.312C1356.3 350.88 1356.95 350.432 1357.6 349.952C1358.24 350.748 1358.91 351.516 1359.59 352.267C1365.9 359.189 1372.59 362.524 1377.23 360.615C1382.03 358.644 1384.48 351.108 1383.81 341.459C1383.75 340.721 1383.68 339.965 1383.6 339.19C1384.14 339.112 1384.68 339.015 1385.21 338.917C1395.17 337.029 1402.74 332.875 1403.41 327.699C1404.05 322.751 1398.14 317.11 1389.52 312.896V312.896ZM1368.91 296.146C1375.75 291.649 1381.76 290.315 1384.19 292.138C1386.78 294.082 1387.03 300.622 1384.19 308.806C1384.01 309.346 1383.82 309.87 1383.6 310.39C1380.03 309.1 1376.38 308.032 1372.68 307.223C1370.92 303.909 1368.94 300.699 1366.74 297.644C1367.47 297.123 1368.17 296.632 1368.91 296.146V296.146ZM1345.22 328.819C1345.88 330.348 1346.56 331.88 1347.29 333.385C1344.74 332.775 1342.23 332.036 1339.77 331.171C1340.8 328.913 1342.02 326.597 1343.4 324.252C1343.98 325.787 1344.57 327.308 1345.22 328.819V328.819ZM1342.73 308.528C1345.18 308.313 1347.77 308.215 1350.45 308.227C1349.4 309.469 1348.36 310.747 1347.36 312.046C1346.37 313.33 1345.4 314.648 1344.46 315.989C1343.73 313.422 1343.16 310.924 1342.73 308.528ZM1345.82 320.364C1347.2 318.251 1348.68 316.2 1350.22 314.19C1351.76 312.181 1353.39 310.249 1355.08 308.359C1357.58 308.499 1360.13 308.727 1362.71 309.06C1365.3 309.393 1367.83 309.819 1370.28 310.317C1371.42 312.556 1372.49 314.835 1373.49 317.155C1374.49 319.474 1375.39 321.832 1376.23 324.215C1374.83 326.325 1373.35 328.392 1371.8 330.416C1370.26 332.426 1368.65 334.36 1366.97 336.269C1364.48 336.13 1361.9 335.881 1359.3 335.546C1356.7 335.212 1354.2 334.806 1351.78 334.345C1350.61 332.086 1349.52 329.788 1348.53 327.452C1347.53 325.116 1346.64 322.76 1345.82 320.364ZM1374.65 332.577C1375.68 331.248 1376.66 329.897 1377.63 328.528C1378.38 331.032 1379 333.552 1379.5 336.123C1376.86 336.363 1374.2 336.469 1371.54 336.426C1372.62 335.17 1373.64 333.874 1374.65 332.577ZM1378.64 320.392C1378.05 318.855 1377.44 317.315 1376.79 315.804C1376.16 314.312 1375.49 312.831 1374.79 311.363C1377.41 312.033 1379.91 312.802 1382.22 313.648C1381.15 315.967 1379.95 318.203 1378.64 320.392V320.392ZM1363.94 299.822C1365.44 301.908 1366.82 304.078 1368.09 306.299C1364.83 305.73 1361.53 305.306 1358.23 305.03C1360.13 303.133 1362.05 301.389 1363.94 299.822ZM1346.02 287.338C1349.01 286.096 1354.89 289.178 1360.66 295.698C1361.03 296.111 1361.39 296.556 1361.78 297.004C1358.86 299.4 1356.11 302.002 1353.55 304.759C1349.77 304.604 1345.99 304.698 1342.21 305.024C1342.1 304.164 1342.03 303.291 1341.95 302.419C1341.42 294.315 1343.21 288.487 1346.02 287.338V287.338ZM1336.42 329.859C1335.75 329.574 1335.09 329.274 1334.44 328.958C1331.06 327.41 1327.27 325.162 1324.67 322.519C1323.14 321.161 1322.24 319.252 1322.18 317.236C1322.57 314.248 1328.29 311.101 1336.18 309.477C1337.17 309.272 1338.16 309.102 1339.16 308.948C1339.83 312.636 1340.74 316.289 1341.88 319.856C1339.85 323.064 1338.02 326.414 1336.42 329.859V329.859ZM1353.66 348.349C1350.61 350.463 1347.2 352.015 1343.58 352.911C1341.63 353.539 1339.5 353.348 1337.71 352.37C1335.27 350.528 1334.92 344.623 1337.41 337.059C1337.71 336.168 1338.02 335.279 1338.37 334.411C1341.98 335.672 1345.65 336.693 1349.41 337.459C1351.2 340.795 1353.23 344.027 1355.44 347.101C1354.84 347.539 1354.25 347.96 1353.66 348.349ZM1358.23 344.904C1356.77 342.89 1355.34 340.68 1353.98 338.33C1355.56 338.6 1357.19 338.844 1358.85 339.057C1360.55 339.277 1362.23 339.46 1363.9 339.591C1362.11 341.469 1360.21 343.234 1358.23 344.904V344.904ZM1379.24 352.591C1378.84 354.564 1377.6 356.297 1375.85 357.35C1373.03 358.513 1367.66 355.83 1362.26 349.922C1361.64 349.245 1361.03 348.518 1360.4 347.773C1363.29 345.34 1366 342.718 1368.52 339.921C1372.35 340.099 1376.2 340.014 1380.03 339.661C1380.11 340.352 1380.18 341.041 1380.22 341.711C1380.58 345.343 1380.24 349.034 1379.24 352.591V352.591ZM1384.52 335.425C1384.04 335.512 1383.55 335.599 1383.06 335.668C1382.36 331.959 1381.38 328.297 1380.18 324.706C1382.19 321.58 1383.98 318.323 1385.56 314.957C1386.38 315.313 1387.18 315.681 1387.94 316.045C1395.32 319.652 1400.23 324.235 1399.85 327.207C1399.44 330.408 1393.13 333.795 1384.52 335.425ZM1360.04 329.782C1364.23 330.322 1368.06 327.412 1368.59 323.28C1369.12 319.149 1366.16 315.364 1361.97 314.824C1357.78 314.285 1353.96 317.195 1353.42 321.326C1352.89 325.458 1355.85 329.243 1360.04 329.782Z" fill="#F0F4F4"/>
<circle cx="851.092" cy="203.096" r="40" transform="rotate(7.34009 851.092 203.096)" fill="#42C9A0"/>
<path d="M924.577 230.721L884.583 199.188C883.209 198.18 881.631 197.969 880.032 198.601L833.351 218.97C832.155 219.492 831.314 220.591 831.161 221.78L827.818 247.73C827.665 248.918 828.2 250.195 829.225 251.004L869.22 282.54C870.593 283.549 872.171 283.759 873.77 283.127L920.451 262.755C921.648 262.233 922.489 261.133 922.642 259.945L925.985 233.994C926.138 232.806 925.603 231.529 924.577 230.721V230.721ZM885.108 209.305L914.555 232.522L899.219 239.244L882.91 226.368L885.108 209.305ZM876.959 208.255L874.761 225.318L855.722 233.641L842.59 223.252L876.959 208.255ZM838.428 229.673L847.851 237.12L836.848 241.936L838.428 229.673ZM868.694 272.419L839.247 249.202L854.584 242.481L870.892 255.356L868.694 272.419ZM875.787 249.512L862.508 239.008L878.016 232.212L891.294 242.716L875.787 249.512ZM876.843 273.469L879.041 256.406L898.08 248.084L911.212 258.473L876.843 273.469ZM915.375 252.051L905.952 244.604L916.954 239.789L915.375 252.051Z" fill="#EDF2F1"/>
</g>
<defs>
<clipPath id="clip0">
<rect width="170.547" height="166.932" fill="white" transform="translate(1016.82 588.85) rotate(7.34009)"/>
</clipPath>
<clipPath id="clip1">
<rect width="149.346" height="57.6529" fill="white" transform="translate(1036.71 391.018) rotate(7.34009)"/>
</clipPath>
<clipPath id="clip2">
<rect width="105.516" height="103.775" fill="white" transform="translate(777.826 444.033) rotate(7.34009)"/>
</clipPath>
<clipPath id="clip3">
<rect x="1298.16" y="535.171" width="99.291" height="97.1864" rx="48.5932" transform="rotate(7.34009 1298.16 535.171)" fill="white"/>
</clipPath>
<clipPath id="clip4">
<rect width="123.822" height="121.197" fill="white" transform="translate(1082.41 79.6841) rotate(7.34009)"/>
</clipPath>
</defs>
</svg>
