<svg width="1440" height="750" viewBox="0 0 1440 750" fill="none" xmlns="http://www.w3.org/2000/svg">
<rect width="1440" height="750" fill="#F5F5F5"/>
<path opacity="0.1" fill-rule="evenodd" clip-rule="evenodd" d="M255.481 157.463C294.941 154.489 339.232 140.164 371.27 161.499C403.308 182.834 399.418 226.588 411.298 261.226C423.027 295.426 448.872 327.75 440.284 362.726C431.414 398.856 397.571 424.045 365.73 446.823C332.836 470.357 297.167 496.463 255.481 494.936C214.303 493.427 178.273 467.666 151.45 438.973C128.313 414.223 125.09 380.505 118.552 348.46C112.91 320.805 110.642 293.821 116.191 266.151C122.548 234.449 125.971 198.859 152.741 177.971C180.104 156.619 219.674 160.162 255.481 157.463Z" fill="#AEABAB"/>
<path opacity="0.1" fill-rule="evenodd" clip-rule="evenodd" d="M1103.8 265.094C1143.57 256.004 1188.62 246.738 1223.31 267.738C1258.54 289.063 1265.82 334.24 1280.46 372.037C1295.93 411.972 1320.63 451.847 1310.72 493.425C1300.49 536.372 1268.55 575.116 1227.6 593.895C1189.28 611.462 1146.14 587.545 1103.8 588.3C1060.22 589.077 1015.55 617.555 976.666 598.371C936.615 578.608 920.096 532.054 905.801 490.601C891.379 448.779 871.078 399.294 895.124 361.905C919.291 324.329 978.013 333.484 1019.11 314.416C1049.55 300.295 1070.98 272.597 1103.8 265.094Z" fill="#B5B2AF"/>
</svg>
