<svg width="410" height="478" viewBox="0 0 410 478" fill="none" xmlns="http://www.w3.org/2000/svg">
<path d="M187.499 441.792C184.773 440.5 179.971 435.289 179.281 433.414C174.682 420.935 164.558 398.132 169.667 385.033C170.538 382.796 181.409 383.976 183.513 382.345C190.626 381.415 193.151 381.534 199.479 377.32C218.16 364.895 198.044 323.692 236.833 324.058C265.244 324.327 284.164 340.276 294.347 299.298C304.531 258.321 359.907 195.57 393.161 237.219C412.246 261.123 376.585 287.229 380.946 316.411C385.088 344.143 368.605 360.533 338.616 366.666C308.626 372.798 318.603 388.203 318.635 413.288C318.67 443.423 275.185 434.682 255.454 428.938C239.555 424.302 195.974 423.24 187.499 441.792Z" fill="url(#paint0_linear)"/>
<g style="mix-blend-mode:soft-light" opacity="0.8">
<g style="mix-blend-mode:soft-light" opacity="0.8">
<path d="M174.446 410.426L174.374 409.916C199.344 406.406 223.613 399.015 246.303 388.011C268.029 377.458 288.312 363.57 306.607 346.73C342.12 314.022 369.525 270.691 385.862 221.424L386.35 221.586C369.992 270.936 342.533 314.342 306.956 347.109C288.63 363.989 268.299 377.908 246.529 388.481C223.789 399.507 199.469 406.911 174.446 410.426V410.426Z" fill="#FCFDFE"/>
</g>
<g style="mix-blend-mode:soft-light" opacity="0.8">
<path d="M320.113 425.758C298.26 409.82 257.438 396.357 229.116 395.757L229.126 395.242C257.537 395.843 298.491 409.346 320.415 425.342L320.113 425.758Z" fill="#FCFDFE"/>
</g>
<g style="mix-blend-mode:soft-light" opacity="0.8">
<path d="M193.607 407.492L193.397 407.022C206.846 400.991 216.73 388.389 222.775 369.569C227.205 355.776 229.508 339.025 229.618 319.782H230.135C230.021 339.079 227.711 355.881 223.266 369.724C217.176 388.691 207.198 401.397 193.607 407.492Z" fill="#FCFDFE"/>
</g>
<g style="mix-blend-mode:soft-light" opacity="0.8">
<path d="M311.845 342.246L311.611 341.787C336.327 329.137 365.277 332.983 385.202 338.438L385.065 338.935C365.223 333.505 336.41 329.672 311.845 342.246Z" fill="#FCFDFE"/>
</g>
<g style="mix-blend-mode:soft-light" opacity="0.8">
<path d="M352.299 293.2L351.821 293.007C356.874 280.541 363.197 253.951 348.778 215.889L349.26 215.706C354.127 228.553 357.122 241.918 357.918 254.355C358.835 268.667 356.945 281.738 352.299 293.2Z" fill="#FCFDFE"/>
</g>
</g>
<path d="M254.754 476.044C239.577 473.81 224.419 471.226 209.28 468.291C209.033 468.513 204.058 435.502 219.729 418.188C250.723 384.65 229.845 354.549 223.89 336.712C214.457 311.585 219.419 284.366 244.983 283.962C273.336 282.957 278.476 236.005 273.337 193.285C269.364 172.454 289.008 147.177 308.61 141.401C328.62 135 348.591 148.101 354.711 189.625C363.975 237.705 328.91 266.698 315.927 290.803C303.156 314.467 332.87 333.612 308.949 354.579C288.827 373.209 263.462 386.598 272.745 410.003C282.274 433.147 279.989 452.061 254.754 476.044Z" fill="url(#paint1_linear)"/>
<g style="mix-blend-mode:soft-light" opacity="0.8">
<g style="mix-blend-mode:soft-light" opacity="0.8">
<path d="M234.406 478H233.891C233.891 477.713 248.384 408.277 273.397 340.681C276.851 329.736 280.604 318.697 284.231 308.021C293.948 279.435 303.997 249.869 308.768 220.434C314.102 187.531 312.201 157.895 302.955 129.832L303.445 129.672C312.717 157.814 314.624 187.536 309.276 220.518C304.498 249.994 294.442 279.576 284.718 308.182C281.09 318.855 277.339 329.889 273.882 340.843C248.964 408.195 234.439 477.607 234.406 478Z" fill="#FCFDFE"/>
</g>
<g style="mix-blend-mode:soft-light" opacity="0.8">
<path d="M302.292 252.722L301.909 252.378C318.831 233.568 339.247 206.83 350.216 192.467C358.773 181.259 359.075 180.947 359.406 181L359.326 181.51L359.366 181.254L359.464 181.487C359.033 181.774 355.323 186.629 350.625 192.78C339.652 207.149 319.229 233.894 302.292 252.722Z" fill="#FCFDFE"/>
</g>
<g style="mix-blend-mode:soft-light" opacity="0.8">
<path d="M307.494 226.947C303.987 205.345 295.09 191.143 288.243 183.033C280.618 174 273.75 170.195 273.056 170.132C273.097 170.133 273.136 170.12 273.169 170.096L272.882 169.666C273.017 169.575 273.194 169.601 273.581 169.77C275.447 170.583 282.443 174.961 289.781 184.086C299.025 195.583 305.326 210.375 308.005 226.863L307.494 226.947Z" fill="#FCFDFE"/>
</g>
<g style="mix-blend-mode:soft-light" opacity="0.8">
<path d="M259.031 384.868L258.52 384.808C260.908 364.739 256.234 343.152 244.63 320.648C238.579 308.913 230.862 297.417 221.693 286.475C221.06 285.718 220.799 285.407 220.727 285.28L221.174 285.022C221.227 285.114 221.604 285.567 222.089 286.143C231.281 297.109 239.021 308.637 245.088 320.405C256.744 343.009 261.432 364.694 259.031 384.868Z" fill="#FCFDFE"/>
</g>
<g style="mix-blend-mode:soft-light" opacity="0.8">
<path d="M265.878 363.729L265.439 363.458C283.623 334.062 321.949 332.013 322.276 332.118L322.469 332.359L322.292 332.613L322.21 332.372L322.186 332.623C321.507 332.623 283.904 334.587 265.878 363.729ZM322.127 332.125L322.209 332.367L322.127 332.125Z" fill="#FCFDFE"/>
</g>
<g style="mix-blend-mode:soft-light" opacity="0.8">
<path d="M236.942 466.674L236.427 466.654C236.748 457.914 233.627 443.014 216.933 421.677C216.041 420.537 216.041 420.537 216.062 420.385L216.573 420.458L216.318 420.422L216.556 420.331C216.601 420.415 216.942 420.853 217.34 421.359C234.125 442.819 237.263 457.846 236.942 466.674Z" fill="#FCFDFE"/>
</g>
<g style="mix-blend-mode:soft-light" opacity="0.8">
<path d="M240.796 450.211L240.3 450.067C242.221 443.433 249.786 430.435 278.862 417.904C279.265 417.73 279.525 417.617 279.618 417.571L279.853 418.031C279.757 418.079 279.486 418.197 279.065 418.378C250.185 430.824 242.692 443.665 240.796 450.211Z" fill="#FCFDFE"/>
</g>
</g>
<path d="M235.774 33.4093C252.456 26.3737 268.365 28.2676 276.307 31.2556C285.697 34.7906 288.813 37.4441 297.125 38.7794C304.513 39.9669 312.183 32.2549 317.943 37.7054C318.472 38.1853 318.942 38.7266 319.343 39.3179C323.469 45.3858 318.596 52.7143 319.945 65.5192C320.635 72.071 322.304 73.8902 323.848 86.4826C324.434 91.2712 324.312 91.9762 324.147 92.529C321.625 101.026 301.606 99.4211 287.517 95.7539C268.092 90.6997 261.839 82.2239 249.084 86.0792C243.201 87.8582 238.73 91.4162 235.873 94.1415C237.174 73.9893 234.472 53.5644 235.774 33.4093Z" fill="url(#paint2_linear)"/>
<path d="M235.983 222.548C235.775 222.548 235.576 222.465 235.428 222.318C235.281 222.171 235.198 221.971 235.198 221.763V27.4175C235.198 27.2092 235.281 27.0094 235.428 26.8621C235.576 26.7148 235.775 26.6321 235.983 26.6321C236.192 26.6321 236.391 26.7148 236.538 26.8621C236.686 27.0094 236.768 27.2092 236.768 27.4175V221.763C236.768 221.866 236.748 221.968 236.709 222.063C236.669 222.159 236.612 222.245 236.539 222.318C236.466 222.391 236.379 222.449 236.284 222.489C236.189 222.528 236.086 222.548 235.983 222.548V222.548Z" fill="#26264F"/>
<path d="M232.54 99.5072L233.944 97.5459C233.944 97.5459 233.675 96.5178 234.132 95.764L234.589 95.0102C234.589 95.0102 235.184 94.4516 236.325 94.8436C236.451 94.8884 236.586 94.903 236.719 94.8863C236.852 94.8696 236.98 94.822 237.091 94.7474C237.764 94.2822 237.943 95.563 237.943 95.563C237.943 95.563 238.431 96.1373 237.994 96.6298C237.994 96.6298 237.936 97.3592 237.394 97.734C236.852 98.1087 235.385 98.7247 235.385 98.7247L233.815 100.616L232.54 99.5072Z" fill="url(#paint3_linear)"/>
<path d="M232.317 97.4382C222.273 101.443 215.816 99.8792 212.817 98.7477C209.043 97.3291 205.425 94.7273 205.425 94.7273C200.317 91.053 198.317 87.4045 193.282 86.6047C192.376 86.4626 191.457 86.4265 190.542 86.497C183.279 87.1403 175.189 96.759 176.232 103.153C178.036 114.243 208.892 125.667 225.836 113.32C231.288 109.346 234.022 103.844 235.415 100.11L232.317 97.4382Z" fill="url(#paint4_linear)"/>
<path d="M166.721 212.082C166.308 212.463 166.282 213.351 166.265 213.932C166.246 214.091 166.254 214.253 166.288 214.41C166.539 215.062 167.831 215.053 169.864 215.136C173.075 215.268 174.041 215.462 174.262 214.971C174.469 214.512 173.857 213.822 173.788 213.739C173.42 213.329 172.989 213.196 172.158 212.978C170.623 212.575 169.588 212.365 169.276 212.302C167.32 211.904 166.993 211.832 166.721 212.082Z" fill="url(#paint5_linear)"/>
<path d="M168.974 208.877L169.099 212.536C169 212.707 167.889 213.176 167.054 212.679L166.424 209.055L168.974 208.877Z" fill="url(#paint6_linear)"/>
<path d="M193.778 212.131C193.226 212.68 193.051 213.733 193.477 214.285C193.903 214.836 194.586 214.473 196.49 214.632C198.523 214.802 199.03 215.311 200.433 215.003C201.007 214.878 202.012 214.556 202.012 214.156C202.012 213.868 201.518 213.702 199.869 213.05C197.529 212.124 197.542 212.081 197.04 211.969C195.773 211.686 194.509 211.406 193.778 212.131Z" fill="url(#paint7_linear)"/>
<path d="M195.26 208.877L196.101 212.323C196.014 212.503 194.943 213.056 194.072 212.622L192.732 209.242L195.26 208.877Z" fill="url(#paint8_linear)"/>
<path d="M190.164 133.938C189.13 159.415 191.154 184.925 196.19 209.921L192.226 210.764C189.085 207.503 185.173 202.425 183.527 195.455C182.505 191.129 183.038 188.962 182.523 183.681C181.706 175.273 179.385 170.758 177.103 163.899C175.053 157.725 172.721 148.708 171.848 136.772L190.164 133.938Z" fill="url(#paint9_linear)"/>
<path style="mix-blend-mode:multiply" opacity="0.3" d="M188.334 187.368C186.878 181.6 184.074 180.074 183.975 174.631C183.903 170.78 185.286 170.467 185.195 166.778C185.051 161.187 181.782 158.256 180.138 154.739C178.402 151.024 177.736 145.058 182.417 135.135L171.85 136.772C172.722 148.708 175.054 157.735 177.104 163.899C179.386 170.766 181.708 175.273 182.524 183.681C183.036 188.961 182.504 191.127 183.529 195.455C185.174 202.425 189.086 207.503 192.227 210.764L193.231 210.55C189.835 206.494 188.64 202.871 188.333 199.925C187.838 195.149 189.801 193.183 188.334 187.368Z" fill="url(#paint10_linear)"/>
<path d="M176.948 133.22C175.375 147.709 173.935 162.473 172.628 177.511C171.652 188.795 170.78 199.94 170.013 210.945L165.995 211.232C164.35 207.736 163.144 204.048 162.408 200.254C161.29 194.474 161.801 191.106 161.493 185.161C161.147 178.496 160.201 176.997 158.855 168.539C156.109 151.372 154.734 142.788 159.091 137.727C160.5 136.078 164.875 132.002 176.948 133.22Z" fill="url(#paint11_linear)"/>
<path d="M142.247 88.1683C158.924 82.4527 176.943 81.9439 193.916 86.7095L196.077 98.8079C196.295 104.139 196.217 109.478 195.843 114.8C195.388 121.272 194.945 121.369 193.904 130.504C192.208 145.398 192.917 149.29 189.927 151.079C187.981 152.243 187.277 150.839 177.348 149.854C170.69 149.193 167.292 148.886 163.922 150.028C159.33 151.583 157.795 154.192 155.901 153.343C154.084 152.529 153.853 149.391 153.634 143.921C153.295 135.482 153.316 129.748 153.285 127.696C153.141 118.275 150.758 111.083 147.706 101.872C146.158 97.2004 144.336 92.6244 142.247 88.1683Z" fill="url(#paint12_linear)"/>
<path d="M173.141 74.2176C173.064 76.074 172.799 77.9179 172.352 79.7212C171.988 81.18 171.761 81.549 171.481 81.8434C171.061 82.2871 170.439 82.646 167.006 83.3051C165.14 83.664 164.899 83.6396 164.853 83.8206C164.606 84.7036 169.475 88.0175 174.711 87.5624C177.915 87.2824 180.906 85.6211 180.779 84.6577C180.653 83.6942 177.447 84.0345 176.592 82.2469C175.998 81.0049 176.829 79.3292 177.777 77.9565C177.013 76.3254 173.902 75.8473 173.141 74.2176Z" fill="url(#paint13_linear)"/>
<path d="M178.994 75.4697C179.798 74.512 179.937 72.7717 179.138 71.6245C178.443 70.6366 177.28 70.4399 176.582 70.3207C174.563 69.9775 171.953 70.6897 170.962 72.5132C170.375 73.5944 171.392 75.9593 171.551 76.3829C171.729 76.8624 172.088 77.0434 172.412 77.4152C172.857 77.9322 173.56 78.752 174.687 80.1233C174.826 79.6568 175.006 79.2033 175.223 78.7678C175.505 78.2018 175.858 77.6744 176.274 77.1984C177.393 75.9622 178.232 76.3771 178.994 75.4697Z" fill="url(#paint14_linear)"/>
<path d="M173.019 78.933C173.019 78.933 174.239 81.1973 176.908 81.1657C179.297 81.1384 179.931 75.8129 178.47 74.5982C177.983 74.1918 176.975 73.9807 176.137 74.1674C175.641 74.278 175.466 74.4718 174.652 74.6369C173.903 74.7891 173.698 74.6958 173.464 74.8724C173.177 75.0921 172.937 75.6578 173.321 77.2459C172.89 76.7605 172.355 76.5552 171.959 76.7175C171.823 76.7808 171.708 76.8801 171.625 77.0046C171.26 77.6034 171.775 78.4118 173.019 78.933Z" fill="url(#paint15_linear)"/>
<path d="M173.375 74.5479C173.486 74.6398 173.113 75.0504 173.054 75.6549C172.939 76.8309 174.058 78.3084 175.265 78.4936C175.982 78.6027 176.201 78.1791 177.394 78.1174C177.975 78.089 178.556 78.154 179.116 78.3098C179.42 79.6222 179.001 80.8943 178.112 81.4428C177.149 82.0358 175.982 81.5864 175.495 81.3926C175.169 81.2662 174.124 80.8613 173.621 79.8562C173.095 78.808 173.697 78.2251 173.068 77.5014C172.752 77.1367 172.321 76.963 171.927 76.268C171.843 76.1187 171.77 75.9632 171.709 75.8028C172.358 75.184 173.214 74.4158 173.375 74.5479Z" fill="url(#paint16_linear)"/>
<path d="M178.231 78.7434C178.231 78.7434 177.703 78.9846 176.816 78.8869C176.773 78.8869 176.724 78.8869 176.718 78.9142C176.693 78.9975 177.244 79.4067 177.776 79.2861C178.155 79.2014 178.465 78.864 178.419 78.7706C178.397 78.7319 178.314 78.7319 178.231 78.7434Z" fill="url(#paint17_linear)"/>
<path d="M148.926 127.702L151.322 127.568C151.322 127.568 153.946 125.37 155.142 125.506C156.337 125.643 158.123 126.474 158.342 126.655C158.56 126.836 157.689 127.804 156.816 127.709C155.944 127.614 153.999 128.085 153.651 128.857C153.302 129.63 151.785 130.091 151.536 129.64L148.316 130.279L148.926 127.702Z" fill="url(#paint18_linear)"/>
<path d="M149.65 126.863C149.818 128.83 149.391 130.165 148.676 131.082C145.509 135.142 134.747 133.482 128.35 128.043C123.615 124.023 121.108 117.765 121.202 112.164C121.381 101.236 131.504 90.526 146.561 86.8258L153.248 106.827C143.965 106.971 138.324 113.971 139.161 118.97C139.784 122.693 144.124 126.04 149.65 126.863Z" fill="url(#paint19_linear)"/>
<path style="mix-blend-mode:multiply" opacity="0.3" d="M186.067 146.19C181.188 144.105 181.211 139.79 176.651 137.988C170.142 135.419 162.952 141.388 161.83 139.734C160.66 138.011 169.25 132.729 168.106 127.519C167.199 123.38 161.204 124.113 157.993 118.446C154.948 113.07 157.9 108.108 155.203 106.233C154.236 105.562 152.53 105.298 149.294 106.722C151.55 113.772 153.169 119.988 153.285 127.694C153.316 129.748 153.295 135.482 153.634 143.92C153.853 149.39 154.084 152.535 155.901 153.342C157.795 154.192 159.33 151.581 163.922 150.026C167.293 148.878 170.69 149.192 177.348 149.852C187.277 150.837 187.981 152.242 189.927 151.077C191.194 150.321 191.792 149.18 192.198 146.992C190.208 147.208 188.097 147.055 186.067 146.19Z" fill="url(#paint20_linear)"/>
<path d="M160.317 268.511C132.671 269.493 105.038 270.613 77.4165 271.869C69.8029 272.217 63.5969 263.801 63.429 253.06L63.3171 245.79C63.1492 235.056 69.1184 225.723 76.7737 224.947C104.531 222.133 132.314 219.457 160.122 216.918C160.188 234.115 160.253 251.312 160.317 268.511Z" fill="#D8DEE8"/>
<path d="M148.659 270.9C125.261 271.946 101.872 273.088 78.4913 274.328C68.5703 274.748 60.4918 263.758 60.2679 249.813C60.2679 249.762 60.2679 249.711 60.2679 249.66C60.0455 235.715 67.8084 223.527 77.7925 222.486C101.296 219.586 124.823 216.784 148.373 214.079C149.612 213.96 163.997 215.204 164.001 216.733C164.005 218.262 150.587 219.461 149.365 219.579C125.501 222.12 101.664 224.76 77.8542 227.497C69.7914 228.289 63.4922 238.123 63.6672 249.403C63.6672 249.454 63.6672 249.506 63.6672 249.558C63.8452 260.845 70.3984 269.704 78.4196 269.317C101.813 267.915 125.216 266.612 148.629 265.408C149.854 265.352 164.16 266.844 164.163 268.375C164.166 269.905 149.888 270.851 148.659 270.9Z" fill="url(#paint21_linear)"/>
<path d="M319.772 266.798C263.301 266.666 206.84 267.108 150.389 268.123L150.129 216.668C206.931 217.128 263.717 218.162 320.488 219.773C320.251 235.448 320.013 251.123 319.772 266.798Z" fill="#F4F7FA"/>
<path d="M321.862 222.475C264.056 220.91 206.234 219.942 148.393 219.573C147.221 219.566 146.264 218.328 146.255 216.81C146.247 215.293 147.194 214.069 148.366 214.082C206.241 214.612 264.099 215.74 321.939 217.467C322.913 217.495 323.685 218.64 323.661 220.022C323.637 221.405 322.834 222.502 321.862 222.475Z" fill="url(#paint22_linear)"/>
<path d="M321.136 269.306C263.63 269.243 206.138 269.775 148.659 270.9C147.496 270.923 146.541 269.711 146.534 268.192C146.526 266.673 147.465 265.428 148.63 265.408C206.144 264.441 263.672 264.07 321.213 264.295C322.183 264.295 322.951 265.423 322.935 266.805C322.919 268.188 322.104 269.308 321.136 269.306Z" fill="url(#paint23_linear)"/>
<path d="M161.401 270.082H161.385L158.768 270.062L147.367 270.406L80.0424 272.755C78.1016 272.797 76.1817 273.166 74.363 273.845C66.6073 276.77 61.3297 285.117 61.9108 294.745L61.9223 294.87C62.5609 305.526 70.1673 314.146 79.4656 315.467C80.4367 315.607 81.4179 315.663 82.3986 315.635L138.765 313.433L147.692 313.083L151.135 312.949L161.051 312.507L163.123 312.363H163.138L163.844 312.392L165.279 312.362L165.321 311.953L165.486 310.145L165.506 309.927L165.64 308.453L168.815 273.762L169.016 271.565L169.109 270.518L169.197 269.688L161.401 270.082Z" fill="url(#paint24_linear)"/>
<path d="M320.048 309.555L171.51 310.487C159.151 310.564 148.923 303.362 148.604 294.371L148.389 288.253C148.069 279.207 157.859 271.704 170.309 271.525L320.024 269.371L320.048 309.555Z" fill="#F4F7FA"/>
<path d="M321.652 311.671L165.196 312.584C154.493 312.648 145.477 303.201 145.054 291.477V291.348C144.624 279.574 153.028 269.81 163.821 269.654L321.633 267.328C322.756 267.312 323.664 268.267 323.664 269.462C323.664 270.656 322.756 271.635 321.636 271.65L163.955 273.847C155.259 273.967 148.481 281.82 148.815 291.318V291.447C149.148 300.908 156.42 308.534 165.063 308.475L321.645 307.425C322.757 307.418 323.654 308.365 323.654 309.54C323.654 310.716 322.763 311.664 321.652 311.671Z" fill="url(#paint25_linear)"/>
<path d="M163.503 347.929L161.045 348.012L152.067 348.317L147.28 348.482L106.241 349.869L104.519 349.931L96.7263 350.194L84.2425 350.616L79.1973 350.787C77.6274 350.819 76.078 351.15 74.6314 351.761C73.6356 352.183 72.6906 352.715 71.8147 353.35C65.6445 357.723 61.4374 367.201 61.4374 378.083V378.249C61.4374 393.095 69.3093 405.54 79.2303 405.993L161.069 408.279L166.275 408.423L166.562 405.52L166.706 404.111L171.538 355.851L171.877 353.071L172.243 350.056L172.372 348.132L172.392 347.632L163.503 347.929Z" fill="url(#paint26_linear)"/>
<path d="M320.159 351.045V401.126L279.357 402.74L175.708 406.829C172.593 406.961 169.48 406.517 166.525 405.52C157.505 402.451 151.112 394.416 151.112 384.731V376.088C151.112 364.608 160.129 354.981 171.807 353.071C173.112 352.856 174.432 352.741 175.754 352.725L266.597 351.668L320.159 351.045Z" fill="#F4F7FA"/>
<path d="M323.519 401.005C323.519 402.474 322.731 403.702 321.761 403.744L282.624 405.347L168.818 410.004C166.092 410.117 163.583 409.498 161.171 408.281C153.136 404.226 147.506 393.492 147.506 380.69V380.509C147.506 363.923 157.043 350.314 168.805 350.098H168.875L172.15 350.062L267.76 349.057L321.761 348.482H321.773C322.736 348.482 323.519 349.693 323.519 351.161C323.519 352.63 322.731 353.852 321.761 353.862L320.365 353.891L265.745 354.616L171.538 355.861L168.887 355.898C159.373 356.022 151.629 367.018 151.629 380.411V380.591C151.629 392.979 158.244 402.978 166.773 404.123C167.462 404.216 168.158 404.249 168.852 404.222L276.771 400.121L320.374 398.465L321.766 398.414C322.736 398.366 323.519 399.527 323.519 401.005Z" fill="url(#paint27_linear)"/>
<path d="M161.046 348.634L78.1613 350.501C70.5419 350.672 64.4679 344.637 64.4679 337.023V331.854C64.4679 324.244 70.5419 317.689 78.1613 317.208L161.046 312.032V348.634Z" fill="#D8DEE8"/>
<path d="M149.383 350.291L79.2002 352.256C69.2691 352.458 61.3627 344.574 61.3627 334.682V334.574C61.3627 324.683 69.2691 316.127 79.2002 315.488L149.383 309.996C150.614 309.917 164.892 310.841 164.892 311.924C164.892 313.007 151.556 313.826 150.335 313.898L79.2002 319.041C71.1761 319.525 64.762 326.425 64.762 334.429V334.539C64.762 342.545 71.1761 348.897 79.2002 348.7L149.383 346.403C150.606 346.371 164.892 347.471 164.892 348.557C164.892 349.642 150.613 350.264 149.383 350.291Z" fill="url(#paint28_linear)"/>
<path d="M320.16 313.411V346.763L268.487 347.243L172.26 348.13L164.416 348.202L161.032 348.234L152.054 348.315L151.114 348.325V311.839L160.251 311.855H160.263L164.88 311.934L165.318 311.957L205.791 312.342L320.16 313.411Z" fill="#F4F7FA"/>
<path d="M321.764 315.312L149.383 313.891C148.218 313.881 147.274 313.001 147.274 311.924C147.274 310.847 148.218 309.983 149.383 309.996L321.764 311.757C322.233 311.766 322.68 311.959 323.008 312.295C323.335 312.63 323.518 313.081 323.516 313.551C323.518 313.782 323.474 314.011 323.387 314.225C323.3 314.439 323.171 314.634 323.008 314.798C322.845 314.962 322.651 315.092 322.438 315.18C322.224 315.268 321.995 315.313 321.764 315.312Z" fill="url(#paint29_linear)"/>
<path d="M323.519 346.704C323.521 347.17 323.339 347.618 323.011 347.949C322.684 348.28 322.238 348.468 321.773 348.471H321.761L267.745 349.045L172.121 350.04L168.821 350.077L168.692 350.208L149.385 350.528H149.365C148.426 350.528 147.643 349.845 147.37 349.061C147.323 348.89 147.293 348.714 147.283 348.537C147.28 348.489 147.28 348.441 147.283 348.393C147.283 347.315 148.225 346.403 149.39 346.403H149.458L151.138 346.381L161.054 346.297L269.552 345.404L320.374 344.973L321.77 344.947C322.001 344.945 322.23 344.989 322.443 345.077C322.657 345.165 322.851 345.294 323.014 345.458C323.177 345.622 323.305 345.816 323.392 346.03C323.479 346.244 323.522 346.473 323.519 346.704V346.704Z" fill="url(#paint30_linear)"/>
<g style="mix-blend-mode:soft-light" opacity="0.5">
<path d="M142.935 401.667L124.424 400.609C119.952 387.85 120.29 375.548 124.424 360.579L142.935 360.636C139.224 375.917 139.789 389.431 142.935 401.667Z" fill="white"/>
</g>
<path style="mix-blend-mode:multiply" opacity="0.3" d="M104.571 351.968L103.983 328.868L82.7372 352.273C82.7372 352.273 71.2579 358.465 73.228 369.338L86.3618 364.104L98.0277 368.149C98.0277 368.149 98.3204 356.734 104.571 351.968Z" fill="url(#paint31_linear)"/>
<path d="M80.3481 330.314L103.983 328.868C103.983 328.868 92.8677 337.32 98.0277 368.152C98.0277 368.152 87.9244 364.941 83.535 359.442L73.2338 369.336C73.2338 369.336 66.9402 341.922 80.3481 330.314Z" fill="url(#paint32_linear)"/>
<path d="M89.4024 232.19C88.4755 231.852 87.4825 232.24 87.1855 233.051L22.2986 411.022C22.0001 411.839 22.5109 412.774 23.4379 413.111C24.3649 413.448 25.3578 413.061 25.6563 412.25L90.5418 234.283C90.8402 233.463 90.3294 232.529 89.4024 232.19Z" fill="url(#paint33_linear)"/>
<path d="M121.576 254.611H81.1832C80.2401 254.611 79.4756 255.376 79.4756 256.319V256.512C79.4756 257.455 80.2401 258.22 81.1832 258.22H121.576C122.519 258.22 123.284 257.455 123.284 256.512V256.319C123.284 255.376 122.519 254.611 121.576 254.611Z" fill="url(#paint34_linear)"/>
<path d="M109.722 287.1H69.3294C68.3863 287.1 67.6218 287.865 67.6218 288.808V289.001C67.6218 289.944 68.3863 290.709 69.3294 290.709H109.722C110.665 290.709 111.43 289.944 111.43 289.001V288.808C111.43 287.865 110.665 287.1 109.722 287.1Z" fill="url(#paint35_linear)"/>
<path d="M97.8684 320.105H57.4755C56.5324 320.105 55.7679 320.87 55.7679 321.814V322.006C55.7679 322.95 56.5324 323.715 57.4755 323.715H97.8684C98.8114 323.715 99.5759 322.95 99.5759 322.006V321.814C99.5759 320.87 98.8114 320.105 97.8684 320.105Z" fill="url(#paint36_linear)"/>
<path d="M85.4994 354.143H45.1065C44.1635 354.143 43.399 354.908 43.399 355.852V356.045C43.399 356.988 44.1635 357.753 45.1065 357.753H85.4994C86.4425 357.753 87.207 356.988 87.207 356.045V355.852C87.207 354.908 86.4425 354.143 85.4994 354.143Z" fill="url(#paint37_linear)"/>
<path d="M73.6457 386.634H33.2528C32.3097 386.634 31.5452 387.399 31.5452 388.343V388.535C31.5452 389.479 32.3097 390.244 33.2528 390.244H73.6457C74.5887 390.244 75.3532 389.479 75.3532 388.535V388.343C75.3532 387.399 74.5887 386.634 73.6457 386.634Z" fill="url(#paint38_linear)"/>
<path d="M130.975 230.958C130.018 230.609 128.992 231.01 128.679 231.854L61.6684 415.871C61.3613 416.715 61.8879 417.683 62.8465 418.025C63.805 418.366 64.8295 417.973 65.1423 417.129L132.153 233.112C132.46 232.275 131.932 231.308 130.975 230.958Z" fill="url(#paint39_linear)"/>
<path style="mix-blend-mode:multiply" opacity="0.3" d="M320.158 353.886V398.454L321.659 398.402C322.628 398.366 323.467 399.526 323.467 401.002C323.467 402.478 322.705 403.699 321.735 403.741L282.611 405.344C281.518 404.525 280.469 403.653 279.454 402.74C278.521 401.9 277.617 401.017 276.752 400.109C271.095 394.154 267.101 386.816 265.17 378.831C263.238 370.845 263.436 362.492 265.745 354.607C266.032 353.612 266.352 352.632 266.705 351.668C267.023 350.792 267.37 349.931 267.745 349.084C268.014 348.465 268.298 347.852 268.592 347.247C268.886 346.643 269.21 346.015 269.545 345.412C272.111 340.702 275.459 336.462 279.446 332.874C288.055 323.309 300.407 317.279 314.245 317.279C316.286 317.279 318.62 317.409 320.166 317.666V344.988L321.667 344.978C322.136 344.975 322.589 345.157 322.926 345.485C323.263 345.813 323.457 346.26 323.467 346.73C323.474 347.196 323.296 347.645 322.974 347.981C322.652 348.317 322.211 348.512 321.745 348.525C322.708 348.525 323.505 349.705 323.505 351.176C323.505 352.646 322.619 353.852 321.651 353.862L320.158 353.886Z" fill="url(#paint40_linear)"/>
<path d="M349.152 401.012C367.486 382.667 367.486 352.923 349.152 334.577C330.819 316.232 301.094 316.232 282.76 334.577C264.427 352.923 264.427 382.667 282.76 401.012C301.094 419.358 330.819 419.358 349.152 401.012Z" fill="url(#paint41_linear)"/>
<path d="M319.497 411.227C345.425 411.227 366.443 390.195 366.443 364.25C366.443 338.306 345.425 317.274 319.497 317.274C293.569 317.274 272.551 338.306 272.551 364.25C272.551 390.195 293.569 411.227 319.497 411.227Z" fill="url(#paint42_linear)"/>
<path d="M363.204 364.248C363.204 388.404 343.638 407.985 319.497 407.985C313.757 407.985 308.073 406.854 302.77 404.656C297.467 402.459 292.648 399.237 288.589 395.175C284.53 391.114 281.311 386.292 279.114 380.986C276.918 375.679 275.787 369.991 275.788 364.248C275.788 340.091 295.354 320.51 319.497 320.51C319.9 320.51 320.3 320.51 320.701 320.527C344.284 321.172 363.204 340.499 363.204 364.248Z" fill="url(#paint43_linear)"/>
<path d="M319.497 344.153L280.243 356.125L319.497 368.098L358.75 356.125L319.497 344.153Z" fill="white"/>
<path d="M319.497 372.295L294.79 364.76V381.975C294.79 383.346 295.26 384.675 296.122 385.741C296.984 386.807 298.186 387.544 299.526 387.83C312.794 390.644 325.551 390.732 337.766 387.922C339.08 387.615 340.252 386.872 341.089 385.814C341.927 384.756 342.382 383.445 342.379 382.095V365.316L319.497 372.295Z" fill="white"/>
<path d="M289.335 379.436C287.188 380.393 285.312 380.413 283.704 379.496C283.476 379.363 283.295 379.161 283.188 378.92C283.081 378.678 283.052 378.408 283.106 378.15L286.6 360.767L290.068 378.019C290.125 378.303 290.083 378.599 289.95 378.856C289.817 379.114 289.6 379.318 289.335 379.436V379.436Z" fill="white"/>
<path d="M319.497 354.352L286.092 357.904V363.702H287.082L287.184 358.621L319.497 354.352Z" fill="white"/>
<g style="mix-blend-mode:soft-light" opacity="0.6">
<path d="M363.204 364.248C363.204 388.404 343.638 407.985 319.497 407.985C311.208 407.999 303.089 405.641 296.095 401.189C300.206 390.001 312.088 377.99 324.389 370.462C347.161 356.534 329.857 331.361 320.701 320.526C344.284 321.172 363.204 340.499 363.204 364.248Z" fill="white"/>
</g>
<defs>
<linearGradient id="paint0_linear" x1="407.539" y1="288.219" x2="-67.2912" y2="527.026" gradientUnits="userSpaceOnUse">
<stop stop-color="#E38DDD"/>
<stop offset="1" stop-color="#9571F6"/>
</linearGradient>
<linearGradient id="paint1_linear" x1="308.878" y1="147.807" x2="248.751" y2="471.95" gradientUnits="userSpaceOnUse">
<stop stop-color="#FFC444"/>
<stop offset="1" stop-color="#F36F56"/>
</linearGradient>
<linearGradient id="paint2_linear" x1="241710" y1="53549.4" x2="180624" y2="49742.5" gradientUnits="userSpaceOnUse">
<stop stop-color="#FFC444"/>
<stop offset="1" stop-color="#F36F56"/>
</linearGradient>
<linearGradient id="paint3_linear" x1="-8098.83" y1="8435.42" x2="-8413.98" y2="8755.77" gradientUnits="userSpaceOnUse">
<stop stop-color="#FFC444"/>
<stop offset="1" stop-color="#F36F56"/>
</linearGradient>
<linearGradient id="paint4_linear" x1="118.48" y1="106.777" x2="218.755" y2="101.6" gradientUnits="userSpaceOnUse">
<stop stop-color="#FF9085"/>
<stop offset="1" stop-color="#FB6FBB"/>
</linearGradient>
<linearGradient id="paint5_linear" x1="173.661" y1="214.377" x2="165.692" y2="215.093" gradientUnits="userSpaceOnUse">
<stop stop-color="#444B8C"/>
<stop offset="1" stop-color="#26264F"/>
</linearGradient>
<linearGradient id="paint6_linear" x1="-1070.89" y1="7623.08" x2="-1201.39" y2="7467.67" gradientUnits="userSpaceOnUse">
<stop stop-color="#FFC444"/>
<stop offset="1" stop-color="#F36F56"/>
</linearGradient>
<linearGradient id="paint7_linear" x1="-3763.25" y1="7750.29" x2="-4270.51" y2="7858.92" gradientUnits="userSpaceOnUse">
<stop stop-color="#444B8C"/>
<stop offset="1" stop-color="#26264F"/>
</linearGradient>
<linearGradient id="paint8_linear" x1="-552.676" y1="7690.82" x2="-685.763" y2="7519.72" gradientUnits="userSpaceOnUse">
<stop stop-color="#FFC444"/>
<stop offset="1" stop-color="#F36F56"/>
</linearGradient>
<linearGradient id="paint9_linear" x1="199.572" y1="198.556" x2="179.719" y2="146.497" gradientUnits="userSpaceOnUse">
<stop stop-color="#311944"/>
<stop offset="1" stop-color="#893976"/>
</linearGradient>
<linearGradient id="paint10_linear" x1="44514.5" y1="121552" x2="29962.1" y2="112278" gradientUnits="userSpaceOnUse">
<stop stop-color="#311944"/>
<stop offset="1" stop-color="#893976"/>
</linearGradient>
<linearGradient id="paint11_linear" x1="45186.7" y1="133120" x2="30022.2" y2="125466" gradientUnits="userSpaceOnUse">
<stop stop-color="#311944"/>
<stop offset="1" stop-color="#893976"/>
</linearGradient>
<linearGradient id="paint12_linear" x1="79595.3" y1="90825.5" x2="99336.6" y2="55687.8" gradientUnits="userSpaceOnUse">
<stop stop-color="#FF9085"/>
<stop offset="1" stop-color="#FB6FBB"/>
</linearGradient>
<linearGradient id="paint13_linear" x1="22623.6" y1="17248.3" x2="23674.4" y2="15303.5" gradientUnits="userSpaceOnUse">
<stop stop-color="#FFC444"/>
<stop offset="1" stop-color="#F36F56"/>
</linearGradient>
<linearGradient id="paint14_linear" x1="169.484" y1="86.1976" x2="176.282" y2="71.1876" gradientUnits="userSpaceOnUse">
<stop stop-color="#311944"/>
<stop offset="1" stop-color="#6B3976"/>
</linearGradient>
<linearGradient id="paint15_linear" x1="10438.8" y1="4342.19" x2="10437.4" y2="5442" gradientUnits="userSpaceOnUse">
<stop stop-color="#FFC444"/>
<stop offset="1" stop-color="#F36F56"/>
</linearGradient>
<linearGradient id="paint16_linear" x1="1529.3" y1="4865.16" x2="1235.45" y2="4087.63" gradientUnits="userSpaceOnUse">
<stop stop-color="#311944"/>
<stop offset="1" stop-color="#6B3976"/>
</linearGradient>
<linearGradient id="paint17_linear" x1="177.653" y1="78.0804" x2="177.199" y2="80.863" gradientUnits="userSpaceOnUse">
<stop stop-color="#FFC444"/>
<stop offset="1" stop-color="#F36F56"/>
</linearGradient>
<linearGradient id="paint18_linear" x1="14683.8" y1="5765.9" x2="14711.2" y2="5942.03" gradientUnits="userSpaceOnUse">
<stop stop-color="#FFC444"/>
<stop offset="1" stop-color="#F36F56"/>
</linearGradient>
<linearGradient id="paint19_linear" x1="41410.5" y1="56641.4" x2="55239.6" y2="34624.6" gradientUnits="userSpaceOnUse">
<stop stop-color="#FF9085"/>
<stop offset="1" stop-color="#FB6FBB"/>
</linearGradient>
<linearGradient id="paint20_linear" x1="65232.1" y1="62977.4" x2="77583.4" y2="37371.3" gradientUnits="userSpaceOnUse">
<stop stop-color="#FF9085"/>
<stop offset="1" stop-color="#FB6FBB"/>
</linearGradient>
<linearGradient id="paint21_linear" x1="56.8026" y1="243.589" x2="172.305" y2="244.849" gradientUnits="userSpaceOnUse">
<stop stop-color="#AA80F9"/>
<stop offset="1" stop-color="#6165D7"/>
</linearGradient>
<linearGradient id="paint22_linear" x1="-856888" y1="8873.1" x2="-936752" y2="-148008" gradientUnits="userSpaceOnUse">
<stop stop-color="#AA80F9"/>
<stop offset="1" stop-color="#6165D7"/>
</linearGradient>
<linearGradient id="paint23_linear" x1="-846637" y1="9443.8" x2="-901072" y2="-124368" gradientUnits="userSpaceOnUse">
<stop stop-color="#AA80F9"/>
<stop offset="1" stop-color="#6165D7"/>
</linearGradient>
<linearGradient id="paint24_linear" x1="127.685" y1="253.582" x2="94.8964" y2="363.956" gradientUnits="userSpaceOnUse">
<stop stop-color="#40447E"/>
<stop offset="1" stop-color="#3C3B6B"/>
</linearGradient>
<linearGradient id="paint25_linear" x1="548091" y1="105335" x2="770453" y2="105335" gradientUnits="userSpaceOnUse">
<stop stop-color="#40447E"/>
<stop offset="1" stop-color="#3C3B6B"/>
</linearGradient>
<linearGradient id="paint26_linear" x1="329928" y1="158845" x2="320340" y2="217792" gradientUnits="userSpaceOnUse">
<stop stop-color="#40447E"/>
<stop offset="1" stop-color="#3C3B6B"/>
</linearGradient>
<linearGradient id="paint27_linear" x1="248276" y1="181472" x2="464180" y2="181472" gradientUnits="userSpaceOnUse">
<stop stop-color="#40447E"/>
<stop offset="1" stop-color="#3C3B6B"/>
</linearGradient>
<linearGradient id="paint28_linear" x1="254540" y1="110378" x2="337475" y2="112598" gradientUnits="userSpaceOnUse">
<stop stop-color="#FFC444"/>
<stop offset="1" stop-color="#F36F56"/>
</linearGradient>
<linearGradient id="paint29_linear" x1="-839759" y1="9319.3" x2="-876236" y2="-103046" gradientUnits="userSpaceOnUse">
<stop stop-color="#FFC444"/>
<stop offset="1" stop-color="#F36F56"/>
</linearGradient>
<linearGradient id="paint30_linear" x1="-1.13862e+06" y1="11147.7" x2="-1.17843e+06" y2="-105663" gradientUnits="userSpaceOnUse">
<stop stop-color="#FFC444"/>
<stop offset="1" stop-color="#F36F56"/>
</linearGradient>
<linearGradient id="paint31_linear" x1="85790" y1="113856" x2="83364.7" y2="111054" gradientUnits="userSpaceOnUse">
<stop stop-color="#FFC444"/>
<stop offset="1" stop-color="#F36F56"/>
</linearGradient>
<linearGradient id="paint32_linear" x1="33427.5" y1="115770" x2="39676.9" y2="132295" gradientUnits="userSpaceOnUse">
<stop stop-color="#E38DDD"/>
<stop offset="1" stop-color="#9571F6"/>
</linearGradient>
<linearGradient id="paint33_linear" x1="36729.5" y1="462076" x2="69347.7" y2="462076" gradientUnits="userSpaceOnUse">
<stop stop-color="#AA80F9"/>
<stop offset="1" stop-color="#6165D7"/>
</linearGradient>
<linearGradient id="paint34_linear" x1="24343.4" y1="6700.98" x2="37718" y2="6700.98" gradientUnits="userSpaceOnUse">
<stop stop-color="#AA80F9"/>
<stop offset="1" stop-color="#6165D7"/>
</linearGradient>
<linearGradient id="paint35_linear" x1="20712.6" y1="7550.16" x2="34087.2" y2="7550.16" gradientUnits="userSpaceOnUse">
<stop stop-color="#AA80F9"/>
<stop offset="1" stop-color="#6165D7"/>
</linearGradient>
<linearGradient id="paint36_linear" x1="17081.7" y1="8412.86" x2="30456.3" y2="8412.86" gradientUnits="userSpaceOnUse">
<stop stop-color="#AA80F9"/>
<stop offset="1" stop-color="#6165D7"/>
</linearGradient>
<linearGradient id="paint37_linear" x1="13293.1" y1="9302.8" x2="26667.7" y2="9302.8" gradientUnits="userSpaceOnUse">
<stop stop-color="#AA80F9"/>
<stop offset="1" stop-color="#6165D7"/>
</linearGradient>
<linearGradient id="paint38_linear" x1="9662.29" y1="10152.2" x2="23036.9" y2="10152.2" gradientUnits="userSpaceOnUse">
<stop stop-color="#AA80F9"/>
<stop offset="1" stop-color="#6165D7"/>
</linearGradient>
<linearGradient id="paint39_linear" x1="57360" y1="480160" x2="92154.1" y2="480160" gradientUnits="userSpaceOnUse">
<stop stop-color="#AA80F9"/>
<stop offset="1" stop-color="#6165D7"/>
</linearGradient>
<linearGradient id="paint40_linear" x1="132721" y1="248532" x2="157520" y2="248532" gradientUnits="userSpaceOnUse">
<stop stop-color="#40447E"/>
<stop offset="1" stop-color="#3C3B6B"/>
</linearGradient>
<linearGradient id="paint41_linear" x1="212135" y1="269376" x2="273572" y2="269376" gradientUnits="userSpaceOnUse">
<stop stop-color="#444B8C"/>
<stop offset="1" stop-color="#26264F"/>
</linearGradient>
<linearGradient id="paint42_linear" x1="213936" y1="222878" x2="201299" y2="266146" gradientUnits="userSpaceOnUse">
<stop stop-color="#AA80F9"/>
<stop offset="1" stop-color="#6165D7"/>
</linearGradient>
<linearGradient id="paint43_linear" x1="201659" y1="248664" x2="254914" y2="248664" gradientUnits="userSpaceOnUse">
<stop stop-color="#AA80F9"/>
<stop offset="1" stop-color="#6165D7"/>
</linearGradient>
</defs>
</svg>
