<svg width="475" height="554" viewBox="0 0 475 554" fill="none" xmlns="http://www.w3.org/2000/svg">
<path d="M217.224 512.035C214.066 510.537 208.504 504.498 207.704 502.325C202.376 487.862 190.646 461.434 196.566 446.252C197.575 443.659 210.169 445.027 212.606 443.136C220.847 442.058 223.773 442.196 231.104 437.312C252.747 422.912 229.441 375.158 274.38 375.582C307.295 375.893 329.214 394.379 341.012 346.886C352.81 299.393 416.965 226.665 455.492 274.936C477.602 302.641 436.288 332.897 441.34 366.719C446.139 398.86 427.043 417.856 392.299 424.964C357.554 432.071 369.113 449.926 369.15 478.999C369.191 513.926 318.812 503.794 295.953 497.138C277.533 491.764 227.043 490.533 217.224 512.035Z" fill="url(#paint0_linear)"/>
<g style="mix-blend-mode:soft-light" opacity="0.8">
<g style="mix-blend-mode:soft-light" opacity="0.8">
<path d="M202.102 475.682L202.018 475.091C230.947 471.023 259.063 462.457 285.351 449.703C310.522 437.472 334.02 421.376 355.216 401.859C396.358 363.95 428.109 313.729 447.035 256.629L447.6 256.817C428.649 314.014 396.837 364.321 355.619 402.298C334.389 421.862 310.834 437.994 285.612 450.247C259.268 463.026 231.092 471.608 202.102 475.682V475.682Z" fill="#FCFDFE"/>
</g>
<g style="mix-blend-mode:soft-light" opacity="0.8">
<path d="M370.862 493.452C345.545 474.98 298.252 459.377 265.439 458.681L265.451 458.084C298.366 458.781 345.813 474.43 371.213 492.969L370.862 493.452Z" fill="#FCFDFE"/>
</g>
<g style="mix-blend-mode:soft-light" opacity="0.8">
<path d="M224.301 472.282L224.057 471.736C239.639 464.747 251.089 450.141 258.093 428.329C263.225 412.343 265.893 392.929 266.021 370.626H266.619C266.488 392.991 263.812 412.465 258.661 428.509C251.606 450.492 240.046 465.218 224.301 472.282Z" fill="#FCFDFE"/>
</g>
<g style="mix-blend-mode:soft-light" opacity="0.8">
<path d="M361.283 396.662L361.012 396.129C389.647 381.468 423.186 385.926 446.27 392.248L446.112 392.824C423.125 386.531 389.744 382.089 361.283 396.662Z" fill="#FCFDFE"/>
</g>
<g style="mix-blend-mode:soft-light" opacity="0.8">
<path d="M408.151 339.818L407.598 339.593C413.451 325.145 420.777 294.329 404.072 250.214L404.63 250.003C410.269 264.892 413.739 280.381 414.661 294.796C415.724 311.385 413.534 326.533 408.151 339.818Z" fill="#FCFDFE"/>
</g>
</g>
<path d="M295.141 551.734C277.559 549.144 259.998 546.149 242.458 542.747C242.172 543.005 236.409 504.745 254.564 484.678C290.472 445.807 266.284 410.92 259.385 390.248C248.456 361.126 254.205 329.579 283.822 329.111C316.669 327.946 322.624 273.529 316.671 224.017C312.068 199.874 334.826 170.578 357.536 163.883C380.719 156.464 403.856 171.648 410.946 219.775C421.678 275.499 381.054 309.101 366.013 337.039C351.218 364.466 385.643 386.655 357.929 410.955C334.617 432.547 305.23 448.066 315.985 475.191C327.025 502.016 324.378 523.937 295.141 551.734Z" fill="url(#paint1_linear)"/>
<g style="mix-blend-mode:soft-light" opacity="0.8">
<g style="mix-blend-mode:soft-light" opacity="0.8">
<path d="M271.568 554H270.972C270.972 553.667 287.762 473.191 316.741 394.848C320.742 382.162 325.09 369.368 329.292 356.995C340.55 323.864 352.192 289.598 357.719 255.483C363.898 217.347 361.696 182.999 350.985 150.475L351.552 150.289C362.294 182.906 364.504 217.354 358.308 255.579C352.772 289.742 341.122 324.027 329.856 357.182C325.653 369.551 321.308 382.34 317.303 395.036C288.434 473.096 271.607 553.544 271.568 554Z" fill="#FCFDFE"/>
</g>
<g style="mix-blend-mode:soft-light" opacity="0.8">
<path d="M350.217 292.904L349.773 292.505C369.378 270.705 393.03 239.715 405.738 223.069C415.652 210.078 416.001 209.717 416.385 209.779L416.292 210.369L416.339 210.073L416.452 210.343C415.953 210.676 411.654 216.302 406.211 223.431C393.499 240.084 369.838 271.082 350.217 292.904Z" fill="#FCFDFE"/>
</g>
<g style="mix-blend-mode:soft-light" opacity="0.8">
<path d="M356.243 263.031C352.18 237.994 341.873 221.534 333.94 212.135C325.106 201.666 317.15 197.256 316.345 197.183C316.392 197.183 316.438 197.168 316.477 197.141L316.144 196.642C316.3 196.537 316.505 196.567 316.954 196.763C319.115 197.705 327.221 202.779 335.722 213.355C346.431 226.68 353.731 243.824 356.835 262.933L356.243 263.031Z" fill="#FCFDFE"/>
</g>
<g style="mix-blend-mode:soft-light" opacity="0.8">
<path d="M300.097 446.06L299.505 445.99C302.271 422.731 296.857 397.712 283.413 371.63C276.403 358.029 267.462 344.706 256.839 332.023C256.106 331.146 255.804 330.785 255.721 330.639L256.238 330.339C256.299 330.446 256.736 330.971 257.298 331.639C267.948 344.348 276.915 357.709 283.943 371.349C297.447 397.546 302.878 422.679 300.097 446.06Z" fill="#FCFDFE"/>
</g>
<g style="mix-blend-mode:soft-light" opacity="0.8">
<path d="M308.03 421.561L307.521 421.246C328.587 387.176 372.99 384.802 373.369 384.923L373.592 385.203L373.387 385.497L373.292 385.218L373.264 385.509C372.478 385.509 328.913 387.785 308.03 421.561ZM373.196 384.931L373.291 385.213L373.196 384.931Z" fill="#FCFDFE"/>
</g>
<g style="mix-blend-mode:soft-light" opacity="0.8">
<path d="M274.506 540.873L273.909 540.85C274.282 530.72 270.666 513.452 251.325 488.722C250.291 487.401 250.291 487.401 250.316 487.225L250.908 487.31L250.612 487.268L250.888 487.161C250.94 487.26 251.335 487.767 251.796 488.353C271.243 513.225 274.878 530.642 274.506 540.873Z" fill="#FCFDFE"/>
</g>
<g style="mix-blend-mode:soft-light" opacity="0.8">
<path d="M278.971 521.792L278.396 521.626C280.622 513.938 289.386 498.872 323.071 484.349C323.538 484.148 323.839 484.016 323.947 483.963L324.22 484.496C324.109 484.552 323.795 484.689 323.307 484.898C289.848 499.323 281.167 514.205 278.971 521.792Z" fill="#FCFDFE"/>
</g>
</g>
<path d="M273.153 38.7213C292.48 30.567 310.911 32.762 320.112 36.2251C330.991 40.3222 334.6 43.3975 344.23 44.9452C352.79 46.3214 361.676 37.3833 368.348 43.7004C368.962 44.2565 369.506 44.8839 369.971 45.5692C374.75 52.6019 369.105 61.0957 370.667 75.9365C371.467 83.53 373.4 85.6385 375.189 100.233C375.869 105.783 375.728 106.6 375.537 107.241C372.614 117.089 349.422 115.229 333.099 110.978C310.595 105.121 303.35 95.2972 288.573 99.7654C281.757 101.827 276.577 105.951 273.267 109.11C274.775 85.7533 271.645 62.0809 273.153 38.7213Z" fill="url(#paint2_linear)"/>
<path d="M273.395 257.932C273.154 257.932 272.923 257.836 272.752 257.666C272.582 257.495 272.486 257.263 272.486 257.022V31.7768C272.486 31.5354 272.582 31.3038 272.752 31.1331C272.923 30.9624 273.154 30.8665 273.395 30.8665C273.637 30.8665 273.868 30.9624 274.038 31.1331C274.209 31.3038 274.305 31.5354 274.305 31.7768V257.022C274.305 257.142 274.282 257.26 274.236 257.371C274.19 257.481 274.123 257.582 274.039 257.666C273.954 257.751 273.854 257.818 273.744 257.863C273.633 257.909 273.515 257.932 273.395 257.932V257.932Z" fill="#26264F"/>
<path d="M269.406 115.328L271.033 113.055C271.033 113.055 270.721 111.864 271.251 110.99L271.78 110.116C271.78 110.116 272.469 109.469 273.791 109.923C273.937 109.975 274.094 109.992 274.248 109.973C274.402 109.953 274.55 109.898 274.679 109.812C275.458 109.273 275.666 110.757 275.666 110.757C275.666 110.757 276.231 111.423 275.724 111.994C275.724 111.994 275.658 112.839 275.03 113.273C274.401 113.708 272.702 114.422 272.702 114.422L270.884 116.613L269.406 115.328Z" fill="url(#paint3_linear)"/>
<path d="M269.148 112.93C257.511 117.572 250.03 115.759 246.556 114.448C242.184 112.804 237.993 109.789 237.993 109.789C232.075 105.53 229.757 101.301 223.924 100.374C222.874 100.21 221.809 100.168 220.75 100.25C212.335 100.995 202.963 112.143 204.171 119.554C206.261 132.408 242.009 145.648 261.639 131.338C267.956 126.731 271.123 120.354 272.737 116.027L269.148 112.93Z" fill="url(#paint4_linear)"/>
<path d="M193.153 245.802C192.674 246.243 192.644 247.274 192.624 247.946C192.602 248.131 192.611 248.318 192.651 248.5C192.942 249.256 194.438 249.246 196.794 249.342C200.514 249.495 201.633 249.72 201.889 249.151C202.128 248.618 201.42 247.819 201.34 247.723C200.913 247.247 200.414 247.094 199.452 246.841C197.673 246.373 196.474 246.13 196.112 246.057C193.846 245.596 193.467 245.513 193.153 245.802Z" fill="url(#paint5_linear)"/>
<path d="M195.763 242.088L195.907 246.328C195.793 246.526 194.506 247.07 193.539 246.495L192.809 242.294L195.763 242.088Z" fill="url(#paint6_linear)"/>
<path d="M224.499 245.859C223.859 246.495 223.656 247.716 224.15 248.355C224.644 248.994 225.435 248.573 227.641 248.758C229.997 248.954 230.584 249.545 232.209 249.187C232.874 249.042 234.038 248.67 234.038 248.205C234.038 247.873 233.466 247.679 231.556 246.924C228.845 245.851 228.86 245.801 228.278 245.671C226.81 245.343 225.345 245.019 224.499 245.859Z" fill="url(#paint7_linear)"/>
<path d="M226.216 242.088L227.191 246.082C227.089 246.29 225.849 246.931 224.84 246.428L223.287 242.511L226.216 242.088Z" fill="url(#paint8_linear)"/>
<path d="M220.312 155.233C219.114 184.762 221.458 214.328 227.294 243.298L222.7 244.275C219.061 240.495 214.53 234.609 212.623 226.532C211.439 221.517 212.056 219.006 211.459 212.886C210.513 203.14 207.824 197.908 205.18 189.959C202.805 182.803 200.103 172.352 199.093 158.518L220.312 155.233Z" fill="url(#paint9_linear)"/>
<path style="mix-blend-mode:multiply" opacity="0.3" d="M218.192 217.159C216.505 210.474 213.256 208.705 213.142 202.396C213.058 197.933 214.661 197.57 214.555 193.295C214.388 186.815 210.601 183.419 208.696 179.341C206.685 175.036 205.913 168.122 211.336 156.621L199.094 158.518C200.105 172.352 202.806 182.814 205.182 189.959C207.825 197.917 210.515 203.14 211.461 212.886C212.054 219.005 211.438 221.516 212.625 226.532C214.531 234.609 219.063 240.495 222.702 244.275L223.866 244.027C219.931 239.325 218.546 235.127 218.19 231.712C217.617 226.177 219.891 223.899 218.192 217.159Z" fill="url(#paint10_linear)"/>
<path d="M205.001 154.401C203.179 171.194 201.51 188.306 199.995 205.735C198.865 218.813 197.855 231.729 196.966 244.484L192.312 244.817C190.405 240.765 189.009 236.491 188.156 232.093C186.861 225.395 187.452 221.491 187.095 214.601C186.694 206.876 185.599 205.139 184.04 195.336C180.858 175.439 179.265 165.491 184.312 159.625C185.945 157.714 191.013 152.99 205.001 154.401Z" fill="url(#paint11_linear)"/>
<path d="M164.799 102.187C184.12 95.5623 204.995 94.9727 224.659 100.496L227.162 114.518C227.415 120.697 227.324 126.885 226.891 133.053C226.364 140.554 225.851 140.667 224.645 151.254C222.68 168.516 223.502 173.026 220.037 175.1C217.783 176.449 216.967 174.822 205.465 173.68C197.751 172.914 193.814 172.558 189.909 173.881C184.59 175.684 182.811 178.707 180.617 177.724C178.512 176.78 178.244 173.144 177.99 166.804C177.598 157.024 177.623 150.377 177.586 147.999C177.42 137.08 174.659 128.745 171.123 118.069C169.33 112.655 167.218 107.351 164.799 102.187Z" fill="url(#paint12_linear)"/>
<path d="M200.59 86.0179C200.501 88.1695 200.194 90.3065 199.676 92.3965C199.254 94.0873 198.991 94.515 198.667 94.8562C198.18 95.3704 197.46 95.7864 193.482 96.5503C191.321 96.9663 191.042 96.938 190.988 97.1477C190.702 98.1711 196.343 102.012 202.409 101.484C206.121 101.16 209.586 99.2345 209.439 98.1179C209.293 97.0012 205.579 97.3956 204.589 95.3238C203.9 93.8843 204.863 91.9422 205.962 90.3513C205.076 88.4608 201.472 87.9067 200.59 86.0179Z" fill="url(#paint13_linear)"/>
<path d="M207.371 87.469C208.302 86.359 208.464 84.3421 207.538 83.0124C206.733 81.8675 205.385 81.6395 204.577 81.5014C202.238 81.1037 199.214 81.9291 198.065 84.0425C197.385 85.2956 198.564 88.0365 198.749 88.5274C198.955 89.0832 199.37 89.2929 199.746 89.7239C200.261 90.323 201.076 91.2733 202.381 92.8625C202.542 92.3219 202.751 91.7963 203.003 91.2916C203.329 90.6356 203.738 90.0243 204.22 89.4727C205.516 88.0398 206.489 88.5208 207.371 87.469Z" fill="url(#paint14_linear)"/>
<path d="M200.449 91.483C200.449 91.483 201.862 94.1073 204.954 94.0707C207.722 94.0391 208.457 87.8668 206.765 86.4589C206.199 85.988 205.032 85.7433 204.062 85.9597C203.486 86.0878 203.284 86.3125 202.341 86.5039C201.473 86.6803 201.235 86.5721 200.964 86.7768C200.632 87.0314 200.354 87.6871 200.798 89.5276C200.3 88.9651 199.679 88.7271 199.221 88.9152C199.064 88.9886 198.93 89.1037 198.833 89.248C198.411 89.942 199.008 90.8789 200.449 91.483Z" fill="url(#paint15_linear)"/>
<path d="M200.861 86.4007C200.989 86.5072 200.557 86.9831 200.489 87.6837C200.356 89.0467 201.653 90.7591 203.051 90.9737C203.882 91.1002 204.135 90.6093 205.518 90.5377C206.19 90.5048 206.864 90.5801 207.513 90.7607C207.865 92.2817 207.38 93.7562 206.349 94.3919C205.234 95.0792 203.882 94.5583 203.317 94.3336C202.939 94.1872 201.729 93.7179 201.146 92.553C200.537 91.3382 201.234 90.6625 200.506 89.8238C200.14 89.4011 199.64 89.1997 199.184 88.3943C199.086 88.2213 199.002 88.041 198.931 87.8551C199.683 87.1379 200.675 86.2476 200.861 86.4007Z" fill="url(#paint16_linear)"/>
<path d="M206.487 91.2633C206.487 91.2633 205.875 91.5429 204.848 91.4297C204.798 91.4297 204.741 91.4297 204.735 91.4613C204.705 91.5578 205.343 92.0321 205.96 91.8923C206.399 91.7941 206.758 91.4031 206.705 91.2949C206.68 91.25 206.583 91.25 206.487 91.2633Z" fill="url(#paint17_linear)"/>
<path d="M172.536 148.006L175.312 147.851C175.312 147.851 178.353 145.303 179.737 145.461C181.122 145.619 183.192 146.583 183.444 146.792C183.697 147.002 182.688 148.124 181.677 148.014C180.667 147.904 178.414 148.45 178.01 149.345C177.606 150.241 175.849 150.775 175.56 150.252L171.829 150.993L172.536 148.006Z" fill="url(#paint18_linear)"/>
<path d="M173.375 147.034C173.57 149.314 173.074 150.861 172.246 151.923C168.578 156.629 156.11 154.705 148.699 148.402C143.213 143.742 140.308 136.49 140.416 129.998C140.624 117.332 152.353 104.919 169.796 100.631L177.543 123.812C166.789 123.979 160.254 132.091 161.223 137.886C161.945 142.201 166.973 146.08 173.375 147.034Z" fill="url(#paint19_linear)"/>
<path style="mix-blend-mode:multiply" opacity="0.3" d="M215.565 169.433C209.913 167.017 209.94 162.016 204.657 159.928C197.116 156.95 188.786 163.868 187.486 161.951C186.131 159.954 196.082 153.832 194.757 147.794C193.706 142.997 186.761 143.847 183.04 137.279C179.513 131.048 182.932 125.297 179.809 123.123C178.688 122.346 176.712 122.04 172.963 123.691C175.576 131.862 177.451 139.066 177.586 147.997C177.623 150.377 177.598 157.024 177.99 166.802C178.244 173.143 178.512 176.787 180.617 177.722C182.811 178.707 184.59 175.682 189.91 173.88C193.815 172.548 197.751 172.913 205.465 173.678C216.967 174.82 217.783 176.447 220.037 175.098C221.505 174.221 222.198 172.9 222.669 170.363C220.363 170.613 217.918 170.437 215.565 169.433Z" fill="url(#paint20_linear)"/>
<path d="M185.734 311.203C153.705 312.341 121.69 313.639 89.6899 315.096C80.8692 315.498 73.6793 305.745 73.4848 293.295L73.3551 284.87C73.1606 272.429 80.0762 261.612 88.9452 260.713C121.103 257.451 153.29 254.349 185.508 251.407C185.584 271.338 185.659 291.27 185.734 311.203Z" fill="#D8DEE8"/>
<path d="M172.227 313.972C145.119 315.184 118.022 316.508 90.9351 317.945C79.4412 318.432 70.0819 305.695 69.8225 289.533C69.8225 289.473 69.8225 289.415 69.8225 289.355C69.5649 273.192 78.5585 259.067 90.1255 257.861C117.356 254.499 144.612 251.251 171.896 248.117C173.33 247.979 189.996 249.42 190.001 251.193C190.006 252.965 174.461 254.354 173.044 254.491C145.398 257.436 117.782 260.496 90.1969 263.669C80.8559 264.586 73.558 275.983 73.7608 289.057C73.7608 289.117 73.7608 289.177 73.7608 289.236C73.9669 302.318 81.5591 312.586 90.8519 312.137C117.954 310.513 145.067 309.003 172.192 307.607C173.611 307.542 190.185 309.271 190.189 311.045C190.192 312.819 173.651 313.916 172.227 313.972Z" fill="url(#paint21_linear)"/>
<path d="M370.468 309.218C305.044 309.065 239.631 309.577 174.231 310.754L173.93 251.118C239.737 251.65 305.526 252.849 371.298 254.715C371.023 272.883 370.746 291.051 370.468 309.218Z" fill="#F4F7FA"/>
<path d="M372.888 257.847C305.919 256.033 238.929 254.912 171.919 254.484C170.561 254.476 169.452 253.041 169.442 251.282C169.432 249.523 170.529 248.106 171.887 248.12C238.938 248.734 305.968 250.041 372.978 252.043C374.107 252.076 375.001 253.402 374.973 255.005C374.945 256.608 374.016 257.879 372.888 257.847Z" fill="url(#paint22_linear)"/>
<path d="M372.047 312.125C305.425 312.052 238.818 312.668 172.227 313.972C170.88 313.999 169.773 312.594 169.765 310.834C169.756 309.073 170.843 307.63 172.193 307.607C238.826 306.486 305.474 306.057 372.137 306.317C373.261 306.317 374.15 307.624 374.132 309.226C374.114 310.829 373.17 312.127 372.047 312.125Z" fill="url(#paint23_linear)"/>
<path d="M186.989 313.024H186.97L183.938 313L170.73 313.4L92.7321 316.122C90.4836 316.171 88.2594 316.598 86.1523 317.385C77.167 320.775 71.0527 330.449 71.726 341.609L71.7393 341.753C72.4791 354.103 81.2915 364.094 92.0638 365.625C93.1889 365.787 94.3257 365.852 95.4618 365.82L160.764 363.267L171.106 362.861L175.096 362.707L186.583 362.194L188.984 362.028H189.002L189.82 362.061L191.482 362.026L191.53 361.552L191.722 359.456L191.745 359.203L191.899 357.496L195.578 317.289L195.811 314.743L195.919 313.53L196.021 312.568L186.989 313.024Z" fill="url(#paint24_linear)"/>
<path d="M370.787 358.773L198.7 359.853C184.382 359.943 172.532 351.595 172.163 341.174L171.914 334.083C171.543 323.599 182.886 314.904 197.309 314.696L370.759 312.2L370.787 358.773Z" fill="#F4F7FA"/>
<path d="M372.646 361.226L191.386 362.284C178.986 362.357 168.541 351.409 168.051 337.821V337.671C167.552 324.025 177.289 312.709 189.793 312.528L372.624 309.832C373.924 309.813 374.976 310.92 374.976 312.305C374.976 313.689 373.924 314.824 372.627 314.841L189.948 317.387C179.874 317.527 172.02 326.628 172.408 337.636V337.786C172.793 348.751 181.218 357.59 191.231 357.521L372.637 356.305C373.926 356.296 374.965 357.393 374.965 358.756C374.965 360.119 373.932 361.217 372.646 361.226Z" fill="url(#paint25_linear)"/>
<path d="M189.424 403.248L186.576 403.345L176.175 403.698L170.629 403.889L123.084 405.497L121.089 405.568L112.061 405.873L97.598 406.362L91.753 406.56C89.9342 406.598 88.1391 406.982 86.4632 407.69C85.3095 408.178 84.2147 408.796 83.1999 409.531C76.0516 414.6 71.1774 425.585 71.1774 438.197V438.388C71.1774 455.596 80.2974 470.019 91.7912 470.545L186.605 473.194L192.636 473.36L192.968 469.995L193.135 468.363L198.734 412.429L199.126 409.208L199.55 405.713L199.699 403.483L199.723 402.904L189.424 403.248Z" fill="url(#paint26_linear)"/>
<path d="M370.915 406.86V464.903L323.645 466.774L203.565 471.513C199.955 471.666 196.348 471.152 192.925 469.996C182.475 466.439 175.069 457.127 175.069 445.902V435.884C175.069 422.579 185.516 411.421 199.044 409.208C200.557 408.959 202.085 408.825 203.618 408.807L308.863 407.582L370.915 406.86Z" fill="#F4F7FA"/>
<path d="M374.809 464.764C374.809 466.466 373.896 467.889 372.772 467.937L327.43 469.796L195.582 475.193C192.423 475.324 189.517 474.607 186.723 473.196C177.413 468.496 170.892 456.055 170.892 441.218V441.008C170.892 421.786 181.94 406.013 195.567 405.762H195.648L199.442 405.72L310.209 404.555L372.772 403.889H372.785C373.901 403.889 374.809 405.292 374.809 406.995C374.809 408.697 373.896 410.113 372.772 410.125L371.155 410.158L307.875 410.999L198.734 412.441L195.661 412.485C184.64 412.628 175.668 425.372 175.668 440.895V441.103C175.668 455.461 183.331 467.05 193.213 468.377C194.011 468.484 194.817 468.523 195.622 468.491L320.649 463.739L371.165 461.82L372.777 461.76C373.901 461.705 374.809 463.05 374.809 464.764Z" fill="url(#paint27_linear)"/>
<path d="M186.578 404.066L90.5527 406.229C81.7254 406.427 74.6884 399.433 74.6884 390.608V384.617C74.6884 375.797 81.7254 368.2 90.5527 367.643L186.578 361.643V404.066Z" fill="#D8DEE8"/>
<path d="M173.066 405.986L91.7563 408.263C80.2508 408.497 71.091 399.36 71.091 387.895V387.77C71.091 376.306 80.2508 366.389 91.7563 365.649L173.066 359.284C174.492 359.192 191.033 360.264 191.033 361.519C191.033 362.773 175.583 363.724 174.168 363.807L91.7563 369.768C82.4602 370.328 75.0292 378.325 75.0292 387.602V387.729C75.0292 397.008 82.4602 404.37 91.7563 404.142L173.066 401.48C174.482 401.443 191.033 402.718 191.033 403.976C191.033 405.234 174.491 405.955 173.066 405.986Z" fill="url(#paint28_linear)"/>
<path d="M370.917 363.243V401.897L311.052 402.453L199.57 403.481L190.481 403.565L186.561 403.601L176.16 403.696L175.071 403.708V361.42L185.657 361.439H185.67L191.02 361.53L191.527 361.557L238.417 362.003L370.917 363.243Z" fill="#F4F7FA"/>
<path d="M372.776 365.446L173.066 363.798C171.716 363.787 170.622 362.767 170.622 361.519C170.622 360.27 171.716 359.269 173.066 359.284L372.776 361.326C373.319 361.336 373.836 361.559 374.216 361.948C374.596 362.337 374.808 362.86 374.805 363.404C374.808 363.672 374.757 363.938 374.656 364.186C374.555 364.434 374.406 364.66 374.217 364.85C374.028 365.04 373.803 365.19 373.556 365.293C373.309 365.395 373.043 365.447 372.776 365.446Z" fill="url(#paint29_linear)"/>
<path d="M374.809 401.829C374.811 402.369 374.6 402.888 374.22 403.272C373.841 403.655 373.325 403.873 372.786 403.876H372.772L310.193 404.542L199.408 405.695L195.585 405.738L195.435 405.889L173.068 406.261H173.044C171.957 406.261 171.05 405.468 170.734 404.56C170.679 404.361 170.645 404.158 170.632 403.952C170.629 403.897 170.629 403.841 170.632 403.786C170.632 402.536 171.724 401.479 173.074 401.479H173.152L175.099 401.455L186.586 401.356L312.286 400.321L371.165 399.822L372.782 399.792C373.05 399.79 373.315 399.841 373.562 399.943C373.81 400.044 374.034 400.194 374.223 400.384C374.412 400.574 374.561 400.799 374.661 401.047C374.762 401.296 374.812 401.561 374.809 401.829V401.829Z" fill="url(#paint30_linear)"/>
<g style="mix-blend-mode:soft-light" opacity="0.5">
<path d="M165.595 465.531L144.15 464.304C138.969 449.517 139.361 435.258 144.15 417.91L165.595 417.976C161.296 435.686 161.951 451.349 165.595 465.531Z" fill="white"/>
</g>
<path style="mix-blend-mode:multiply" opacity="0.3" d="M121.149 407.93L120.468 381.157L95.8541 408.283C95.8541 408.283 82.5549 415.46 84.8374 428.061L100.053 421.995L113.569 426.683C113.569 426.683 113.908 413.453 121.149 407.93Z" fill="url(#paint31_linear)"/>
<path d="M93.0862 382.833L120.468 381.157C120.468 381.157 107.591 390.952 113.569 426.686C113.569 426.686 101.864 422.965 96.7784 416.592L84.8441 428.059C84.8441 428.059 77.5528 396.286 93.0862 382.833Z" fill="url(#paint32_linear)"/>
<path d="M103.576 269.107C102.502 268.716 101.352 269.165 101.008 270.105L25.8338 476.373C25.488 477.32 26.0798 478.403 27.1537 478.794C28.2276 479.185 29.378 478.736 29.7238 477.796L104.896 271.533C105.242 270.583 104.65 269.5 103.576 269.107Z" fill="url(#paint33_linear)"/>
<path d="M140.85 295.093H94.0537C92.9611 295.093 92.0754 295.979 92.0754 297.073V297.296C92.0754 298.39 92.9611 299.276 94.0537 299.276H140.85C141.943 299.276 142.829 298.39 142.829 297.296V297.073C142.829 295.979 141.943 295.093 140.85 295.093Z" fill="url(#paint34_linear)"/>
<path d="M127.117 332.747H80.3206C79.228 332.747 78.3423 333.634 78.3423 334.728V334.951C78.3423 336.044 79.228 336.931 80.3206 336.931H127.117C128.21 336.931 129.096 336.044 129.096 334.951V334.728C129.096 333.634 128.21 332.747 127.117 332.747Z" fill="url(#paint35_linear)"/>
<path d="M113.384 371.001H66.5875C65.4949 371.001 64.6093 371.887 64.6093 372.981V373.204C64.6093 374.298 65.4949 375.184 66.5875 375.184H113.384C114.477 375.184 115.362 374.298 115.362 373.204V372.981C115.362 371.887 114.477 371.001 113.384 371.001Z" fill="url(#paint36_linear)"/>
<path d="M99.0542 410.451H52.2576C51.165 410.451 50.2793 411.337 50.2793 412.431V412.654C50.2793 413.748 51.165 414.634 52.2576 414.634H99.0542C100.147 414.634 101.032 413.748 101.032 412.654V412.431C101.032 411.337 100.147 410.451 99.0542 410.451Z" fill="url(#paint37_linear)"/>
<path d="M85.3211 448.107H38.5245C37.432 448.107 36.5463 448.994 36.5463 450.088V450.311C36.5463 451.404 37.432 452.291 38.5245 452.291H85.3211C86.4137 452.291 87.2994 451.404 87.2994 450.311V450.088C87.2994 448.994 86.4137 448.107 85.3211 448.107Z" fill="url(#paint38_linear)"/>
<path d="M151.739 267.679C150.63 267.275 149.442 267.739 149.079 268.718L71.4451 481.993C71.0893 482.971 71.6994 484.093 72.8099 484.489C73.9204 484.885 75.1074 484.429 75.4698 483.45L153.104 270.175C153.46 269.205 152.848 268.085 151.739 267.679Z" fill="url(#paint39_linear)"/>
<path style="mix-blend-mode:multiply" opacity="0.3" d="M370.915 410.153V461.806L372.654 461.746C373.776 461.705 374.749 463.049 374.749 464.76C374.749 466.471 373.866 467.885 372.742 467.934L327.415 469.793C326.148 468.842 324.933 467.832 323.758 466.774C322.677 465.8 321.63 464.777 320.628 463.725C314.074 456.823 309.447 448.319 307.209 439.063C304.971 429.808 305.2 420.127 307.875 410.988C308.208 409.835 308.578 408.699 308.987 407.582C309.356 406.567 309.758 405.568 310.193 404.586C310.504 403.869 310.833 403.159 311.173 402.458C311.514 401.757 311.89 401.03 312.277 400.331C315.251 394.872 319.13 389.958 323.748 385.8C333.722 374.713 348.032 367.726 364.065 367.726C366.428 367.726 369.133 367.875 370.924 368.173V399.84L372.662 399.829C373.207 399.825 373.731 400.036 374.121 400.416C374.512 400.796 374.737 401.314 374.749 401.859C374.756 402.398 374.551 402.919 374.177 403.308C373.804 403.698 373.293 403.924 372.754 403.939C373.869 403.939 374.792 405.307 374.792 407.011C374.792 408.715 373.766 410.113 372.644 410.125L370.915 410.153Z" fill="url(#paint40_linear)"/>
<path d="M404.506 464.771C425.746 443.509 425.746 409.036 404.506 387.773C383.265 366.511 348.828 366.511 327.588 387.773C306.348 409.036 306.348 443.509 327.588 464.771C348.828 486.034 383.265 486.034 404.506 464.771Z" fill="url(#paint41_linear)"/>
<path d="M370.149 476.611C400.187 476.611 424.538 452.234 424.538 422.165C424.538 392.095 400.187 367.719 370.149 367.719C340.111 367.719 315.76 392.095 315.76 422.165C315.76 452.234 340.111 476.611 370.149 476.611Z" fill="url(#paint42_linear)"/>
<path d="M420.786 422.161C420.786 450.159 398.117 472.853 370.149 472.853C363.499 472.853 356.914 471.542 350.77 468.995C344.626 466.448 339.043 462.714 334.341 458.007C329.639 453.3 325.909 447.711 323.364 441.561C320.819 435.41 319.51 428.818 319.51 422.161C319.51 394.164 342.179 371.47 370.149 371.47C370.616 371.47 371.08 371.47 371.544 371.49C398.865 372.237 420.786 394.637 420.786 422.161Z" fill="url(#paint43_linear)"/>
<path d="M370.149 398.872L324.672 412.747L370.149 426.625L415.626 412.747L370.149 398.872Z" fill="white"/>
<path d="M370.149 431.489L341.526 422.755V442.707C341.525 444.296 342.07 445.837 343.068 447.072C344.067 448.308 345.459 449.162 347.011 449.493C362.384 452.755 377.162 452.857 391.314 449.6C392.837 449.245 394.194 448.384 395.164 447.157C396.135 445.931 396.662 444.411 396.659 442.847V423.399L370.149 431.489Z" fill="white"/>
<path d="M335.205 439.765C332.718 440.874 330.544 440.898 328.682 439.835C328.417 439.68 328.208 439.446 328.084 439.166C327.959 438.886 327.926 438.574 327.989 438.274L332.037 418.128L336.055 438.122C336.121 438.452 336.072 438.794 335.918 439.093C335.763 439.391 335.512 439.628 335.205 439.765V439.765Z" fill="white"/>
<path d="M370.149 410.692L331.448 414.809V421.529H332.595L332.713 415.64L370.149 410.692Z" fill="white"/>
<g style="mix-blend-mode:soft-light" opacity="0.6">
<path d="M420.786 422.161C420.786 450.159 398.117 472.853 370.149 472.853C360.546 472.869 351.139 470.136 343.037 464.977C347.8 452.01 361.566 438.089 375.816 429.364C402.198 413.222 382.151 384.046 371.544 371.488C398.865 372.237 420.786 394.637 420.786 422.161Z" fill="white"/>
</g>
<defs>
<linearGradient id="paint0_linear" x1="472.149" y1="334.044" x2="-78.0473" y2="610.645" gradientUnits="userSpaceOnUse">
<stop stop-color="#E38DDD"/>
<stop offset="1" stop-color="#9571F6"/>
</linearGradient>
<linearGradient id="paint1_linear" x1="357.847" y1="171.308" x2="288.134" y2="546.979" gradientUnits="userSpaceOnUse">
<stop stop-color="#FFC444"/>
<stop offset="1" stop-color="#F36F56"/>
</linearGradient>
<linearGradient id="paint2_linear" x1="280030" y1="62063.5" x2="209259" y2="57654.8" gradientUnits="userSpaceOnUse">
<stop stop-color="#FFC444"/>
<stop offset="1" stop-color="#F36F56"/>
</linearGradient>
<linearGradient id="paint3_linear" x1="-9382.81" y1="9776.62" x2="-9748.07" y2="10147.8" gradientUnits="userSpaceOnUse">
<stop stop-color="#FFC444"/>
<stop offset="1" stop-color="#F36F56"/>
</linearGradient>
<linearGradient id="paint4_linear" x1="137.263" y1="123.754" x2="253.436" y2="117.758" gradientUnits="userSpaceOnUse">
<stop stop-color="#FF9085"/>
<stop offset="1" stop-color="#FB6FBB"/>
</linearGradient>
<linearGradient id="paint5_linear" x1="201.192" y1="248.462" x2="191.961" y2="249.292" gradientUnits="userSpaceOnUse">
<stop stop-color="#444B8C"/>
<stop offset="1" stop-color="#26264F"/>
</linearGradient>
<linearGradient id="paint6_linear" x1="-1240.66" y1="8835.12" x2="-1391.93" y2="8655.05" gradientUnits="userSpaceOnUse">
<stop stop-color="#FFC444"/>
<stop offset="1" stop-color="#F36F56"/>
</linearGradient>
<linearGradient id="paint7_linear" x1="-4359.85" y1="8982.57" x2="-4947.55" y2="9108.37" gradientUnits="userSpaceOnUse">
<stop stop-color="#444B8C"/>
<stop offset="1" stop-color="#26264F"/>
</linearGradient>
<linearGradient id="paint8_linear" x1="-640.297" y1="8913.63" x2="-794.559" y2="8715.37" gradientUnits="userSpaceOnUse">
<stop stop-color="#FFC444"/>
<stop offset="1" stop-color="#F36F56"/>
</linearGradient>
<linearGradient id="paint9_linear" x1="231.211" y1="230.125" x2="208.195" y2="169.795" gradientUnits="userSpaceOnUse">
<stop stop-color="#311944"/>
<stop offset="1" stop-color="#893976"/>
</linearGradient>
<linearGradient id="paint10_linear" x1="51571.7" y1="140879" x2="34708.3" y2="130135" gradientUnits="userSpaceOnUse">
<stop stop-color="#311944"/>
<stop offset="1" stop-color="#893976"/>
</linearGradient>
<linearGradient id="paint11_linear" x1="52350.4" y1="154285" x2="34779" y2="145421" gradientUnits="userSpaceOnUse">
<stop stop-color="#311944"/>
<stop offset="1" stop-color="#893976"/>
</linearGradient>
<linearGradient id="paint12_linear" x1="92214.1" y1="105266" x2="115099" y2="64549.7" gradientUnits="userSpaceOnUse">
<stop stop-color="#FF9085"/>
<stop offset="1" stop-color="#FB6FBB"/>
</linearGradient>
<linearGradient id="paint13_linear" x1="26210.3" y1="19990.7" x2="27428.4" y2="17737.1" gradientUnits="userSpaceOnUse">
<stop stop-color="#FFC444"/>
<stop offset="1" stop-color="#F36F56"/>
</linearGradient>
<linearGradient id="paint14_linear" x1="196.354" y1="99.9026" x2="204.234" y2="82.5084" gradientUnits="userSpaceOnUse">
<stop stop-color="#311944"/>
<stop offset="1" stop-color="#6B3976"/>
</linearGradient>
<linearGradient id="paint15_linear" x1="12093.8" y1="5032.58" x2="12092.1" y2="6307.26" gradientUnits="userSpaceOnUse">
<stop stop-color="#FFC444"/>
<stop offset="1" stop-color="#F36F56"/>
</linearGradient>
<linearGradient id="paint16_linear" x1="1771.75" y1="5638.7" x2="1431.08" y2="4737.64" gradientUnits="userSpaceOnUse">
<stop stop-color="#311944"/>
<stop offset="1" stop-color="#6B3976"/>
</linearGradient>
<linearGradient id="paint17_linear" x1="205.818" y1="90.495" x2="205.291" y2="93.7199" gradientUnits="userSpaceOnUse">
<stop stop-color="#FFC444"/>
<stop offset="1" stop-color="#F36F56"/>
</linearGradient>
<linearGradient id="paint18_linear" x1="17011.7" y1="6682.63" x2="17043.5" y2="6886.77" gradientUnits="userSpaceOnUse">
<stop stop-color="#FFC444"/>
<stop offset="1" stop-color="#F36F56"/>
</linearGradient>
<linearGradient id="paint19_linear" x1="47975.6" y1="65647.1" x2="64006.2" y2="40135.5" gradientUnits="userSpaceOnUse">
<stop stop-color="#FF9085"/>
<stop offset="1" stop-color="#FB6FBB"/>
</linearGradient>
<linearGradient id="paint20_linear" x1="75573.7" y1="72990.5" x2="89892.5" y2="43317.6" gradientUnits="userSpaceOnUse">
<stop stop-color="#FF9085"/>
<stop offset="1" stop-color="#FB6FBB"/>
</linearGradient>
<linearGradient id="paint21_linear" x1="65.8078" y1="282.319" x2="199.621" y2="283.778" gradientUnits="userSpaceOnUse">
<stop stop-color="#AA80F9"/>
<stop offset="1" stop-color="#6165D7"/>
</linearGradient>
<linearGradient id="paint22_linear" x1="-992736" y1="10283.9" x2="-1.08532e+06" y2="-171511" gradientUnits="userSpaceOnUse">
<stop stop-color="#AA80F9"/>
<stop offset="1" stop-color="#6165D7"/>
</linearGradient>
<linearGradient id="paint23_linear" x1="-980859" y1="10945.3" x2="-1.04397e+06" y2="-144124" gradientUnits="userSpaceOnUse">
<stop stop-color="#AA80F9"/>
<stop offset="1" stop-color="#6165D7"/>
</linearGradient>
<linearGradient id="paint24_linear" x1="147.927" y1="293.901" x2="109.913" y2="421.815" gradientUnits="userSpaceOnUse">
<stop stop-color="#40447E"/>
<stop offset="1" stop-color="#3C3B6B"/>
</linearGradient>
<linearGradient id="paint25_linear" x1="634984" y1="122083" x2="892598" y2="122083" gradientUnits="userSpaceOnUse">
<stop stop-color="#40447E"/>
<stop offset="1" stop-color="#3C3B6B"/>
</linearGradient>
<linearGradient id="paint26_linear" x1="382234" y1="184100" x2="371117" y2="252419" gradientUnits="userSpaceOnUse">
<stop stop-color="#40447E"/>
<stop offset="1" stop-color="#3C3B6B"/>
</linearGradient>
<linearGradient id="paint27_linear" x1="287637" y1="210326" x2="537769" y2="210326" gradientUnits="userSpaceOnUse">
<stop stop-color="#40447E"/>
<stop offset="1" stop-color="#3C3B6B"/>
</linearGradient>
<linearGradient id="paint28_linear" x1="294894" y1="127928" x2="390978" y2="130499" gradientUnits="userSpaceOnUse">
<stop stop-color="#FFC444"/>
<stop offset="1" stop-color="#F36F56"/>
</linearGradient>
<linearGradient id="paint29_linear" x1="-972891" y1="10801" x2="-1.01518e+06" y2="-119420" gradientUnits="userSpaceOnUse">
<stop stop-color="#FFC444"/>
<stop offset="1" stop-color="#F36F56"/>
</linearGradient>
<linearGradient id="paint30_linear" x1="-1.31913e+06" y1="12920" x2="-1.36528e+06" y2="-122452" gradientUnits="userSpaceOnUse">
<stop stop-color="#FFC444"/>
<stop offset="1" stop-color="#F36F56"/>
</linearGradient>
<linearGradient id="paint31_linear" x1="99390.8" y1="131958" x2="96579.8" y2="128713" gradientUnits="userSpaceOnUse">
<stop stop-color="#FFC444"/>
<stop offset="1" stop-color="#F36F56"/>
</linearGradient>
<linearGradient id="paint32_linear" x1="38727" y1="134177" x2="45972.2" y2="153327" gradientUnits="userSpaceOnUse">
<stop stop-color="#E38DDD"/>
<stop offset="1" stop-color="#9571F6"/>
</linearGradient>
<linearGradient id="paint33_linear" x1="42552.5" y1="535544" x2="80341.9" y2="535544" gradientUnits="userSpaceOnUse">
<stop stop-color="#AA80F9"/>
<stop offset="1" stop-color="#6165D7"/>
</linearGradient>
<linearGradient id="paint34_linear" x1="28202.7" y1="7766.41" x2="43697.7" y2="7766.41" gradientUnits="userSpaceOnUse">
<stop stop-color="#AA80F9"/>
<stop offset="1" stop-color="#6165D7"/>
</linearGradient>
<linearGradient id="paint35_linear" x1="23996.3" y1="8750.64" x2="39491.2" y2="8750.64" gradientUnits="userSpaceOnUse">
<stop stop-color="#AA80F9"/>
<stop offset="1" stop-color="#6165D7"/>
</linearGradient>
<linearGradient id="paint36_linear" x1="19789.8" y1="9750.52" x2="35284.8" y2="9750.52" gradientUnits="userSpaceOnUse">
<stop stop-color="#AA80F9"/>
<stop offset="1" stop-color="#6165D7"/>
</linearGradient>
<linearGradient id="paint37_linear" x1="15400.6" y1="10781.8" x2="30895.5" y2="10781.8" gradientUnits="userSpaceOnUse">
<stop stop-color="#AA80F9"/>
<stop offset="1" stop-color="#6165D7"/>
</linearGradient>
<linearGradient id="paint38_linear" x1="11194.1" y1="11766.4" x2="26689.1" y2="11766.4" gradientUnits="userSpaceOnUse">
<stop stop-color="#AA80F9"/>
<stop offset="1" stop-color="#6165D7"/>
</linearGradient>
<linearGradient id="paint39_linear" x1="66453.7" y1="556503" x2="106764" y2="556503" gradientUnits="userSpaceOnUse">
<stop stop-color="#AA80F9"/>
<stop offset="1" stop-color="#6165D7"/>
</linearGradient>
<linearGradient id="paint40_linear" x1="153762" y1="288048" x2="182492" y2="288048" gradientUnits="userSpaceOnUse">
<stop stop-color="#40447E"/>
<stop offset="1" stop-color="#3C3B6B"/>
</linearGradient>
<linearGradient id="paint41_linear" x1="245766" y1="312206" x2="316944" y2="312206" gradientUnits="userSpaceOnUse">
<stop stop-color="#444B8C"/>
<stop offset="1" stop-color="#26264F"/>
</linearGradient>
<linearGradient id="paint42_linear" x1="247852" y1="258314" x2="233202" y2="308459" gradientUnits="userSpaceOnUse">
<stop stop-color="#AA80F9"/>
<stop offset="1" stop-color="#6165D7"/>
</linearGradient>
<linearGradient id="paint43_linear" x1="233629" y1="288201" x2="295327" y2="288201" gradientUnits="userSpaceOnUse">
<stop stop-color="#AA80F9"/>
<stop offset="1" stop-color="#6165D7"/>
</linearGradient>
</defs>
</svg>
