<svg width="26" height="26" viewBox="0 0 26 26" fill="none" xmlns="http://www.w3.org/2000/svg">
<g clip-path="url(#clip0)">
<path d="M17.9996 11.4203L7.64894 21.4769C6.93279 22.1727 5.77206 22.1723 5.0563 21.4767L3.75922 20.1855C3.04345 19.4897 3.04345 18.3619 3.75937 17.6665L14.1101 7.60986L17.9996 11.4203Z" fill="#528FC8"/>
<path opacity="0.4" d="M9.19196 7.52745L7.30515 6.76299L7.28988 6.74815L6.50307 4.91866C6.46488 4.84295 6.36557 4.78209 6.27772 4.78135C6.27743 4.78135 6.27802 4.78135 6.27772 4.78135C6.19068 4.78135 6.08805 4.84251 6.04928 4.91832L5.2587 6.75928L3.36272 7.52745C3.28519 7.56827 3.22217 7.66475 3.22217 7.7167C3.22217 7.80079 3.28527 7.90103 3.3628 7.93873L5.25877 8.70689L6.0494 10.549C6.0882 10.6248 6.1906 10.6861 6.27768 10.6861C6.27798 10.6861 6.27739 10.6861 6.27768 10.6861C6.36557 10.6855 6.46488 10.6558 6.50307 10.5815L7.29446 8.73981L9.18967 7.97127C9.26693 7.93387 9.32961 7.83501 9.33007 7.75092C9.32946 7.66846 9.26835 7.56456 9.19196 7.52745ZM12.3545 4.1876L11.8801 3.08248C11.8579 3.03688 11.8312 3.0001 11.7433 3.0001C11.6555 3.0001 11.6631 3.03688 11.6402 3.08241L11.1658 4.18753L10.0284 4.6485C9.98193 4.67111 9.94405 4.73051 9.94405 4.78124C9.94405 4.83167 9.98195 4.89142 10.0284 4.91406L11.1662 5.37495L11.6406 6.48007C11.6631 6.52586 11.7243 6.5626 11.7433 6.5626C11.7624 6.5626 11.8566 6.52578 11.8799 6.48026L12.3542 5.3744L13.4917 4.91424C13.5382 4.89163 13.5763 4.83189 13.5763 4.78143C13.5763 4.7307 13.5382 4.67129 13.4917 4.64869L12.3545 4.1876ZM22.6364 17.0274L20.7431 16.2604L19.9498 14.4172C19.9093 14.3444 19.81 14.2814 19.7222 14.2814C19.635 14.2814 19.5331 14.3427 19.4943 14.4185L18.7037 16.2602L16.8077 17.0287C16.7303 17.0664 16.6673 17.1653 16.6672 17.2497C16.6673 17.3336 16.7304 17.4337 16.8077 17.4712L18.701 18.2383L19.4943 20.0815C19.535 20.1558 19.6343 20.2189 19.7222 20.2189C19.8091 20.2189 19.911 20.1574 19.9498 20.0816L20.7404 18.2398L22.6367 17.4713C22.7142 17.4338 22.7774 17.3347 22.7775 17.2508C22.7433 17.1648 22.7128 17.0683 22.6364 17.0274ZM17.9996 11.4202L22.2392 7.30108C22.9572 6.60454 22.9572 5.47715 22.2392 4.78135L20.9436 3.52186C20.2279 2.82606 19.0667 2.82606 18.351 3.52179L14.1114 7.64093L15.6235 9.11009L19.6492 5.19876L20.5147 6.03854L16.489 9.94987L17.9996 11.4202Z" fill="#528FC8"/>
</g>
<defs>
<clipPath id="clip0">
<rect width="22" height="19" fill="white" transform="translate(2 3)"/>
</clipPath>
</defs>
</svg>
