<svg width="80" height="80" viewBox="0 0 80 80" fill="none" xmlns="http://www.w3.org/2000/svg">
<path d="M35 40C44.6651 40 52.5 47.8349 52.5 57.5C52.5 57.5924 52.4994 57.6848 52.4979 57.7771C52.4859 58.5566 52.8383 59.2975 53.451 59.7798C54.0636 60.2623 54.8661 60.4312 55.6213 60.2366C56.2192 60.0825 56.848 60 57.5 60C61.6421 60 65 63.3579 65 67.5C65 71.6421 61.6421 75 57.5 75H15C9.47716 75 5 70.5229 5 65C5 59.4771 9.47716 55 15 55C15.1687 55 15.3364 55.0042 15.5029 55.0124C16.6891 55.0709 17.7526 54.2869 18.0477 53.1366C19.9858 45.5815 26.8442 40 35 40ZM57.3627 55.0008C56.1196 43.7505 46.5817 35 35 35C25.1821 35 16.838 41.2863 13.7633 50.0503C6.05758 50.6792 0 57.1322 0 65C0 73.2842 6.71573 80 15 80H57.5C64.4036 80 70 74.4036 70 67.5C70 60.5964 64.4036 55 57.5 55C57.4541 55 57.4084 55.0002 57.3627 55.0008Z" fill="#289FC5"/>
<path d="M52.5 7.5C52.5 6.11928 51.3806 5 50 5C48.6192 5 47.5 6.11928 47.5 7.5V12.5C47.5 13.8807 48.6192 15 50 15C51.3806 15 52.5 13.8807 52.5 12.5V7.5ZM71.213 17.3223C72.1895 16.346 72.1895 14.763 71.213 13.7867C70.2368 12.8104 68.6539 12.8104 67.6777 13.7867L64.1421 17.3223C63.1657 18.2986 63.1657 19.8815 64.1421 20.8578C65.1183 21.8341 66.7013 21.8341 67.6777 20.8578L71.213 17.3223ZM32.3223 13.7867C31.3461 12.8104 29.7632 12.8104 28.7867 13.7867C27.8105 14.7631 27.8105 16.346 28.7867 17.3223L32.3223 20.8578C33.2987 21.8341 34.8815 21.8341 35.8579 20.8578C36.8341 19.8815 36.8341 18.2986 35.8579 17.3223L32.3223 13.7867ZM40.9909 30.6543C42.608 27.3082 46.0345 25 50 25C55.5229 25 60 29.4771 60 35C60 37.5512 59.0446 39.8794 57.472 41.6461C58.465 43.0514 59.3297 44.5539 60.0486 46.1366C63.089 43.3916 65 39.4189 65 35C65 26.7156 58.2842 19.9999 50 19.9999C43.464 19.9999 37.9044 24.1802 35.8491 30.0128C37.6097 30.0663 39.3286 30.2851 40.9909 30.6543ZM63.4124 51.024C66.4124 52.1006 69.033 53.9735 71.0198 56.3876C71.0865 56.3335 71.1511 56.2754 71.2133 56.2131C72.1895 55.2368 72.1895 53.6539 71.2133 52.6777L67.6777 49.1421C66.7013 48.1657 65.1185 48.1657 64.1421 49.1421C63.6248 49.6594 63.3817 50.3467 63.4124 51.024ZM72.5 32.5C71.1194 32.5 70 33.6192 70 35C70 36.3806 71.1194 37.5 72.5 37.5H77.5C78.8806 37.5 80 36.3806 80 35C80 33.6192 78.8806 32.5 77.5 32.5H72.5Z" fill="#289FC5"/>
</svg>
