<svg width="24" height="24" viewBox="0 0 24 24" fill="none" xmlns="http://www.w3.org/2000/svg">
<path d="M3.75 6C4.16421 6 4.5 5.66421 4.5 5.25C4.5 4.83579 4.16421 4.5 3.75 4.5C3.33579 4.5 3 4.83579 3 5.25C3 5.66421 3.33579 6 3.75 6Z" fill="#E2DDDD"/>
<path d="M6.75 5.25C6.75 5.66421 6.41421 6 6 6C5.58579 6 5.25 5.66421 5.25 5.25C5.25 4.83579 5.58579 4.5 6 4.5C6.41421 4.5 6.75 4.83579 6.75 5.25Z" fill="#E2DDDD"/>
<path d="M8.25 6C8.66421 6 9 5.66421 9 5.25C9 4.83579 8.66421 4.5 8.25 4.5C7.83579 4.5 7.5 4.83579 7.5 5.25C7.5 5.66421 7.83579 6 8.25 6Z" fill="#E2DDDD"/>
<path d="M3 1.5C1.34315 1.5 0 2.84315 0 4.5V19.5C0 21.1569 1.34315 22.5 3 22.5H21C22.6569 22.5 24 21.1569 24 19.5V4.5C24 2.84315 22.6569 1.5 21 1.5H3ZM21 3C21.8284 3 22.5 3.67157 22.5 4.5V7.5H1.5V4.5C1.5 3.67157 2.17157 3 3 3H21ZM1.5 19.5V9H7.5V21H3C2.17157 21 1.5 20.3284 1.5 19.5ZM9 21V9H22.5V19.5C22.5 20.3284 21.8284 21 21 21H9Z" fill="#E2DDDD"/>
</svg>
